%TF.GenerationSoftware,KiCad,Pcbnew,8.0.8*%
%TF.CreationDate,2025-07-12T12:46:12+02:00*%
%TF.ProjectId,lora_sensor_case-sensor_bottom,6c6f7261-5f73-4656-9e73-6f725f636173,rev?*%
%TF.SameCoordinates,Original*%
%TF.FileFunction,Soldermask,Bot*%
%TF.FilePolarity,Negative*%
%FSLAX46Y46*%
G04 Gerber Fmt 4.6, Leading zero omitted, Abs format (unit mm)*
G04 Created by KiCad (PCBNEW 8.0.8) date 2025-07-12 12:46:12*
%MOMM*%
%LPD*%
G01*
G04 APERTURE LIST*
%ADD10R,1.700000X1.700000*%
%ADD11O,1.700000X1.700000*%
%ADD12C,1.524000*%
G04 APERTURE END LIST*
D10*
%TO.C,J1*%
X126250000Y-122250000D03*
D11*
X128790000Y-122250000D03*
%TD*%
D12*
%TO.C,U1*%
X127500000Y-98540000D03*
X127500000Y-96000000D03*
X127500000Y-93460000D03*
X127500000Y-90920000D03*
X127500000Y-88380000D03*
X127500000Y-85840000D03*
X127500000Y-83300000D03*
X127500000Y-80760000D03*
X127500000Y-78220000D03*
X127500000Y-75680000D03*
X127500000Y-73140000D03*
X127500000Y-70600000D03*
X127500000Y-68060000D03*
X127500000Y-65520000D03*
X127500000Y-62980000D03*
X127500000Y-60440000D03*
X127500000Y-57900000D03*
X127500000Y-55360000D03*
X104640000Y-98540000D03*
X104640000Y-96000000D03*
X104640000Y-93460000D03*
X104640000Y-90920000D03*
X104640000Y-88380000D03*
X104640000Y-85840000D03*
X104640000Y-83300000D03*
X104640000Y-80760000D03*
X104640000Y-78220000D03*
X104640000Y-75680000D03*
X104640000Y-73140000D03*
X104640000Y-70600000D03*
X104640000Y-68060000D03*
X104640000Y-65520000D03*
X104640000Y-62980000D03*
X104640000Y-60440000D03*
X104640000Y-57900000D03*
X104640000Y-55360000D03*
%TD*%
D10*
%TO.C,U2*%
X108920000Y-130500000D03*
D11*
X111460000Y-130500000D03*
X114000000Y-130500000D03*
X116540000Y-130500000D03*
X119080000Y-130500000D03*
X121620000Y-130500000D03*
%TD*%
D12*
%TO.C,U4*%
X105500000Y-103500000D03*
X105500000Y-117500000D03*
X128000000Y-103500000D03*
X128000000Y-106500000D03*
X128000000Y-114500000D03*
X128000000Y-117500000D03*
%TD*%
D10*
%TO.C,J3*%
X146210000Y-48750000D03*
D11*
X148750000Y-48750000D03*
%TD*%
D10*
%TO.C,J2*%
X134000000Y-45130000D03*
D11*
X136540000Y-45130000D03*
X134000000Y-47670000D03*
X136540000Y-47670000D03*
X134000000Y-50210000D03*
X136540000Y-50210000D03*
X134000000Y-52750000D03*
X136540000Y-52750000D03*
%TD*%
M02*
