M48
; DRILL file {KiCad 8.0.8} date 2025-07-13T10:04:32+0200
; FORMAT={-:-/ absolute / inch / decimal}
; #@! TF.CreationDate,2025-07-13T10:04:32+02:00
; #@! TF.GenerationSoftware,Kicad,Pcbnew,8.0.8
; #@! TF.FileFunction,Plated,1,2,PTH
FMAT,2
INCH
; #@! TA.AperFunction,Plated,PTH,ViaDrill
T1C0.0118
; #@! TA.AperFunction,Plated,PTH,ComponentDrill
T2C0.0300
; #@! TA.AperFunction,Plated,PTH,ComponentDrill
T3C0.0394
%
G90
G05
T1
X4.2882Y-4.5799
X4.3898Y-2.6969
X4.7933Y-4.3996
X5.2165Y-3.2283
X5.2402Y-3.1594
T2
X4.1197Y-2.1795
X4.1197Y-2.2795
X4.1197Y-2.3795
X4.1197Y-2.4795
X4.1197Y-2.5795
X4.1197Y-2.6795
X4.1197Y-2.7795
X4.1197Y-2.8795
X4.1197Y-2.9795
X4.1197Y-3.0795
X4.1197Y-3.1795
X4.1197Y-3.2795
X4.1197Y-3.3795
X4.1197Y-3.4795
X4.1197Y-3.5795
X4.1197Y-3.6795
X4.1197Y-3.7795
X4.1197Y-3.8795
X4.1535Y-4.0748
X4.1535Y-4.626
X5.0197Y-2.1795
X5.0197Y-2.2795
X5.0197Y-2.3795
X5.0197Y-2.4795
X5.0197Y-2.5795
X5.0197Y-2.6795
X5.0197Y-2.7795
X5.0197Y-2.8795
X5.0197Y-2.9795
X5.0197Y-3.0795
X5.0197Y-3.1795
X5.0197Y-3.2795
X5.0197Y-3.3795
X5.0197Y-3.4795
X5.0197Y-3.5795
X5.0197Y-3.6795
X5.0197Y-3.7795
X5.0197Y-3.8795
X5.0394Y-4.0748
X5.0394Y-4.1929
X5.0394Y-4.5079
X5.0394Y-4.626
T3
X4.2882Y-5.1378
X4.3882Y-5.1378
X4.4882Y-5.1378
X4.5882Y-5.1378
X4.6882Y-5.1378
X4.7882Y-5.1378
X4.9705Y-4.813
X5.0705Y-4.813
X5.2756Y-1.7768
X5.2756Y-1.8768
X5.2756Y-1.9768
X5.2756Y-2.0768
X5.3756Y-1.7768
X5.3756Y-1.8768
X5.3756Y-1.9768
X5.3756Y-2.0768
X5.7563Y-1.9193
X5.8563Y-1.9193
M30
