%TF.GenerationSoftware,KiCad,Pcbnew,8.0.8*%
%TF.CreationDate,2025-07-12T12:46:12+02:00*%
%TF.ProjectId,lora_sensor_case-sensor_bottom,6c6f7261-5f73-4656-9e73-6f725f636173,rev?*%
%TF.SameCoordinates,Original*%
%TF.FileFunction,Legend,Top*%
%TF.FilePolarity,Positive*%
%FSLAX46Y46*%
G04 Gerber Fmt 4.6, Leading zero omitted, Abs format (unit mm)*
G04 Created by KiCad (PCBNEW 8.0.8) date 2025-07-12 12:46:12*
%MOMM*%
%LPD*%
G01*
G04 APERTURE LIST*
%ADD10C,0.100000*%
%ADD11C,0.150000*%
%ADD12C,0.300000*%
%ADD13C,0.125000*%
%ADD14C,0.120000*%
G04 APERTURE END LIST*
D10*
X128553884Y-124741466D02*
X129315789Y-124741466D01*
X131348609Y-124862782D02*
X131396228Y-124719925D01*
X131396228Y-124719925D02*
X131443847Y-124672306D01*
X131443847Y-124672306D02*
X131539085Y-124624687D01*
X131539085Y-124624687D02*
X131681942Y-124624687D01*
X131681942Y-124624687D02*
X131777180Y-124672306D01*
X131777180Y-124672306D02*
X131824800Y-124719925D01*
X131824800Y-124719925D02*
X131872419Y-124815163D01*
X131872419Y-124815163D02*
X131872419Y-125196115D01*
X131872419Y-125196115D02*
X130872419Y-125196115D01*
X130872419Y-125196115D02*
X130872419Y-124862782D01*
X130872419Y-124862782D02*
X130920038Y-124767544D01*
X130920038Y-124767544D02*
X130967657Y-124719925D01*
X130967657Y-124719925D02*
X131062895Y-124672306D01*
X131062895Y-124672306D02*
X131158133Y-124672306D01*
X131158133Y-124672306D02*
X131253371Y-124719925D01*
X131253371Y-124719925D02*
X131300990Y-124767544D01*
X131300990Y-124767544D02*
X131348609Y-124862782D01*
X131348609Y-124862782D02*
X131348609Y-125196115D01*
X131872419Y-123767544D02*
X131348609Y-123767544D01*
X131348609Y-123767544D02*
X131253371Y-123815163D01*
X131253371Y-123815163D02*
X131205752Y-123910401D01*
X131205752Y-123910401D02*
X131205752Y-124100877D01*
X131205752Y-124100877D02*
X131253371Y-124196115D01*
X131824800Y-123767544D02*
X131872419Y-123862782D01*
X131872419Y-123862782D02*
X131872419Y-124100877D01*
X131872419Y-124100877D02*
X131824800Y-124196115D01*
X131824800Y-124196115D02*
X131729561Y-124243734D01*
X131729561Y-124243734D02*
X131634323Y-124243734D01*
X131634323Y-124243734D02*
X131539085Y-124196115D01*
X131539085Y-124196115D02*
X131491466Y-124100877D01*
X131491466Y-124100877D02*
X131491466Y-123862782D01*
X131491466Y-123862782D02*
X131443847Y-123767544D01*
X131205752Y-123434210D02*
X131205752Y-123053258D01*
X130872419Y-123291353D02*
X131729561Y-123291353D01*
X131729561Y-123291353D02*
X131824800Y-123243734D01*
X131824800Y-123243734D02*
X131872419Y-123148496D01*
X131872419Y-123148496D02*
X131872419Y-123053258D01*
X131205752Y-122862781D02*
X131205752Y-122481829D01*
X130872419Y-122719924D02*
X131729561Y-122719924D01*
X131729561Y-122719924D02*
X131824800Y-122672305D01*
X131824800Y-122672305D02*
X131872419Y-122577067D01*
X131872419Y-122577067D02*
X131872419Y-122481829D01*
X131824800Y-121767543D02*
X131872419Y-121862781D01*
X131872419Y-121862781D02*
X131872419Y-122053257D01*
X131872419Y-122053257D02*
X131824800Y-122148495D01*
X131824800Y-122148495D02*
X131729561Y-122196114D01*
X131729561Y-122196114D02*
X131348609Y-122196114D01*
X131348609Y-122196114D02*
X131253371Y-122148495D01*
X131253371Y-122148495D02*
X131205752Y-122053257D01*
X131205752Y-122053257D02*
X131205752Y-121862781D01*
X131205752Y-121862781D02*
X131253371Y-121767543D01*
X131253371Y-121767543D02*
X131348609Y-121719924D01*
X131348609Y-121719924D02*
X131443847Y-121719924D01*
X131443847Y-121719924D02*
X131539085Y-122196114D01*
X131872419Y-121291352D02*
X131205752Y-121291352D01*
X131396228Y-121291352D02*
X131300990Y-121243733D01*
X131300990Y-121243733D02*
X131253371Y-121196114D01*
X131253371Y-121196114D02*
X131205752Y-121100876D01*
X131205752Y-121100876D02*
X131205752Y-121005638D01*
X131205752Y-120767542D02*
X131872419Y-120529447D01*
X131205752Y-120291352D02*
X131872419Y-120529447D01*
X131872419Y-120529447D02*
X132110514Y-120624685D01*
X132110514Y-120624685D02*
X132158133Y-120672304D01*
X132158133Y-120672304D02*
X132205752Y-120767542D01*
D11*
X128991541Y-49619819D02*
X129610588Y-49619819D01*
X129610588Y-49619819D02*
X129277255Y-50000771D01*
X129277255Y-50000771D02*
X129420112Y-50000771D01*
X129420112Y-50000771D02*
X129515350Y-50048390D01*
X129515350Y-50048390D02*
X129562969Y-50096009D01*
X129562969Y-50096009D02*
X129610588Y-50191247D01*
X129610588Y-50191247D02*
X129610588Y-50429342D01*
X129610588Y-50429342D02*
X129562969Y-50524580D01*
X129562969Y-50524580D02*
X129515350Y-50572200D01*
X129515350Y-50572200D02*
X129420112Y-50619819D01*
X129420112Y-50619819D02*
X129134398Y-50619819D01*
X129134398Y-50619819D02*
X129039160Y-50572200D01*
X129039160Y-50572200D02*
X128991541Y-50524580D01*
X129896303Y-49619819D02*
X130229636Y-50619819D01*
X130229636Y-50619819D02*
X130562969Y-49619819D01*
X130801065Y-49619819D02*
X131420112Y-49619819D01*
X131420112Y-49619819D02*
X131086779Y-50000771D01*
X131086779Y-50000771D02*
X131229636Y-50000771D01*
X131229636Y-50000771D02*
X131324874Y-50048390D01*
X131324874Y-50048390D02*
X131372493Y-50096009D01*
X131372493Y-50096009D02*
X131420112Y-50191247D01*
X131420112Y-50191247D02*
X131420112Y-50429342D01*
X131420112Y-50429342D02*
X131372493Y-50524580D01*
X131372493Y-50524580D02*
X131324874Y-50572200D01*
X131324874Y-50572200D02*
X131229636Y-50619819D01*
X131229636Y-50619819D02*
X130943922Y-50619819D01*
X130943922Y-50619819D02*
X130848684Y-50572200D01*
X130848684Y-50572200D02*
X130801065Y-50524580D01*
D12*
X145554510Y-51729400D02*
X146697368Y-51729400D01*
X146125939Y-52300828D02*
X146125939Y-51157971D01*
D10*
X124887217Y-131598609D02*
X125030074Y-131646228D01*
X125030074Y-131646228D02*
X125077693Y-131693847D01*
X125077693Y-131693847D02*
X125125312Y-131789085D01*
X125125312Y-131789085D02*
X125125312Y-131931942D01*
X125125312Y-131931942D02*
X125077693Y-132027180D01*
X125077693Y-132027180D02*
X125030074Y-132074800D01*
X125030074Y-132074800D02*
X124934836Y-132122419D01*
X124934836Y-132122419D02*
X124553884Y-132122419D01*
X124553884Y-132122419D02*
X124553884Y-131122419D01*
X124553884Y-131122419D02*
X124887217Y-131122419D01*
X124887217Y-131122419D02*
X124982455Y-131170038D01*
X124982455Y-131170038D02*
X125030074Y-131217657D01*
X125030074Y-131217657D02*
X125077693Y-131312895D01*
X125077693Y-131312895D02*
X125077693Y-131408133D01*
X125077693Y-131408133D02*
X125030074Y-131503371D01*
X125030074Y-131503371D02*
X124982455Y-131550990D01*
X124982455Y-131550990D02*
X124887217Y-131598609D01*
X124887217Y-131598609D02*
X124553884Y-131598609D01*
X125553884Y-132122419D02*
X125553884Y-131122419D01*
X125553884Y-131122419D02*
X125887217Y-131836704D01*
X125887217Y-131836704D02*
X126220550Y-131122419D01*
X126220550Y-131122419D02*
X126220550Y-132122419D01*
X126696741Y-131598609D02*
X127030074Y-131598609D01*
X127172931Y-132122419D02*
X126696741Y-132122419D01*
X126696741Y-132122419D02*
X126696741Y-131122419D01*
X126696741Y-131122419D02*
X127172931Y-131122419D01*
X127553884Y-131217657D02*
X127601503Y-131170038D01*
X127601503Y-131170038D02*
X127696741Y-131122419D01*
X127696741Y-131122419D02*
X127934836Y-131122419D01*
X127934836Y-131122419D02*
X128030074Y-131170038D01*
X128030074Y-131170038D02*
X128077693Y-131217657D01*
X128077693Y-131217657D02*
X128125312Y-131312895D01*
X128125312Y-131312895D02*
X128125312Y-131408133D01*
X128125312Y-131408133D02*
X128077693Y-131550990D01*
X128077693Y-131550990D02*
X127506265Y-132122419D01*
X127506265Y-132122419D02*
X128125312Y-132122419D01*
X128696741Y-131550990D02*
X128601503Y-131503371D01*
X128601503Y-131503371D02*
X128553884Y-131455752D01*
X128553884Y-131455752D02*
X128506265Y-131360514D01*
X128506265Y-131360514D02*
X128506265Y-131312895D01*
X128506265Y-131312895D02*
X128553884Y-131217657D01*
X128553884Y-131217657D02*
X128601503Y-131170038D01*
X128601503Y-131170038D02*
X128696741Y-131122419D01*
X128696741Y-131122419D02*
X128887217Y-131122419D01*
X128887217Y-131122419D02*
X128982455Y-131170038D01*
X128982455Y-131170038D02*
X129030074Y-131217657D01*
X129030074Y-131217657D02*
X129077693Y-131312895D01*
X129077693Y-131312895D02*
X129077693Y-131360514D01*
X129077693Y-131360514D02*
X129030074Y-131455752D01*
X129030074Y-131455752D02*
X128982455Y-131503371D01*
X128982455Y-131503371D02*
X128887217Y-131550990D01*
X128887217Y-131550990D02*
X128696741Y-131550990D01*
X128696741Y-131550990D02*
X128601503Y-131598609D01*
X128601503Y-131598609D02*
X128553884Y-131646228D01*
X128553884Y-131646228D02*
X128506265Y-131741466D01*
X128506265Y-131741466D02*
X128506265Y-131931942D01*
X128506265Y-131931942D02*
X128553884Y-132027180D01*
X128553884Y-132027180D02*
X128601503Y-132074800D01*
X128601503Y-132074800D02*
X128696741Y-132122419D01*
X128696741Y-132122419D02*
X128887217Y-132122419D01*
X128887217Y-132122419D02*
X128982455Y-132074800D01*
X128982455Y-132074800D02*
X129030074Y-132027180D01*
X129030074Y-132027180D02*
X129077693Y-131931942D01*
X129077693Y-131931942D02*
X129077693Y-131741466D01*
X129077693Y-131741466D02*
X129030074Y-131646228D01*
X129030074Y-131646228D02*
X128982455Y-131598609D01*
X128982455Y-131598609D02*
X128887217Y-131550990D01*
X129696741Y-131122419D02*
X129791979Y-131122419D01*
X129791979Y-131122419D02*
X129887217Y-131170038D01*
X129887217Y-131170038D02*
X129934836Y-131217657D01*
X129934836Y-131217657D02*
X129982455Y-131312895D01*
X129982455Y-131312895D02*
X130030074Y-131503371D01*
X130030074Y-131503371D02*
X130030074Y-131741466D01*
X130030074Y-131741466D02*
X129982455Y-131931942D01*
X129982455Y-131931942D02*
X129934836Y-132027180D01*
X129934836Y-132027180D02*
X129887217Y-132074800D01*
X129887217Y-132074800D02*
X129791979Y-132122419D01*
X129791979Y-132122419D02*
X129696741Y-132122419D01*
X129696741Y-132122419D02*
X129601503Y-132074800D01*
X129601503Y-132074800D02*
X129553884Y-132027180D01*
X129553884Y-132027180D02*
X129506265Y-131931942D01*
X129506265Y-131931942D02*
X129458646Y-131741466D01*
X129458646Y-131741466D02*
X129458646Y-131503371D01*
X129458646Y-131503371D02*
X129506265Y-131312895D01*
X129506265Y-131312895D02*
X129553884Y-131217657D01*
X129553884Y-131217657D02*
X129601503Y-131170038D01*
X129601503Y-131170038D02*
X129696741Y-131122419D01*
X125803884Y-124741466D02*
X126565789Y-124741466D01*
X126184836Y-125122419D02*
X126184836Y-124360514D01*
D11*
X126360588Y-47167438D02*
X126265350Y-47119819D01*
X126265350Y-47119819D02*
X126122493Y-47119819D01*
X126122493Y-47119819D02*
X125979636Y-47167438D01*
X125979636Y-47167438D02*
X125884398Y-47262676D01*
X125884398Y-47262676D02*
X125836779Y-47357914D01*
X125836779Y-47357914D02*
X125789160Y-47548390D01*
X125789160Y-47548390D02*
X125789160Y-47691247D01*
X125789160Y-47691247D02*
X125836779Y-47881723D01*
X125836779Y-47881723D02*
X125884398Y-47976961D01*
X125884398Y-47976961D02*
X125979636Y-48072200D01*
X125979636Y-48072200D02*
X126122493Y-48119819D01*
X126122493Y-48119819D02*
X126217731Y-48119819D01*
X126217731Y-48119819D02*
X126360588Y-48072200D01*
X126360588Y-48072200D02*
X126408207Y-48024580D01*
X126408207Y-48024580D02*
X126408207Y-47691247D01*
X126408207Y-47691247D02*
X126217731Y-47691247D01*
X126836779Y-48119819D02*
X126836779Y-47119819D01*
X126836779Y-47119819D02*
X127217731Y-47119819D01*
X127217731Y-47119819D02*
X127312969Y-47167438D01*
X127312969Y-47167438D02*
X127360588Y-47215057D01*
X127360588Y-47215057D02*
X127408207Y-47310295D01*
X127408207Y-47310295D02*
X127408207Y-47453152D01*
X127408207Y-47453152D02*
X127360588Y-47548390D01*
X127360588Y-47548390D02*
X127312969Y-47596009D01*
X127312969Y-47596009D02*
X127217731Y-47643628D01*
X127217731Y-47643628D02*
X126836779Y-47643628D01*
X127836779Y-48119819D02*
X127836779Y-47119819D01*
X128503445Y-47119819D02*
X128693921Y-47119819D01*
X128693921Y-47119819D02*
X128789159Y-47167438D01*
X128789159Y-47167438D02*
X128884397Y-47262676D01*
X128884397Y-47262676D02*
X128932016Y-47453152D01*
X128932016Y-47453152D02*
X128932016Y-47786485D01*
X128932016Y-47786485D02*
X128884397Y-47976961D01*
X128884397Y-47976961D02*
X128789159Y-48072200D01*
X128789159Y-48072200D02*
X128693921Y-48119819D01*
X128693921Y-48119819D02*
X128503445Y-48119819D01*
X128503445Y-48119819D02*
X128408207Y-48072200D01*
X128408207Y-48072200D02*
X128312969Y-47976961D01*
X128312969Y-47976961D02*
X128265350Y-47786485D01*
X128265350Y-47786485D02*
X128265350Y-47453152D01*
X128265350Y-47453152D02*
X128312969Y-47262676D01*
X128312969Y-47262676D02*
X128408207Y-47167438D01*
X128408207Y-47167438D02*
X128503445Y-47119819D01*
X130027255Y-47119819D02*
X130646302Y-47119819D01*
X130646302Y-47119819D02*
X130312969Y-47500771D01*
X130312969Y-47500771D02*
X130455826Y-47500771D01*
X130455826Y-47500771D02*
X130551064Y-47548390D01*
X130551064Y-47548390D02*
X130598683Y-47596009D01*
X130598683Y-47596009D02*
X130646302Y-47691247D01*
X130646302Y-47691247D02*
X130646302Y-47929342D01*
X130646302Y-47929342D02*
X130598683Y-48024580D01*
X130598683Y-48024580D02*
X130551064Y-48072200D01*
X130551064Y-48072200D02*
X130455826Y-48119819D01*
X130455826Y-48119819D02*
X130170112Y-48119819D01*
X130170112Y-48119819D02*
X130074874Y-48072200D01*
X130074874Y-48072200D02*
X130027255Y-48024580D01*
X130979636Y-47119819D02*
X131598683Y-47119819D01*
X131598683Y-47119819D02*
X131265350Y-47500771D01*
X131265350Y-47500771D02*
X131408207Y-47500771D01*
X131408207Y-47500771D02*
X131503445Y-47548390D01*
X131503445Y-47548390D02*
X131551064Y-47596009D01*
X131551064Y-47596009D02*
X131598683Y-47691247D01*
X131598683Y-47691247D02*
X131598683Y-47929342D01*
X131598683Y-47929342D02*
X131551064Y-48024580D01*
X131551064Y-48024580D02*
X131503445Y-48072200D01*
X131503445Y-48072200D02*
X131408207Y-48119819D01*
X131408207Y-48119819D02*
X131122493Y-48119819D01*
X131122493Y-48119819D02*
X131027255Y-48072200D01*
X131027255Y-48072200D02*
X130979636Y-48024580D01*
X126360588Y-44917438D02*
X126265350Y-44869819D01*
X126265350Y-44869819D02*
X126122493Y-44869819D01*
X126122493Y-44869819D02*
X125979636Y-44917438D01*
X125979636Y-44917438D02*
X125884398Y-45012676D01*
X125884398Y-45012676D02*
X125836779Y-45107914D01*
X125836779Y-45107914D02*
X125789160Y-45298390D01*
X125789160Y-45298390D02*
X125789160Y-45441247D01*
X125789160Y-45441247D02*
X125836779Y-45631723D01*
X125836779Y-45631723D02*
X125884398Y-45726961D01*
X125884398Y-45726961D02*
X125979636Y-45822200D01*
X125979636Y-45822200D02*
X126122493Y-45869819D01*
X126122493Y-45869819D02*
X126217731Y-45869819D01*
X126217731Y-45869819D02*
X126360588Y-45822200D01*
X126360588Y-45822200D02*
X126408207Y-45774580D01*
X126408207Y-45774580D02*
X126408207Y-45441247D01*
X126408207Y-45441247D02*
X126217731Y-45441247D01*
X126836779Y-45869819D02*
X126836779Y-44869819D01*
X126836779Y-44869819D02*
X127217731Y-44869819D01*
X127217731Y-44869819D02*
X127312969Y-44917438D01*
X127312969Y-44917438D02*
X127360588Y-44965057D01*
X127360588Y-44965057D02*
X127408207Y-45060295D01*
X127408207Y-45060295D02*
X127408207Y-45203152D01*
X127408207Y-45203152D02*
X127360588Y-45298390D01*
X127360588Y-45298390D02*
X127312969Y-45346009D01*
X127312969Y-45346009D02*
X127217731Y-45393628D01*
X127217731Y-45393628D02*
X126836779Y-45393628D01*
X127836779Y-45869819D02*
X127836779Y-44869819D01*
X128503445Y-44869819D02*
X128693921Y-44869819D01*
X128693921Y-44869819D02*
X128789159Y-44917438D01*
X128789159Y-44917438D02*
X128884397Y-45012676D01*
X128884397Y-45012676D02*
X128932016Y-45203152D01*
X128932016Y-45203152D02*
X128932016Y-45536485D01*
X128932016Y-45536485D02*
X128884397Y-45726961D01*
X128884397Y-45726961D02*
X128789159Y-45822200D01*
X128789159Y-45822200D02*
X128693921Y-45869819D01*
X128693921Y-45869819D02*
X128503445Y-45869819D01*
X128503445Y-45869819D02*
X128408207Y-45822200D01*
X128408207Y-45822200D02*
X128312969Y-45726961D01*
X128312969Y-45726961D02*
X128265350Y-45536485D01*
X128265350Y-45536485D02*
X128265350Y-45203152D01*
X128265350Y-45203152D02*
X128312969Y-45012676D01*
X128312969Y-45012676D02*
X128408207Y-44917438D01*
X128408207Y-44917438D02*
X128503445Y-44869819D01*
X130027255Y-44869819D02*
X130646302Y-44869819D01*
X130646302Y-44869819D02*
X130312969Y-45250771D01*
X130312969Y-45250771D02*
X130455826Y-45250771D01*
X130455826Y-45250771D02*
X130551064Y-45298390D01*
X130551064Y-45298390D02*
X130598683Y-45346009D01*
X130598683Y-45346009D02*
X130646302Y-45441247D01*
X130646302Y-45441247D02*
X130646302Y-45679342D01*
X130646302Y-45679342D02*
X130598683Y-45774580D01*
X130598683Y-45774580D02*
X130551064Y-45822200D01*
X130551064Y-45822200D02*
X130455826Y-45869819D01*
X130455826Y-45869819D02*
X130170112Y-45869819D01*
X130170112Y-45869819D02*
X130074874Y-45822200D01*
X130074874Y-45822200D02*
X130027255Y-45774580D01*
X131503445Y-45203152D02*
X131503445Y-45869819D01*
X131265350Y-44822200D02*
X131027255Y-45536485D01*
X131027255Y-45536485D02*
X131646302Y-45536485D01*
X129360588Y-52417438D02*
X129265350Y-52369819D01*
X129265350Y-52369819D02*
X129122493Y-52369819D01*
X129122493Y-52369819D02*
X128979636Y-52417438D01*
X128979636Y-52417438D02*
X128884398Y-52512676D01*
X128884398Y-52512676D02*
X128836779Y-52607914D01*
X128836779Y-52607914D02*
X128789160Y-52798390D01*
X128789160Y-52798390D02*
X128789160Y-52941247D01*
X128789160Y-52941247D02*
X128836779Y-53131723D01*
X128836779Y-53131723D02*
X128884398Y-53226961D01*
X128884398Y-53226961D02*
X128979636Y-53322200D01*
X128979636Y-53322200D02*
X129122493Y-53369819D01*
X129122493Y-53369819D02*
X129217731Y-53369819D01*
X129217731Y-53369819D02*
X129360588Y-53322200D01*
X129360588Y-53322200D02*
X129408207Y-53274580D01*
X129408207Y-53274580D02*
X129408207Y-52941247D01*
X129408207Y-52941247D02*
X129217731Y-52941247D01*
X129836779Y-53369819D02*
X129836779Y-52369819D01*
X129836779Y-52369819D02*
X130408207Y-53369819D01*
X130408207Y-53369819D02*
X130408207Y-52369819D01*
X130884398Y-53369819D02*
X130884398Y-52369819D01*
X130884398Y-52369819D02*
X131122493Y-52369819D01*
X131122493Y-52369819D02*
X131265350Y-52417438D01*
X131265350Y-52417438D02*
X131360588Y-52512676D01*
X131360588Y-52512676D02*
X131408207Y-52607914D01*
X131408207Y-52607914D02*
X131455826Y-52798390D01*
X131455826Y-52798390D02*
X131455826Y-52941247D01*
X131455826Y-52941247D02*
X131408207Y-53131723D01*
X131408207Y-53131723D02*
X131360588Y-53226961D01*
X131360588Y-53226961D02*
X131265350Y-53322200D01*
X131265350Y-53322200D02*
X131122493Y-53369819D01*
X131122493Y-53369819D02*
X130884398Y-53369819D01*
X139812969Y-49619819D02*
X139336779Y-49619819D01*
X139336779Y-49619819D02*
X139289160Y-50096009D01*
X139289160Y-50096009D02*
X139336779Y-50048390D01*
X139336779Y-50048390D02*
X139432017Y-50000771D01*
X139432017Y-50000771D02*
X139670112Y-50000771D01*
X139670112Y-50000771D02*
X139765350Y-50048390D01*
X139765350Y-50048390D02*
X139812969Y-50096009D01*
X139812969Y-50096009D02*
X139860588Y-50191247D01*
X139860588Y-50191247D02*
X139860588Y-50429342D01*
X139860588Y-50429342D02*
X139812969Y-50524580D01*
X139812969Y-50524580D02*
X139765350Y-50572200D01*
X139765350Y-50572200D02*
X139670112Y-50619819D01*
X139670112Y-50619819D02*
X139432017Y-50619819D01*
X139432017Y-50619819D02*
X139336779Y-50572200D01*
X139336779Y-50572200D02*
X139289160Y-50524580D01*
X140146303Y-49619819D02*
X140479636Y-50619819D01*
X140479636Y-50619819D02*
X140812969Y-49619819D01*
X139860588Y-52167438D02*
X139765350Y-52119819D01*
X139765350Y-52119819D02*
X139622493Y-52119819D01*
X139622493Y-52119819D02*
X139479636Y-52167438D01*
X139479636Y-52167438D02*
X139384398Y-52262676D01*
X139384398Y-52262676D02*
X139336779Y-52357914D01*
X139336779Y-52357914D02*
X139289160Y-52548390D01*
X139289160Y-52548390D02*
X139289160Y-52691247D01*
X139289160Y-52691247D02*
X139336779Y-52881723D01*
X139336779Y-52881723D02*
X139384398Y-52976961D01*
X139384398Y-52976961D02*
X139479636Y-53072200D01*
X139479636Y-53072200D02*
X139622493Y-53119819D01*
X139622493Y-53119819D02*
X139717731Y-53119819D01*
X139717731Y-53119819D02*
X139860588Y-53072200D01*
X139860588Y-53072200D02*
X139908207Y-53024580D01*
X139908207Y-53024580D02*
X139908207Y-52691247D01*
X139908207Y-52691247D02*
X139717731Y-52691247D01*
X140336779Y-53119819D02*
X140336779Y-52119819D01*
X140336779Y-52119819D02*
X140908207Y-53119819D01*
X140908207Y-53119819D02*
X140908207Y-52119819D01*
X141384398Y-53119819D02*
X141384398Y-52119819D01*
X141384398Y-52119819D02*
X141622493Y-52119819D01*
X141622493Y-52119819D02*
X141765350Y-52167438D01*
X141765350Y-52167438D02*
X141860588Y-52262676D01*
X141860588Y-52262676D02*
X141908207Y-52357914D01*
X141908207Y-52357914D02*
X141955826Y-52548390D01*
X141955826Y-52548390D02*
X141955826Y-52691247D01*
X141955826Y-52691247D02*
X141908207Y-52881723D01*
X141908207Y-52881723D02*
X141860588Y-52976961D01*
X141860588Y-52976961D02*
X141765350Y-53072200D01*
X141765350Y-53072200D02*
X141622493Y-53119819D01*
X141622493Y-53119819D02*
X141384398Y-53119819D01*
D13*
X147582236Y-53454452D02*
X146820331Y-53740166D01*
X146820331Y-53740166D02*
X147582236Y-54025880D01*
X148486997Y-53121119D02*
X148296521Y-53121119D01*
X148296521Y-53121119D02*
X148201283Y-53168738D01*
X148201283Y-53168738D02*
X148153664Y-53216357D01*
X148153664Y-53216357D02*
X148058426Y-53359214D01*
X148058426Y-53359214D02*
X148010807Y-53549690D01*
X148010807Y-53549690D02*
X148010807Y-53930642D01*
X148010807Y-53930642D02*
X148058426Y-54025880D01*
X148058426Y-54025880D02*
X148106045Y-54073500D01*
X148106045Y-54073500D02*
X148201283Y-54121119D01*
X148201283Y-54121119D02*
X148391759Y-54121119D01*
X148391759Y-54121119D02*
X148486997Y-54073500D01*
X148486997Y-54073500D02*
X148534616Y-54025880D01*
X148534616Y-54025880D02*
X148582235Y-53930642D01*
X148582235Y-53930642D02*
X148582235Y-53692547D01*
X148582235Y-53692547D02*
X148534616Y-53597309D01*
X148534616Y-53597309D02*
X148486997Y-53549690D01*
X148486997Y-53549690D02*
X148391759Y-53502071D01*
X148391759Y-53502071D02*
X148201283Y-53502071D01*
X148201283Y-53502071D02*
X148106045Y-53549690D01*
X148106045Y-53549690D02*
X148058426Y-53597309D01*
X148058426Y-53597309D02*
X148010807Y-53692547D01*
X148867950Y-53121119D02*
X149201283Y-54121119D01*
X149201283Y-54121119D02*
X149534616Y-53121119D01*
D12*
X148554510Y-51729400D02*
X149697368Y-51729400D01*
D11*
X139908207Y-47869819D02*
X139574874Y-47393628D01*
X139336779Y-47869819D02*
X139336779Y-46869819D01*
X139336779Y-46869819D02*
X139717731Y-46869819D01*
X139717731Y-46869819D02*
X139812969Y-46917438D01*
X139812969Y-46917438D02*
X139860588Y-46965057D01*
X139860588Y-46965057D02*
X139908207Y-47060295D01*
X139908207Y-47060295D02*
X139908207Y-47203152D01*
X139908207Y-47203152D02*
X139860588Y-47298390D01*
X139860588Y-47298390D02*
X139812969Y-47346009D01*
X139812969Y-47346009D02*
X139717731Y-47393628D01*
X139717731Y-47393628D02*
X139336779Y-47393628D01*
X140241541Y-46869819D02*
X140908207Y-47869819D01*
X140908207Y-46869819D02*
X140241541Y-47869819D01*
X139193922Y-44619819D02*
X139765350Y-44619819D01*
X139479636Y-45619819D02*
X139479636Y-44619819D01*
X140003446Y-44619819D02*
X140670112Y-45619819D01*
X140670112Y-44619819D02*
X140003446Y-45619819D01*
D13*
X144070331Y-45847309D02*
X144403664Y-45847309D01*
X144546521Y-46371119D02*
X144070331Y-46371119D01*
X144070331Y-46371119D02*
X144070331Y-45371119D01*
X144070331Y-45371119D02*
X144546521Y-45371119D01*
X144879855Y-46371119D02*
X145403664Y-45704452D01*
X144879855Y-45704452D02*
X145403664Y-46371119D01*
X145641760Y-45704452D02*
X146022712Y-45704452D01*
X145784617Y-45371119D02*
X145784617Y-46228261D01*
X145784617Y-46228261D02*
X145832236Y-46323500D01*
X145832236Y-46323500D02*
X145927474Y-46371119D01*
X145927474Y-46371119D02*
X146022712Y-46371119D01*
X146356046Y-46275880D02*
X146403665Y-46323500D01*
X146403665Y-46323500D02*
X146356046Y-46371119D01*
X146356046Y-46371119D02*
X146308427Y-46323500D01*
X146308427Y-46323500D02*
X146356046Y-46275880D01*
X146356046Y-46275880D02*
X146356046Y-46371119D01*
X147594141Y-46371119D02*
X147594141Y-45371119D01*
X147594141Y-45371119D02*
X147975093Y-45371119D01*
X147975093Y-45371119D02*
X148070331Y-45418738D01*
X148070331Y-45418738D02*
X148117950Y-45466357D01*
X148117950Y-45466357D02*
X148165569Y-45561595D01*
X148165569Y-45561595D02*
X148165569Y-45704452D01*
X148165569Y-45704452D02*
X148117950Y-45799690D01*
X148117950Y-45799690D02*
X148070331Y-45847309D01*
X148070331Y-45847309D02*
X147975093Y-45894928D01*
X147975093Y-45894928D02*
X147594141Y-45894928D01*
X148736998Y-46371119D02*
X148641760Y-46323500D01*
X148641760Y-46323500D02*
X148594141Y-46275880D01*
X148594141Y-46275880D02*
X148546522Y-46180642D01*
X148546522Y-46180642D02*
X148546522Y-45894928D01*
X148546522Y-45894928D02*
X148594141Y-45799690D01*
X148594141Y-45799690D02*
X148641760Y-45752071D01*
X148641760Y-45752071D02*
X148736998Y-45704452D01*
X148736998Y-45704452D02*
X148879855Y-45704452D01*
X148879855Y-45704452D02*
X148975093Y-45752071D01*
X148975093Y-45752071D02*
X149022712Y-45799690D01*
X149022712Y-45799690D02*
X149070331Y-45894928D01*
X149070331Y-45894928D02*
X149070331Y-46180642D01*
X149070331Y-46180642D02*
X149022712Y-46275880D01*
X149022712Y-46275880D02*
X148975093Y-46323500D01*
X148975093Y-46323500D02*
X148879855Y-46371119D01*
X148879855Y-46371119D02*
X148736998Y-46371119D01*
X149403665Y-45704452D02*
X149594141Y-46371119D01*
X149594141Y-46371119D02*
X149784617Y-45894928D01*
X149784617Y-45894928D02*
X149975093Y-46371119D01*
X149975093Y-46371119D02*
X150165569Y-45704452D01*
X150927474Y-46323500D02*
X150832236Y-46371119D01*
X150832236Y-46371119D02*
X150641760Y-46371119D01*
X150641760Y-46371119D02*
X150546522Y-46323500D01*
X150546522Y-46323500D02*
X150498903Y-46228261D01*
X150498903Y-46228261D02*
X150498903Y-45847309D01*
X150498903Y-45847309D02*
X150546522Y-45752071D01*
X150546522Y-45752071D02*
X150641760Y-45704452D01*
X150641760Y-45704452D02*
X150832236Y-45704452D01*
X150832236Y-45704452D02*
X150927474Y-45752071D01*
X150927474Y-45752071D02*
X150975093Y-45847309D01*
X150975093Y-45847309D02*
X150975093Y-45942547D01*
X150975093Y-45942547D02*
X150498903Y-46037785D01*
X151403665Y-46371119D02*
X151403665Y-45704452D01*
X151403665Y-45894928D02*
X151451284Y-45799690D01*
X151451284Y-45799690D02*
X151498903Y-45752071D01*
X151498903Y-45752071D02*
X151594141Y-45704452D01*
X151594141Y-45704452D02*
X151689379Y-45704452D01*
D11*
X124704819Y-126583333D02*
X125419104Y-126583333D01*
X125419104Y-126583333D02*
X125561961Y-126630952D01*
X125561961Y-126630952D02*
X125657200Y-126726190D01*
X125657200Y-126726190D02*
X125704819Y-126869047D01*
X125704819Y-126869047D02*
X125704819Y-126964285D01*
X125704819Y-125583333D02*
X125704819Y-126154761D01*
X125704819Y-125869047D02*
X124704819Y-125869047D01*
X124704819Y-125869047D02*
X124847676Y-125964285D01*
X124847676Y-125964285D02*
X124942914Y-126059523D01*
X124942914Y-126059523D02*
X124990533Y-126154761D01*
D10*
X131261904Y-98542580D02*
X131261904Y-97733057D01*
X131261904Y-97733057D02*
X131214285Y-97637819D01*
X131214285Y-97637819D02*
X131166666Y-97590200D01*
X131166666Y-97590200D02*
X131071428Y-97542580D01*
X131071428Y-97542580D02*
X130880952Y-97542580D01*
X130880952Y-97542580D02*
X130785714Y-97590200D01*
X130785714Y-97590200D02*
X130738095Y-97637819D01*
X130738095Y-97637819D02*
X130690476Y-97733057D01*
X130690476Y-97733057D02*
X130690476Y-98542580D01*
X129690476Y-97542580D02*
X130261904Y-97542580D01*
X129976190Y-97542580D02*
X129976190Y-98542580D01*
X129976190Y-98542580D02*
X130071428Y-98399723D01*
X130071428Y-98399723D02*
X130166666Y-98304485D01*
X130166666Y-98304485D02*
X130261904Y-98256866D01*
X123881487Y-94120980D02*
X124214820Y-94597171D01*
X124452915Y-94120980D02*
X124452915Y-95120980D01*
X124452915Y-95120980D02*
X124071963Y-95120980D01*
X124071963Y-95120980D02*
X123976725Y-95073361D01*
X123976725Y-95073361D02*
X123929106Y-95025742D01*
X123929106Y-95025742D02*
X123881487Y-94930504D01*
X123881487Y-94930504D02*
X123881487Y-94787647D01*
X123881487Y-94787647D02*
X123929106Y-94692409D01*
X123929106Y-94692409D02*
X123976725Y-94644790D01*
X123976725Y-94644790D02*
X124071963Y-94597171D01*
X124071963Y-94597171D02*
X124452915Y-94597171D01*
X123500534Y-94168600D02*
X123357677Y-94120980D01*
X123357677Y-94120980D02*
X123119582Y-94120980D01*
X123119582Y-94120980D02*
X123024344Y-94168600D01*
X123024344Y-94168600D02*
X122976725Y-94216219D01*
X122976725Y-94216219D02*
X122929106Y-94311457D01*
X122929106Y-94311457D02*
X122929106Y-94406695D01*
X122929106Y-94406695D02*
X122976725Y-94501933D01*
X122976725Y-94501933D02*
X123024344Y-94549552D01*
X123024344Y-94549552D02*
X123119582Y-94597171D01*
X123119582Y-94597171D02*
X123310058Y-94644790D01*
X123310058Y-94644790D02*
X123405296Y-94692409D01*
X123405296Y-94692409D02*
X123452915Y-94740028D01*
X123452915Y-94740028D02*
X123500534Y-94835266D01*
X123500534Y-94835266D02*
X123500534Y-94930504D01*
X123500534Y-94930504D02*
X123452915Y-95025742D01*
X123452915Y-95025742D02*
X123405296Y-95073361D01*
X123405296Y-95073361D02*
X123310058Y-95120980D01*
X123310058Y-95120980D02*
X123071963Y-95120980D01*
X123071963Y-95120980D02*
X122929106Y-95073361D01*
X122643391Y-95120980D02*
X122071963Y-95120980D01*
X122357677Y-94120980D02*
X122357677Y-95120980D01*
X114365934Y-52268095D02*
X113889744Y-52268095D01*
X114461172Y-51982380D02*
X114127839Y-52982380D01*
X114127839Y-52982380D02*
X113794506Y-51982380D01*
X113461172Y-51982380D02*
X113461172Y-52982380D01*
X113461172Y-52982380D02*
X112889744Y-51982380D01*
X112889744Y-51982380D02*
X112889744Y-52982380D01*
X112556410Y-52982380D02*
X111984982Y-52982380D01*
X112270696Y-51982380D02*
X112270696Y-52982380D01*
X117491515Y-99247780D02*
X117491515Y-98438257D01*
X117491515Y-98438257D02*
X117443896Y-98343019D01*
X117443896Y-98343019D02*
X117396277Y-98295400D01*
X117396277Y-98295400D02*
X117301039Y-98247780D01*
X117301039Y-98247780D02*
X117110563Y-98247780D01*
X117110563Y-98247780D02*
X117015325Y-98295400D01*
X117015325Y-98295400D02*
X116967706Y-98343019D01*
X116967706Y-98343019D02*
X116920087Y-98438257D01*
X116920087Y-98438257D02*
X116920087Y-99247780D01*
X116491515Y-98295400D02*
X116348658Y-98247780D01*
X116348658Y-98247780D02*
X116110563Y-98247780D01*
X116110563Y-98247780D02*
X116015325Y-98295400D01*
X116015325Y-98295400D02*
X115967706Y-98343019D01*
X115967706Y-98343019D02*
X115920087Y-98438257D01*
X115920087Y-98438257D02*
X115920087Y-98533495D01*
X115920087Y-98533495D02*
X115967706Y-98628733D01*
X115967706Y-98628733D02*
X116015325Y-98676352D01*
X116015325Y-98676352D02*
X116110563Y-98723971D01*
X116110563Y-98723971D02*
X116301039Y-98771590D01*
X116301039Y-98771590D02*
X116396277Y-98819209D01*
X116396277Y-98819209D02*
X116443896Y-98866828D01*
X116443896Y-98866828D02*
X116491515Y-98962066D01*
X116491515Y-98962066D02*
X116491515Y-99057304D01*
X116491515Y-99057304D02*
X116443896Y-99152542D01*
X116443896Y-99152542D02*
X116396277Y-99200161D01*
X116396277Y-99200161D02*
X116301039Y-99247780D01*
X116301039Y-99247780D02*
X116062944Y-99247780D01*
X116062944Y-99247780D02*
X115920087Y-99200161D01*
X115158182Y-98771590D02*
X115015325Y-98723971D01*
X115015325Y-98723971D02*
X114967706Y-98676352D01*
X114967706Y-98676352D02*
X114920087Y-98581114D01*
X114920087Y-98581114D02*
X114920087Y-98438257D01*
X114920087Y-98438257D02*
X114967706Y-98343019D01*
X114967706Y-98343019D02*
X115015325Y-98295400D01*
X115015325Y-98295400D02*
X115110563Y-98247780D01*
X115110563Y-98247780D02*
X115491515Y-98247780D01*
X115491515Y-98247780D02*
X115491515Y-99247780D01*
X115491515Y-99247780D02*
X115158182Y-99247780D01*
X115158182Y-99247780D02*
X115062944Y-99200161D01*
X115062944Y-99200161D02*
X115015325Y-99152542D01*
X115015325Y-99152542D02*
X114967706Y-99057304D01*
X114967706Y-99057304D02*
X114967706Y-98962066D01*
X114967706Y-98962066D02*
X115015325Y-98866828D01*
X115015325Y-98866828D02*
X115062944Y-98819209D01*
X115062944Y-98819209D02*
X115158182Y-98771590D01*
X115158182Y-98771590D02*
X115491515Y-98771590D01*
X109771715Y-94019380D02*
X109771715Y-95019380D01*
X109771715Y-95019380D02*
X109390763Y-95019380D01*
X109390763Y-95019380D02*
X109295525Y-94971761D01*
X109295525Y-94971761D02*
X109247906Y-94924142D01*
X109247906Y-94924142D02*
X109200287Y-94828904D01*
X109200287Y-94828904D02*
X109200287Y-94686047D01*
X109200287Y-94686047D02*
X109247906Y-94590809D01*
X109247906Y-94590809D02*
X109295525Y-94543190D01*
X109295525Y-94543190D02*
X109390763Y-94495571D01*
X109390763Y-94495571D02*
X109771715Y-94495571D01*
X108200287Y-94019380D02*
X108533620Y-94495571D01*
X108771715Y-94019380D02*
X108771715Y-95019380D01*
X108771715Y-95019380D02*
X108390763Y-95019380D01*
X108390763Y-95019380D02*
X108295525Y-94971761D01*
X108295525Y-94971761D02*
X108247906Y-94924142D01*
X108247906Y-94924142D02*
X108200287Y-94828904D01*
X108200287Y-94828904D02*
X108200287Y-94686047D01*
X108200287Y-94686047D02*
X108247906Y-94590809D01*
X108247906Y-94590809D02*
X108295525Y-94543190D01*
X108295525Y-94543190D02*
X108390763Y-94495571D01*
X108390763Y-94495571D02*
X108771715Y-94495571D01*
X107247906Y-94971761D02*
X107343144Y-95019380D01*
X107343144Y-95019380D02*
X107486001Y-95019380D01*
X107486001Y-95019380D02*
X107628858Y-94971761D01*
X107628858Y-94971761D02*
X107724096Y-94876523D01*
X107724096Y-94876523D02*
X107771715Y-94781285D01*
X107771715Y-94781285D02*
X107819334Y-94590809D01*
X107819334Y-94590809D02*
X107819334Y-94447952D01*
X107819334Y-94447952D02*
X107771715Y-94257476D01*
X107771715Y-94257476D02*
X107724096Y-94162238D01*
X107724096Y-94162238D02*
X107628858Y-94067000D01*
X107628858Y-94067000D02*
X107486001Y-94019380D01*
X107486001Y-94019380D02*
X107390763Y-94019380D01*
X107390763Y-94019380D02*
X107247906Y-94067000D01*
X107247906Y-94067000D02*
X107200287Y-94114619D01*
X107200287Y-94114619D02*
X107200287Y-94447952D01*
X107200287Y-94447952D02*
X107390763Y-94447952D01*
X117301039Y-72547780D02*
X117110563Y-72547780D01*
X117110563Y-72547780D02*
X117015325Y-72500161D01*
X117015325Y-72500161D02*
X116920087Y-72404923D01*
X116920087Y-72404923D02*
X116872468Y-72214447D01*
X116872468Y-72214447D02*
X116872468Y-71881114D01*
X116872468Y-71881114D02*
X116920087Y-71690638D01*
X116920087Y-71690638D02*
X117015325Y-71595400D01*
X117015325Y-71595400D02*
X117110563Y-71547780D01*
X117110563Y-71547780D02*
X117301039Y-71547780D01*
X117301039Y-71547780D02*
X117396277Y-71595400D01*
X117396277Y-71595400D02*
X117491515Y-71690638D01*
X117491515Y-71690638D02*
X117539134Y-71881114D01*
X117539134Y-71881114D02*
X117539134Y-72214447D01*
X117539134Y-72214447D02*
X117491515Y-72404923D01*
X117491515Y-72404923D02*
X117396277Y-72500161D01*
X117396277Y-72500161D02*
X117301039Y-72547780D01*
X115967706Y-71547780D02*
X116443896Y-71547780D01*
X116443896Y-71547780D02*
X116443896Y-72547780D01*
X115634372Y-72071590D02*
X115301039Y-72071590D01*
X115158182Y-71547780D02*
X115634372Y-71547780D01*
X115634372Y-71547780D02*
X115634372Y-72547780D01*
X115634372Y-72547780D02*
X115158182Y-72547780D01*
X114729610Y-71547780D02*
X114729610Y-72547780D01*
X114729610Y-72547780D02*
X114491515Y-72547780D01*
X114491515Y-72547780D02*
X114348658Y-72500161D01*
X114348658Y-72500161D02*
X114253420Y-72404923D01*
X114253420Y-72404923D02*
X114205801Y-72309685D01*
X114205801Y-72309685D02*
X114158182Y-72119209D01*
X114158182Y-72119209D02*
X114158182Y-71976352D01*
X114158182Y-71976352D02*
X114205801Y-71785876D01*
X114205801Y-71785876D02*
X114253420Y-71690638D01*
X114253420Y-71690638D02*
X114348658Y-71595400D01*
X114348658Y-71595400D02*
X114491515Y-71547780D01*
X114491515Y-71547780D02*
X114729610Y-71547780D01*
X142714285Y-55183609D02*
X142857142Y-55231228D01*
X142857142Y-55231228D02*
X142904761Y-55278847D01*
X142904761Y-55278847D02*
X142952380Y-55374085D01*
X142952380Y-55374085D02*
X142952380Y-55516942D01*
X142952380Y-55516942D02*
X142904761Y-55612180D01*
X142904761Y-55612180D02*
X142857142Y-55659800D01*
X142857142Y-55659800D02*
X142761904Y-55707419D01*
X142761904Y-55707419D02*
X142380952Y-55707419D01*
X142380952Y-55707419D02*
X142380952Y-54707419D01*
X142380952Y-54707419D02*
X142714285Y-54707419D01*
X142714285Y-54707419D02*
X142809523Y-54755038D01*
X142809523Y-54755038D02*
X142857142Y-54802657D01*
X142857142Y-54802657D02*
X142904761Y-54897895D01*
X142904761Y-54897895D02*
X142904761Y-54993133D01*
X142904761Y-54993133D02*
X142857142Y-55088371D01*
X142857142Y-55088371D02*
X142809523Y-55135990D01*
X142809523Y-55135990D02*
X142714285Y-55183609D01*
X142714285Y-55183609D02*
X142380952Y-55183609D01*
X143238095Y-54707419D02*
X143809523Y-54707419D01*
X143523809Y-55707419D02*
X143523809Y-54707419D01*
X144666666Y-55707419D02*
X144095238Y-55707419D01*
X144380952Y-55707419D02*
X144380952Y-54707419D01*
X144380952Y-54707419D02*
X144285714Y-54850276D01*
X144285714Y-54850276D02*
X144190476Y-54945514D01*
X144190476Y-54945514D02*
X144095238Y-54993133D01*
D11*
X105474819Y-126661904D02*
X106284342Y-126661904D01*
X106284342Y-126661904D02*
X106379580Y-126614285D01*
X106379580Y-126614285D02*
X106427200Y-126566666D01*
X106427200Y-126566666D02*
X106474819Y-126471428D01*
X106474819Y-126471428D02*
X106474819Y-126280952D01*
X106474819Y-126280952D02*
X106427200Y-126185714D01*
X106427200Y-126185714D02*
X106379580Y-126138095D01*
X106379580Y-126138095D02*
X106284342Y-126090476D01*
X106284342Y-126090476D02*
X105474819Y-126090476D01*
X105570057Y-125661904D02*
X105522438Y-125614285D01*
X105522438Y-125614285D02*
X105474819Y-125519047D01*
X105474819Y-125519047D02*
X105474819Y-125280952D01*
X105474819Y-125280952D02*
X105522438Y-125185714D01*
X105522438Y-125185714D02*
X105570057Y-125138095D01*
X105570057Y-125138095D02*
X105665295Y-125090476D01*
X105665295Y-125090476D02*
X105760533Y-125090476D01*
X105760533Y-125090476D02*
X105903390Y-125138095D01*
X105903390Y-125138095D02*
X106474819Y-125709523D01*
X106474819Y-125709523D02*
X106474819Y-125090476D01*
D10*
X130457419Y-112511904D02*
X131266942Y-112511904D01*
X131266942Y-112511904D02*
X131362180Y-112464285D01*
X131362180Y-112464285D02*
X131409800Y-112416666D01*
X131409800Y-112416666D02*
X131457419Y-112321428D01*
X131457419Y-112321428D02*
X131457419Y-112130952D01*
X131457419Y-112130952D02*
X131409800Y-112035714D01*
X131409800Y-112035714D02*
X131362180Y-111988095D01*
X131362180Y-111988095D02*
X131266942Y-111940476D01*
X131266942Y-111940476D02*
X130457419Y-111940476D01*
X130790752Y-111035714D02*
X131457419Y-111035714D01*
X130409800Y-111273809D02*
X131124085Y-111511904D01*
X131124085Y-111511904D02*
X131124085Y-110892857D01*
X105642419Y-111862115D02*
X106451942Y-111862115D01*
X106451942Y-111862115D02*
X106547180Y-111814496D01*
X106547180Y-111814496D02*
X106594800Y-111766877D01*
X106594800Y-111766877D02*
X106642419Y-111671639D01*
X106642419Y-111671639D02*
X106642419Y-111481163D01*
X106642419Y-111481163D02*
X106594800Y-111385925D01*
X106594800Y-111385925D02*
X106547180Y-111338306D01*
X106547180Y-111338306D02*
X106451942Y-111290687D01*
X106451942Y-111290687D02*
X105642419Y-111290687D01*
X106594800Y-110862115D02*
X106642419Y-110719258D01*
X106642419Y-110719258D02*
X106642419Y-110481163D01*
X106642419Y-110481163D02*
X106594800Y-110385925D01*
X106594800Y-110385925D02*
X106547180Y-110338306D01*
X106547180Y-110338306D02*
X106451942Y-110290687D01*
X106451942Y-110290687D02*
X106356704Y-110290687D01*
X106356704Y-110290687D02*
X106261466Y-110338306D01*
X106261466Y-110338306D02*
X106213847Y-110385925D01*
X106213847Y-110385925D02*
X106166228Y-110481163D01*
X106166228Y-110481163D02*
X106118609Y-110671639D01*
X106118609Y-110671639D02*
X106070990Y-110766877D01*
X106070990Y-110766877D02*
X106023371Y-110814496D01*
X106023371Y-110814496D02*
X105928133Y-110862115D01*
X105928133Y-110862115D02*
X105832895Y-110862115D01*
X105832895Y-110862115D02*
X105737657Y-110814496D01*
X105737657Y-110814496D02*
X105690038Y-110766877D01*
X105690038Y-110766877D02*
X105642419Y-110671639D01*
X105642419Y-110671639D02*
X105642419Y-110433544D01*
X105642419Y-110433544D02*
X105690038Y-110290687D01*
X106118609Y-109528782D02*
X106166228Y-109385925D01*
X106166228Y-109385925D02*
X106213847Y-109338306D01*
X106213847Y-109338306D02*
X106309085Y-109290687D01*
X106309085Y-109290687D02*
X106451942Y-109290687D01*
X106451942Y-109290687D02*
X106547180Y-109338306D01*
X106547180Y-109338306D02*
X106594800Y-109385925D01*
X106594800Y-109385925D02*
X106642419Y-109481163D01*
X106642419Y-109481163D02*
X106642419Y-109862115D01*
X106642419Y-109862115D02*
X105642419Y-109862115D01*
X105642419Y-109862115D02*
X105642419Y-109528782D01*
X105642419Y-109528782D02*
X105690038Y-109433544D01*
X105690038Y-109433544D02*
X105737657Y-109385925D01*
X105737657Y-109385925D02*
X105832895Y-109338306D01*
X105832895Y-109338306D02*
X105928133Y-109338306D01*
X105928133Y-109338306D02*
X106023371Y-109385925D01*
X106023371Y-109385925D02*
X106070990Y-109433544D01*
X106070990Y-109433544D02*
X106118609Y-109528782D01*
X106118609Y-109528782D02*
X106118609Y-109862115D01*
D11*
X143334819Y-49083333D02*
X144049104Y-49083333D01*
X144049104Y-49083333D02*
X144191961Y-49130952D01*
X144191961Y-49130952D02*
X144287200Y-49226190D01*
X144287200Y-49226190D02*
X144334819Y-49369047D01*
X144334819Y-49369047D02*
X144334819Y-49464285D01*
X143334819Y-48702380D02*
X143334819Y-48083333D01*
X143334819Y-48083333D02*
X143715771Y-48416666D01*
X143715771Y-48416666D02*
X143715771Y-48273809D01*
X143715771Y-48273809D02*
X143763390Y-48178571D01*
X143763390Y-48178571D02*
X143811009Y-48130952D01*
X143811009Y-48130952D02*
X143906247Y-48083333D01*
X143906247Y-48083333D02*
X144144342Y-48083333D01*
X144144342Y-48083333D02*
X144239580Y-48130952D01*
X144239580Y-48130952D02*
X144287200Y-48178571D01*
X144287200Y-48178571D02*
X144334819Y-48273809D01*
X144334819Y-48273809D02*
X144334819Y-48559523D01*
X144334819Y-48559523D02*
X144287200Y-48654761D01*
X144287200Y-48654761D02*
X144239580Y-48702380D01*
X139166666Y-53954819D02*
X139166666Y-54669104D01*
X139166666Y-54669104D02*
X139119047Y-54811961D01*
X139119047Y-54811961D02*
X139023809Y-54907200D01*
X139023809Y-54907200D02*
X138880952Y-54954819D01*
X138880952Y-54954819D02*
X138785714Y-54954819D01*
X139595238Y-54050057D02*
X139642857Y-54002438D01*
X139642857Y-54002438D02*
X139738095Y-53954819D01*
X139738095Y-53954819D02*
X139976190Y-53954819D01*
X139976190Y-53954819D02*
X140071428Y-54002438D01*
X140071428Y-54002438D02*
X140119047Y-54050057D01*
X140119047Y-54050057D02*
X140166666Y-54145295D01*
X140166666Y-54145295D02*
X140166666Y-54240533D01*
X140166666Y-54240533D02*
X140119047Y-54383390D01*
X140119047Y-54383390D02*
X139547619Y-54954819D01*
X139547619Y-54954819D02*
X140166666Y-54954819D01*
D14*
%TO.C,J1*%
X124920000Y-123580000D02*
X124920000Y-122250000D01*
X126250000Y-123580000D02*
X124920000Y-123580000D01*
X127520000Y-120920000D02*
X130120000Y-120920000D01*
X127520000Y-123580000D02*
X127520000Y-120920000D01*
X127520000Y-123580000D02*
X130120000Y-123580000D01*
X130120000Y-123580000D02*
X130120000Y-120920000D01*
D10*
%TO.C,U1*%
X103295400Y-54420200D02*
X107295400Y-54420200D01*
X103295400Y-99120200D02*
X103295400Y-54420200D01*
X103295400Y-99120200D02*
X104795400Y-100620200D01*
X107295400Y-54420200D02*
X110295400Y-50420200D01*
X121795400Y-50420200D02*
X110295400Y-50420200D01*
X124795400Y-54420200D02*
X121795400Y-50420200D01*
X127295400Y-100620200D02*
X104795400Y-100620200D01*
X128795400Y-54420200D02*
X124795400Y-54420200D01*
X128795400Y-54420200D02*
X128795400Y-99120200D01*
X128795400Y-99120200D02*
X127295400Y-100620200D01*
X109796200Y-100013200D02*
X107434000Y-100013200D01*
X107434000Y-95669800D01*
X109796200Y-95669800D01*
X109796200Y-100013200D01*
X118795400Y-100620200D02*
X113295400Y-100620200D01*
X113295400Y-96620200D01*
X118795400Y-96620200D01*
X118795400Y-100620200D01*
X124553600Y-99937000D02*
X122191400Y-99937000D01*
X122191400Y-95593600D01*
X124553600Y-95593600D01*
X124553600Y-99937000D01*
X125295400Y-87420200D02*
X106795400Y-87420200D01*
X106795400Y-54420200D01*
X125295400Y-54420200D01*
X125295400Y-87420200D01*
X109270877Y-97930400D02*
G75*
G02*
X107984723Y-97930400I-643077J0D01*
G01*
X107984723Y-97930400D02*
G75*
G02*
X109270877Y-97930400I643077J0D01*
G01*
X116523107Y-52413600D02*
G75*
G02*
X115108893Y-52413600I-707107J0D01*
G01*
X115108893Y-52413600D02*
G75*
G02*
X116523107Y-52413600I707107J0D01*
G01*
X124028277Y-97854200D02*
G75*
G02*
X122742123Y-97854200I-643077J0D01*
G01*
X122742123Y-97854200D02*
G75*
G02*
X124028277Y-97854200I643077J0D01*
G01*
%TO.C,BT1*%
X133000000Y-56250000D02*
X154000000Y-56250000D01*
X154000000Y-132250000D01*
X133000000Y-132250000D01*
X133000000Y-56250000D01*
X145000000Y-94250000D02*
G75*
G02*
X142000000Y-94250000I-1500000J0D01*
G01*
X142000000Y-94250000D02*
G75*
G02*
X145000000Y-94250000I1500000J0D01*
G01*
D14*
%TO.C,U2*%
X107590000Y-129170000D02*
X108920000Y-129170000D01*
X107590000Y-130500000D02*
X107590000Y-129170000D01*
X110190000Y-129170000D02*
X122950000Y-129170000D01*
X110190000Y-131830000D02*
X110190000Y-129170000D01*
X110190000Y-131830000D02*
X122950000Y-131830000D01*
X122950000Y-131830000D02*
X122950000Y-129170000D01*
D10*
X107120000Y-132000000D02*
X123120000Y-132000000D01*
X123120000Y-120000000D01*
X107120000Y-120000000D01*
X107120000Y-132000000D01*
%TO.C,U4*%
X103400000Y-101800000D02*
X103400000Y-103800000D01*
X103400000Y-103800000D02*
X104200000Y-103800000D01*
X103400000Y-117200000D02*
X103400000Y-119200000D01*
X103400000Y-119200000D02*
X131400000Y-119200000D01*
X104200000Y-103800000D02*
X104200000Y-117200000D01*
X104200000Y-117200000D02*
X103400000Y-117200000D01*
X105500000Y-103784000D02*
X105500000Y-103784000D01*
X129400000Y-103800000D02*
X131400000Y-103800000D01*
X129400000Y-117200000D02*
X129400000Y-103800000D01*
X131400000Y-101800000D02*
X103400000Y-101800000D01*
X131400000Y-103800000D02*
X131400000Y-101800000D01*
X131400000Y-117200000D02*
X129400000Y-117200000D01*
X131400000Y-119200000D02*
X131400000Y-117200000D01*
X102409400Y-115072000D02*
X108505400Y-115072000D01*
X108505400Y-105928000D01*
X102409400Y-105928000D01*
X102409400Y-115072000D01*
D14*
%TO.C,J3*%
X144880000Y-50080000D02*
X144880000Y-48750000D01*
X146210000Y-50080000D02*
X144880000Y-50080000D01*
X147480000Y-47420000D02*
X150080000Y-47420000D01*
X147480000Y-50080000D02*
X147480000Y-47420000D01*
X147480000Y-50080000D02*
X150080000Y-50080000D01*
X150080000Y-50080000D02*
X150080000Y-47420000D01*
%TO.C,J2*%
X132670000Y-43800000D02*
X134000000Y-43800000D01*
X132670000Y-45130000D02*
X132670000Y-43800000D01*
X132670000Y-46400000D02*
X132670000Y-54080000D01*
X132670000Y-46400000D02*
X135270000Y-46400000D01*
X132670000Y-54080000D02*
X137870000Y-54080000D01*
X135270000Y-43800000D02*
X137870000Y-43800000D01*
X135270000Y-46400000D02*
X135270000Y-43800000D01*
X137870000Y-43800000D02*
X137870000Y-54080000D01*
%TD*%
M02*
