%TF.GenerationSoftware,KiCad,Pcbnew,8.0.8*%
%TF.CreationDate,2025-07-12T12:46:12+02:00*%
%TF.ProjectId,lora_sensor_case-sensor_bottom,6c6f7261-5f73-4656-9e73-6f725f636173,rev?*%
%TF.SameCoordinates,Original*%
%TF.FileFunction,Copper,L2,Bot*%
%TF.FilePolarity,Positive*%
%FSLAX46Y46*%
G04 Gerber Fmt 4.6, Leading zero omitted, Abs format (unit mm)*
G04 Created by KiCad (PCBNEW 8.0.8) date 2025-07-12 12:46:12*
%MOMM*%
%LPD*%
G01*
G04 APERTURE LIST*
%TA.AperFunction,ComponentPad*%
%ADD10R,1.700000X1.700000*%
%TD*%
%TA.AperFunction,ComponentPad*%
%ADD11O,1.700000X1.700000*%
%TD*%
%TA.AperFunction,ComponentPad*%
%ADD12C,1.524000*%
%TD*%
%TA.AperFunction,ViaPad*%
%ADD13C,0.600000*%
%TD*%
%TA.AperFunction,Conductor*%
%ADD14C,0.600000*%
%TD*%
%TA.AperFunction,Conductor*%
%ADD15C,0.200000*%
%TD*%
G04 APERTURE END LIST*
D10*
%TO.P,J1,1,Pin_1*%
%TO.N,VCC*%
X126250000Y-122250000D03*
D11*
%TO.P,J1,2,Pin_2*%
%TO.N,GNDA*%
X128790000Y-122250000D03*
%TD*%
D12*
%TO.P,U1,1,GND*%
%TO.N,GND*%
X127500000Y-98540000D03*
%TO.P,U1,2,5V*%
%TO.N,+5V*%
X127500000Y-96000000D03*
%TO.P,U1,3,Vext*%
%TO.N,unconnected-(U1-Vext-Pad3)*%
X127500000Y-93460000D03*
%TO.P,U1,4,Vext*%
%TO.N,unconnected-(U1-Vext-Pad4)*%
X127500000Y-90920000D03*
%TO.P,U1,5,RX*%
%TO.N,/UART_RX*%
X127500000Y-88380000D03*
%TO.P,U1,6,TX*%
%TO.N,/UART_TX*%
X127500000Y-85840000D03*
%TO.P,U1,7,RST*%
%TO.N,unconnected-(U1-RST-Pad7)*%
X127500000Y-83300000D03*
%TO.P,U1,8,0*%
%TO.N,unconnected-(U1-0-Pad8)*%
X127500000Y-80760000D03*
%TO.P,U1,9,36*%
%TO.N,unconnected-(U1-36-Pad9)*%
X127500000Y-78220000D03*
%TO.P,U1,10,35*%
%TO.N,unconnected-(U1-35-Pad10)*%
X127500000Y-75680000D03*
%TO.P,U1,11,34*%
%TO.N,/GPIO_34*%
X127500000Y-73140000D03*
%TO.P,U1,12,33*%
%TO.N,/GPIO_33*%
X127500000Y-70600000D03*
%TO.P,U1,13,SPI_CLK_P*%
%TO.N,unconnected-(U1-SPI_CLK_P-Pad13)*%
X127500000Y-68060000D03*
%TO.P,U1,14,SPI_CLK_N*%
%TO.N,unconnected-(U1-SPI_CLK_N-Pad14)*%
X127500000Y-65520000D03*
%TO.P,U1,15,26*%
%TO.N,unconnected-(U1-26-Pad15)*%
X127500000Y-62980000D03*
%TO.P,U1,16,21*%
%TO.N,unconnected-(U1-21-Pad16)*%
X127500000Y-60440000D03*
%TO.P,U1,17,20*%
%TO.N,unconnected-(U1-20-Pad17)*%
X127500000Y-57900000D03*
%TO.P,U1,18,19*%
%TO.N,unconnected-(U1-19-Pad18)*%
X127500000Y-55360000D03*
%TO.P,U1,19,GND*%
%TO.N,GND*%
X104640000Y-98540000D03*
%TO.P,U1,20,3.3*%
%TO.N,unconnected-(U1-3.3-Pad20)*%
X104640000Y-96000000D03*
%TO.P,U1,21,3.3*%
%TO.N,+3V3*%
X104640000Y-93460000D03*
%TO.P,U1,22,37*%
%TO.N,unconnected-(U1-37-Pad22)*%
X104640000Y-90920000D03*
%TO.P,U1,23,46*%
%TO.N,unconnected-(U1-46-Pad23)*%
X104640000Y-88380000D03*
%TO.P,U1,24,45*%
%TO.N,unconnected-(U1-45-Pad24)*%
X104640000Y-85840000D03*
%TO.P,U1,25,42*%
%TO.N,/SCL*%
X104640000Y-83300000D03*
%TO.P,U1,26,41*%
%TO.N,/SDA*%
X104640000Y-80760000D03*
%TO.P,U1,27,40*%
%TO.N,unconnected-(U1-40-Pad27)*%
X104640000Y-78220000D03*
%TO.P,U1,28,39*%
%TO.N,unconnected-(U1-39-Pad28)*%
X104640000Y-75680000D03*
%TO.P,U1,29,38*%
%TO.N,unconnected-(U1-38-Pad29)*%
X104640000Y-73140000D03*
%TO.P,U1,30,1*%
%TO.N,unconnected-(U1-1-Pad30)*%
X104640000Y-70600000D03*
%TO.P,U1,31,2*%
%TO.N,unconnected-(U1-2-Pad31)*%
X104640000Y-68060000D03*
%TO.P,U1,32,3*%
%TO.N,unconnected-(U1-3-Pad32)*%
X104640000Y-65520000D03*
%TO.P,U1,33,4*%
%TO.N,unconnected-(U1-4-Pad33)*%
X104640000Y-62980000D03*
%TO.P,U1,34,5*%
%TO.N,unconnected-(U1-5-Pad34)*%
X104640000Y-60440000D03*
%TO.P,U1,35,6*%
%TO.N,unconnected-(U1-6-Pad35)*%
X104640000Y-57900000D03*
%TO.P,U1,36,7*%
%TO.N,unconnected-(U1-7-Pad36)*%
X104640000Y-55360000D03*
%TD*%
D10*
%TO.P,U2,1,VCC*%
%TO.N,+3V3*%
X108920000Y-130500000D03*
D11*
%TO.P,U2,2,GND*%
%TO.N,GND*%
X111460000Y-130500000D03*
%TO.P,U2,3,SCL*%
%TO.N,/SCL*%
X114000000Y-130500000D03*
%TO.P,U2,4,SDA*%
%TO.N,/SDA*%
X116540000Y-130500000D03*
%TO.P,U2,5,CSB*%
%TO.N,unconnected-(U2-CSB-Pad5)*%
X119080000Y-130500000D03*
%TO.P,U2,6,SDO*%
%TO.N,unconnected-(U2-SDO-Pad6)*%
X121620000Y-130500000D03*
%TD*%
D12*
%TO.P,U4,1,In+*%
%TO.N,VDD*%
X105500000Y-103500000D03*
%TO.P,U4,2,In-*%
%TO.N,GND*%
X105500000Y-117500000D03*
%TO.P,U4,3,Out+*%
%TO.N,VCC*%
X128000000Y-103500000D03*
%TO.P,U4,4,Bat+*%
X128000000Y-106500000D03*
%TO.P,U4,5,Bat-*%
%TO.N,GNDA*%
X128000000Y-114500000D03*
%TO.P,U4,6,Out-*%
%TO.N,GND*%
X128000000Y-117500000D03*
%TD*%
D10*
%TO.P,J3,1,Pin_1*%
%TO.N,VDD*%
X146210000Y-48750000D03*
D11*
%TO.P,J3,2,Pin_2*%
%TO.N,GND*%
X148750000Y-48750000D03*
%TD*%
D10*
%TO.P,J2,1,Pin_1*%
%TO.N,/GPIO_34*%
X134000000Y-45130000D03*
D11*
%TO.P,J2,2,Pin_2*%
%TO.N,/UART_TX*%
X136540000Y-45130000D03*
%TO.P,J2,3,Pin_3*%
%TO.N,/GPIO_33*%
X134000000Y-47670000D03*
%TO.P,J2,4,Pin_4*%
%TO.N,/UART_RX*%
X136540000Y-47670000D03*
%TO.P,J2,5,Pin_5*%
%TO.N,+3V3*%
X134000000Y-50210000D03*
%TO.P,J2,6,Pin_6*%
%TO.N,+5V*%
X136540000Y-50210000D03*
%TO.P,J2,7,Pin_7*%
%TO.N,GND*%
X134000000Y-52750000D03*
%TO.P,J2,8,Pin_8*%
X136540000Y-52750000D03*
%TD*%
D13*
%TO.N,GND*%
X111500000Y-68500000D03*
%TO.N,+3V3*%
X108920000Y-116330000D03*
%TO.N,/UART_TX*%
X133100000Y-80250000D03*
%TO.N,/UART_RX*%
X132500000Y-82000000D03*
%TO.N,VDD*%
X121750000Y-111750000D03*
%TD*%
D14*
%TO.N,+3V3*%
X117000000Y-62131371D02*
X117000000Y-81100000D01*
X108920000Y-130500000D02*
X108920000Y-116330000D01*
X117000000Y-81100000D02*
X104640000Y-93460000D01*
X134000000Y-50210000D02*
X128921371Y-50210000D01*
X128921371Y-50210000D02*
X117000000Y-62131371D01*
D15*
%TO.N,/UART_TX*%
X133090000Y-80250000D02*
X133100000Y-80250000D01*
X127500000Y-85840000D02*
X133090000Y-80250000D01*
%TO.N,/UART_RX*%
X127500000Y-88380000D02*
X129500000Y-86380000D01*
X129500000Y-86380000D02*
X129500000Y-85000000D01*
X129500000Y-85000000D02*
X132500000Y-82000000D01*
D14*
%TO.N,VDD*%
X105500000Y-109250000D02*
X105500000Y-103500000D01*
X108000000Y-111750000D02*
X105500000Y-109250000D01*
X121750000Y-111750000D02*
X108000000Y-111750000D01*
%TO.N,VCC*%
X126250000Y-108250000D02*
X126250000Y-122250000D01*
X128000000Y-106500000D02*
X126250000Y-108250000D01*
%TD*%
%TA.AperFunction,Conductor*%
%TO.N,GND*%
G36*
X153442539Y-43520185D02*
G01*
X153488294Y-43572989D01*
X153499500Y-43624500D01*
X153499500Y-56126000D01*
X153479815Y-56193039D01*
X153427011Y-56238794D01*
X153375500Y-56250000D01*
X141749999Y-56250000D01*
X134750000Y-63249999D01*
X134750000Y-92453407D01*
X134730315Y-92520446D01*
X134719320Y-92535062D01*
X134028354Y-93324738D01*
X133000000Y-94500000D01*
X133000000Y-94500001D01*
X133000000Y-133125500D01*
X132980315Y-133192539D01*
X132927511Y-133238294D01*
X132876000Y-133249500D01*
X102624500Y-133249500D01*
X102557461Y-133229815D01*
X102511706Y-133177011D01*
X102500500Y-133125500D01*
X102500500Y-129602135D01*
X107569500Y-129602135D01*
X107569500Y-131397870D01*
X107569501Y-131397876D01*
X107575908Y-131457483D01*
X107626202Y-131592328D01*
X107626206Y-131592335D01*
X107712452Y-131707544D01*
X107712455Y-131707547D01*
X107827664Y-131793793D01*
X107827671Y-131793797D01*
X107962517Y-131844091D01*
X107962516Y-131844091D01*
X107969444Y-131844835D01*
X108022127Y-131850500D01*
X109817872Y-131850499D01*
X109877483Y-131844091D01*
X110012331Y-131793796D01*
X110127546Y-131707546D01*
X110213796Y-131592331D01*
X110263002Y-131460401D01*
X110304872Y-131404468D01*
X110370337Y-131380050D01*
X110438610Y-131394901D01*
X110466865Y-131416053D01*
X110588917Y-131538105D01*
X110782421Y-131673600D01*
X110996507Y-131773429D01*
X110996516Y-131773433D01*
X111210000Y-131830634D01*
X111210000Y-130933012D01*
X111267007Y-130965925D01*
X111394174Y-131000000D01*
X111525826Y-131000000D01*
X111652993Y-130965925D01*
X111710000Y-130933012D01*
X111710000Y-131830633D01*
X111923483Y-131773433D01*
X111923492Y-131773429D01*
X112137578Y-131673600D01*
X112331082Y-131538105D01*
X112498105Y-131371082D01*
X112628119Y-131185405D01*
X112682696Y-131141781D01*
X112752195Y-131134588D01*
X112814549Y-131166110D01*
X112831269Y-131185405D01*
X112961505Y-131371401D01*
X113128599Y-131538495D01*
X113225384Y-131606265D01*
X113322165Y-131674032D01*
X113322167Y-131674033D01*
X113322170Y-131674035D01*
X113536337Y-131773903D01*
X113764592Y-131835063D01*
X113941034Y-131850500D01*
X113999999Y-131855659D01*
X114000000Y-131855659D01*
X114000001Y-131855659D01*
X114058966Y-131850500D01*
X114235408Y-131835063D01*
X114463663Y-131773903D01*
X114677830Y-131674035D01*
X114871401Y-131538495D01*
X115038495Y-131371401D01*
X115168425Y-131185842D01*
X115223002Y-131142217D01*
X115292500Y-131135023D01*
X115354855Y-131166546D01*
X115371575Y-131185842D01*
X115501500Y-131371395D01*
X115501505Y-131371401D01*
X115668599Y-131538495D01*
X115765384Y-131606265D01*
X115862165Y-131674032D01*
X115862167Y-131674033D01*
X115862170Y-131674035D01*
X116076337Y-131773903D01*
X116304592Y-131835063D01*
X116481034Y-131850500D01*
X116539999Y-131855659D01*
X116540000Y-131855659D01*
X116540001Y-131855659D01*
X116598966Y-131850500D01*
X116775408Y-131835063D01*
X117003663Y-131773903D01*
X117217830Y-131674035D01*
X117411401Y-131538495D01*
X117578495Y-131371401D01*
X117708425Y-131185842D01*
X117763002Y-131142217D01*
X117832500Y-131135023D01*
X117894855Y-131166546D01*
X117911575Y-131185842D01*
X118041500Y-131371395D01*
X118041505Y-131371401D01*
X118208599Y-131538495D01*
X118305384Y-131606265D01*
X118402165Y-131674032D01*
X118402167Y-131674033D01*
X118402170Y-131674035D01*
X118616337Y-131773903D01*
X118844592Y-131835063D01*
X119021034Y-131850500D01*
X119079999Y-131855659D01*
X119080000Y-131855659D01*
X119080001Y-131855659D01*
X119138966Y-131850500D01*
X119315408Y-131835063D01*
X119543663Y-131773903D01*
X119757830Y-131674035D01*
X119951401Y-131538495D01*
X120118495Y-131371401D01*
X120248425Y-131185842D01*
X120303002Y-131142217D01*
X120372500Y-131135023D01*
X120434855Y-131166546D01*
X120451575Y-131185842D01*
X120581500Y-131371395D01*
X120581505Y-131371401D01*
X120748599Y-131538495D01*
X120845384Y-131606265D01*
X120942165Y-131674032D01*
X120942167Y-131674033D01*
X120942170Y-131674035D01*
X121156337Y-131773903D01*
X121384592Y-131835063D01*
X121561034Y-131850500D01*
X121619999Y-131855659D01*
X121620000Y-131855659D01*
X121620001Y-131855659D01*
X121678966Y-131850500D01*
X121855408Y-131835063D01*
X122083663Y-131773903D01*
X122297830Y-131674035D01*
X122491401Y-131538495D01*
X122658495Y-131371401D01*
X122794035Y-131177830D01*
X122893903Y-130963663D01*
X122955063Y-130735408D01*
X122975659Y-130500000D01*
X122955063Y-130264592D01*
X122893903Y-130036337D01*
X122794035Y-129822171D01*
X122788731Y-129814595D01*
X122658494Y-129628597D01*
X122491402Y-129461506D01*
X122491395Y-129461501D01*
X122297834Y-129325967D01*
X122297830Y-129325965D01*
X122297828Y-129325964D01*
X122083663Y-129226097D01*
X122083659Y-129226096D01*
X122083655Y-129226094D01*
X121855413Y-129164938D01*
X121855403Y-129164936D01*
X121620001Y-129144341D01*
X121619999Y-129144341D01*
X121384596Y-129164936D01*
X121384586Y-129164938D01*
X121156344Y-129226094D01*
X121156335Y-129226098D01*
X120942171Y-129325964D01*
X120942169Y-129325965D01*
X120748597Y-129461505D01*
X120581505Y-129628597D01*
X120451575Y-129814158D01*
X120396998Y-129857783D01*
X120327500Y-129864977D01*
X120265145Y-129833454D01*
X120248425Y-129814158D01*
X120118494Y-129628597D01*
X119951402Y-129461506D01*
X119951395Y-129461501D01*
X119757834Y-129325967D01*
X119757830Y-129325965D01*
X119757828Y-129325964D01*
X119543663Y-129226097D01*
X119543659Y-129226096D01*
X119543655Y-129226094D01*
X119315413Y-129164938D01*
X119315403Y-129164936D01*
X119080001Y-129144341D01*
X119079999Y-129144341D01*
X118844596Y-129164936D01*
X118844586Y-129164938D01*
X118616344Y-129226094D01*
X118616335Y-129226098D01*
X118402171Y-129325964D01*
X118402169Y-129325965D01*
X118208597Y-129461505D01*
X118041505Y-129628597D01*
X117911575Y-129814158D01*
X117856998Y-129857783D01*
X117787500Y-129864977D01*
X117725145Y-129833454D01*
X117708425Y-129814158D01*
X117578494Y-129628597D01*
X117411402Y-129461506D01*
X117411395Y-129461501D01*
X117217834Y-129325967D01*
X117217830Y-129325965D01*
X117217828Y-129325964D01*
X117003663Y-129226097D01*
X117003659Y-129226096D01*
X117003655Y-129226094D01*
X116775413Y-129164938D01*
X116775403Y-129164936D01*
X116540001Y-129144341D01*
X116539999Y-129144341D01*
X116304596Y-129164936D01*
X116304586Y-129164938D01*
X116076344Y-129226094D01*
X116076335Y-129226098D01*
X115862171Y-129325964D01*
X115862169Y-129325965D01*
X115668597Y-129461505D01*
X115501505Y-129628597D01*
X115371575Y-129814158D01*
X115316998Y-129857783D01*
X115247500Y-129864977D01*
X115185145Y-129833454D01*
X115168425Y-129814158D01*
X115038494Y-129628597D01*
X114871402Y-129461506D01*
X114871395Y-129461501D01*
X114677834Y-129325967D01*
X114677830Y-129325965D01*
X114677828Y-129325964D01*
X114463663Y-129226097D01*
X114463659Y-129226096D01*
X114463655Y-129226094D01*
X114235413Y-129164938D01*
X114235403Y-129164936D01*
X114000001Y-129144341D01*
X113999999Y-129144341D01*
X113764596Y-129164936D01*
X113764586Y-129164938D01*
X113536344Y-129226094D01*
X113536335Y-129226098D01*
X113322171Y-129325964D01*
X113322169Y-129325965D01*
X113128597Y-129461505D01*
X112961508Y-129628594D01*
X112831269Y-129814595D01*
X112776692Y-129858219D01*
X112707193Y-129865412D01*
X112644839Y-129833890D01*
X112628119Y-129814594D01*
X112498113Y-129628926D01*
X112498108Y-129628920D01*
X112331082Y-129461894D01*
X112137578Y-129326399D01*
X111923492Y-129226570D01*
X111923486Y-129226567D01*
X111710000Y-129169364D01*
X111710000Y-130066988D01*
X111652993Y-130034075D01*
X111525826Y-130000000D01*
X111394174Y-130000000D01*
X111267007Y-130034075D01*
X111210000Y-130066988D01*
X111210000Y-129169364D01*
X111209999Y-129169364D01*
X110996513Y-129226567D01*
X110996507Y-129226570D01*
X110782422Y-129326399D01*
X110782420Y-129326400D01*
X110588926Y-129461886D01*
X110466865Y-129583947D01*
X110405542Y-129617431D01*
X110335850Y-129612447D01*
X110279917Y-129570575D01*
X110263002Y-129539598D01*
X110240966Y-129480517D01*
X110213796Y-129407669D01*
X110213795Y-129407668D01*
X110213793Y-129407664D01*
X110127547Y-129292455D01*
X110127544Y-129292452D01*
X110012335Y-129206206D01*
X110012328Y-129206202D01*
X109877483Y-129155908D01*
X109831243Y-129150937D01*
X109766693Y-129124199D01*
X109726845Y-129066806D01*
X109720500Y-129027648D01*
X109720500Y-128249992D01*
X125494671Y-128249992D01*
X125494671Y-128250007D01*
X125513964Y-128544363D01*
X125513965Y-128544373D01*
X125513966Y-128544380D01*
X125513968Y-128544390D01*
X125571518Y-128833716D01*
X125571521Y-128833730D01*
X125666349Y-129113080D01*
X125796825Y-129377660D01*
X125796829Y-129377667D01*
X125960725Y-129622955D01*
X126155241Y-129844758D01*
X126332261Y-130000000D01*
X126377043Y-130039273D01*
X126622335Y-130203172D01*
X126886923Y-130333652D01*
X127166278Y-130428481D01*
X127455620Y-130486034D01*
X127483888Y-130487886D01*
X127749993Y-130505329D01*
X127750000Y-130505329D01*
X127750007Y-130505329D01*
X127985675Y-130489881D01*
X128044380Y-130486034D01*
X128333722Y-130428481D01*
X128613077Y-130333652D01*
X128877665Y-130203172D01*
X129122957Y-130039273D01*
X129344758Y-129844758D01*
X129539273Y-129622957D01*
X129703172Y-129377665D01*
X129833652Y-129113077D01*
X129928481Y-128833722D01*
X129986034Y-128544380D01*
X130005329Y-128250000D01*
X130005329Y-128249992D01*
X129986035Y-127955636D01*
X129986034Y-127955620D01*
X129928481Y-127666278D01*
X129833652Y-127386923D01*
X129703172Y-127122336D01*
X129539273Y-126877043D01*
X129496655Y-126828447D01*
X129344758Y-126655241D01*
X129122955Y-126460725D01*
X128877667Y-126296829D01*
X128877660Y-126296825D01*
X128613080Y-126166349D01*
X128333730Y-126071521D01*
X128333724Y-126071519D01*
X128333722Y-126071519D01*
X128044380Y-126013966D01*
X128044373Y-126013965D01*
X128044363Y-126013964D01*
X127750007Y-125994671D01*
X127749993Y-125994671D01*
X127455636Y-126013964D01*
X127455624Y-126013965D01*
X127455620Y-126013966D01*
X127455612Y-126013967D01*
X127455609Y-126013968D01*
X127166283Y-126071518D01*
X127166269Y-126071521D01*
X126886919Y-126166349D01*
X126622334Y-126296828D01*
X126377041Y-126460728D01*
X126155241Y-126655241D01*
X125960728Y-126877041D01*
X125796828Y-127122334D01*
X125666349Y-127386919D01*
X125571521Y-127666269D01*
X125571518Y-127666283D01*
X125513968Y-127955609D01*
X125513964Y-127955636D01*
X125494671Y-128249992D01*
X109720500Y-128249992D01*
X109720500Y-121352135D01*
X124899500Y-121352135D01*
X124899500Y-123147870D01*
X124899501Y-123147876D01*
X124905908Y-123207483D01*
X124956202Y-123342328D01*
X124956206Y-123342335D01*
X125042452Y-123457544D01*
X125042455Y-123457547D01*
X125157664Y-123543793D01*
X125157671Y-123543797D01*
X125292517Y-123594091D01*
X125292516Y-123594091D01*
X125299444Y-123594835D01*
X125352127Y-123600500D01*
X127147872Y-123600499D01*
X127207483Y-123594091D01*
X127342331Y-123543796D01*
X127457546Y-123457546D01*
X127543796Y-123342331D01*
X127592810Y-123210916D01*
X127634681Y-123154984D01*
X127700145Y-123130566D01*
X127768418Y-123145417D01*
X127796673Y-123166569D01*
X127918599Y-123288495D01*
X128015384Y-123356265D01*
X128112165Y-123424032D01*
X128112167Y-123424033D01*
X128112170Y-123424035D01*
X128326337Y-123523903D01*
X128554592Y-123585063D01*
X128731034Y-123600500D01*
X128789999Y-123605659D01*
X128790000Y-123605659D01*
X128790001Y-123605659D01*
X128848966Y-123600500D01*
X129025408Y-123585063D01*
X129253663Y-123523903D01*
X129467830Y-123424035D01*
X129661401Y-123288495D01*
X129828495Y-123121401D01*
X129964035Y-122927830D01*
X130063903Y-122713663D01*
X130125063Y-122485408D01*
X130145659Y-122250000D01*
X130125063Y-122014592D01*
X130063903Y-121786337D01*
X129964035Y-121572171D01*
X129828495Y-121378599D01*
X129828494Y-121378597D01*
X129661402Y-121211506D01*
X129661395Y-121211501D01*
X129467834Y-121075967D01*
X129467830Y-121075965D01*
X129467828Y-121075964D01*
X129253663Y-120976097D01*
X129253659Y-120976096D01*
X129253655Y-120976094D01*
X129025413Y-120914938D01*
X129025403Y-120914936D01*
X128790001Y-120894341D01*
X128789999Y-120894341D01*
X128554596Y-120914936D01*
X128554586Y-120914938D01*
X128326344Y-120976094D01*
X128326335Y-120976098D01*
X128112171Y-121075964D01*
X128112169Y-121075965D01*
X127918600Y-121211503D01*
X127796673Y-121333430D01*
X127735350Y-121366914D01*
X127665658Y-121361930D01*
X127609725Y-121320058D01*
X127592810Y-121289081D01*
X127543797Y-121157671D01*
X127543793Y-121157664D01*
X127457547Y-121042455D01*
X127457544Y-121042452D01*
X127342335Y-120956206D01*
X127342328Y-120956202D01*
X127207483Y-120905908D01*
X127161243Y-120900937D01*
X127096693Y-120874199D01*
X127056845Y-120816806D01*
X127050500Y-120777648D01*
X127050500Y-118613972D01*
X127070185Y-118546933D01*
X127122989Y-118501178D01*
X127192147Y-118491234D01*
X127245624Y-118512398D01*
X127366582Y-118597094D01*
X127366592Y-118597100D01*
X127566715Y-118690419D01*
X127566729Y-118690424D01*
X127780013Y-118747573D01*
X127780023Y-118747575D01*
X127999999Y-118766821D01*
X128000001Y-118766821D01*
X128219976Y-118747575D01*
X128219986Y-118747573D01*
X128433270Y-118690424D01*
X128433284Y-118690419D01*
X128633407Y-118597100D01*
X128633417Y-118597094D01*
X128698188Y-118551741D01*
X128027447Y-117881000D01*
X128050160Y-117881000D01*
X128147061Y-117855036D01*
X128233940Y-117804876D01*
X128304876Y-117733940D01*
X128355036Y-117647061D01*
X128381000Y-117550160D01*
X128381000Y-117527447D01*
X129051741Y-118198188D01*
X129097094Y-118133417D01*
X129097100Y-118133407D01*
X129190419Y-117933284D01*
X129190424Y-117933270D01*
X129247573Y-117719986D01*
X129247575Y-117719976D01*
X129266821Y-117500000D01*
X129266821Y-117499999D01*
X129247575Y-117280023D01*
X129247573Y-117280013D01*
X129190424Y-117066729D01*
X129190420Y-117066720D01*
X129097096Y-116866586D01*
X129051741Y-116801811D01*
X129051740Y-116801810D01*
X128381000Y-117472551D01*
X128381000Y-117449840D01*
X128355036Y-117352939D01*
X128304876Y-117266060D01*
X128233940Y-117195124D01*
X128147061Y-117144964D01*
X128050160Y-117119000D01*
X128027446Y-117119000D01*
X128698188Y-116448258D01*
X128633411Y-116402901D01*
X128633405Y-116402898D01*
X128433284Y-116309580D01*
X128433270Y-116309575D01*
X128219986Y-116252426D01*
X128219976Y-116252424D01*
X128000001Y-116233179D01*
X127999999Y-116233179D01*
X127780023Y-116252424D01*
X127780013Y-116252426D01*
X127566729Y-116309575D01*
X127566720Y-116309579D01*
X127366591Y-116402900D01*
X127366589Y-116402901D01*
X127245623Y-116487602D01*
X127179416Y-116509929D01*
X127111649Y-116492918D01*
X127063837Y-116441970D01*
X127050500Y-116386027D01*
X127050500Y-115614583D01*
X127070185Y-115547544D01*
X127122989Y-115501789D01*
X127192147Y-115491845D01*
X127245619Y-115513006D01*
X127366338Y-115597534D01*
X127566550Y-115690894D01*
X127779932Y-115748070D01*
X127937123Y-115761822D01*
X127999998Y-115767323D01*
X128000000Y-115767323D01*
X128000002Y-115767323D01*
X128055017Y-115762509D01*
X128220068Y-115748070D01*
X128433450Y-115690894D01*
X128633662Y-115597534D01*
X128814620Y-115470826D01*
X128970826Y-115314620D01*
X129097534Y-115133662D01*
X129190894Y-114933450D01*
X129248070Y-114720068D01*
X129267323Y-114500000D01*
X129248070Y-114279932D01*
X129190894Y-114066550D01*
X129097534Y-113866339D01*
X128970826Y-113685380D01*
X128814620Y-113529174D01*
X128814616Y-113529171D01*
X128814615Y-113529170D01*
X128633666Y-113402468D01*
X128633662Y-113402466D01*
X128597098Y-113385416D01*
X128433450Y-113309106D01*
X128433447Y-113309105D01*
X128433445Y-113309104D01*
X128220070Y-113251930D01*
X128220062Y-113251929D01*
X128000002Y-113232677D01*
X127999998Y-113232677D01*
X127779937Y-113251929D01*
X127779929Y-113251930D01*
X127566554Y-113309104D01*
X127566548Y-113309107D01*
X127366340Y-113402465D01*
X127366338Y-113402466D01*
X127245623Y-113486991D01*
X127179416Y-113509319D01*
X127111649Y-113492307D01*
X127063837Y-113441359D01*
X127050500Y-113385416D01*
X127050500Y-108632939D01*
X127070185Y-108565900D01*
X127086815Y-108545262D01*
X127834750Y-107797326D01*
X127896071Y-107763843D01*
X127933232Y-107761481D01*
X128000000Y-107767323D01*
X128000000Y-107767322D01*
X128000001Y-107767323D01*
X128000002Y-107767323D01*
X128066776Y-107761481D01*
X128220068Y-107748070D01*
X128433450Y-107690894D01*
X128633662Y-107597534D01*
X128814620Y-107470826D01*
X128970826Y-107314620D01*
X129097534Y-107133662D01*
X129190894Y-106933450D01*
X129248070Y-106720068D01*
X129267323Y-106500000D01*
X129248070Y-106279932D01*
X129190894Y-106066550D01*
X129097534Y-105866339D01*
X128970826Y-105685380D01*
X128814620Y-105529174D01*
X128814616Y-105529171D01*
X128814615Y-105529170D01*
X128633666Y-105402468D01*
X128633662Y-105402466D01*
X128633660Y-105402465D01*
X128433450Y-105309106D01*
X128433447Y-105309105D01*
X128433445Y-105309104D01*
X128220070Y-105251930D01*
X128220062Y-105251929D01*
X128000002Y-105232677D01*
X127999998Y-105232677D01*
X127779937Y-105251929D01*
X127779929Y-105251930D01*
X127566554Y-105309104D01*
X127566548Y-105309107D01*
X127366340Y-105402465D01*
X127366338Y-105402466D01*
X127185377Y-105529175D01*
X127029175Y-105685377D01*
X126902466Y-105866338D01*
X126902465Y-105866340D01*
X126809107Y-106066548D01*
X126809104Y-106066554D01*
X126751930Y-106279929D01*
X126751929Y-106279937D01*
X126732677Y-106499997D01*
X126732677Y-106500003D01*
X126738517Y-106566763D01*
X126724750Y-106635263D01*
X126702670Y-106665250D01*
X125897098Y-107470824D01*
X125739711Y-107628211D01*
X125683960Y-107683962D01*
X125628209Y-107739712D01*
X125540609Y-107870814D01*
X125540602Y-107870827D01*
X125480264Y-108016498D01*
X125480261Y-108016510D01*
X125449500Y-108171153D01*
X125449500Y-120777648D01*
X125429815Y-120844687D01*
X125377011Y-120890442D01*
X125338755Y-120900938D01*
X125292516Y-120905909D01*
X125157671Y-120956202D01*
X125157664Y-120956206D01*
X125042455Y-121042452D01*
X125042452Y-121042455D01*
X124956206Y-121157664D01*
X124956202Y-121157671D01*
X124905908Y-121292517D01*
X124899501Y-121352116D01*
X124899500Y-121352135D01*
X109720500Y-121352135D01*
X109720500Y-116381914D01*
X109721280Y-116368029D01*
X109725565Y-116330001D01*
X109725565Y-116329998D01*
X109721280Y-116291969D01*
X109720500Y-116278085D01*
X109720500Y-116251157D01*
X109712711Y-116212003D01*
X109711110Y-116201714D01*
X109705368Y-116150745D01*
X109697023Y-116126898D01*
X109692449Y-116110139D01*
X109689737Y-116096503D01*
X109689734Y-116096496D01*
X109681253Y-116076021D01*
X109669484Y-116047607D01*
X109667028Y-116041175D01*
X109645789Y-115980478D01*
X109639289Y-115970134D01*
X109629719Y-115951606D01*
X109629394Y-115950821D01*
X109592790Y-115896040D01*
X109590905Y-115893131D01*
X109549816Y-115827738D01*
X109422262Y-115700184D01*
X109422260Y-115700182D01*
X109422257Y-115700180D01*
X109356900Y-115659114D01*
X109353982Y-115657223D01*
X109299179Y-115620605D01*
X109299173Y-115620603D01*
X109298365Y-115620268D01*
X109279865Y-115610709D01*
X109269524Y-115604212D01*
X109269523Y-115604211D01*
X109269522Y-115604211D01*
X109208867Y-115582986D01*
X109202377Y-115580509D01*
X109153496Y-115560262D01*
X109139860Y-115557550D01*
X109123104Y-115552976D01*
X109099260Y-115544633D01*
X109099256Y-115544632D01*
X109099255Y-115544632D01*
X109078575Y-115542301D01*
X109048303Y-115538890D01*
X109038003Y-115537288D01*
X108998844Y-115529500D01*
X108998842Y-115529500D01*
X108971915Y-115529500D01*
X108958031Y-115528720D01*
X108920002Y-115524435D01*
X108919998Y-115524435D01*
X108881969Y-115528720D01*
X108868085Y-115529500D01*
X108841152Y-115529500D01*
X108801994Y-115537288D01*
X108791696Y-115538890D01*
X108740742Y-115544632D01*
X108740735Y-115544634D01*
X108716898Y-115552975D01*
X108700140Y-115557550D01*
X108686502Y-115560263D01*
X108686496Y-115560264D01*
X108637631Y-115580504D01*
X108631140Y-115582982D01*
X108570477Y-115604210D01*
X108570474Y-115604212D01*
X108560127Y-115610713D01*
X108541639Y-115620266D01*
X108540832Y-115620600D01*
X108540824Y-115620604D01*
X108486047Y-115657204D01*
X108483132Y-115659092D01*
X108417742Y-115700180D01*
X108417735Y-115700186D01*
X108290186Y-115827735D01*
X108290180Y-115827742D01*
X108249092Y-115893132D01*
X108247204Y-115896047D01*
X108210604Y-115950824D01*
X108210600Y-115950832D01*
X108210266Y-115951639D01*
X108200713Y-115970127D01*
X108194212Y-115980474D01*
X108194210Y-115980477D01*
X108172982Y-116041140D01*
X108170504Y-116047631D01*
X108150264Y-116096496D01*
X108150263Y-116096502D01*
X108147550Y-116110140D01*
X108142975Y-116126898D01*
X108134634Y-116150735D01*
X108134632Y-116150742D01*
X108128890Y-116201696D01*
X108127288Y-116211994D01*
X108119500Y-116251152D01*
X108119500Y-116278085D01*
X108118720Y-116291969D01*
X108114435Y-116329998D01*
X108114435Y-116330001D01*
X108118720Y-116368029D01*
X108119500Y-116381914D01*
X108119500Y-129027648D01*
X108099815Y-129094687D01*
X108047011Y-129140442D01*
X108008755Y-129150938D01*
X107962516Y-129155909D01*
X107827671Y-129206202D01*
X107827664Y-129206206D01*
X107712455Y-129292452D01*
X107712452Y-129292455D01*
X107626206Y-129407664D01*
X107626202Y-129407671D01*
X107575908Y-129542517D01*
X107569501Y-129602116D01*
X107569500Y-129602135D01*
X102500500Y-129602135D01*
X102500500Y-117499999D01*
X104233179Y-117499999D01*
X104233179Y-117500000D01*
X104252424Y-117719976D01*
X104252426Y-117719986D01*
X104309575Y-117933270D01*
X104309580Y-117933284D01*
X104402898Y-118133405D01*
X104402901Y-118133411D01*
X104448258Y-118198187D01*
X104448258Y-118198188D01*
X105119000Y-117527446D01*
X105119000Y-117550160D01*
X105144964Y-117647061D01*
X105195124Y-117733940D01*
X105266060Y-117804876D01*
X105352939Y-117855036D01*
X105449840Y-117881000D01*
X105472553Y-117881000D01*
X104801810Y-118551740D01*
X104866590Y-118597099D01*
X104866592Y-118597100D01*
X105066715Y-118690419D01*
X105066729Y-118690424D01*
X105280013Y-118747573D01*
X105280023Y-118747575D01*
X105499999Y-118766821D01*
X105500001Y-118766821D01*
X105719976Y-118747575D01*
X105719986Y-118747573D01*
X105933270Y-118690424D01*
X105933284Y-118690419D01*
X106133407Y-118597100D01*
X106133417Y-118597094D01*
X106198188Y-118551741D01*
X105527448Y-117881000D01*
X105550160Y-117881000D01*
X105647061Y-117855036D01*
X105733940Y-117804876D01*
X105804876Y-117733940D01*
X105855036Y-117647061D01*
X105881000Y-117550160D01*
X105881000Y-117527447D01*
X106551741Y-118198188D01*
X106597094Y-118133417D01*
X106597100Y-118133407D01*
X106690419Y-117933284D01*
X106690424Y-117933270D01*
X106747573Y-117719986D01*
X106747575Y-117719976D01*
X106766821Y-117500000D01*
X106766821Y-117499999D01*
X106747575Y-117280023D01*
X106747573Y-117280013D01*
X106690424Y-117066729D01*
X106690420Y-117066720D01*
X106597096Y-116866586D01*
X106551741Y-116801811D01*
X106551740Y-116801810D01*
X105881000Y-117472551D01*
X105881000Y-117449840D01*
X105855036Y-117352939D01*
X105804876Y-117266060D01*
X105733940Y-117195124D01*
X105647061Y-117144964D01*
X105550160Y-117119000D01*
X105527447Y-117119000D01*
X106198188Y-116448258D01*
X106133411Y-116402901D01*
X106133405Y-116402898D01*
X105933284Y-116309580D01*
X105933270Y-116309575D01*
X105719986Y-116252426D01*
X105719976Y-116252424D01*
X105500001Y-116233179D01*
X105499999Y-116233179D01*
X105280023Y-116252424D01*
X105280013Y-116252426D01*
X105066729Y-116309575D01*
X105066720Y-116309579D01*
X104866590Y-116402901D01*
X104801811Y-116448258D01*
X105472554Y-117119000D01*
X105449840Y-117119000D01*
X105352939Y-117144964D01*
X105266060Y-117195124D01*
X105195124Y-117266060D01*
X105144964Y-117352939D01*
X105119000Y-117449840D01*
X105119000Y-117472553D01*
X104448258Y-116801811D01*
X104402901Y-116866590D01*
X104309579Y-117066720D01*
X104309575Y-117066729D01*
X104252426Y-117280013D01*
X104252424Y-117280023D01*
X104233179Y-117499999D01*
X102500500Y-117499999D01*
X102500500Y-103499997D01*
X104232677Y-103499997D01*
X104232677Y-103500002D01*
X104251929Y-103720062D01*
X104251930Y-103720070D01*
X104309104Y-103933445D01*
X104309105Y-103933447D01*
X104309106Y-103933450D01*
X104402466Y-104133662D01*
X104402468Y-104133666D01*
X104529170Y-104314615D01*
X104529175Y-104314621D01*
X104663181Y-104448627D01*
X104696666Y-104509950D01*
X104699500Y-104536308D01*
X104699500Y-109328846D01*
X104730261Y-109483489D01*
X104730264Y-109483501D01*
X104790602Y-109629172D01*
X104790609Y-109629185D01*
X104878210Y-109760288D01*
X104878213Y-109760292D01*
X107378211Y-112260289D01*
X107489711Y-112371789D01*
X107489712Y-112371790D01*
X107620814Y-112459390D01*
X107620827Y-112459397D01*
X107766498Y-112519735D01*
X107766503Y-112519737D01*
X107921153Y-112550499D01*
X107921156Y-112550500D01*
X107921158Y-112550500D01*
X121698085Y-112550500D01*
X121711969Y-112551280D01*
X121749998Y-112555565D01*
X121750000Y-112555565D01*
X121750002Y-112555565D01*
X121788031Y-112551280D01*
X121801915Y-112550500D01*
X121828841Y-112550500D01*
X121828842Y-112550500D01*
X121868017Y-112542707D01*
X121878283Y-112541110D01*
X121929255Y-112535368D01*
X121953100Y-112527023D01*
X121969862Y-112522448D01*
X121983497Y-112519737D01*
X122032389Y-112499484D01*
X122038837Y-112497023D01*
X122099522Y-112475789D01*
X122109868Y-112469287D01*
X122128390Y-112459720D01*
X122129179Y-112459394D01*
X122183987Y-112422771D01*
X122186825Y-112420931D01*
X122252262Y-112379816D01*
X122379816Y-112252262D01*
X122420931Y-112186825D01*
X122422777Y-112183979D01*
X122459389Y-112129186D01*
X122459394Y-112129179D01*
X122459720Y-112128390D01*
X122469287Y-112109868D01*
X122475789Y-112099522D01*
X122497023Y-112038837D01*
X122499484Y-112032389D01*
X122519737Y-111983497D01*
X122522448Y-111969862D01*
X122527023Y-111953100D01*
X122535368Y-111929255D01*
X122541110Y-111878283D01*
X122542707Y-111868017D01*
X122550500Y-111828842D01*
X122550500Y-111801914D01*
X122551280Y-111788029D01*
X122555565Y-111750001D01*
X122555565Y-111749998D01*
X122551280Y-111711969D01*
X122550500Y-111698085D01*
X122550500Y-111671157D01*
X122542711Y-111632003D01*
X122541110Y-111621714D01*
X122535368Y-111570745D01*
X122527023Y-111546898D01*
X122522449Y-111530139D01*
X122519737Y-111516503D01*
X122499484Y-111467607D01*
X122497028Y-111461175D01*
X122475789Y-111400478D01*
X122469289Y-111390134D01*
X122459719Y-111371606D01*
X122459394Y-111370821D01*
X122422790Y-111316040D01*
X122420905Y-111313131D01*
X122379815Y-111247737D01*
X122252260Y-111120182D01*
X122252257Y-111120180D01*
X122186900Y-111079114D01*
X122183982Y-111077223D01*
X122129179Y-111040605D01*
X122129173Y-111040603D01*
X122128365Y-111040268D01*
X122109865Y-111030709D01*
X122099524Y-111024212D01*
X122099523Y-111024211D01*
X122099522Y-111024211D01*
X122038867Y-111002986D01*
X122032377Y-111000509D01*
X121983496Y-110980262D01*
X121969860Y-110977550D01*
X121953104Y-110972976D01*
X121929260Y-110964633D01*
X121929256Y-110964632D01*
X121929255Y-110964632D01*
X121908575Y-110962301D01*
X121878303Y-110958890D01*
X121868003Y-110957288D01*
X121828844Y-110949500D01*
X121828842Y-110949500D01*
X121801915Y-110949500D01*
X121788031Y-110948720D01*
X121750002Y-110944435D01*
X121749998Y-110944435D01*
X121711969Y-110948720D01*
X121698085Y-110949500D01*
X108382940Y-110949500D01*
X108315901Y-110929815D01*
X108295259Y-110913181D01*
X106336819Y-108954741D01*
X106303334Y-108893418D01*
X106300500Y-108867060D01*
X106300500Y-104536308D01*
X106320185Y-104469269D01*
X106336819Y-104448627D01*
X106470826Y-104314620D01*
X106597534Y-104133662D01*
X106690894Y-103933450D01*
X106748070Y-103720068D01*
X106767323Y-103500000D01*
X106767323Y-103499997D01*
X126732677Y-103499997D01*
X126732677Y-103500002D01*
X126751929Y-103720062D01*
X126751930Y-103720070D01*
X126809104Y-103933445D01*
X126809105Y-103933447D01*
X126809106Y-103933450D01*
X126902466Y-104133662D01*
X126902468Y-104133666D01*
X127029170Y-104314615D01*
X127029175Y-104314621D01*
X127185378Y-104470824D01*
X127185384Y-104470829D01*
X127366333Y-104597531D01*
X127366335Y-104597532D01*
X127366338Y-104597534D01*
X127566550Y-104690894D01*
X127779932Y-104748070D01*
X127937123Y-104761822D01*
X127999998Y-104767323D01*
X128000000Y-104767323D01*
X128000002Y-104767323D01*
X128055017Y-104762509D01*
X128220068Y-104748070D01*
X128433450Y-104690894D01*
X128633662Y-104597534D01*
X128814620Y-104470826D01*
X128970826Y-104314620D01*
X129097534Y-104133662D01*
X129190894Y-103933450D01*
X129248070Y-103720068D01*
X129267323Y-103500000D01*
X129248070Y-103279932D01*
X129190894Y-103066550D01*
X129097534Y-102866339D01*
X128970826Y-102685380D01*
X128814620Y-102529174D01*
X128814616Y-102529171D01*
X128814615Y-102529170D01*
X128633666Y-102402468D01*
X128633662Y-102402466D01*
X128633660Y-102402465D01*
X128433450Y-102309106D01*
X128433447Y-102309105D01*
X128433445Y-102309104D01*
X128220070Y-102251930D01*
X128220062Y-102251929D01*
X128000002Y-102232677D01*
X127999998Y-102232677D01*
X127779937Y-102251929D01*
X127779929Y-102251930D01*
X127566554Y-102309104D01*
X127566548Y-102309107D01*
X127366340Y-102402465D01*
X127366338Y-102402466D01*
X127185377Y-102529175D01*
X127029175Y-102685377D01*
X126902466Y-102866338D01*
X126902465Y-102866340D01*
X126809107Y-103066548D01*
X126809104Y-103066554D01*
X126751930Y-103279929D01*
X126751929Y-103279937D01*
X126732677Y-103499997D01*
X106767323Y-103499997D01*
X106748070Y-103279932D01*
X106690894Y-103066550D01*
X106597534Y-102866339D01*
X106470826Y-102685380D01*
X106314620Y-102529174D01*
X106314616Y-102529171D01*
X106314615Y-102529170D01*
X106133666Y-102402468D01*
X106133662Y-102402466D01*
X106133660Y-102402465D01*
X105933450Y-102309106D01*
X105933447Y-102309105D01*
X105933445Y-102309104D01*
X105720070Y-102251930D01*
X105720062Y-102251929D01*
X105500002Y-102232677D01*
X105499998Y-102232677D01*
X105279937Y-102251929D01*
X105279929Y-102251930D01*
X105066554Y-102309104D01*
X105066548Y-102309107D01*
X104866340Y-102402465D01*
X104866338Y-102402466D01*
X104685377Y-102529175D01*
X104529175Y-102685377D01*
X104402466Y-102866338D01*
X104402465Y-102866340D01*
X104309107Y-103066548D01*
X104309104Y-103066554D01*
X104251930Y-103279929D01*
X104251929Y-103279937D01*
X104232677Y-103499997D01*
X102500500Y-103499997D01*
X102500500Y-54624500D01*
X102520185Y-54557461D01*
X102572989Y-54511706D01*
X102624500Y-54500500D01*
X103462399Y-54500500D01*
X103529438Y-54520185D01*
X103575193Y-54572989D01*
X103585137Y-54642147D01*
X103563974Y-54695621D01*
X103554317Y-54709413D01*
X103542466Y-54726338D01*
X103542465Y-54726340D01*
X103449107Y-54926548D01*
X103449104Y-54926554D01*
X103391930Y-55139929D01*
X103391929Y-55139937D01*
X103372677Y-55359997D01*
X103372677Y-55360002D01*
X103391929Y-55580062D01*
X103391930Y-55580070D01*
X103449104Y-55793445D01*
X103449105Y-55793447D01*
X103449106Y-55793450D01*
X103542466Y-55993662D01*
X103542468Y-55993666D01*
X103669170Y-56174615D01*
X103669175Y-56174621D01*
X103825378Y-56330824D01*
X103825384Y-56330829D01*
X104006333Y-56457531D01*
X104006335Y-56457532D01*
X104006338Y-56457534D01*
X104125748Y-56513215D01*
X104135189Y-56517618D01*
X104187628Y-56563790D01*
X104206780Y-56630984D01*
X104186564Y-56697865D01*
X104135189Y-56742382D01*
X104006340Y-56802465D01*
X104006338Y-56802466D01*
X103825377Y-56929175D01*
X103669175Y-57085377D01*
X103542466Y-57266338D01*
X103542465Y-57266340D01*
X103449107Y-57466548D01*
X103449104Y-57466554D01*
X103391930Y-57679929D01*
X103391929Y-57679937D01*
X103372677Y-57899997D01*
X103372677Y-57900002D01*
X103391929Y-58120062D01*
X103391930Y-58120070D01*
X103449104Y-58333445D01*
X103449105Y-58333447D01*
X103449106Y-58333450D01*
X103542466Y-58533662D01*
X103542468Y-58533666D01*
X103669170Y-58714615D01*
X103669175Y-58714621D01*
X103825378Y-58870824D01*
X103825384Y-58870829D01*
X104006333Y-58997531D01*
X104006335Y-58997532D01*
X104006338Y-58997534D01*
X104125748Y-59053215D01*
X104135189Y-59057618D01*
X104187628Y-59103790D01*
X104206780Y-59170984D01*
X104186564Y-59237865D01*
X104135189Y-59282382D01*
X104006340Y-59342465D01*
X104006338Y-59342466D01*
X103825377Y-59469175D01*
X103669175Y-59625377D01*
X103542466Y-59806338D01*
X103542465Y-59806340D01*
X103449107Y-60006548D01*
X103449104Y-60006554D01*
X103391930Y-60219929D01*
X103391929Y-60219937D01*
X103372677Y-60439997D01*
X103372677Y-60440002D01*
X103391929Y-60660062D01*
X103391930Y-60660070D01*
X103449104Y-60873445D01*
X103449105Y-60873447D01*
X103449106Y-60873450D01*
X103542466Y-61073662D01*
X103542468Y-61073666D01*
X103669170Y-61254615D01*
X103669175Y-61254621D01*
X103825378Y-61410824D01*
X103825384Y-61410829D01*
X104006333Y-61537531D01*
X104006335Y-61537532D01*
X104006338Y-61537534D01*
X104125748Y-61593215D01*
X104135189Y-61597618D01*
X104187628Y-61643790D01*
X104206780Y-61710984D01*
X104186564Y-61777865D01*
X104135189Y-61822382D01*
X104006340Y-61882465D01*
X104006338Y-61882466D01*
X103825377Y-62009175D01*
X103669175Y-62165377D01*
X103542466Y-62346338D01*
X103542465Y-62346340D01*
X103449107Y-62546548D01*
X103449104Y-62546554D01*
X103391930Y-62759929D01*
X103391929Y-62759937D01*
X103372677Y-62979997D01*
X103372677Y-62980002D01*
X103391929Y-63200062D01*
X103391930Y-63200070D01*
X103449104Y-63413445D01*
X103449105Y-63413447D01*
X103449106Y-63413450D01*
X103542466Y-63613662D01*
X103542468Y-63613666D01*
X103669170Y-63794615D01*
X103669175Y-63794621D01*
X103825378Y-63950824D01*
X103825384Y-63950829D01*
X104006333Y-64077531D01*
X104006335Y-64077532D01*
X104006338Y-64077534D01*
X104125748Y-64133215D01*
X104135189Y-64137618D01*
X104187628Y-64183790D01*
X104206780Y-64250984D01*
X104186564Y-64317865D01*
X104135189Y-64362382D01*
X104006340Y-64422465D01*
X104006338Y-64422466D01*
X103825377Y-64549175D01*
X103669175Y-64705377D01*
X103542466Y-64886338D01*
X103542465Y-64886340D01*
X103449107Y-65086548D01*
X103449104Y-65086554D01*
X103391930Y-65299929D01*
X103391929Y-65299937D01*
X103372677Y-65519997D01*
X103372677Y-65520002D01*
X103391929Y-65740062D01*
X103391930Y-65740070D01*
X103449104Y-65953445D01*
X103449105Y-65953447D01*
X103449106Y-65953450D01*
X103542466Y-66153662D01*
X103542468Y-66153666D01*
X103669170Y-66334615D01*
X103669175Y-66334621D01*
X103825378Y-66490824D01*
X103825384Y-66490829D01*
X104006333Y-66617531D01*
X104006335Y-66617532D01*
X104006338Y-66617534D01*
X104125748Y-66673215D01*
X104135189Y-66677618D01*
X104187628Y-66723790D01*
X104206780Y-66790984D01*
X104186564Y-66857865D01*
X104135189Y-66902382D01*
X104006340Y-66962465D01*
X104006338Y-66962466D01*
X103825377Y-67089175D01*
X103669175Y-67245377D01*
X103542466Y-67426338D01*
X103542465Y-67426340D01*
X103449107Y-67626548D01*
X103449104Y-67626554D01*
X103391930Y-67839929D01*
X103391929Y-67839937D01*
X103372677Y-68059997D01*
X103372677Y-68060002D01*
X103391929Y-68280062D01*
X103391930Y-68280070D01*
X103449104Y-68493445D01*
X103449105Y-68493447D01*
X103449106Y-68493450D01*
X103542466Y-68693662D01*
X103542468Y-68693666D01*
X103669170Y-68874615D01*
X103669175Y-68874621D01*
X103825378Y-69030824D01*
X103825384Y-69030829D01*
X104006333Y-69157531D01*
X104006335Y-69157532D01*
X104006338Y-69157534D01*
X104125748Y-69213215D01*
X104135189Y-69217618D01*
X104187628Y-69263790D01*
X104206780Y-69330984D01*
X104186564Y-69397865D01*
X104135189Y-69442382D01*
X104006340Y-69502465D01*
X104006338Y-69502466D01*
X103825377Y-69629175D01*
X103669175Y-69785377D01*
X103542466Y-69966338D01*
X103542465Y-69966340D01*
X103449107Y-70166548D01*
X103449104Y-70166554D01*
X103391930Y-70379929D01*
X103391929Y-70379937D01*
X103372677Y-70599997D01*
X103372677Y-70600002D01*
X103391929Y-70820062D01*
X103391930Y-70820070D01*
X103449104Y-71033445D01*
X103449105Y-71033447D01*
X103449106Y-71033450D01*
X103542466Y-71233662D01*
X103542468Y-71233666D01*
X103669170Y-71414615D01*
X103669175Y-71414621D01*
X103825378Y-71570824D01*
X103825384Y-71570829D01*
X104006333Y-71697531D01*
X104006335Y-71697532D01*
X104006338Y-71697534D01*
X104125748Y-71753215D01*
X104135189Y-71757618D01*
X104187628Y-71803790D01*
X104206780Y-71870984D01*
X104186564Y-71937865D01*
X104135189Y-71982382D01*
X104006340Y-72042465D01*
X104006338Y-72042466D01*
X103825377Y-72169175D01*
X103669175Y-72325377D01*
X103542466Y-72506338D01*
X103542465Y-72506340D01*
X103449107Y-72706548D01*
X103449104Y-72706554D01*
X103391930Y-72919929D01*
X103391929Y-72919937D01*
X103372677Y-73139997D01*
X103372677Y-73140002D01*
X103391929Y-73360062D01*
X103391930Y-73360070D01*
X103449104Y-73573445D01*
X103449105Y-73573447D01*
X103449106Y-73573450D01*
X103542466Y-73773662D01*
X103542468Y-73773666D01*
X103669170Y-73954615D01*
X103669175Y-73954621D01*
X103825378Y-74110824D01*
X103825384Y-74110829D01*
X104006333Y-74237531D01*
X104006335Y-74237532D01*
X104006338Y-74237534D01*
X104125748Y-74293215D01*
X104135189Y-74297618D01*
X104187628Y-74343790D01*
X104206780Y-74410984D01*
X104186564Y-74477865D01*
X104135189Y-74522382D01*
X104006340Y-74582465D01*
X104006338Y-74582466D01*
X103825377Y-74709175D01*
X103669175Y-74865377D01*
X103542466Y-75046338D01*
X103542465Y-75046340D01*
X103449107Y-75246548D01*
X103449104Y-75246554D01*
X103391930Y-75459929D01*
X103391929Y-75459937D01*
X103372677Y-75679997D01*
X103372677Y-75680002D01*
X103391929Y-75900062D01*
X103391930Y-75900070D01*
X103449104Y-76113445D01*
X103449105Y-76113447D01*
X103449106Y-76113450D01*
X103542466Y-76313662D01*
X103542468Y-76313666D01*
X103669170Y-76494615D01*
X103669175Y-76494621D01*
X103825378Y-76650824D01*
X103825384Y-76650829D01*
X104006333Y-76777531D01*
X104006335Y-76777532D01*
X104006338Y-76777534D01*
X104125748Y-76833215D01*
X104135189Y-76837618D01*
X104187628Y-76883790D01*
X104206780Y-76950984D01*
X104186564Y-77017865D01*
X104135189Y-77062382D01*
X104006340Y-77122465D01*
X104006338Y-77122466D01*
X103825377Y-77249175D01*
X103669175Y-77405377D01*
X103542466Y-77586338D01*
X103542465Y-77586340D01*
X103449107Y-77786548D01*
X103449104Y-77786554D01*
X103391930Y-77999929D01*
X103391929Y-77999937D01*
X103372677Y-78219997D01*
X103372677Y-78220002D01*
X103391929Y-78440062D01*
X103391930Y-78440070D01*
X103449104Y-78653445D01*
X103449105Y-78653447D01*
X103449106Y-78653450D01*
X103542466Y-78853662D01*
X103542468Y-78853666D01*
X103669170Y-79034615D01*
X103669175Y-79034621D01*
X103825378Y-79190824D01*
X103825384Y-79190829D01*
X104006333Y-79317531D01*
X104006335Y-79317532D01*
X104006338Y-79317534D01*
X104125748Y-79373215D01*
X104135189Y-79377618D01*
X104187628Y-79423790D01*
X104206780Y-79490984D01*
X104186564Y-79557865D01*
X104135189Y-79602382D01*
X104006340Y-79662465D01*
X104006338Y-79662466D01*
X103825377Y-79789175D01*
X103669175Y-79945377D01*
X103542466Y-80126338D01*
X103542465Y-80126340D01*
X103449107Y-80326548D01*
X103449104Y-80326554D01*
X103391930Y-80539929D01*
X103391929Y-80539937D01*
X103372677Y-80759997D01*
X103372677Y-80760002D01*
X103391929Y-80980062D01*
X103391930Y-80980070D01*
X103449104Y-81193445D01*
X103449105Y-81193447D01*
X103449106Y-81193450D01*
X103468595Y-81235244D01*
X103542466Y-81393662D01*
X103542468Y-81393666D01*
X103669170Y-81574615D01*
X103669175Y-81574621D01*
X103825378Y-81730824D01*
X103825384Y-81730829D01*
X104006333Y-81857531D01*
X104006335Y-81857532D01*
X104006338Y-81857534D01*
X104125748Y-81913215D01*
X104135189Y-81917618D01*
X104187628Y-81963790D01*
X104206780Y-82030984D01*
X104186564Y-82097865D01*
X104135189Y-82142382D01*
X104006340Y-82202465D01*
X104006338Y-82202466D01*
X103825377Y-82329175D01*
X103669175Y-82485377D01*
X103542466Y-82666338D01*
X103542465Y-82666340D01*
X103449107Y-82866548D01*
X103449104Y-82866554D01*
X103391930Y-83079929D01*
X103391929Y-83079937D01*
X103372677Y-83299997D01*
X103372677Y-83300002D01*
X103391929Y-83520062D01*
X103391930Y-83520070D01*
X103449104Y-83733445D01*
X103449105Y-83733447D01*
X103449106Y-83733450D01*
X103507140Y-83857905D01*
X103542466Y-83933662D01*
X103542468Y-83933666D01*
X103669170Y-84114615D01*
X103669175Y-84114621D01*
X103825378Y-84270824D01*
X103825384Y-84270829D01*
X104006333Y-84397531D01*
X104006335Y-84397532D01*
X104006338Y-84397534D01*
X104082093Y-84432859D01*
X104135189Y-84457618D01*
X104187628Y-84503790D01*
X104206780Y-84570984D01*
X104186564Y-84637865D01*
X104135189Y-84682382D01*
X104006340Y-84742465D01*
X104006338Y-84742466D01*
X103825377Y-84869175D01*
X103669175Y-85025377D01*
X103542466Y-85206338D01*
X103542465Y-85206340D01*
X103449107Y-85406548D01*
X103449104Y-85406554D01*
X103391930Y-85619929D01*
X103391929Y-85619937D01*
X103372677Y-85839997D01*
X103372677Y-85840002D01*
X103391929Y-86060062D01*
X103391930Y-86060070D01*
X103449104Y-86273445D01*
X103449105Y-86273447D01*
X103449106Y-86273450D01*
X103532911Y-86453172D01*
X103542466Y-86473662D01*
X103542468Y-86473666D01*
X103669170Y-86654615D01*
X103669173Y-86654619D01*
X103825378Y-86810824D01*
X103825384Y-86810829D01*
X104006333Y-86937531D01*
X104006335Y-86937532D01*
X104006338Y-86937534D01*
X104082093Y-86972859D01*
X104135189Y-86997618D01*
X104187628Y-87043790D01*
X104206780Y-87110984D01*
X104186564Y-87177865D01*
X104135189Y-87222382D01*
X104006340Y-87282465D01*
X104006338Y-87282466D01*
X103825377Y-87409175D01*
X103669175Y-87565377D01*
X103542466Y-87746338D01*
X103542465Y-87746340D01*
X103449107Y-87946548D01*
X103449104Y-87946554D01*
X103391930Y-88159929D01*
X103391929Y-88159937D01*
X103372677Y-88379997D01*
X103372677Y-88380002D01*
X103391929Y-88600062D01*
X103391930Y-88600070D01*
X103449104Y-88813445D01*
X103449105Y-88813447D01*
X103449106Y-88813450D01*
X103542466Y-89013662D01*
X103542468Y-89013666D01*
X103669170Y-89194615D01*
X103669175Y-89194621D01*
X103825378Y-89350824D01*
X103825384Y-89350829D01*
X104006333Y-89477531D01*
X104006335Y-89477532D01*
X104006338Y-89477534D01*
X104125748Y-89533215D01*
X104135189Y-89537618D01*
X104187628Y-89583790D01*
X104206780Y-89650984D01*
X104186564Y-89717865D01*
X104135189Y-89762382D01*
X104006340Y-89822465D01*
X104006338Y-89822466D01*
X103825377Y-89949175D01*
X103669175Y-90105377D01*
X103542466Y-90286338D01*
X103542465Y-90286340D01*
X103449107Y-90486548D01*
X103449104Y-90486554D01*
X103391930Y-90699929D01*
X103391929Y-90699937D01*
X103372677Y-90919997D01*
X103372677Y-90920002D01*
X103391929Y-91140062D01*
X103391930Y-91140070D01*
X103449104Y-91353445D01*
X103449105Y-91353447D01*
X103449106Y-91353450D01*
X103542466Y-91553662D01*
X103542468Y-91553666D01*
X103669170Y-91734615D01*
X103669175Y-91734621D01*
X103825378Y-91890824D01*
X103825384Y-91890829D01*
X104006333Y-92017531D01*
X104006335Y-92017532D01*
X104006338Y-92017534D01*
X104125748Y-92073215D01*
X104135189Y-92077618D01*
X104187628Y-92123790D01*
X104206780Y-92190984D01*
X104186564Y-92257865D01*
X104135189Y-92302382D01*
X104006340Y-92362465D01*
X104006338Y-92362466D01*
X103825377Y-92489175D01*
X103669175Y-92645377D01*
X103542466Y-92826338D01*
X103542465Y-92826340D01*
X103449107Y-93026548D01*
X103449104Y-93026554D01*
X103391930Y-93239929D01*
X103391929Y-93239937D01*
X103372677Y-93459997D01*
X103372677Y-93460002D01*
X103391929Y-93680062D01*
X103391930Y-93680070D01*
X103449104Y-93893445D01*
X103449105Y-93893447D01*
X103449106Y-93893450D01*
X103542466Y-94093662D01*
X103542468Y-94093666D01*
X103669170Y-94274615D01*
X103669175Y-94274621D01*
X103825378Y-94430824D01*
X103825384Y-94430829D01*
X104006333Y-94557531D01*
X104006335Y-94557532D01*
X104006338Y-94557534D01*
X104125748Y-94613215D01*
X104135189Y-94617618D01*
X104187628Y-94663790D01*
X104206780Y-94730984D01*
X104186564Y-94797865D01*
X104135189Y-94842382D01*
X104006340Y-94902465D01*
X104006338Y-94902466D01*
X103825377Y-95029175D01*
X103669175Y-95185377D01*
X103542466Y-95366338D01*
X103542465Y-95366340D01*
X103449107Y-95566548D01*
X103449104Y-95566554D01*
X103391930Y-95779929D01*
X103391929Y-95779937D01*
X103372677Y-95999997D01*
X103372677Y-96000002D01*
X103391929Y-96220062D01*
X103391930Y-96220070D01*
X103449104Y-96433445D01*
X103449105Y-96433447D01*
X103449106Y-96433450D01*
X103542466Y-96633662D01*
X103542468Y-96633666D01*
X103669170Y-96814615D01*
X103669175Y-96814621D01*
X103825378Y-96970824D01*
X103825384Y-96970829D01*
X104006333Y-97097531D01*
X104006335Y-97097532D01*
X104006338Y-97097534D01*
X104135781Y-97157894D01*
X104188220Y-97204066D01*
X104207372Y-97271260D01*
X104187156Y-97338141D01*
X104135781Y-97382658D01*
X104006590Y-97442901D01*
X103941811Y-97488258D01*
X104612554Y-98159000D01*
X104589840Y-98159000D01*
X104492939Y-98184964D01*
X104406060Y-98235124D01*
X104335124Y-98306060D01*
X104284964Y-98392939D01*
X104259000Y-98489840D01*
X104259000Y-98512553D01*
X103588258Y-97841811D01*
X103542901Y-97906590D01*
X103449579Y-98106720D01*
X103449575Y-98106729D01*
X103392426Y-98320013D01*
X103392424Y-98320023D01*
X103373179Y-98539999D01*
X103373179Y-98540000D01*
X103392424Y-98759976D01*
X103392426Y-98759986D01*
X103449575Y-98973270D01*
X103449580Y-98973284D01*
X103542898Y-99173405D01*
X103542901Y-99173411D01*
X103588258Y-99238187D01*
X103588258Y-99238188D01*
X104259000Y-98567446D01*
X104259000Y-98590160D01*
X104284964Y-98687061D01*
X104335124Y-98773940D01*
X104406060Y-98844876D01*
X104492939Y-98895036D01*
X104589840Y-98921000D01*
X104612553Y-98921000D01*
X103941810Y-99591740D01*
X104006590Y-99637099D01*
X104006592Y-99637100D01*
X104206715Y-99730419D01*
X104206729Y-99730424D01*
X104420013Y-99787573D01*
X104420023Y-99787575D01*
X104639999Y-99806821D01*
X104640001Y-99806821D01*
X104859976Y-99787575D01*
X104859986Y-99787573D01*
X105073270Y-99730424D01*
X105073284Y-99730419D01*
X105273407Y-99637100D01*
X105273417Y-99637094D01*
X105338188Y-99591741D01*
X104667448Y-98921000D01*
X104690160Y-98921000D01*
X104787061Y-98895036D01*
X104873940Y-98844876D01*
X104944876Y-98773940D01*
X104995036Y-98687061D01*
X105021000Y-98590160D01*
X105021000Y-98567447D01*
X105691741Y-99238188D01*
X105737094Y-99173417D01*
X105737100Y-99173407D01*
X105830419Y-98973284D01*
X105830424Y-98973270D01*
X105887573Y-98759986D01*
X105887575Y-98759976D01*
X105906821Y-98540000D01*
X105906821Y-98539999D01*
X105887575Y-98320023D01*
X105887573Y-98320013D01*
X105830424Y-98106729D01*
X105830420Y-98106720D01*
X105737096Y-97906586D01*
X105691741Y-97841811D01*
X105691740Y-97841810D01*
X105021000Y-98512551D01*
X105021000Y-98489840D01*
X104995036Y-98392939D01*
X104944876Y-98306060D01*
X104873940Y-98235124D01*
X104787061Y-98184964D01*
X104690160Y-98159000D01*
X104667447Y-98159000D01*
X105338188Y-97488258D01*
X105273411Y-97442901D01*
X105273405Y-97442898D01*
X105144219Y-97382658D01*
X105091779Y-97336486D01*
X105072627Y-97269293D01*
X105092843Y-97202411D01*
X105144219Y-97157894D01*
X105273662Y-97097534D01*
X105454620Y-96970826D01*
X105610826Y-96814620D01*
X105737534Y-96633662D01*
X105830894Y-96433450D01*
X105888070Y-96220068D01*
X105907323Y-96000000D01*
X105888070Y-95779932D01*
X105830894Y-95566550D01*
X105737534Y-95366339D01*
X105610826Y-95185380D01*
X105454620Y-95029174D01*
X105454616Y-95029171D01*
X105454615Y-95029170D01*
X105273666Y-94902468D01*
X105273658Y-94902464D01*
X105144811Y-94842382D01*
X105092371Y-94796210D01*
X105073219Y-94729017D01*
X105093435Y-94662135D01*
X105144811Y-94617618D01*
X105150802Y-94614824D01*
X105273662Y-94557534D01*
X105454620Y-94430826D01*
X105610826Y-94274620D01*
X105737534Y-94093662D01*
X105830894Y-93893450D01*
X105888070Y-93680068D01*
X105907323Y-93460000D01*
X105901481Y-93393235D01*
X105915247Y-93324738D01*
X105937325Y-93294751D01*
X114732086Y-84499992D01*
X118744671Y-84499992D01*
X118744671Y-84500007D01*
X118763964Y-84794363D01*
X118763965Y-84794373D01*
X118763966Y-84794380D01*
X118809914Y-85025381D01*
X118821518Y-85083716D01*
X118821521Y-85083730D01*
X118916349Y-85363080D01*
X119046825Y-85627660D01*
X119046829Y-85627667D01*
X119210725Y-85872955D01*
X119405241Y-86094758D01*
X119627043Y-86289273D01*
X119872335Y-86453172D01*
X120136923Y-86583652D01*
X120416278Y-86678481D01*
X120705620Y-86736034D01*
X120733888Y-86737886D01*
X120999993Y-86755329D01*
X121000000Y-86755329D01*
X121000007Y-86755329D01*
X121235675Y-86739881D01*
X121294380Y-86736034D01*
X121583722Y-86678481D01*
X121863077Y-86583652D01*
X122127665Y-86453172D01*
X122372957Y-86289273D01*
X122594758Y-86094758D01*
X122789273Y-85872957D01*
X122953172Y-85627665D01*
X123083652Y-85363077D01*
X123178481Y-85083722D01*
X123236034Y-84794380D01*
X123246401Y-84636210D01*
X123255329Y-84500007D01*
X123255329Y-84499992D01*
X123236035Y-84205636D01*
X123236034Y-84205620D01*
X123178481Y-83916278D01*
X123083652Y-83636923D01*
X122953172Y-83372336D01*
X122789273Y-83127043D01*
X122746655Y-83078447D01*
X122594758Y-82905241D01*
X122372955Y-82710725D01*
X122127667Y-82546829D01*
X122127660Y-82546825D01*
X121863080Y-82416349D01*
X121583730Y-82321521D01*
X121583724Y-82321519D01*
X121583722Y-82321519D01*
X121294380Y-82263966D01*
X121294373Y-82263965D01*
X121294363Y-82263964D01*
X121000007Y-82244671D01*
X120999993Y-82244671D01*
X120705636Y-82263964D01*
X120705624Y-82263965D01*
X120705620Y-82263966D01*
X120705612Y-82263967D01*
X120705609Y-82263968D01*
X120416283Y-82321518D01*
X120416269Y-82321521D01*
X120136919Y-82416349D01*
X119872334Y-82546828D01*
X119627041Y-82710728D01*
X119405241Y-82905241D01*
X119210728Y-83127041D01*
X119046828Y-83372334D01*
X118916349Y-83636919D01*
X118821521Y-83916269D01*
X118821518Y-83916283D01*
X118763968Y-84205609D01*
X118763964Y-84205636D01*
X118744671Y-84499992D01*
X114732086Y-84499992D01*
X117621789Y-81610289D01*
X117709394Y-81479179D01*
X117769738Y-81333497D01*
X117800500Y-81178842D01*
X117800500Y-81021157D01*
X117800500Y-62514311D01*
X117820185Y-62447272D01*
X117836819Y-62426630D01*
X124903452Y-55359997D01*
X126232677Y-55359997D01*
X126232677Y-55360002D01*
X126251929Y-55580062D01*
X126251930Y-55580070D01*
X126309104Y-55793445D01*
X126309105Y-55793447D01*
X126309106Y-55793450D01*
X126402466Y-55993662D01*
X126402468Y-55993666D01*
X126529170Y-56174615D01*
X126529175Y-56174621D01*
X126685378Y-56330824D01*
X126685384Y-56330829D01*
X126866333Y-56457531D01*
X126866335Y-56457532D01*
X126866338Y-56457534D01*
X126985748Y-56513215D01*
X126995189Y-56517618D01*
X127047628Y-56563790D01*
X127066780Y-56630984D01*
X127046564Y-56697865D01*
X126995189Y-56742382D01*
X126866340Y-56802465D01*
X126866338Y-56802466D01*
X126685377Y-56929175D01*
X126529175Y-57085377D01*
X126402466Y-57266338D01*
X126402465Y-57266340D01*
X126309107Y-57466548D01*
X126309104Y-57466554D01*
X126251930Y-57679929D01*
X126251929Y-57679937D01*
X126232677Y-57899997D01*
X126232677Y-57900002D01*
X126251929Y-58120062D01*
X126251930Y-58120070D01*
X126309104Y-58333445D01*
X126309105Y-58333447D01*
X126309106Y-58333450D01*
X126402466Y-58533662D01*
X126402468Y-58533666D01*
X126529170Y-58714615D01*
X126529175Y-58714621D01*
X126685378Y-58870824D01*
X126685384Y-58870829D01*
X126866333Y-58997531D01*
X126866335Y-58997532D01*
X126866338Y-58997534D01*
X126985748Y-59053215D01*
X126995189Y-59057618D01*
X127047628Y-59103790D01*
X127066780Y-59170984D01*
X127046564Y-59237865D01*
X126995189Y-59282382D01*
X126866340Y-59342465D01*
X126866338Y-59342466D01*
X126685377Y-59469175D01*
X126529175Y-59625377D01*
X126402466Y-59806338D01*
X126402465Y-59806340D01*
X126309107Y-60006548D01*
X126309104Y-60006554D01*
X126251930Y-60219929D01*
X126251929Y-60219937D01*
X126232677Y-60439997D01*
X126232677Y-60440002D01*
X126251929Y-60660062D01*
X126251930Y-60660070D01*
X126309104Y-60873445D01*
X126309105Y-60873447D01*
X126309106Y-60873450D01*
X126402466Y-61073662D01*
X126402468Y-61073666D01*
X126529170Y-61254615D01*
X126529175Y-61254621D01*
X126685378Y-61410824D01*
X126685384Y-61410829D01*
X126866333Y-61537531D01*
X126866335Y-61537532D01*
X126866338Y-61537534D01*
X126985748Y-61593215D01*
X126995189Y-61597618D01*
X127047628Y-61643790D01*
X127066780Y-61710984D01*
X127046564Y-61777865D01*
X126995189Y-61822382D01*
X126866340Y-61882465D01*
X126866338Y-61882466D01*
X126685377Y-62009175D01*
X126529175Y-62165377D01*
X126402466Y-62346338D01*
X126402465Y-62346340D01*
X126309107Y-62546548D01*
X126309104Y-62546554D01*
X126251930Y-62759929D01*
X126251929Y-62759937D01*
X126232677Y-62979997D01*
X126232677Y-62980002D01*
X126251929Y-63200062D01*
X126251930Y-63200070D01*
X126309104Y-63413445D01*
X126309105Y-63413447D01*
X126309106Y-63413450D01*
X126402466Y-63613662D01*
X126402468Y-63613666D01*
X126529170Y-63794615D01*
X126529175Y-63794621D01*
X126685378Y-63950824D01*
X126685384Y-63950829D01*
X126866333Y-64077531D01*
X126866335Y-64077532D01*
X126866338Y-64077534D01*
X126985748Y-64133215D01*
X126995189Y-64137618D01*
X127047628Y-64183790D01*
X127066780Y-64250984D01*
X127046564Y-64317865D01*
X126995189Y-64362382D01*
X126866340Y-64422465D01*
X126866338Y-64422466D01*
X126685377Y-64549175D01*
X126529175Y-64705377D01*
X126402466Y-64886338D01*
X126402465Y-64886340D01*
X126309107Y-65086548D01*
X126309104Y-65086554D01*
X126251930Y-65299929D01*
X126251929Y-65299937D01*
X126232677Y-65519997D01*
X126232677Y-65520002D01*
X126251929Y-65740062D01*
X126251930Y-65740070D01*
X126309104Y-65953445D01*
X126309105Y-65953447D01*
X126309106Y-65953450D01*
X126402466Y-66153662D01*
X126402468Y-66153666D01*
X126529170Y-66334615D01*
X126529175Y-66334621D01*
X126685378Y-66490824D01*
X126685384Y-66490829D01*
X126866333Y-66617531D01*
X126866335Y-66617532D01*
X126866338Y-66617534D01*
X126985748Y-66673215D01*
X126995189Y-66677618D01*
X127047628Y-66723790D01*
X127066780Y-66790984D01*
X127046564Y-66857865D01*
X126995189Y-66902382D01*
X126866340Y-66962465D01*
X126866338Y-66962466D01*
X126685377Y-67089175D01*
X126529175Y-67245377D01*
X126402466Y-67426338D01*
X126402465Y-67426340D01*
X126309107Y-67626548D01*
X126309104Y-67626554D01*
X126251930Y-67839929D01*
X126251929Y-67839937D01*
X126232677Y-68059997D01*
X126232677Y-68060002D01*
X126251929Y-68280062D01*
X126251930Y-68280070D01*
X126309104Y-68493445D01*
X126309105Y-68493447D01*
X126309106Y-68493450D01*
X126402466Y-68693662D01*
X126402468Y-68693666D01*
X126529170Y-68874615D01*
X126529175Y-68874621D01*
X126685378Y-69030824D01*
X126685384Y-69030829D01*
X126866333Y-69157531D01*
X126866335Y-69157532D01*
X126866338Y-69157534D01*
X126985748Y-69213215D01*
X126995189Y-69217618D01*
X127047628Y-69263790D01*
X127066780Y-69330984D01*
X127046564Y-69397865D01*
X126995189Y-69442382D01*
X126866340Y-69502465D01*
X126866338Y-69502466D01*
X126685377Y-69629175D01*
X126529175Y-69785377D01*
X126402466Y-69966338D01*
X126402465Y-69966340D01*
X126309107Y-70166548D01*
X126309104Y-70166554D01*
X126251930Y-70379929D01*
X126251929Y-70379937D01*
X126232677Y-70599997D01*
X126232677Y-70600002D01*
X126251929Y-70820062D01*
X126251930Y-70820070D01*
X126309104Y-71033445D01*
X126309105Y-71033447D01*
X126309106Y-71033450D01*
X126402466Y-71233662D01*
X126402468Y-71233666D01*
X126529170Y-71414615D01*
X126529175Y-71414621D01*
X126685378Y-71570824D01*
X126685384Y-71570829D01*
X126866333Y-71697531D01*
X126866335Y-71697532D01*
X126866338Y-71697534D01*
X126985748Y-71753215D01*
X126995189Y-71757618D01*
X127047628Y-71803790D01*
X127066780Y-71870984D01*
X127046564Y-71937865D01*
X126995189Y-71982382D01*
X126866340Y-72042465D01*
X126866338Y-72042466D01*
X126685377Y-72169175D01*
X126529175Y-72325377D01*
X126402466Y-72506338D01*
X126402465Y-72506340D01*
X126309107Y-72706548D01*
X126309104Y-72706554D01*
X126251930Y-72919929D01*
X126251929Y-72919937D01*
X126232677Y-73139997D01*
X126232677Y-73140002D01*
X126251929Y-73360062D01*
X126251930Y-73360070D01*
X126309104Y-73573445D01*
X126309105Y-73573447D01*
X126309106Y-73573450D01*
X126402466Y-73773662D01*
X126402468Y-73773666D01*
X126529170Y-73954615D01*
X126529175Y-73954621D01*
X126685378Y-74110824D01*
X126685384Y-74110829D01*
X126866333Y-74237531D01*
X126866335Y-74237532D01*
X126866338Y-74237534D01*
X126985748Y-74293215D01*
X126995189Y-74297618D01*
X127047628Y-74343790D01*
X127066780Y-74410984D01*
X127046564Y-74477865D01*
X126995189Y-74522382D01*
X126866340Y-74582465D01*
X126866338Y-74582466D01*
X126685377Y-74709175D01*
X126529175Y-74865377D01*
X126402466Y-75046338D01*
X126402465Y-75046340D01*
X126309107Y-75246548D01*
X126309104Y-75246554D01*
X126251930Y-75459929D01*
X126251929Y-75459937D01*
X126232677Y-75679997D01*
X126232677Y-75680002D01*
X126251929Y-75900062D01*
X126251930Y-75900070D01*
X126309104Y-76113445D01*
X126309105Y-76113447D01*
X126309106Y-76113450D01*
X126402466Y-76313662D01*
X126402468Y-76313666D01*
X126529170Y-76494615D01*
X126529175Y-76494621D01*
X126685378Y-76650824D01*
X126685384Y-76650829D01*
X126866333Y-76777531D01*
X126866335Y-76777532D01*
X126866338Y-76777534D01*
X126985748Y-76833215D01*
X126995189Y-76837618D01*
X127047628Y-76883790D01*
X127066780Y-76950984D01*
X127046564Y-77017865D01*
X126995189Y-77062382D01*
X126866340Y-77122465D01*
X126866338Y-77122466D01*
X126685377Y-77249175D01*
X126529175Y-77405377D01*
X126402466Y-77586338D01*
X126402465Y-77586340D01*
X126309107Y-77786548D01*
X126309104Y-77786554D01*
X126251930Y-77999929D01*
X126251929Y-77999937D01*
X126232677Y-78219997D01*
X126232677Y-78220002D01*
X126251929Y-78440062D01*
X126251930Y-78440070D01*
X126309104Y-78653445D01*
X126309105Y-78653447D01*
X126309106Y-78653450D01*
X126402466Y-78853662D01*
X126402468Y-78853666D01*
X126529170Y-79034615D01*
X126529175Y-79034621D01*
X126685378Y-79190824D01*
X126685384Y-79190829D01*
X126866333Y-79317531D01*
X126866335Y-79317532D01*
X126866338Y-79317534D01*
X126985748Y-79373215D01*
X126995189Y-79377618D01*
X127047628Y-79423790D01*
X127066780Y-79490984D01*
X127046564Y-79557865D01*
X126995189Y-79602382D01*
X126866340Y-79662465D01*
X126866338Y-79662466D01*
X126685377Y-79789175D01*
X126529175Y-79945377D01*
X126402466Y-80126338D01*
X126402465Y-80126340D01*
X126309107Y-80326548D01*
X126309104Y-80326554D01*
X126251930Y-80539929D01*
X126251929Y-80539937D01*
X126232677Y-80759997D01*
X126232677Y-80760002D01*
X126251929Y-80980062D01*
X126251930Y-80980070D01*
X126309104Y-81193445D01*
X126309105Y-81193447D01*
X126309106Y-81193450D01*
X126328595Y-81235244D01*
X126402466Y-81393662D01*
X126402468Y-81393666D01*
X126529170Y-81574615D01*
X126529175Y-81574621D01*
X126685378Y-81730824D01*
X126685384Y-81730829D01*
X126866333Y-81857531D01*
X126866335Y-81857532D01*
X126866338Y-81857534D01*
X126985748Y-81913215D01*
X126995189Y-81917618D01*
X127047628Y-81963790D01*
X127066780Y-82030984D01*
X127046564Y-82097865D01*
X126995189Y-82142382D01*
X126866340Y-82202465D01*
X126866338Y-82202466D01*
X126685377Y-82329175D01*
X126529175Y-82485377D01*
X126402466Y-82666338D01*
X126402465Y-82666340D01*
X126309107Y-82866548D01*
X126309104Y-82866554D01*
X126251930Y-83079929D01*
X126251929Y-83079937D01*
X126232677Y-83299997D01*
X126232677Y-83300002D01*
X126251929Y-83520062D01*
X126251930Y-83520070D01*
X126309104Y-83733445D01*
X126309105Y-83733447D01*
X126309106Y-83733450D01*
X126367140Y-83857905D01*
X126402466Y-83933662D01*
X126402468Y-83933666D01*
X126529170Y-84114615D01*
X126529175Y-84114621D01*
X126685378Y-84270824D01*
X126685384Y-84270829D01*
X126866333Y-84397531D01*
X126866335Y-84397532D01*
X126866338Y-84397534D01*
X126942093Y-84432859D01*
X126995189Y-84457618D01*
X127047628Y-84503790D01*
X127066780Y-84570984D01*
X127046564Y-84637865D01*
X126995189Y-84682382D01*
X126866340Y-84742465D01*
X126866338Y-84742466D01*
X126685377Y-84869175D01*
X126529175Y-85025377D01*
X126402466Y-85206338D01*
X126402465Y-85206340D01*
X126309107Y-85406548D01*
X126309104Y-85406554D01*
X126251930Y-85619929D01*
X126251929Y-85619937D01*
X126232677Y-85839997D01*
X126232677Y-85840002D01*
X126251929Y-86060062D01*
X126251930Y-86060070D01*
X126309104Y-86273445D01*
X126309105Y-86273447D01*
X126309106Y-86273450D01*
X126392911Y-86453172D01*
X126402466Y-86473662D01*
X126402468Y-86473666D01*
X126529170Y-86654615D01*
X126529173Y-86654619D01*
X126685378Y-86810824D01*
X126685384Y-86810829D01*
X126866333Y-86937531D01*
X126866335Y-86937532D01*
X126866338Y-86937534D01*
X126942093Y-86972859D01*
X126995189Y-86997618D01*
X127047628Y-87043790D01*
X127066780Y-87110984D01*
X127046564Y-87177865D01*
X126995189Y-87222382D01*
X126866340Y-87282465D01*
X126866338Y-87282466D01*
X126685377Y-87409175D01*
X126529175Y-87565377D01*
X126402466Y-87746338D01*
X126402465Y-87746340D01*
X126309107Y-87946548D01*
X126309104Y-87946554D01*
X126251930Y-88159929D01*
X126251929Y-88159937D01*
X126232677Y-88379997D01*
X126232677Y-88380002D01*
X126251929Y-88600062D01*
X126251930Y-88600070D01*
X126309104Y-88813445D01*
X126309105Y-88813447D01*
X126309106Y-88813450D01*
X126402466Y-89013662D01*
X126402468Y-89013666D01*
X126529170Y-89194615D01*
X126529175Y-89194621D01*
X126685378Y-89350824D01*
X126685384Y-89350829D01*
X126866333Y-89477531D01*
X126866335Y-89477532D01*
X126866338Y-89477534D01*
X126985748Y-89533215D01*
X126995189Y-89537618D01*
X127047628Y-89583790D01*
X127066780Y-89650984D01*
X127046564Y-89717865D01*
X126995189Y-89762382D01*
X126866340Y-89822465D01*
X126866338Y-89822466D01*
X126685377Y-89949175D01*
X126529175Y-90105377D01*
X126402466Y-90286338D01*
X126402465Y-90286340D01*
X126309107Y-90486548D01*
X126309104Y-90486554D01*
X126251930Y-90699929D01*
X126251929Y-90699937D01*
X126232677Y-90919997D01*
X126232677Y-90920002D01*
X126251929Y-91140062D01*
X126251930Y-91140070D01*
X126309104Y-91353445D01*
X126309105Y-91353447D01*
X126309106Y-91353450D01*
X126402466Y-91553662D01*
X126402468Y-91553666D01*
X126529170Y-91734615D01*
X126529175Y-91734621D01*
X126685378Y-91890824D01*
X126685384Y-91890829D01*
X126866333Y-92017531D01*
X126866335Y-92017532D01*
X126866338Y-92017534D01*
X126985748Y-92073215D01*
X126995189Y-92077618D01*
X127047628Y-92123790D01*
X127066780Y-92190984D01*
X127046564Y-92257865D01*
X126995189Y-92302382D01*
X126866340Y-92362465D01*
X126866338Y-92362466D01*
X126685377Y-92489175D01*
X126529175Y-92645377D01*
X126402466Y-92826338D01*
X126402465Y-92826340D01*
X126309107Y-93026548D01*
X126309104Y-93026554D01*
X126251930Y-93239929D01*
X126251929Y-93239937D01*
X126232677Y-93459997D01*
X126232677Y-93460002D01*
X126251929Y-93680062D01*
X126251930Y-93680070D01*
X126309104Y-93893445D01*
X126309105Y-93893447D01*
X126309106Y-93893450D01*
X126402466Y-94093662D01*
X126402468Y-94093666D01*
X126529170Y-94274615D01*
X126529175Y-94274621D01*
X126685378Y-94430824D01*
X126685384Y-94430829D01*
X126866333Y-94557531D01*
X126866335Y-94557532D01*
X126866338Y-94557534D01*
X126985748Y-94613215D01*
X126995189Y-94617618D01*
X127047628Y-94663790D01*
X127066780Y-94730984D01*
X127046564Y-94797865D01*
X126995189Y-94842382D01*
X126866340Y-94902465D01*
X126866338Y-94902466D01*
X126685377Y-95029175D01*
X126529175Y-95185377D01*
X126402466Y-95366338D01*
X126402465Y-95366340D01*
X126309107Y-95566548D01*
X126309104Y-95566554D01*
X126251930Y-95779929D01*
X126251929Y-95779937D01*
X126232677Y-95999997D01*
X126232677Y-96000002D01*
X126251929Y-96220062D01*
X126251930Y-96220070D01*
X126309104Y-96433445D01*
X126309105Y-96433447D01*
X126309106Y-96433450D01*
X126402466Y-96633662D01*
X126402468Y-96633666D01*
X126529170Y-96814615D01*
X126529175Y-96814621D01*
X126685378Y-96970824D01*
X126685384Y-96970829D01*
X126866333Y-97097531D01*
X126866335Y-97097532D01*
X126866338Y-97097534D01*
X126995781Y-97157894D01*
X127048220Y-97204066D01*
X127067372Y-97271260D01*
X127047156Y-97338141D01*
X126995781Y-97382658D01*
X126866590Y-97442901D01*
X126801811Y-97488258D01*
X127472554Y-98159000D01*
X127449840Y-98159000D01*
X127352939Y-98184964D01*
X127266060Y-98235124D01*
X127195124Y-98306060D01*
X127144964Y-98392939D01*
X127119000Y-98489840D01*
X127119000Y-98512553D01*
X126448258Y-97841811D01*
X126402901Y-97906590D01*
X126309579Y-98106720D01*
X126309575Y-98106729D01*
X126252426Y-98320013D01*
X126252424Y-98320023D01*
X126233179Y-98539999D01*
X126233179Y-98540000D01*
X126252424Y-98759976D01*
X126252426Y-98759986D01*
X126309575Y-98973270D01*
X126309580Y-98973284D01*
X126402898Y-99173405D01*
X126402901Y-99173411D01*
X126448258Y-99238187D01*
X126448258Y-99238188D01*
X127119000Y-98567446D01*
X127119000Y-98590160D01*
X127144964Y-98687061D01*
X127195124Y-98773940D01*
X127266060Y-98844876D01*
X127352939Y-98895036D01*
X127449840Y-98921000D01*
X127472553Y-98921000D01*
X126801810Y-99591740D01*
X126866590Y-99637099D01*
X126866592Y-99637100D01*
X127066715Y-99730419D01*
X127066729Y-99730424D01*
X127280013Y-99787573D01*
X127280023Y-99787575D01*
X127499999Y-99806821D01*
X127500001Y-99806821D01*
X127719976Y-99787575D01*
X127719986Y-99787573D01*
X127933270Y-99730424D01*
X127933284Y-99730419D01*
X128133407Y-99637100D01*
X128133417Y-99637094D01*
X128198188Y-99591741D01*
X127527448Y-98921000D01*
X127550160Y-98921000D01*
X127647061Y-98895036D01*
X127733940Y-98844876D01*
X127804876Y-98773940D01*
X127855036Y-98687061D01*
X127881000Y-98590160D01*
X127881000Y-98567447D01*
X128551741Y-99238188D01*
X128597094Y-99173417D01*
X128597100Y-99173407D01*
X128690419Y-98973284D01*
X128690424Y-98973270D01*
X128747573Y-98759986D01*
X128747575Y-98759976D01*
X128766821Y-98540000D01*
X128766821Y-98539999D01*
X128747575Y-98320023D01*
X128747573Y-98320013D01*
X128690424Y-98106729D01*
X128690420Y-98106720D01*
X128597096Y-97906586D01*
X128551741Y-97841811D01*
X128551740Y-97841810D01*
X127881000Y-98512551D01*
X127881000Y-98489840D01*
X127855036Y-98392939D01*
X127804876Y-98306060D01*
X127733940Y-98235124D01*
X127647061Y-98184964D01*
X127550160Y-98159000D01*
X127527447Y-98159000D01*
X128198188Y-97488258D01*
X128133411Y-97442901D01*
X128133405Y-97442898D01*
X128004219Y-97382658D01*
X127951779Y-97336486D01*
X127932627Y-97269293D01*
X127952843Y-97202411D01*
X128004219Y-97157894D01*
X128133662Y-97097534D01*
X128314620Y-96970826D01*
X128470826Y-96814620D01*
X128597534Y-96633662D01*
X128690894Y-96433450D01*
X128748070Y-96220068D01*
X128767323Y-96000000D01*
X128748070Y-95779932D01*
X128690894Y-95566550D01*
X128597534Y-95366339D01*
X128470826Y-95185380D01*
X128314620Y-95029174D01*
X128314616Y-95029171D01*
X128314615Y-95029170D01*
X128133666Y-94902468D01*
X128133658Y-94902464D01*
X128004811Y-94842382D01*
X127952371Y-94796210D01*
X127933219Y-94729017D01*
X127953435Y-94662135D01*
X128004811Y-94617618D01*
X128010802Y-94614824D01*
X128133662Y-94557534D01*
X128314620Y-94430826D01*
X128470826Y-94274620D01*
X128597534Y-94093662D01*
X128690894Y-93893450D01*
X128748070Y-93680068D01*
X128767323Y-93460000D01*
X128748070Y-93239932D01*
X128690894Y-93026550D01*
X128597534Y-92826339D01*
X128470826Y-92645380D01*
X128314620Y-92489174D01*
X128314616Y-92489171D01*
X128314615Y-92489170D01*
X128133666Y-92362468D01*
X128133658Y-92362464D01*
X128004811Y-92302382D01*
X127952371Y-92256210D01*
X127933219Y-92189017D01*
X127953435Y-92122135D01*
X128004811Y-92077618D01*
X128010802Y-92074824D01*
X128133662Y-92017534D01*
X128314620Y-91890826D01*
X128470826Y-91734620D01*
X128597534Y-91553662D01*
X128690894Y-91353450D01*
X128748070Y-91140068D01*
X128767323Y-90920000D01*
X128762183Y-90861253D01*
X128748070Y-90699937D01*
X128748070Y-90699932D01*
X128690894Y-90486550D01*
X128597534Y-90286339D01*
X128470826Y-90105380D01*
X128314620Y-89949174D01*
X128314616Y-89949171D01*
X128314615Y-89949170D01*
X128133666Y-89822468D01*
X128133658Y-89822464D01*
X128004811Y-89762382D01*
X127952371Y-89716210D01*
X127933219Y-89649017D01*
X127953435Y-89582135D01*
X128004811Y-89537618D01*
X128010802Y-89534824D01*
X128133662Y-89477534D01*
X128314620Y-89350826D01*
X128470826Y-89194620D01*
X128597534Y-89013662D01*
X128690894Y-88813450D01*
X128748070Y-88600068D01*
X128767323Y-88380000D01*
X128748070Y-88159932D01*
X128728821Y-88088095D01*
X128730482Y-88018245D01*
X128760912Y-87968321D01*
X129858506Y-86870728D01*
X129858511Y-86870724D01*
X129868714Y-86860520D01*
X129868716Y-86860520D01*
X129980520Y-86748716D01*
X130021072Y-86678478D01*
X130034846Y-86654621D01*
X130034847Y-86654619D01*
X130059574Y-86611790D01*
X130059573Y-86611790D01*
X130059577Y-86611785D01*
X130100500Y-86459057D01*
X130100500Y-86300943D01*
X130100500Y-85300097D01*
X130120185Y-85233058D01*
X130136819Y-85212416D01*
X131276589Y-84072646D01*
X132518536Y-82830698D01*
X132579857Y-82797215D01*
X132592310Y-82795163D01*
X132679255Y-82785368D01*
X132849522Y-82725789D01*
X133002262Y-82629816D01*
X133129816Y-82502262D01*
X133225789Y-82349522D01*
X133285368Y-82179255D01*
X133293272Y-82109106D01*
X133305565Y-82000003D01*
X133305565Y-81999996D01*
X133285369Y-81820750D01*
X133285368Y-81820745D01*
X133225788Y-81650476D01*
X133129815Y-81497737D01*
X132998337Y-81366259D01*
X132964852Y-81304936D01*
X132969836Y-81235244D01*
X132998334Y-81190899D01*
X133107266Y-81081967D01*
X133168585Y-81048485D01*
X133181040Y-81046433D01*
X133279255Y-81035368D01*
X133449522Y-80975789D01*
X133602262Y-80879816D01*
X133729816Y-80752262D01*
X133825789Y-80599522D01*
X133885368Y-80429255D01*
X133896940Y-80326550D01*
X133905565Y-80250003D01*
X133905565Y-80249996D01*
X133885369Y-80070750D01*
X133885368Y-80070745D01*
X133825788Y-79900476D01*
X133786582Y-79838080D01*
X133729816Y-79747738D01*
X133602262Y-79620184D01*
X133520972Y-79569106D01*
X133449523Y-79524211D01*
X133279254Y-79464631D01*
X133279249Y-79464630D01*
X133100004Y-79444435D01*
X133099996Y-79444435D01*
X132920750Y-79464630D01*
X132920745Y-79464631D01*
X132750476Y-79524211D01*
X132597737Y-79620184D01*
X132470184Y-79747737D01*
X132374210Y-79900478D01*
X132314630Y-80070750D01*
X132306107Y-80146398D01*
X132279040Y-80210812D01*
X132270568Y-80220195D01*
X128967626Y-83523137D01*
X128906303Y-83556622D01*
X128836611Y-83551638D01*
X128780678Y-83509766D01*
X128756261Y-83444302D01*
X128756416Y-83424660D01*
X128767323Y-83300000D01*
X128762992Y-83250500D01*
X128760103Y-83217474D01*
X128748070Y-83079932D01*
X128690894Y-82866550D01*
X128597534Y-82666339D01*
X128470826Y-82485380D01*
X128314620Y-82329174D01*
X128314616Y-82329171D01*
X128314615Y-82329170D01*
X128133666Y-82202468D01*
X128133658Y-82202464D01*
X128004811Y-82142382D01*
X127952371Y-82096210D01*
X127933219Y-82029017D01*
X127953435Y-81962135D01*
X128004811Y-81917618D01*
X128010802Y-81914824D01*
X128133662Y-81857534D01*
X128314620Y-81730826D01*
X128470826Y-81574620D01*
X128597534Y-81393662D01*
X128690894Y-81193450D01*
X128748070Y-80980068D01*
X128767323Y-80760000D01*
X128748070Y-80539932D01*
X128690894Y-80326550D01*
X128597534Y-80126339D01*
X128470826Y-79945380D01*
X128314620Y-79789174D01*
X128314616Y-79789171D01*
X128314615Y-79789170D01*
X128133666Y-79662468D01*
X128133658Y-79662464D01*
X128004811Y-79602382D01*
X127952371Y-79556210D01*
X127933219Y-79489017D01*
X127953435Y-79422135D01*
X128004811Y-79377618D01*
X128010802Y-79374824D01*
X128133662Y-79317534D01*
X128314620Y-79190826D01*
X128470826Y-79034620D01*
X128597534Y-78853662D01*
X128690894Y-78653450D01*
X128748070Y-78440068D01*
X128767323Y-78220000D01*
X128748070Y-77999932D01*
X128690894Y-77786550D01*
X128597534Y-77586339D01*
X128470826Y-77405380D01*
X128314620Y-77249174D01*
X128314616Y-77249171D01*
X128314615Y-77249170D01*
X128133666Y-77122468D01*
X128133658Y-77122464D01*
X128004811Y-77062382D01*
X127952371Y-77016210D01*
X127933219Y-76949017D01*
X127953435Y-76882135D01*
X128004811Y-76837618D01*
X128010802Y-76834824D01*
X128133662Y-76777534D01*
X128314620Y-76650826D01*
X128470826Y-76494620D01*
X128597534Y-76313662D01*
X128690894Y-76113450D01*
X128748070Y-75900068D01*
X128767323Y-75680000D01*
X128748070Y-75459932D01*
X128690894Y-75246550D01*
X128597534Y-75046339D01*
X128470826Y-74865380D01*
X128314620Y-74709174D01*
X128314616Y-74709171D01*
X128314615Y-74709170D01*
X128133666Y-74582468D01*
X128133658Y-74582464D01*
X128004811Y-74522382D01*
X127952371Y-74476210D01*
X127933219Y-74409017D01*
X127953435Y-74342135D01*
X128004811Y-74297618D01*
X128010802Y-74294824D01*
X128133662Y-74237534D01*
X128314620Y-74110826D01*
X128470826Y-73954620D01*
X128597534Y-73773662D01*
X128690894Y-73573450D01*
X128748070Y-73360068D01*
X128767323Y-73140000D01*
X128748070Y-72919932D01*
X128690894Y-72706550D01*
X128597534Y-72506339D01*
X128470826Y-72325380D01*
X128314620Y-72169174D01*
X128314616Y-72169171D01*
X128314615Y-72169170D01*
X128133666Y-72042468D01*
X128133658Y-72042464D01*
X128004811Y-71982382D01*
X127952371Y-71936210D01*
X127933219Y-71869017D01*
X127953435Y-71802135D01*
X128004811Y-71757618D01*
X128010802Y-71754824D01*
X128133662Y-71697534D01*
X128314620Y-71570826D01*
X128470826Y-71414620D01*
X128597534Y-71233662D01*
X128690894Y-71033450D01*
X128748070Y-70820068D01*
X128767323Y-70600000D01*
X128748070Y-70379932D01*
X128690894Y-70166550D01*
X128597534Y-69966339D01*
X128470826Y-69785380D01*
X128314620Y-69629174D01*
X128314616Y-69629171D01*
X128314615Y-69629170D01*
X128133666Y-69502468D01*
X128133658Y-69502464D01*
X128004811Y-69442382D01*
X127952371Y-69396210D01*
X127933219Y-69329017D01*
X127953435Y-69262135D01*
X128004811Y-69217618D01*
X128010802Y-69214824D01*
X128133662Y-69157534D01*
X128314620Y-69030826D01*
X128470826Y-68874620D01*
X128597534Y-68693662D01*
X128690894Y-68493450D01*
X128748070Y-68280068D01*
X128767323Y-68060000D01*
X128748070Y-67839932D01*
X128690894Y-67626550D01*
X128597534Y-67426339D01*
X128470826Y-67245380D01*
X128314620Y-67089174D01*
X128314616Y-67089171D01*
X128314615Y-67089170D01*
X128133666Y-66962468D01*
X128133658Y-66962464D01*
X128004811Y-66902382D01*
X127952371Y-66856210D01*
X127933219Y-66789017D01*
X127953435Y-66722135D01*
X128004811Y-66677618D01*
X128010802Y-66674824D01*
X128133662Y-66617534D01*
X128314620Y-66490826D01*
X128470826Y-66334620D01*
X128597534Y-66153662D01*
X128690894Y-65953450D01*
X128748070Y-65740068D01*
X128767323Y-65520000D01*
X128748070Y-65299932D01*
X128690894Y-65086550D01*
X128597534Y-64886339D01*
X128470826Y-64705380D01*
X128314620Y-64549174D01*
X128314616Y-64549171D01*
X128314615Y-64549170D01*
X128133666Y-64422468D01*
X128133658Y-64422464D01*
X128004811Y-64362382D01*
X127952371Y-64316210D01*
X127933219Y-64249017D01*
X127953435Y-64182135D01*
X128004811Y-64137618D01*
X128010802Y-64134824D01*
X128133662Y-64077534D01*
X128314620Y-63950826D01*
X128470826Y-63794620D01*
X128597534Y-63613662D01*
X128690894Y-63413450D01*
X128748070Y-63200068D01*
X128767323Y-62980000D01*
X128748070Y-62759932D01*
X128690894Y-62546550D01*
X128597534Y-62346339D01*
X128470826Y-62165380D01*
X128314620Y-62009174D01*
X128314616Y-62009171D01*
X128314615Y-62009170D01*
X128133666Y-61882468D01*
X128133658Y-61882464D01*
X128004811Y-61822382D01*
X127952371Y-61776210D01*
X127933219Y-61709017D01*
X127953435Y-61642135D01*
X128004811Y-61597618D01*
X128010802Y-61594824D01*
X128133662Y-61537534D01*
X128314620Y-61410826D01*
X128470826Y-61254620D01*
X128597534Y-61073662D01*
X128690894Y-60873450D01*
X128748070Y-60660068D01*
X128767323Y-60440000D01*
X128748070Y-60219932D01*
X128690894Y-60006550D01*
X128597534Y-59806339D01*
X128470826Y-59625380D01*
X128314620Y-59469174D01*
X128314616Y-59469171D01*
X128314615Y-59469170D01*
X128133666Y-59342468D01*
X128133658Y-59342464D01*
X128004811Y-59282382D01*
X127952371Y-59236210D01*
X127933219Y-59169017D01*
X127953435Y-59102135D01*
X128004811Y-59057618D01*
X128010802Y-59054824D01*
X128133662Y-58997534D01*
X128314620Y-58870826D01*
X128470826Y-58714620D01*
X128597534Y-58533662D01*
X128690894Y-58333450D01*
X128748070Y-58120068D01*
X128767323Y-57900000D01*
X128748070Y-57679932D01*
X128690894Y-57466550D01*
X128597534Y-57266339D01*
X128470826Y-57085380D01*
X128314620Y-56929174D01*
X128314616Y-56929171D01*
X128314615Y-56929170D01*
X128133666Y-56802468D01*
X128133658Y-56802464D01*
X128004811Y-56742382D01*
X127952371Y-56696210D01*
X127933219Y-56629017D01*
X127953435Y-56562135D01*
X128004811Y-56517618D01*
X128010802Y-56514824D01*
X128133662Y-56457534D01*
X128314620Y-56330826D01*
X128470826Y-56174620D01*
X128597534Y-55993662D01*
X128690894Y-55793450D01*
X128748070Y-55580068D01*
X128767323Y-55360000D01*
X128748070Y-55139932D01*
X128690894Y-54926550D01*
X128597534Y-54726339D01*
X128490158Y-54572989D01*
X128470827Y-54545381D01*
X128425946Y-54500500D01*
X128314620Y-54389174D01*
X128314616Y-54389171D01*
X128314615Y-54389170D01*
X128133666Y-54262468D01*
X128133662Y-54262466D01*
X128133660Y-54262465D01*
X127933450Y-54169106D01*
X127933447Y-54169105D01*
X127933445Y-54169104D01*
X127720070Y-54111930D01*
X127720062Y-54111929D01*
X127500002Y-54092677D01*
X127499998Y-54092677D01*
X127279937Y-54111929D01*
X127279929Y-54111930D01*
X127066554Y-54169104D01*
X127066548Y-54169107D01*
X126866340Y-54262465D01*
X126866338Y-54262466D01*
X126685377Y-54389175D01*
X126529175Y-54545377D01*
X126402466Y-54726338D01*
X126402465Y-54726340D01*
X126309107Y-54926548D01*
X126309104Y-54926554D01*
X126251930Y-55139929D01*
X126251929Y-55139937D01*
X126232677Y-55359997D01*
X124903452Y-55359997D01*
X129216630Y-51046819D01*
X129277953Y-51013334D01*
X129304311Y-51010500D01*
X132847309Y-51010500D01*
X132914348Y-51030185D01*
X132948883Y-51063375D01*
X132961501Y-51081396D01*
X132961508Y-51081405D01*
X133128597Y-51248493D01*
X133128603Y-51248498D01*
X133314594Y-51378730D01*
X133358219Y-51433307D01*
X133365413Y-51502805D01*
X133333890Y-51565160D01*
X133314595Y-51581880D01*
X133128922Y-51711890D01*
X133128920Y-51711891D01*
X132961891Y-51878920D01*
X132961886Y-51878926D01*
X132826400Y-52072420D01*
X132826399Y-52072422D01*
X132726570Y-52286507D01*
X132726567Y-52286513D01*
X132669364Y-52499999D01*
X132669364Y-52500000D01*
X133566988Y-52500000D01*
X133534075Y-52557007D01*
X133500000Y-52684174D01*
X133500000Y-52815826D01*
X133534075Y-52942993D01*
X133566988Y-53000000D01*
X132669364Y-53000000D01*
X132726567Y-53213486D01*
X132726570Y-53213492D01*
X132826399Y-53427578D01*
X132961894Y-53621082D01*
X133128917Y-53788105D01*
X133322421Y-53923600D01*
X133536507Y-54023429D01*
X133536516Y-54023433D01*
X133750000Y-54080634D01*
X133750000Y-53183012D01*
X133807007Y-53215925D01*
X133934174Y-53250000D01*
X134065826Y-53250000D01*
X134192993Y-53215925D01*
X134250000Y-53183012D01*
X134250000Y-54080633D01*
X134463483Y-54023433D01*
X134463492Y-54023429D01*
X134677578Y-53923600D01*
X134871082Y-53788105D01*
X135038105Y-53621082D01*
X135168425Y-53434968D01*
X135223002Y-53391344D01*
X135292501Y-53384151D01*
X135354855Y-53415673D01*
X135371575Y-53434968D01*
X135501894Y-53621082D01*
X135668917Y-53788105D01*
X135862421Y-53923600D01*
X136076507Y-54023429D01*
X136076516Y-54023433D01*
X136290000Y-54080634D01*
X136290000Y-53183012D01*
X136347007Y-53215925D01*
X136474174Y-53250000D01*
X136605826Y-53250000D01*
X136732993Y-53215925D01*
X136790000Y-53183012D01*
X136790000Y-54080633D01*
X137003483Y-54023433D01*
X137003492Y-54023429D01*
X137217578Y-53923600D01*
X137411082Y-53788105D01*
X137578105Y-53621082D01*
X137713600Y-53427578D01*
X137813429Y-53213492D01*
X137813432Y-53213486D01*
X137870636Y-53000000D01*
X136973012Y-53000000D01*
X137005925Y-52942993D01*
X137040000Y-52815826D01*
X137040000Y-52684174D01*
X137005925Y-52557007D01*
X136973012Y-52500000D01*
X137870636Y-52500000D01*
X137870635Y-52499999D01*
X137813432Y-52286513D01*
X137813429Y-52286507D01*
X137713600Y-52072422D01*
X137713599Y-52072420D01*
X137578113Y-51878926D01*
X137578108Y-51878920D01*
X137411078Y-51711890D01*
X137225405Y-51581879D01*
X137181780Y-51527302D01*
X137174588Y-51457804D01*
X137206110Y-51395449D01*
X137225406Y-51378730D01*
X137411401Y-51248495D01*
X137578495Y-51081401D01*
X137714035Y-50887830D01*
X137813903Y-50673663D01*
X137875063Y-50445408D01*
X137895659Y-50210000D01*
X137875063Y-49974592D01*
X137813903Y-49746337D01*
X137714035Y-49532171D01*
X137708425Y-49524158D01*
X137578494Y-49338597D01*
X137411402Y-49171506D01*
X137411396Y-49171501D01*
X137225842Y-49041575D01*
X137182217Y-48986998D01*
X137175023Y-48917500D01*
X137206546Y-48855145D01*
X137225842Y-48838425D01*
X137258117Y-48815826D01*
X137411401Y-48708495D01*
X137578495Y-48541401D01*
X137714035Y-48347830D01*
X137813903Y-48133663D01*
X137875063Y-47905408D01*
X137879724Y-47852135D01*
X144859500Y-47852135D01*
X144859500Y-49647870D01*
X144859501Y-49647876D01*
X144865908Y-49707483D01*
X144916202Y-49842328D01*
X144916206Y-49842335D01*
X145002452Y-49957544D01*
X145002455Y-49957547D01*
X145117664Y-50043793D01*
X145117671Y-50043797D01*
X145252517Y-50094091D01*
X145252516Y-50094091D01*
X145259444Y-50094835D01*
X145312127Y-50100500D01*
X147107872Y-50100499D01*
X147167483Y-50094091D01*
X147302331Y-50043796D01*
X147417546Y-49957546D01*
X147503796Y-49842331D01*
X147553002Y-49710401D01*
X147594872Y-49654468D01*
X147660337Y-49630050D01*
X147728610Y-49644901D01*
X147756865Y-49666053D01*
X147878917Y-49788105D01*
X148072421Y-49923600D01*
X148286507Y-50023429D01*
X148286516Y-50023433D01*
X148500000Y-50080634D01*
X148500000Y-49183012D01*
X148557007Y-49215925D01*
X148684174Y-49250000D01*
X148815826Y-49250000D01*
X148942993Y-49215925D01*
X149000000Y-49183012D01*
X149000000Y-50080633D01*
X149213483Y-50023433D01*
X149213492Y-50023429D01*
X149427578Y-49923600D01*
X149621082Y-49788105D01*
X149788105Y-49621082D01*
X149923600Y-49427578D01*
X150023429Y-49213492D01*
X150023432Y-49213486D01*
X150080636Y-49000000D01*
X149183012Y-49000000D01*
X149215925Y-48942993D01*
X149250000Y-48815826D01*
X149250000Y-48684174D01*
X149215925Y-48557007D01*
X149183012Y-48500000D01*
X150080636Y-48500000D01*
X150080635Y-48499999D01*
X150023432Y-48286513D01*
X150023429Y-48286507D01*
X149923600Y-48072422D01*
X149923599Y-48072420D01*
X149788113Y-47878926D01*
X149788108Y-47878920D01*
X149621082Y-47711894D01*
X149427578Y-47576399D01*
X149213492Y-47476570D01*
X149213486Y-47476567D01*
X149000000Y-47419364D01*
X149000000Y-48316988D01*
X148942993Y-48284075D01*
X148815826Y-48250000D01*
X148684174Y-48250000D01*
X148557007Y-48284075D01*
X148500000Y-48316988D01*
X148500000Y-47419364D01*
X148499999Y-47419364D01*
X148286513Y-47476567D01*
X148286507Y-47476570D01*
X148072422Y-47576399D01*
X148072420Y-47576400D01*
X147878926Y-47711886D01*
X147756865Y-47833947D01*
X147695542Y-47867431D01*
X147625850Y-47862447D01*
X147569917Y-47820575D01*
X147553002Y-47789598D01*
X147503797Y-47657671D01*
X147503793Y-47657664D01*
X147417547Y-47542455D01*
X147417544Y-47542452D01*
X147302335Y-47456206D01*
X147302328Y-47456202D01*
X147167482Y-47405908D01*
X147167483Y-47405908D01*
X147107883Y-47399501D01*
X147107881Y-47399500D01*
X147107873Y-47399500D01*
X147107864Y-47399500D01*
X145312129Y-47399500D01*
X145312123Y-47399501D01*
X145252516Y-47405908D01*
X145117671Y-47456202D01*
X145117664Y-47456206D01*
X145002455Y-47542452D01*
X145002452Y-47542455D01*
X144916206Y-47657664D01*
X144916202Y-47657671D01*
X144865908Y-47792517D01*
X144859501Y-47852116D01*
X144859500Y-47852135D01*
X137879724Y-47852135D01*
X137895659Y-47670000D01*
X137875063Y-47434592D01*
X137813903Y-47206337D01*
X137714035Y-46992171D01*
X137708425Y-46984158D01*
X137578494Y-46798597D01*
X137411402Y-46631506D01*
X137411396Y-46631501D01*
X137225842Y-46501575D01*
X137182217Y-46446998D01*
X137175023Y-46377500D01*
X137206546Y-46315145D01*
X137225842Y-46298425D01*
X137248026Y-46282891D01*
X137411401Y-46168495D01*
X137578495Y-46001401D01*
X137714035Y-45807830D01*
X137813903Y-45593663D01*
X137875063Y-45365408D01*
X137895659Y-45130000D01*
X137875063Y-44894592D01*
X137813903Y-44666337D01*
X137714035Y-44452171D01*
X137578495Y-44258599D01*
X137578494Y-44258597D01*
X137411402Y-44091506D01*
X137411395Y-44091501D01*
X137217834Y-43955967D01*
X137217830Y-43955965D01*
X137217828Y-43955964D01*
X137003663Y-43856097D01*
X137003659Y-43856096D01*
X137003655Y-43856094D01*
X136775413Y-43794938D01*
X136775403Y-43794936D01*
X136540001Y-43774341D01*
X136539999Y-43774341D01*
X136304596Y-43794936D01*
X136304586Y-43794938D01*
X136076344Y-43856094D01*
X136076335Y-43856098D01*
X135862171Y-43955964D01*
X135862169Y-43955965D01*
X135668600Y-44091503D01*
X135546673Y-44213430D01*
X135485350Y-44246914D01*
X135415658Y-44241930D01*
X135359725Y-44200058D01*
X135342810Y-44169081D01*
X135293797Y-44037671D01*
X135293793Y-44037664D01*
X135207547Y-43922455D01*
X135207544Y-43922452D01*
X135092335Y-43836206D01*
X135092328Y-43836202D01*
X134957482Y-43785908D01*
X134957483Y-43785908D01*
X134897883Y-43779501D01*
X134897881Y-43779500D01*
X134897873Y-43779500D01*
X134897864Y-43779500D01*
X133102129Y-43779500D01*
X133102123Y-43779501D01*
X133042516Y-43785908D01*
X132907671Y-43836202D01*
X132907664Y-43836206D01*
X132792455Y-43922452D01*
X132792452Y-43922455D01*
X132706206Y-44037664D01*
X132706202Y-44037671D01*
X132655908Y-44172517D01*
X132649501Y-44232116D01*
X132649500Y-44232135D01*
X132649500Y-46027870D01*
X132649501Y-46027876D01*
X132655908Y-46087483D01*
X132706202Y-46222328D01*
X132706206Y-46222335D01*
X132792452Y-46337544D01*
X132792455Y-46337547D01*
X132907664Y-46423793D01*
X132907671Y-46423797D01*
X133039081Y-46472810D01*
X133095015Y-46514681D01*
X133119432Y-46580145D01*
X133104580Y-46648418D01*
X133083430Y-46676673D01*
X132961503Y-46798600D01*
X132825965Y-46992169D01*
X132825964Y-46992171D01*
X132726098Y-47206335D01*
X132726094Y-47206344D01*
X132664938Y-47434586D01*
X132664936Y-47434596D01*
X132644341Y-47669999D01*
X132644341Y-47670000D01*
X132664936Y-47905403D01*
X132664938Y-47905413D01*
X132726094Y-48133655D01*
X132726096Y-48133659D01*
X132726097Y-48133663D01*
X132797370Y-48286507D01*
X132825965Y-48347830D01*
X132825967Y-48347834D01*
X132892599Y-48442993D01*
X132961501Y-48541396D01*
X132961506Y-48541402D01*
X133128597Y-48708493D01*
X133128603Y-48708498D01*
X133314158Y-48838425D01*
X133357783Y-48893002D01*
X133364977Y-48962500D01*
X133333454Y-49024855D01*
X133314158Y-49041575D01*
X133128597Y-49171505D01*
X132961508Y-49338594D01*
X132948884Y-49356624D01*
X132894307Y-49400248D01*
X132847309Y-49409500D01*
X128842524Y-49409500D01*
X128687881Y-49440260D01*
X128687873Y-49440262D01*
X128542195Y-49500604D01*
X128542185Y-49500609D01*
X128411082Y-49588210D01*
X128411078Y-49588213D01*
X124712181Y-53287111D01*
X124650858Y-53320596D01*
X124581166Y-53315612D01*
X124525233Y-53273740D01*
X124500816Y-53208276D01*
X124500500Y-53199430D01*
X124500500Y-43624500D01*
X124520185Y-43557461D01*
X124572989Y-43511706D01*
X124624500Y-43500500D01*
X153375500Y-43500500D01*
X153442539Y-43520185D01*
G37*
%TD.AperFunction*%
%TA.AperFunction,Conductor*%
G36*
X123266470Y-54520185D02*
G01*
X123312225Y-54572989D01*
X123322169Y-54642147D01*
X123293144Y-54705703D01*
X123287112Y-54712181D01*
X116489711Y-61509582D01*
X116461762Y-61537531D01*
X116378209Y-61621083D01*
X116290609Y-61752185D01*
X116290602Y-61752198D01*
X116230264Y-61897869D01*
X116230261Y-61897881D01*
X116199500Y-62052524D01*
X116199500Y-80717059D01*
X116179815Y-80784098D01*
X116163181Y-80804740D01*
X106106667Y-90861253D01*
X106045344Y-90894738D01*
X105975652Y-90889754D01*
X105919719Y-90847882D01*
X105895458Y-90784379D01*
X105888070Y-90699937D01*
X105888070Y-90699932D01*
X105830894Y-90486550D01*
X105737534Y-90286339D01*
X105610826Y-90105380D01*
X105454620Y-89949174D01*
X105454616Y-89949171D01*
X105454615Y-89949170D01*
X105273666Y-89822468D01*
X105273658Y-89822464D01*
X105144811Y-89762382D01*
X105092371Y-89716210D01*
X105073219Y-89649017D01*
X105093435Y-89582135D01*
X105144811Y-89537618D01*
X105150802Y-89534824D01*
X105273662Y-89477534D01*
X105454620Y-89350826D01*
X105610826Y-89194620D01*
X105737534Y-89013662D01*
X105830894Y-88813450D01*
X105888070Y-88600068D01*
X105907323Y-88380000D01*
X105888070Y-88159932D01*
X105830894Y-87946550D01*
X105737534Y-87746339D01*
X105610826Y-87565380D01*
X105454620Y-87409174D01*
X105454616Y-87409171D01*
X105454615Y-87409170D01*
X105273666Y-87282468D01*
X105273658Y-87282464D01*
X105144811Y-87222382D01*
X105092371Y-87176210D01*
X105073219Y-87109017D01*
X105093435Y-87042135D01*
X105144811Y-86997618D01*
X105150802Y-86994824D01*
X105273662Y-86937534D01*
X105454620Y-86810826D01*
X105610826Y-86654620D01*
X105737534Y-86473662D01*
X105830894Y-86273450D01*
X105888070Y-86060068D01*
X105907323Y-85840000D01*
X105888070Y-85619932D01*
X105830894Y-85406550D01*
X105737534Y-85206339D01*
X105610826Y-85025380D01*
X105454620Y-84869174D01*
X105454616Y-84869171D01*
X105454615Y-84869170D01*
X105273666Y-84742468D01*
X105273658Y-84742464D01*
X105144811Y-84682382D01*
X105092371Y-84636210D01*
X105073219Y-84569017D01*
X105093435Y-84502135D01*
X105144811Y-84457618D01*
X105150802Y-84454824D01*
X105273662Y-84397534D01*
X105454620Y-84270826D01*
X105610826Y-84114620D01*
X105737534Y-83933662D01*
X105830894Y-83733450D01*
X105888070Y-83520068D01*
X105907323Y-83300000D01*
X105902992Y-83250500D01*
X105900103Y-83217474D01*
X105888070Y-83079932D01*
X105830894Y-82866550D01*
X105737534Y-82666339D01*
X105610826Y-82485380D01*
X105454620Y-82329174D01*
X105454616Y-82329171D01*
X105454615Y-82329170D01*
X105273666Y-82202468D01*
X105273658Y-82202464D01*
X105144811Y-82142382D01*
X105092371Y-82096210D01*
X105073219Y-82029017D01*
X105093435Y-81962135D01*
X105144811Y-81917618D01*
X105150802Y-81914824D01*
X105273662Y-81857534D01*
X105454620Y-81730826D01*
X105610826Y-81574620D01*
X105737534Y-81393662D01*
X105830894Y-81193450D01*
X105888070Y-80980068D01*
X105907323Y-80760000D01*
X105888070Y-80539932D01*
X105830894Y-80326550D01*
X105737534Y-80126339D01*
X105610826Y-79945380D01*
X105454620Y-79789174D01*
X105454616Y-79789171D01*
X105454615Y-79789170D01*
X105273666Y-79662468D01*
X105273658Y-79662464D01*
X105144811Y-79602382D01*
X105092371Y-79556210D01*
X105073219Y-79489017D01*
X105093435Y-79422135D01*
X105144811Y-79377618D01*
X105150802Y-79374824D01*
X105273662Y-79317534D01*
X105454620Y-79190826D01*
X105610826Y-79034620D01*
X105737534Y-78853662D01*
X105830894Y-78653450D01*
X105888070Y-78440068D01*
X105907323Y-78220000D01*
X105888070Y-77999932D01*
X105830894Y-77786550D01*
X105737534Y-77586339D01*
X105610826Y-77405380D01*
X105454620Y-77249174D01*
X105454616Y-77249171D01*
X105454615Y-77249170D01*
X105273666Y-77122468D01*
X105273658Y-77122464D01*
X105144811Y-77062382D01*
X105092371Y-77016210D01*
X105073219Y-76949017D01*
X105093435Y-76882135D01*
X105144811Y-76837618D01*
X105150802Y-76834824D01*
X105273662Y-76777534D01*
X105454620Y-76650826D01*
X105610826Y-76494620D01*
X105737534Y-76313662D01*
X105830894Y-76113450D01*
X105888070Y-75900068D01*
X105907323Y-75680000D01*
X105888070Y-75459932D01*
X105830894Y-75246550D01*
X105737534Y-75046339D01*
X105610826Y-74865380D01*
X105454620Y-74709174D01*
X105454616Y-74709171D01*
X105454615Y-74709170D01*
X105273666Y-74582468D01*
X105273658Y-74582464D01*
X105144811Y-74522382D01*
X105092371Y-74476210D01*
X105073219Y-74409017D01*
X105093435Y-74342135D01*
X105144811Y-74297618D01*
X105150802Y-74294824D01*
X105273662Y-74237534D01*
X105454620Y-74110826D01*
X105610826Y-73954620D01*
X105737534Y-73773662D01*
X105830894Y-73573450D01*
X105888070Y-73360068D01*
X105907323Y-73140000D01*
X105888070Y-72919932D01*
X105830894Y-72706550D01*
X105737534Y-72506339D01*
X105610826Y-72325380D01*
X105454620Y-72169174D01*
X105454616Y-72169171D01*
X105454615Y-72169170D01*
X105273666Y-72042468D01*
X105273658Y-72042464D01*
X105144811Y-71982382D01*
X105092371Y-71936210D01*
X105073219Y-71869017D01*
X105093435Y-71802135D01*
X105144811Y-71757618D01*
X105150802Y-71754824D01*
X105273662Y-71697534D01*
X105454620Y-71570826D01*
X105610826Y-71414620D01*
X105737534Y-71233662D01*
X105830894Y-71033450D01*
X105888070Y-70820068D01*
X105907323Y-70600000D01*
X105888070Y-70379932D01*
X105830894Y-70166550D01*
X105737534Y-69966339D01*
X105610826Y-69785380D01*
X105454620Y-69629174D01*
X105454616Y-69629171D01*
X105454615Y-69629170D01*
X105273666Y-69502468D01*
X105273658Y-69502464D01*
X105144811Y-69442382D01*
X105092371Y-69396210D01*
X105073219Y-69329017D01*
X105093435Y-69262135D01*
X105144811Y-69217618D01*
X105150802Y-69214824D01*
X105273662Y-69157534D01*
X105454620Y-69030826D01*
X105610826Y-68874620D01*
X105737534Y-68693662D01*
X105830894Y-68493450D01*
X105888070Y-68280068D01*
X105907323Y-68060000D01*
X105888070Y-67839932D01*
X105830894Y-67626550D01*
X105737534Y-67426339D01*
X105610826Y-67245380D01*
X105454620Y-67089174D01*
X105454616Y-67089171D01*
X105454615Y-67089170D01*
X105273666Y-66962468D01*
X105273658Y-66962464D01*
X105144811Y-66902382D01*
X105092371Y-66856210D01*
X105073219Y-66789017D01*
X105093435Y-66722135D01*
X105144811Y-66677618D01*
X105150802Y-66674824D01*
X105273662Y-66617534D01*
X105454620Y-66490826D01*
X105610826Y-66334620D01*
X105737534Y-66153662D01*
X105830894Y-65953450D01*
X105888070Y-65740068D01*
X105907323Y-65520000D01*
X105888070Y-65299932D01*
X105830894Y-65086550D01*
X105737534Y-64886339D01*
X105610826Y-64705380D01*
X105454620Y-64549174D01*
X105454616Y-64549171D01*
X105454615Y-64549170D01*
X105273666Y-64422468D01*
X105273658Y-64422464D01*
X105144811Y-64362382D01*
X105092371Y-64316210D01*
X105073219Y-64249017D01*
X105093435Y-64182135D01*
X105144811Y-64137618D01*
X105150802Y-64134824D01*
X105273662Y-64077534D01*
X105454620Y-63950826D01*
X105610826Y-63794620D01*
X105737534Y-63613662D01*
X105830894Y-63413450D01*
X105888070Y-63200068D01*
X105907323Y-62980000D01*
X105888070Y-62759932D01*
X105830894Y-62546550D01*
X105737534Y-62346339D01*
X105610826Y-62165380D01*
X105454620Y-62009174D01*
X105454616Y-62009171D01*
X105454615Y-62009170D01*
X105273666Y-61882468D01*
X105273658Y-61882464D01*
X105144811Y-61822382D01*
X105092371Y-61776210D01*
X105073219Y-61709017D01*
X105093435Y-61642135D01*
X105144811Y-61597618D01*
X105150802Y-61594824D01*
X105273662Y-61537534D01*
X105454620Y-61410826D01*
X105610826Y-61254620D01*
X105737534Y-61073662D01*
X105830894Y-60873450D01*
X105888070Y-60660068D01*
X105907323Y-60440000D01*
X105888070Y-60219932D01*
X105830894Y-60006550D01*
X105737534Y-59806339D01*
X105610826Y-59625380D01*
X105454620Y-59469174D01*
X105454616Y-59469171D01*
X105454615Y-59469170D01*
X105273666Y-59342468D01*
X105273658Y-59342464D01*
X105144811Y-59282382D01*
X105092371Y-59236210D01*
X105073219Y-59169017D01*
X105093435Y-59102135D01*
X105144811Y-59057618D01*
X105150802Y-59054824D01*
X105273662Y-58997534D01*
X105454620Y-58870826D01*
X105610826Y-58714620D01*
X105737534Y-58533662D01*
X105830894Y-58333450D01*
X105888070Y-58120068D01*
X105907323Y-57900000D01*
X105888070Y-57679932D01*
X105830894Y-57466550D01*
X105737534Y-57266339D01*
X105610826Y-57085380D01*
X105454620Y-56929174D01*
X105454616Y-56929171D01*
X105454615Y-56929170D01*
X105273666Y-56802468D01*
X105273658Y-56802464D01*
X105144811Y-56742382D01*
X105092371Y-56696210D01*
X105073219Y-56629017D01*
X105093435Y-56562135D01*
X105144811Y-56517618D01*
X105150802Y-56514824D01*
X105273662Y-56457534D01*
X105454620Y-56330826D01*
X105610826Y-56174620D01*
X105737534Y-55993662D01*
X105830894Y-55793450D01*
X105888070Y-55580068D01*
X105907323Y-55360000D01*
X105888070Y-55139932D01*
X105830894Y-54926550D01*
X105737534Y-54726339D01*
X105716025Y-54695621D01*
X105693699Y-54629417D01*
X105710709Y-54561650D01*
X105761657Y-54513837D01*
X105817601Y-54500500D01*
X123199431Y-54500500D01*
X123266470Y-54520185D01*
G37*
%TD.AperFunction*%
%TA.AperFunction,Conductor*%
G36*
X136074075Y-52557007D02*
G01*
X136040000Y-52684174D01*
X136040000Y-52815826D01*
X136074075Y-52942993D01*
X136106988Y-53000000D01*
X134433012Y-53000000D01*
X134465925Y-52942993D01*
X134500000Y-52815826D01*
X134500000Y-52684174D01*
X134465925Y-52557007D01*
X134433012Y-52500000D01*
X136106988Y-52500000D01*
X136074075Y-52557007D01*
G37*
%TD.AperFunction*%
%TD*%
M02*
