%TF.GenerationSoftware,KiCad,Pcbnew,8.0.8*%
%TF.CreationDate,2025-07-12T12:46:27+02:00*%
%TF.ProjectId,lora_sensor_case-sensor_top,6c6f7261-5f73-4656-9e73-6f725f636173,rev?*%
%TF.SameCoordinates,Original*%
%TF.FileFunction,Soldermask,Bot*%
%TF.FilePolarity,Negative*%
%FSLAX46Y46*%
G04 Gerber Fmt 4.6, Leading zero omitted, Abs format (unit mm)*
G04 Created by KiCad (PCBNEW 8.0.8) date 2025-07-12 12:46:27*
%MOMM*%
%LPD*%
G01*
G04 APERTURE LIST*
%ADD10R,1.700000X1.700000*%
%ADD11O,1.700000X1.700000*%
%ADD12C,1.524000*%
G04 APERTURE END LIST*
D10*
%TO.C,J1*%
X124210000Y-147000000D03*
D11*
X126750000Y-147000000D03*
%TD*%
D12*
%TO.C,U1*%
X125610000Y-123180000D03*
X125610000Y-120640000D03*
X125610000Y-118100000D03*
X125610000Y-115560000D03*
X125610000Y-113020000D03*
X125610000Y-110480000D03*
X125610000Y-107940000D03*
X125610000Y-105400000D03*
X125610000Y-102860000D03*
X125610000Y-100320000D03*
X125610000Y-97780000D03*
X125610000Y-95240000D03*
X125610000Y-92700000D03*
X125610000Y-90160000D03*
X125610000Y-87620000D03*
X125610000Y-85080000D03*
X125610000Y-82540000D03*
X125610000Y-80000000D03*
X102750000Y-123180000D03*
X102750000Y-120640000D03*
X102750000Y-118100000D03*
X102750000Y-115560000D03*
X102750000Y-113020000D03*
X102750000Y-110480000D03*
X102750000Y-107940000D03*
X102750000Y-105400000D03*
X102750000Y-102860000D03*
X102750000Y-100320000D03*
X102750000Y-97780000D03*
X102750000Y-95240000D03*
X102750000Y-92700000D03*
X102750000Y-90160000D03*
X102750000Y-87620000D03*
X102750000Y-85080000D03*
X102750000Y-82540000D03*
X102750000Y-80000000D03*
%TD*%
D10*
%TO.C,J3*%
X144210000Y-75500000D03*
D11*
X146750000Y-75500000D03*
%TD*%
D10*
%TO.C,J2*%
X111725000Y-147199998D03*
D11*
X114265000Y-147199998D03*
X111725000Y-149739998D03*
X114265000Y-149739998D03*
X111725000Y-152279998D03*
X114265000Y-152279998D03*
X111725000Y-154819998D03*
X114265000Y-154819998D03*
%TD*%
D10*
%TO.C,U2*%
X124460000Y-73000000D03*
D11*
X127000000Y-73000000D03*
X129540000Y-73000000D03*
X132080000Y-73000000D03*
X134620000Y-73000000D03*
X137160000Y-73000000D03*
%TD*%
D12*
%TO.C,U4*%
X103495300Y-128250000D03*
X103495300Y-142250000D03*
X125995300Y-128250000D03*
X125995300Y-131250000D03*
X125995300Y-139250000D03*
X125995300Y-142250000D03*
%TD*%
M02*
