%TF.GenerationSoftware,KiCad,Pcbnew,8.0.8*%
%TF.CreationDate,2025-07-12T12:46:27+02:00*%
%TF.ProjectId,lora_sensor_case-sensor_top,6c6f7261-5f73-4656-9e73-6f725f636173,rev?*%
%TF.SameCoordinates,Original*%
%TF.FileFunction,Copper,L2,Bot*%
%TF.FilePolarity,Positive*%
%FSLAX46Y46*%
G04 Gerber Fmt 4.6, Leading zero omitted, Abs format (unit mm)*
G04 Created by KiCad (PCBNEW 8.0.8) date 2025-07-12 12:46:27*
%MOMM*%
%LPD*%
G01*
G04 APERTURE LIST*
%TA.AperFunction,ComponentPad*%
%ADD10R,1.700000X1.700000*%
%TD*%
%TA.AperFunction,ComponentPad*%
%ADD11O,1.700000X1.700000*%
%TD*%
%TA.AperFunction,ComponentPad*%
%ADD12C,1.524000*%
%TD*%
%TA.AperFunction,ViaPad*%
%ADD13C,0.600000*%
%TD*%
%TA.AperFunction,Conductor*%
%ADD14C,0.600000*%
%TD*%
%TA.AperFunction,Conductor*%
%ADD15C,0.200000*%
%TD*%
G04 APERTURE END LIST*
D10*
%TO.P,J1,1,Pin_1*%
%TO.N,VCC*%
X124210000Y-147000000D03*
D11*
%TO.P,J1,2,Pin_2*%
%TO.N,GNDA*%
X126750000Y-147000000D03*
%TD*%
D12*
%TO.P,U1,1,GND*%
%TO.N,GND*%
X125610000Y-123180000D03*
%TO.P,U1,2,5V*%
%TO.N,+5V*%
X125610000Y-120640000D03*
%TO.P,U1,3,Vext*%
%TO.N,unconnected-(U1-Vext-Pad3)*%
X125610000Y-118100000D03*
%TO.P,U1,4,Vext*%
%TO.N,unconnected-(U1-Vext-Pad4)*%
X125610000Y-115560000D03*
%TO.P,U1,5,RX*%
%TO.N,/UART_RX*%
X125610000Y-113020000D03*
%TO.P,U1,6,TX*%
%TO.N,/UART_TX*%
X125610000Y-110480000D03*
%TO.P,U1,7,RST*%
%TO.N,unconnected-(U1-RST-Pad7)*%
X125610000Y-107940000D03*
%TO.P,U1,8,0*%
%TO.N,unconnected-(U1-0-Pad8)*%
X125610000Y-105400000D03*
%TO.P,U1,9,36*%
%TO.N,unconnected-(U1-36-Pad9)*%
X125610000Y-102860000D03*
%TO.P,U1,10,35*%
%TO.N,unconnected-(U1-35-Pad10)*%
X125610000Y-100320000D03*
%TO.P,U1,11,34*%
%TO.N,/GPIO_34*%
X125610000Y-97780000D03*
%TO.P,U1,12,33*%
%TO.N,/GPIO_33*%
X125610000Y-95240000D03*
%TO.P,U1,13,SPI_CLK_P*%
%TO.N,unconnected-(U1-SPI_CLK_P-Pad13)*%
X125610000Y-92700000D03*
%TO.P,U1,14,SPI_CLK_N*%
%TO.N,unconnected-(U1-SPI_CLK_N-Pad14)*%
X125610000Y-90160000D03*
%TO.P,U1,15,26*%
%TO.N,unconnected-(U1-26-Pad15)*%
X125610000Y-87620000D03*
%TO.P,U1,16,21*%
%TO.N,unconnected-(U1-21-Pad16)*%
X125610000Y-85080000D03*
%TO.P,U1,17,20*%
%TO.N,unconnected-(U1-20-Pad17)*%
X125610000Y-82540000D03*
%TO.P,U1,18,19*%
%TO.N,unconnected-(U1-19-Pad18)*%
X125610000Y-80000000D03*
%TO.P,U1,19,GND*%
%TO.N,GND*%
X102750000Y-123180000D03*
%TO.P,U1,20,3.3*%
%TO.N,unconnected-(U1-3.3-Pad20)*%
X102750000Y-120640000D03*
%TO.P,U1,21,3.3*%
%TO.N,+3V3*%
X102750000Y-118100000D03*
%TO.P,U1,22,37*%
%TO.N,unconnected-(U1-37-Pad22)*%
X102750000Y-115560000D03*
%TO.P,U1,23,46*%
%TO.N,unconnected-(U1-46-Pad23)*%
X102750000Y-113020000D03*
%TO.P,U1,24,45*%
%TO.N,unconnected-(U1-45-Pad24)*%
X102750000Y-110480000D03*
%TO.P,U1,25,42*%
%TO.N,/SCL*%
X102750000Y-107940000D03*
%TO.P,U1,26,41*%
%TO.N,/SDA*%
X102750000Y-105400000D03*
%TO.P,U1,27,40*%
%TO.N,unconnected-(U1-40-Pad27)*%
X102750000Y-102860000D03*
%TO.P,U1,28,39*%
%TO.N,unconnected-(U1-39-Pad28)*%
X102750000Y-100320000D03*
%TO.P,U1,29,38*%
%TO.N,unconnected-(U1-38-Pad29)*%
X102750000Y-97780000D03*
%TO.P,U1,30,1*%
%TO.N,unconnected-(U1-1-Pad30)*%
X102750000Y-95240000D03*
%TO.P,U1,31,2*%
%TO.N,unconnected-(U1-2-Pad31)*%
X102750000Y-92700000D03*
%TO.P,U1,32,3*%
%TO.N,unconnected-(U1-3-Pad32)*%
X102750000Y-90160000D03*
%TO.P,U1,33,4*%
%TO.N,unconnected-(U1-4-Pad33)*%
X102750000Y-87620000D03*
%TO.P,U1,34,5*%
%TO.N,unconnected-(U1-5-Pad34)*%
X102750000Y-85080000D03*
%TO.P,U1,35,6*%
%TO.N,unconnected-(U1-6-Pad35)*%
X102750000Y-82540000D03*
%TO.P,U1,36,7*%
%TO.N,unconnected-(U1-7-Pad36)*%
X102750000Y-80000000D03*
%TD*%
D10*
%TO.P,J3,1,Pin_1*%
%TO.N,VDD*%
X144210000Y-75500000D03*
D11*
%TO.P,J3,2,Pin_2*%
%TO.N,GND*%
X146750000Y-75500000D03*
%TD*%
D10*
%TO.P,J2,1,Pin_1*%
%TO.N,/GPIO_34*%
X111725000Y-147199998D03*
D11*
%TO.P,J2,2,Pin_2*%
%TO.N,/UART_TX*%
X114265000Y-147199998D03*
%TO.P,J2,3,Pin_3*%
%TO.N,/GPIO_33*%
X111725000Y-149739998D03*
%TO.P,J2,4,Pin_4*%
%TO.N,/UART_RX*%
X114265000Y-149739998D03*
%TO.P,J2,5,Pin_5*%
%TO.N,+3V3*%
X111725000Y-152279998D03*
%TO.P,J2,6,Pin_6*%
%TO.N,+5V*%
X114265000Y-152279998D03*
%TO.P,J2,7,Pin_7*%
%TO.N,GND*%
X111725000Y-154819998D03*
%TO.P,J2,8,Pin_8*%
X114265000Y-154819998D03*
%TD*%
D10*
%TO.P,U2,1,VCC*%
%TO.N,+3V3*%
X124460000Y-73000000D03*
D11*
%TO.P,U2,2,GND*%
%TO.N,GND*%
X127000000Y-73000000D03*
%TO.P,U2,3,SCL*%
%TO.N,/SCL*%
X129540000Y-73000000D03*
%TO.P,U2,4,SDA*%
%TO.N,/SDA*%
X132080000Y-73000000D03*
%TO.P,U2,5,CSB*%
%TO.N,unconnected-(U2-CSB-Pad5)*%
X134620000Y-73000000D03*
%TO.P,U2,6,SDO*%
%TO.N,unconnected-(U2-SDO-Pad6)*%
X137160000Y-73000000D03*
%TD*%
D12*
%TO.P,U4,1,In+*%
%TO.N,VDD*%
X103495300Y-128250000D03*
%TO.P,U4,2,In-*%
%TO.N,GND*%
X103495300Y-142250000D03*
%TO.P,U4,3,Out+*%
%TO.N,VCC*%
X125995300Y-128250000D03*
%TO.P,U4,4,Bat+*%
X125995300Y-131250000D03*
%TO.P,U4,5,Bat-*%
%TO.N,GNDA*%
X125995300Y-139250000D03*
%TO.P,U4,6,Out-*%
%TO.N,GND*%
X125995300Y-142250000D03*
%TD*%
D13*
%TO.N,GND*%
X109750000Y-103500000D03*
X119000000Y-123250000D03*
X120500000Y-93500000D03*
X108000000Y-117000000D03*
X116250000Y-113500000D03*
%TO.N,+3V3*%
X115000000Y-94500000D03*
%TO.N,/SDA*%
X127000000Y-77500000D03*
%TO.N,/SCL*%
X106150735Y-101150735D03*
X128000000Y-75250000D03*
%TO.N,VDD*%
X121500000Y-134750000D03*
%TD*%
D14*
%TO.N,+3V3*%
X123920000Y-73540000D02*
X123920000Y-81830000D01*
X124460000Y-73000000D02*
X123920000Y-73540000D01*
X115000000Y-90750000D02*
X115000000Y-94500000D01*
X115000000Y-90750000D02*
X123920000Y-81830000D01*
D15*
%TO.N,/SDA*%
X127000000Y-77500000D02*
X127580000Y-77500000D01*
X127580000Y-77500000D02*
X132080000Y-73000000D01*
%TO.N,/SCL*%
X106150735Y-101150735D02*
X106150735Y-104539265D01*
X128000000Y-75250000D02*
X128000000Y-74540000D01*
X106150735Y-104539265D02*
X102750000Y-107940000D01*
X128000000Y-74540000D02*
X129540000Y-73000000D01*
D14*
%TO.N,VDD*%
X103495300Y-131245300D02*
X103495300Y-128250000D01*
X121500000Y-134750000D02*
X107000000Y-134750000D01*
X107000000Y-134750000D02*
X103495300Y-131245300D01*
%TO.N,VCC*%
X124210000Y-147000000D02*
X124210000Y-133035300D01*
X125995300Y-131250000D02*
X125995300Y-128250000D01*
X124210000Y-133035300D02*
X125995300Y-131250000D01*
%TD*%
%TA.AperFunction,Conductor*%
%TO.N,GND*%
G36*
X113799075Y-154627005D02*
G01*
X113765000Y-154754172D01*
X113765000Y-154885824D01*
X113799075Y-155012991D01*
X113831988Y-155069998D01*
X112158012Y-155069998D01*
X112190925Y-155012991D01*
X112225000Y-154885824D01*
X112225000Y-154754172D01*
X112190925Y-154627005D01*
X112158012Y-154569998D01*
X113831988Y-154569998D01*
X113799075Y-154627005D01*
G37*
%TD.AperFunction*%
%TA.AperFunction,Conductor*%
G36*
X151442539Y-71270185D02*
G01*
X151488294Y-71322989D01*
X151499500Y-71374500D01*
X151499500Y-80876000D01*
X151479815Y-80943039D01*
X151427011Y-80988794D01*
X151375500Y-81000000D01*
X131000000Y-81000000D01*
X131000000Y-157875500D01*
X130980315Y-157942539D01*
X130927511Y-157988294D01*
X130876000Y-157999500D01*
X100624500Y-157999500D01*
X100557461Y-157979815D01*
X100511706Y-157927011D01*
X100500500Y-157875500D01*
X100500500Y-149739997D01*
X110369341Y-149739997D01*
X110369341Y-149739998D01*
X110389936Y-149975401D01*
X110389938Y-149975411D01*
X110451094Y-150203653D01*
X110451096Y-150203657D01*
X110451097Y-150203661D01*
X110455000Y-150212030D01*
X110550965Y-150417828D01*
X110550967Y-150417832D01*
X110659281Y-150572519D01*
X110686501Y-150611394D01*
X110686506Y-150611400D01*
X110853597Y-150778491D01*
X110853603Y-150778496D01*
X111039158Y-150908423D01*
X111082783Y-150963000D01*
X111089977Y-151032498D01*
X111058454Y-151094853D01*
X111039158Y-151111573D01*
X110853597Y-151241503D01*
X110686505Y-151408595D01*
X110550965Y-151602167D01*
X110550964Y-151602169D01*
X110451098Y-151816333D01*
X110451094Y-151816342D01*
X110389938Y-152044584D01*
X110389936Y-152044594D01*
X110369341Y-152279997D01*
X110369341Y-152279998D01*
X110389936Y-152515401D01*
X110389938Y-152515411D01*
X110451094Y-152743653D01*
X110451096Y-152743657D01*
X110451097Y-152743661D01*
X110455000Y-152752030D01*
X110550965Y-152957828D01*
X110550967Y-152957832D01*
X110659281Y-153112519D01*
X110686505Y-153151399D01*
X110853599Y-153318493D01*
X111009068Y-153427354D01*
X111039594Y-153448728D01*
X111083219Y-153503305D01*
X111090413Y-153572803D01*
X111058890Y-153635158D01*
X111039595Y-153651878D01*
X110853922Y-153781888D01*
X110853920Y-153781889D01*
X110686891Y-153948918D01*
X110686886Y-153948924D01*
X110551400Y-154142418D01*
X110551399Y-154142420D01*
X110451570Y-154356505D01*
X110451567Y-154356511D01*
X110394364Y-154569997D01*
X110394364Y-154569998D01*
X111291988Y-154569998D01*
X111259075Y-154627005D01*
X111225000Y-154754172D01*
X111225000Y-154885824D01*
X111259075Y-155012991D01*
X111291988Y-155069998D01*
X110394364Y-155069998D01*
X110451567Y-155283484D01*
X110451570Y-155283490D01*
X110551399Y-155497576D01*
X110686894Y-155691080D01*
X110853917Y-155858103D01*
X111047421Y-155993598D01*
X111261507Y-156093427D01*
X111261516Y-156093431D01*
X111475000Y-156150632D01*
X111475000Y-155253010D01*
X111532007Y-155285923D01*
X111659174Y-155319998D01*
X111790826Y-155319998D01*
X111917993Y-155285923D01*
X111975000Y-155253010D01*
X111975000Y-156150631D01*
X112188483Y-156093431D01*
X112188492Y-156093427D01*
X112402578Y-155993598D01*
X112596082Y-155858103D01*
X112763105Y-155691080D01*
X112893425Y-155504966D01*
X112948002Y-155461342D01*
X113017501Y-155454149D01*
X113079855Y-155485671D01*
X113096575Y-155504966D01*
X113226894Y-155691080D01*
X113393917Y-155858103D01*
X113587421Y-155993598D01*
X113801507Y-156093427D01*
X113801516Y-156093431D01*
X114015000Y-156150632D01*
X114015000Y-155253010D01*
X114072007Y-155285923D01*
X114199174Y-155319998D01*
X114330826Y-155319998D01*
X114457993Y-155285923D01*
X114515000Y-155253010D01*
X114515000Y-156150631D01*
X114728483Y-156093431D01*
X114728492Y-156093427D01*
X114942578Y-155993598D01*
X115136082Y-155858103D01*
X115303105Y-155691080D01*
X115438600Y-155497576D01*
X115538429Y-155283490D01*
X115538432Y-155283484D01*
X115595636Y-155069998D01*
X114698012Y-155069998D01*
X114730925Y-155012991D01*
X114765000Y-154885824D01*
X114765000Y-154754172D01*
X114730925Y-154627005D01*
X114698012Y-154569998D01*
X115595636Y-154569998D01*
X115595635Y-154569997D01*
X115538432Y-154356511D01*
X115538429Y-154356505D01*
X115438600Y-154142420D01*
X115438599Y-154142418D01*
X115303113Y-153948924D01*
X115303108Y-153948918D01*
X115136078Y-153781888D01*
X114950405Y-153651877D01*
X114906780Y-153597300D01*
X114899588Y-153527802D01*
X114931110Y-153465447D01*
X114950406Y-153448728D01*
X115136401Y-153318493D01*
X115303495Y-153151399D01*
X115409511Y-152999992D01*
X123494671Y-152999992D01*
X123494671Y-153000007D01*
X123513964Y-153294363D01*
X123513965Y-153294373D01*
X123513966Y-153294380D01*
X123513968Y-153294390D01*
X123571518Y-153583716D01*
X123571521Y-153583730D01*
X123666349Y-153863080D01*
X123796825Y-154127660D01*
X123796829Y-154127667D01*
X123960725Y-154372955D01*
X124155241Y-154594758D01*
X124377044Y-154789274D01*
X124622332Y-154953170D01*
X124622335Y-154953172D01*
X124886923Y-155083652D01*
X125166278Y-155178481D01*
X125455620Y-155236034D01*
X125483888Y-155237886D01*
X125749993Y-155255329D01*
X125750000Y-155255329D01*
X125750007Y-155255329D01*
X125985675Y-155239881D01*
X126044380Y-155236034D01*
X126333722Y-155178481D01*
X126613077Y-155083652D01*
X126877665Y-154953172D01*
X127122957Y-154789273D01*
X127344758Y-154594758D01*
X127539273Y-154372957D01*
X127703172Y-154127665D01*
X127833652Y-153863077D01*
X127928481Y-153583722D01*
X127986034Y-153294380D01*
X128005329Y-153000000D01*
X128005329Y-152999992D01*
X127986035Y-152705636D01*
X127986034Y-152705620D01*
X127928481Y-152416278D01*
X127833652Y-152136923D01*
X127703172Y-151872336D01*
X127665753Y-151816335D01*
X127621764Y-151750500D01*
X127539273Y-151627043D01*
X127496655Y-151578447D01*
X127344758Y-151405241D01*
X127122955Y-151210725D01*
X126877667Y-151046829D01*
X126877660Y-151046825D01*
X126613080Y-150916349D01*
X126333730Y-150821521D01*
X126333724Y-150821519D01*
X126333722Y-150821519D01*
X126044380Y-150763966D01*
X126044373Y-150763965D01*
X126044363Y-150763964D01*
X125750007Y-150744671D01*
X125749993Y-150744671D01*
X125455636Y-150763964D01*
X125455624Y-150763965D01*
X125455620Y-150763966D01*
X125455612Y-150763967D01*
X125455609Y-150763968D01*
X125166283Y-150821518D01*
X125166269Y-150821521D01*
X124886919Y-150916349D01*
X124622334Y-151046828D01*
X124377041Y-151210728D01*
X124155241Y-151405241D01*
X123960728Y-151627041D01*
X123796828Y-151872334D01*
X123666349Y-152136919D01*
X123571521Y-152416269D01*
X123571518Y-152416283D01*
X123513968Y-152705609D01*
X123513964Y-152705636D01*
X123494671Y-152999992D01*
X115409511Y-152999992D01*
X115439035Y-152957828D01*
X115538903Y-152743661D01*
X115600063Y-152515406D01*
X115620659Y-152279998D01*
X115600063Y-152044590D01*
X115538903Y-151816335D01*
X115439035Y-151602169D01*
X115433425Y-151594156D01*
X115303494Y-151408595D01*
X115136402Y-151241504D01*
X115136396Y-151241499D01*
X114950842Y-151111573D01*
X114907217Y-151056996D01*
X114900023Y-150987498D01*
X114931546Y-150925143D01*
X114950842Y-150908423D01*
X114973026Y-150892889D01*
X115136401Y-150778493D01*
X115303495Y-150611399D01*
X115439035Y-150417828D01*
X115538903Y-150203661D01*
X115600063Y-149975406D01*
X115620659Y-149739998D01*
X115600063Y-149504590D01*
X115538903Y-149276335D01*
X115439035Y-149062169D01*
X115433425Y-149054156D01*
X115303494Y-148868595D01*
X115136402Y-148701504D01*
X115136396Y-148701499D01*
X114950842Y-148571573D01*
X114907217Y-148516996D01*
X114900023Y-148447498D01*
X114931546Y-148385143D01*
X114950842Y-148368423D01*
X114998488Y-148335061D01*
X115136401Y-148238493D01*
X115303495Y-148071399D01*
X115439035Y-147877828D01*
X115538903Y-147663661D01*
X115600063Y-147435406D01*
X115620659Y-147199998D01*
X115600063Y-146964590D01*
X115538903Y-146736335D01*
X115439035Y-146522169D01*
X115322219Y-146355337D01*
X115303494Y-146328595D01*
X115136402Y-146161504D01*
X115136395Y-146161499D01*
X115051615Y-146102135D01*
X122859500Y-146102135D01*
X122859500Y-147897870D01*
X122859501Y-147897876D01*
X122865908Y-147957483D01*
X122916202Y-148092328D01*
X122916206Y-148092335D01*
X123002452Y-148207544D01*
X123002455Y-148207547D01*
X123117664Y-148293793D01*
X123117671Y-148293797D01*
X123252517Y-148344091D01*
X123252516Y-148344091D01*
X123259444Y-148344835D01*
X123312127Y-148350500D01*
X125107872Y-148350499D01*
X125167483Y-148344091D01*
X125302331Y-148293796D01*
X125417546Y-148207546D01*
X125503796Y-148092331D01*
X125552810Y-147960916D01*
X125594681Y-147904984D01*
X125660145Y-147880566D01*
X125728418Y-147895417D01*
X125756673Y-147916569D01*
X125878599Y-148038495D01*
X125959889Y-148095415D01*
X126072165Y-148174032D01*
X126072167Y-148174033D01*
X126072170Y-148174035D01*
X126286337Y-148273903D01*
X126514592Y-148335063D01*
X126691034Y-148350500D01*
X126749999Y-148355659D01*
X126750000Y-148355659D01*
X126750001Y-148355659D01*
X126808966Y-148350500D01*
X126985408Y-148335063D01*
X127213663Y-148273903D01*
X127427830Y-148174035D01*
X127621401Y-148038495D01*
X127788495Y-147871401D01*
X127924035Y-147677830D01*
X128023903Y-147463663D01*
X128085063Y-147235408D01*
X128105659Y-147000000D01*
X128085063Y-146764592D01*
X128038626Y-146591285D01*
X128023905Y-146536344D01*
X128023904Y-146536343D01*
X128023903Y-146536337D01*
X127924035Y-146322171D01*
X127910005Y-146302133D01*
X127788494Y-146128597D01*
X127621402Y-145961506D01*
X127621395Y-145961501D01*
X127427834Y-145825967D01*
X127427830Y-145825965D01*
X127427828Y-145825964D01*
X127213663Y-145726097D01*
X127213659Y-145726096D01*
X127213655Y-145726094D01*
X126985413Y-145664938D01*
X126985403Y-145664936D01*
X126750001Y-145644341D01*
X126749999Y-145644341D01*
X126514596Y-145664936D01*
X126514586Y-145664938D01*
X126286344Y-145726094D01*
X126286335Y-145726098D01*
X126072171Y-145825964D01*
X126072169Y-145825965D01*
X125878600Y-145961503D01*
X125756673Y-146083430D01*
X125695350Y-146116914D01*
X125625658Y-146111930D01*
X125569725Y-146070058D01*
X125552810Y-146039081D01*
X125503797Y-145907671D01*
X125503793Y-145907664D01*
X125417547Y-145792455D01*
X125417544Y-145792452D01*
X125302335Y-145706206D01*
X125302328Y-145706202D01*
X125167483Y-145655908D01*
X125121243Y-145650937D01*
X125056693Y-145624199D01*
X125016845Y-145566806D01*
X125010500Y-145527648D01*
X125010500Y-143339254D01*
X125030185Y-143272215D01*
X125082989Y-143226460D01*
X125152147Y-143216516D01*
X125205624Y-143237680D01*
X125361882Y-143347094D01*
X125361892Y-143347100D01*
X125562015Y-143440419D01*
X125562029Y-143440424D01*
X125775313Y-143497573D01*
X125775323Y-143497575D01*
X125995299Y-143516821D01*
X125995301Y-143516821D01*
X126215276Y-143497575D01*
X126215286Y-143497573D01*
X126428570Y-143440424D01*
X126428584Y-143440419D01*
X126628707Y-143347100D01*
X126628717Y-143347094D01*
X126693488Y-143301741D01*
X126022747Y-142631000D01*
X126045460Y-142631000D01*
X126142361Y-142605036D01*
X126229240Y-142554876D01*
X126300176Y-142483940D01*
X126350336Y-142397061D01*
X126376300Y-142300160D01*
X126376300Y-142277447D01*
X127047041Y-142948188D01*
X127092394Y-142883417D01*
X127092400Y-142883407D01*
X127185719Y-142683284D01*
X127185724Y-142683270D01*
X127242873Y-142469986D01*
X127242875Y-142469976D01*
X127262121Y-142250000D01*
X127262121Y-142249999D01*
X127242875Y-142030023D01*
X127242873Y-142030013D01*
X127185724Y-141816729D01*
X127185720Y-141816720D01*
X127092396Y-141616586D01*
X127047041Y-141551811D01*
X127047040Y-141551810D01*
X126376300Y-142222551D01*
X126376300Y-142199840D01*
X126350336Y-142102939D01*
X126300176Y-142016060D01*
X126229240Y-141945124D01*
X126142361Y-141894964D01*
X126045460Y-141869000D01*
X126022746Y-141869000D01*
X126693488Y-141198258D01*
X126628711Y-141152901D01*
X126628705Y-141152898D01*
X126428584Y-141059580D01*
X126428570Y-141059575D01*
X126215286Y-141002426D01*
X126215276Y-141002424D01*
X125995301Y-140983179D01*
X125995299Y-140983179D01*
X125775323Y-141002424D01*
X125775313Y-141002426D01*
X125562029Y-141059575D01*
X125562020Y-141059579D01*
X125361891Y-141152900D01*
X125361889Y-141152901D01*
X125205623Y-141262319D01*
X125139416Y-141284646D01*
X125071649Y-141267635D01*
X125023837Y-141216687D01*
X125010500Y-141160744D01*
X125010500Y-140339866D01*
X125030185Y-140272827D01*
X125082989Y-140227072D01*
X125152147Y-140217128D01*
X125205620Y-140238289D01*
X125361638Y-140347534D01*
X125561850Y-140440894D01*
X125775232Y-140498070D01*
X125932423Y-140511822D01*
X125995298Y-140517323D01*
X125995300Y-140517323D01*
X125995302Y-140517323D01*
X126050317Y-140512509D01*
X126215368Y-140498070D01*
X126428750Y-140440894D01*
X126628962Y-140347534D01*
X126809920Y-140220826D01*
X126966126Y-140064620D01*
X127092834Y-139883662D01*
X127186194Y-139683450D01*
X127243370Y-139470068D01*
X127262623Y-139250000D01*
X127243370Y-139029932D01*
X127186194Y-138816550D01*
X127092834Y-138616339D01*
X126966126Y-138435380D01*
X126809920Y-138279174D01*
X126809916Y-138279171D01*
X126809915Y-138279170D01*
X126628966Y-138152468D01*
X126628962Y-138152466D01*
X126628960Y-138152465D01*
X126428750Y-138059106D01*
X126428747Y-138059105D01*
X126428745Y-138059104D01*
X126215370Y-138001930D01*
X126215362Y-138001929D01*
X125995302Y-137982677D01*
X125995298Y-137982677D01*
X125775237Y-138001929D01*
X125775229Y-138001930D01*
X125561854Y-138059104D01*
X125561848Y-138059107D01*
X125361640Y-138152465D01*
X125361638Y-138152466D01*
X125205623Y-138261708D01*
X125139416Y-138284036D01*
X125071649Y-138267024D01*
X125023837Y-138216076D01*
X125010500Y-138160133D01*
X125010500Y-133418239D01*
X125030185Y-133351200D01*
X125046815Y-133330562D01*
X125830050Y-132547326D01*
X125891371Y-132513843D01*
X125928532Y-132511481D01*
X125995300Y-132517323D01*
X125995300Y-132517322D01*
X125995301Y-132517323D01*
X125995302Y-132517323D01*
X126062076Y-132511481D01*
X126215368Y-132498070D01*
X126428750Y-132440894D01*
X126628962Y-132347534D01*
X126809920Y-132220826D01*
X126966126Y-132064620D01*
X127092834Y-131883662D01*
X127186194Y-131683450D01*
X127243370Y-131470068D01*
X127262623Y-131250000D01*
X127243370Y-131029932D01*
X127186194Y-130816550D01*
X127092834Y-130616339D01*
X126966126Y-130435380D01*
X126966124Y-130435377D01*
X126832119Y-130301372D01*
X126798634Y-130240049D01*
X126795800Y-130213691D01*
X126795800Y-129286308D01*
X126815485Y-129219269D01*
X126832119Y-129198627D01*
X126966126Y-129064620D01*
X127092834Y-128883662D01*
X127186194Y-128683450D01*
X127243370Y-128470068D01*
X127262623Y-128250000D01*
X127243370Y-128029932D01*
X127186194Y-127816550D01*
X127092834Y-127616339D01*
X126966126Y-127435380D01*
X126809920Y-127279174D01*
X126809916Y-127279171D01*
X126809915Y-127279170D01*
X126628966Y-127152468D01*
X126628962Y-127152466D01*
X126628960Y-127152465D01*
X126428750Y-127059106D01*
X126428747Y-127059105D01*
X126428745Y-127059104D01*
X126215370Y-127001930D01*
X126215362Y-127001929D01*
X125995302Y-126982677D01*
X125995298Y-126982677D01*
X125775237Y-127001929D01*
X125775229Y-127001930D01*
X125561854Y-127059104D01*
X125561848Y-127059107D01*
X125361640Y-127152465D01*
X125361638Y-127152466D01*
X125180677Y-127279175D01*
X125024475Y-127435377D01*
X124897766Y-127616338D01*
X124897765Y-127616340D01*
X124804407Y-127816548D01*
X124804404Y-127816554D01*
X124747230Y-128029929D01*
X124747229Y-128029937D01*
X124727977Y-128249997D01*
X124727977Y-128250002D01*
X124747229Y-128470062D01*
X124747230Y-128470070D01*
X124804404Y-128683445D01*
X124804405Y-128683447D01*
X124804406Y-128683450D01*
X124897766Y-128883662D01*
X124897768Y-128883666D01*
X125024470Y-129064615D01*
X125024475Y-129064621D01*
X125158481Y-129198627D01*
X125191966Y-129259950D01*
X125194800Y-129286308D01*
X125194800Y-130213691D01*
X125175115Y-130280730D01*
X125158481Y-130301372D01*
X125024475Y-130435377D01*
X124897766Y-130616338D01*
X124897765Y-130616340D01*
X124804407Y-130816548D01*
X124804404Y-130816554D01*
X124747230Y-131029929D01*
X124747229Y-131029937D01*
X124727977Y-131249997D01*
X124727977Y-131250003D01*
X124733817Y-131316763D01*
X124720050Y-131385263D01*
X124697970Y-131415250D01*
X123892398Y-132220824D01*
X123699711Y-132413511D01*
X123643960Y-132469262D01*
X123588209Y-132525012D01*
X123500609Y-132656114D01*
X123500602Y-132656127D01*
X123440264Y-132801798D01*
X123440261Y-132801810D01*
X123409500Y-132956453D01*
X123409500Y-145527648D01*
X123389815Y-145594687D01*
X123337011Y-145640442D01*
X123298755Y-145650938D01*
X123252516Y-145655909D01*
X123117671Y-145706202D01*
X123117664Y-145706206D01*
X123002455Y-145792452D01*
X123002452Y-145792455D01*
X122916206Y-145907664D01*
X122916202Y-145907671D01*
X122865908Y-146042517D01*
X122859501Y-146102116D01*
X122859500Y-146102135D01*
X115051615Y-146102135D01*
X114942834Y-146025965D01*
X114942830Y-146025963D01*
X114942828Y-146025962D01*
X114728663Y-145926095D01*
X114728659Y-145926094D01*
X114728655Y-145926092D01*
X114500413Y-145864936D01*
X114500403Y-145864934D01*
X114265001Y-145844339D01*
X114264999Y-145844339D01*
X114029596Y-145864934D01*
X114029586Y-145864936D01*
X113801344Y-145926092D01*
X113801335Y-145926096D01*
X113587171Y-146025962D01*
X113587169Y-146025963D01*
X113393600Y-146161501D01*
X113271673Y-146283428D01*
X113210350Y-146316912D01*
X113140658Y-146311928D01*
X113084725Y-146270056D01*
X113067810Y-146239079D01*
X113018797Y-146107669D01*
X113018793Y-146107662D01*
X112932547Y-145992453D01*
X112932544Y-145992450D01*
X112817335Y-145906204D01*
X112817328Y-145906200D01*
X112682482Y-145855906D01*
X112682483Y-145855906D01*
X112622883Y-145849499D01*
X112622881Y-145849498D01*
X112622873Y-145849498D01*
X112622864Y-145849498D01*
X110827129Y-145849498D01*
X110827123Y-145849499D01*
X110767516Y-145855906D01*
X110632671Y-145906200D01*
X110632664Y-145906204D01*
X110517455Y-145992450D01*
X110517452Y-145992453D01*
X110431206Y-146107662D01*
X110431202Y-146107669D01*
X110380908Y-146242515D01*
X110374501Y-146302114D01*
X110374500Y-146302133D01*
X110374500Y-148097868D01*
X110374501Y-148097874D01*
X110380908Y-148157481D01*
X110431202Y-148292326D01*
X110431206Y-148292333D01*
X110517452Y-148407542D01*
X110517455Y-148407545D01*
X110632664Y-148493791D01*
X110632671Y-148493795D01*
X110764081Y-148542808D01*
X110820015Y-148584679D01*
X110844432Y-148650143D01*
X110829580Y-148718416D01*
X110808430Y-148746671D01*
X110686503Y-148868598D01*
X110550965Y-149062167D01*
X110550964Y-149062169D01*
X110451098Y-149276333D01*
X110451094Y-149276342D01*
X110389938Y-149504584D01*
X110389936Y-149504594D01*
X110369341Y-149739997D01*
X100500500Y-149739997D01*
X100500500Y-142249999D01*
X102228479Y-142249999D01*
X102228479Y-142250000D01*
X102247724Y-142469976D01*
X102247726Y-142469986D01*
X102304875Y-142683270D01*
X102304880Y-142683284D01*
X102398198Y-142883405D01*
X102398201Y-142883411D01*
X102443558Y-142948187D01*
X102443558Y-142948188D01*
X103114300Y-142277446D01*
X103114300Y-142300160D01*
X103140264Y-142397061D01*
X103190424Y-142483940D01*
X103261360Y-142554876D01*
X103348239Y-142605036D01*
X103445140Y-142631000D01*
X103467853Y-142631000D01*
X102797110Y-143301740D01*
X102861890Y-143347099D01*
X102861892Y-143347100D01*
X103062015Y-143440419D01*
X103062029Y-143440424D01*
X103275313Y-143497573D01*
X103275323Y-143497575D01*
X103495299Y-143516821D01*
X103495301Y-143516821D01*
X103715276Y-143497575D01*
X103715286Y-143497573D01*
X103928570Y-143440424D01*
X103928584Y-143440419D01*
X104128707Y-143347100D01*
X104128717Y-143347094D01*
X104193488Y-143301741D01*
X103522748Y-142631000D01*
X103545460Y-142631000D01*
X103642361Y-142605036D01*
X103729240Y-142554876D01*
X103800176Y-142483940D01*
X103850336Y-142397061D01*
X103876300Y-142300160D01*
X103876300Y-142277447D01*
X104547041Y-142948188D01*
X104592394Y-142883417D01*
X104592400Y-142883407D01*
X104685719Y-142683284D01*
X104685724Y-142683270D01*
X104742873Y-142469986D01*
X104742875Y-142469976D01*
X104762121Y-142250000D01*
X104762121Y-142249999D01*
X104742875Y-142030023D01*
X104742873Y-142030013D01*
X104685724Y-141816729D01*
X104685720Y-141816720D01*
X104592396Y-141616586D01*
X104547041Y-141551811D01*
X104547040Y-141551810D01*
X103876300Y-142222551D01*
X103876300Y-142199840D01*
X103850336Y-142102939D01*
X103800176Y-142016060D01*
X103729240Y-141945124D01*
X103642361Y-141894964D01*
X103545460Y-141869000D01*
X103522747Y-141869000D01*
X104193488Y-141198258D01*
X104128711Y-141152901D01*
X104128705Y-141152898D01*
X103928584Y-141059580D01*
X103928570Y-141059575D01*
X103715286Y-141002426D01*
X103715276Y-141002424D01*
X103495301Y-140983179D01*
X103495299Y-140983179D01*
X103275323Y-141002424D01*
X103275313Y-141002426D01*
X103062029Y-141059575D01*
X103062020Y-141059579D01*
X102861890Y-141152901D01*
X102797111Y-141198258D01*
X103467854Y-141869000D01*
X103445140Y-141869000D01*
X103348239Y-141894964D01*
X103261360Y-141945124D01*
X103190424Y-142016060D01*
X103140264Y-142102939D01*
X103114300Y-142199840D01*
X103114300Y-142222553D01*
X102443558Y-141551811D01*
X102398201Y-141616590D01*
X102304879Y-141816720D01*
X102304875Y-141816729D01*
X102247726Y-142030013D01*
X102247724Y-142030023D01*
X102228479Y-142249999D01*
X100500500Y-142249999D01*
X100500500Y-128249997D01*
X102227977Y-128249997D01*
X102227977Y-128250002D01*
X102247229Y-128470062D01*
X102247230Y-128470070D01*
X102304404Y-128683445D01*
X102304405Y-128683447D01*
X102304406Y-128683450D01*
X102397766Y-128883662D01*
X102397768Y-128883666D01*
X102524470Y-129064615D01*
X102524475Y-129064621D01*
X102658481Y-129198627D01*
X102691966Y-129259950D01*
X102694800Y-129286308D01*
X102694800Y-131324146D01*
X102725561Y-131478789D01*
X102725564Y-131478801D01*
X102785902Y-131624472D01*
X102785909Y-131624485D01*
X102873510Y-131755588D01*
X102873513Y-131755592D01*
X106373870Y-135255947D01*
X106373891Y-135255970D01*
X106489707Y-135371786D01*
X106489711Y-135371789D01*
X106620814Y-135459390D01*
X106620827Y-135459397D01*
X106766498Y-135519735D01*
X106766503Y-135519737D01*
X106766507Y-135519737D01*
X106766508Y-135519738D01*
X106921154Y-135550500D01*
X106921157Y-135550500D01*
X106921158Y-135550500D01*
X121448085Y-135550500D01*
X121461969Y-135551280D01*
X121499998Y-135555565D01*
X121500000Y-135555565D01*
X121500002Y-135555565D01*
X121538031Y-135551280D01*
X121551915Y-135550500D01*
X121578841Y-135550500D01*
X121578842Y-135550500D01*
X121618017Y-135542707D01*
X121628283Y-135541110D01*
X121679255Y-135535368D01*
X121703100Y-135527023D01*
X121719862Y-135522448D01*
X121733497Y-135519737D01*
X121782389Y-135499484D01*
X121788837Y-135497023D01*
X121849522Y-135475789D01*
X121859868Y-135469287D01*
X121878390Y-135459720D01*
X121879179Y-135459394D01*
X121933987Y-135422771D01*
X121936825Y-135420931D01*
X122002262Y-135379816D01*
X122129816Y-135252262D01*
X122170931Y-135186825D01*
X122172777Y-135183979D01*
X122209389Y-135129186D01*
X122209394Y-135129179D01*
X122209720Y-135128390D01*
X122219287Y-135109868D01*
X122225789Y-135099522D01*
X122247023Y-135038837D01*
X122249484Y-135032389D01*
X122269737Y-134983497D01*
X122272448Y-134969862D01*
X122277023Y-134953100D01*
X122285368Y-134929255D01*
X122291110Y-134878283D01*
X122292707Y-134868017D01*
X122300500Y-134828842D01*
X122300500Y-134801914D01*
X122301280Y-134788029D01*
X122305565Y-134750001D01*
X122305565Y-134749998D01*
X122301280Y-134711969D01*
X122300500Y-134698085D01*
X122300500Y-134671157D01*
X122292711Y-134632003D01*
X122291110Y-134621714D01*
X122285368Y-134570745D01*
X122277023Y-134546898D01*
X122272449Y-134530139D01*
X122269737Y-134516503D01*
X122249484Y-134467607D01*
X122247028Y-134461175D01*
X122225789Y-134400478D01*
X122219289Y-134390134D01*
X122209719Y-134371606D01*
X122209394Y-134370821D01*
X122172790Y-134316040D01*
X122170905Y-134313131D01*
X122129815Y-134247737D01*
X122002260Y-134120182D01*
X122002257Y-134120180D01*
X121936900Y-134079114D01*
X121933982Y-134077223D01*
X121879179Y-134040605D01*
X121879173Y-134040603D01*
X121878365Y-134040268D01*
X121859865Y-134030709D01*
X121849524Y-134024212D01*
X121849523Y-134024211D01*
X121849522Y-134024211D01*
X121788867Y-134002986D01*
X121782377Y-134000509D01*
X121733496Y-133980262D01*
X121719860Y-133977550D01*
X121703104Y-133972976D01*
X121679260Y-133964633D01*
X121679256Y-133964632D01*
X121679255Y-133964632D01*
X121658575Y-133962301D01*
X121628303Y-133958890D01*
X121618003Y-133957288D01*
X121578844Y-133949500D01*
X121578842Y-133949500D01*
X121551915Y-133949500D01*
X121538031Y-133948720D01*
X121500002Y-133944435D01*
X121499998Y-133944435D01*
X121461969Y-133948720D01*
X121448085Y-133949500D01*
X107382939Y-133949500D01*
X107315900Y-133929815D01*
X107295258Y-133913181D01*
X104332119Y-130950041D01*
X104298634Y-130888718D01*
X104295800Y-130862360D01*
X104295800Y-129286308D01*
X104315485Y-129219269D01*
X104332119Y-129198627D01*
X104466126Y-129064620D01*
X104592834Y-128883662D01*
X104686194Y-128683450D01*
X104743370Y-128470068D01*
X104762623Y-128250000D01*
X104743370Y-128029932D01*
X104686194Y-127816550D01*
X104592834Y-127616339D01*
X104466126Y-127435380D01*
X104309920Y-127279174D01*
X104309916Y-127279171D01*
X104309915Y-127279170D01*
X104128966Y-127152468D01*
X104128962Y-127152466D01*
X104128960Y-127152465D01*
X103928750Y-127059106D01*
X103928747Y-127059105D01*
X103928745Y-127059104D01*
X103715370Y-127001930D01*
X103715362Y-127001929D01*
X103495302Y-126982677D01*
X103495298Y-126982677D01*
X103275237Y-127001929D01*
X103275229Y-127001930D01*
X103061854Y-127059104D01*
X103061848Y-127059107D01*
X102861640Y-127152465D01*
X102861638Y-127152466D01*
X102680677Y-127279175D01*
X102524475Y-127435377D01*
X102397766Y-127616338D01*
X102397765Y-127616340D01*
X102304407Y-127816548D01*
X102304404Y-127816554D01*
X102247230Y-128029929D01*
X102247229Y-128029937D01*
X102227977Y-128249997D01*
X100500500Y-128249997D01*
X100500500Y-78874500D01*
X100520185Y-78807461D01*
X100572989Y-78761706D01*
X100624500Y-78750500D01*
X101940091Y-78750500D01*
X102007130Y-78770185D01*
X102052885Y-78822989D01*
X102062829Y-78892147D01*
X102033804Y-78955703D01*
X102011214Y-78976075D01*
X101935377Y-79029175D01*
X101779175Y-79185377D01*
X101652466Y-79366338D01*
X101652465Y-79366340D01*
X101559107Y-79566548D01*
X101559104Y-79566554D01*
X101501930Y-79779929D01*
X101501929Y-79779937D01*
X101482677Y-79999997D01*
X101482677Y-80000002D01*
X101501929Y-80220062D01*
X101501930Y-80220070D01*
X101559104Y-80433445D01*
X101559105Y-80433447D01*
X101559106Y-80433450D01*
X101652466Y-80633662D01*
X101652468Y-80633666D01*
X101779170Y-80814615D01*
X101779175Y-80814621D01*
X101935378Y-80970824D01*
X101935384Y-80970829D01*
X102116333Y-81097531D01*
X102116335Y-81097532D01*
X102116338Y-81097534D01*
X102235748Y-81153215D01*
X102245189Y-81157618D01*
X102297628Y-81203790D01*
X102316780Y-81270984D01*
X102296564Y-81337865D01*
X102245189Y-81382382D01*
X102116340Y-81442465D01*
X102116338Y-81442466D01*
X101935377Y-81569175D01*
X101779175Y-81725377D01*
X101652466Y-81906338D01*
X101652465Y-81906340D01*
X101559107Y-82106548D01*
X101559104Y-82106554D01*
X101501930Y-82319929D01*
X101501929Y-82319937D01*
X101482677Y-82539997D01*
X101482677Y-82540002D01*
X101501929Y-82760062D01*
X101501930Y-82760070D01*
X101559104Y-82973445D01*
X101559105Y-82973447D01*
X101559106Y-82973450D01*
X101652466Y-83173662D01*
X101652468Y-83173666D01*
X101779170Y-83354615D01*
X101779175Y-83354621D01*
X101935378Y-83510824D01*
X101935384Y-83510829D01*
X102116333Y-83637531D01*
X102116335Y-83637532D01*
X102116338Y-83637534D01*
X102235748Y-83693215D01*
X102245189Y-83697618D01*
X102297628Y-83743790D01*
X102316780Y-83810984D01*
X102296564Y-83877865D01*
X102245189Y-83922382D01*
X102116340Y-83982465D01*
X102116338Y-83982466D01*
X101935377Y-84109175D01*
X101779175Y-84265377D01*
X101652466Y-84446338D01*
X101652465Y-84446340D01*
X101559107Y-84646548D01*
X101559104Y-84646554D01*
X101501930Y-84859929D01*
X101501929Y-84859937D01*
X101482677Y-85079997D01*
X101482677Y-85080002D01*
X101501929Y-85300062D01*
X101501930Y-85300070D01*
X101559104Y-85513445D01*
X101559105Y-85513447D01*
X101559106Y-85513450D01*
X101652466Y-85713662D01*
X101652468Y-85713666D01*
X101779170Y-85894615D01*
X101779175Y-85894621D01*
X101935378Y-86050824D01*
X101935384Y-86050829D01*
X102116333Y-86177531D01*
X102116335Y-86177532D01*
X102116338Y-86177534D01*
X102235748Y-86233215D01*
X102245189Y-86237618D01*
X102297628Y-86283790D01*
X102316780Y-86350984D01*
X102296564Y-86417865D01*
X102245189Y-86462382D01*
X102116340Y-86522465D01*
X102116338Y-86522466D01*
X101935377Y-86649175D01*
X101779175Y-86805377D01*
X101652466Y-86986338D01*
X101652465Y-86986340D01*
X101559107Y-87186548D01*
X101559104Y-87186554D01*
X101501930Y-87399929D01*
X101501929Y-87399937D01*
X101482677Y-87619997D01*
X101482677Y-87620002D01*
X101501929Y-87840062D01*
X101501930Y-87840070D01*
X101559104Y-88053445D01*
X101559105Y-88053447D01*
X101559106Y-88053450D01*
X101652466Y-88253662D01*
X101652468Y-88253666D01*
X101779170Y-88434615D01*
X101779175Y-88434621D01*
X101935378Y-88590824D01*
X101935384Y-88590829D01*
X102116333Y-88717531D01*
X102116335Y-88717532D01*
X102116338Y-88717534D01*
X102235748Y-88773215D01*
X102245189Y-88777618D01*
X102297628Y-88823790D01*
X102316780Y-88890984D01*
X102296564Y-88957865D01*
X102245189Y-89002382D01*
X102116340Y-89062465D01*
X102116338Y-89062466D01*
X101935377Y-89189175D01*
X101779175Y-89345377D01*
X101652466Y-89526338D01*
X101652465Y-89526340D01*
X101559107Y-89726548D01*
X101559104Y-89726554D01*
X101501930Y-89939929D01*
X101501929Y-89939937D01*
X101482677Y-90159997D01*
X101482677Y-90160002D01*
X101501929Y-90380062D01*
X101501930Y-90380070D01*
X101559104Y-90593445D01*
X101559105Y-90593447D01*
X101559106Y-90593450D01*
X101595342Y-90671158D01*
X101652466Y-90793662D01*
X101652468Y-90793666D01*
X101779170Y-90974615D01*
X101779175Y-90974621D01*
X101935378Y-91130824D01*
X101935384Y-91130829D01*
X102116333Y-91257531D01*
X102116335Y-91257532D01*
X102116338Y-91257534D01*
X102235748Y-91313215D01*
X102245189Y-91317618D01*
X102297628Y-91363790D01*
X102316780Y-91430984D01*
X102296564Y-91497865D01*
X102245189Y-91542382D01*
X102116340Y-91602465D01*
X102116338Y-91602466D01*
X101935377Y-91729175D01*
X101779175Y-91885377D01*
X101652466Y-92066338D01*
X101652465Y-92066340D01*
X101559107Y-92266548D01*
X101559104Y-92266554D01*
X101501930Y-92479929D01*
X101501929Y-92479937D01*
X101482677Y-92699997D01*
X101482677Y-92700002D01*
X101501929Y-92920062D01*
X101501930Y-92920070D01*
X101559104Y-93133445D01*
X101559105Y-93133447D01*
X101559106Y-93133450D01*
X101652466Y-93333662D01*
X101652468Y-93333666D01*
X101779170Y-93514615D01*
X101779175Y-93514621D01*
X101935378Y-93670824D01*
X101935384Y-93670829D01*
X102116333Y-93797531D01*
X102116335Y-93797532D01*
X102116338Y-93797534D01*
X102235748Y-93853215D01*
X102245189Y-93857618D01*
X102297628Y-93903790D01*
X102316780Y-93970984D01*
X102296564Y-94037865D01*
X102245189Y-94082382D01*
X102116340Y-94142465D01*
X102116338Y-94142466D01*
X101935377Y-94269175D01*
X101779175Y-94425377D01*
X101652466Y-94606338D01*
X101652465Y-94606340D01*
X101559107Y-94806548D01*
X101559104Y-94806554D01*
X101501930Y-95019929D01*
X101501929Y-95019937D01*
X101482677Y-95239997D01*
X101482677Y-95240002D01*
X101501929Y-95460062D01*
X101501930Y-95460070D01*
X101559104Y-95673445D01*
X101559105Y-95673447D01*
X101559106Y-95673450D01*
X101652466Y-95873662D01*
X101652468Y-95873666D01*
X101779170Y-96054615D01*
X101779175Y-96054621D01*
X101935378Y-96210824D01*
X101935384Y-96210829D01*
X102116333Y-96337531D01*
X102116335Y-96337532D01*
X102116338Y-96337534D01*
X102235748Y-96393215D01*
X102245189Y-96397618D01*
X102297628Y-96443790D01*
X102316780Y-96510984D01*
X102296564Y-96577865D01*
X102245189Y-96622382D01*
X102116340Y-96682465D01*
X102116338Y-96682466D01*
X101935377Y-96809175D01*
X101779175Y-96965377D01*
X101652466Y-97146338D01*
X101652465Y-97146340D01*
X101559107Y-97346548D01*
X101559104Y-97346554D01*
X101501930Y-97559929D01*
X101501929Y-97559937D01*
X101482677Y-97779997D01*
X101482677Y-97780002D01*
X101501929Y-98000062D01*
X101501930Y-98000070D01*
X101559104Y-98213445D01*
X101559105Y-98213447D01*
X101559106Y-98213450D01*
X101652466Y-98413662D01*
X101652468Y-98413666D01*
X101779170Y-98594615D01*
X101779175Y-98594621D01*
X101935378Y-98750824D01*
X101935384Y-98750829D01*
X102116333Y-98877531D01*
X102116335Y-98877532D01*
X102116338Y-98877534D01*
X102235748Y-98933215D01*
X102245189Y-98937618D01*
X102297628Y-98983790D01*
X102316780Y-99050984D01*
X102296564Y-99117865D01*
X102245189Y-99162382D01*
X102116340Y-99222465D01*
X102116338Y-99222466D01*
X101935377Y-99349175D01*
X101779175Y-99505377D01*
X101652466Y-99686338D01*
X101652465Y-99686340D01*
X101559107Y-99886548D01*
X101559104Y-99886554D01*
X101501930Y-100099929D01*
X101501929Y-100099937D01*
X101482677Y-100319997D01*
X101482677Y-100320002D01*
X101501929Y-100540062D01*
X101501930Y-100540070D01*
X101559104Y-100753445D01*
X101559105Y-100753447D01*
X101559106Y-100753450D01*
X101652466Y-100953662D01*
X101652468Y-100953666D01*
X101779170Y-101134615D01*
X101779175Y-101134621D01*
X101935378Y-101290824D01*
X101935384Y-101290829D01*
X102116333Y-101417531D01*
X102116335Y-101417532D01*
X102116338Y-101417534D01*
X102235748Y-101473215D01*
X102245189Y-101477618D01*
X102297628Y-101523790D01*
X102316780Y-101590984D01*
X102296564Y-101657865D01*
X102245189Y-101702382D01*
X102116340Y-101762465D01*
X102116338Y-101762466D01*
X101935377Y-101889175D01*
X101779175Y-102045377D01*
X101652466Y-102226338D01*
X101652465Y-102226340D01*
X101559107Y-102426548D01*
X101559104Y-102426554D01*
X101501930Y-102639929D01*
X101501929Y-102639937D01*
X101482677Y-102859997D01*
X101482677Y-102860002D01*
X101501929Y-103080062D01*
X101501930Y-103080070D01*
X101559104Y-103293445D01*
X101559105Y-103293447D01*
X101559106Y-103293450D01*
X101652466Y-103493662D01*
X101652468Y-103493666D01*
X101779170Y-103674615D01*
X101779175Y-103674621D01*
X101935378Y-103830824D01*
X101935384Y-103830829D01*
X102116333Y-103957531D01*
X102116335Y-103957532D01*
X102116338Y-103957534D01*
X102235748Y-104013215D01*
X102245189Y-104017618D01*
X102297628Y-104063790D01*
X102316780Y-104130984D01*
X102296564Y-104197865D01*
X102245189Y-104242382D01*
X102116340Y-104302465D01*
X102116338Y-104302466D01*
X101935377Y-104429175D01*
X101779175Y-104585377D01*
X101652466Y-104766338D01*
X101652465Y-104766340D01*
X101559107Y-104966548D01*
X101559104Y-104966554D01*
X101501930Y-105179929D01*
X101501929Y-105179937D01*
X101482677Y-105399997D01*
X101482677Y-105400002D01*
X101501929Y-105620062D01*
X101501930Y-105620070D01*
X101559104Y-105833445D01*
X101559105Y-105833447D01*
X101559106Y-105833450D01*
X101617140Y-105957904D01*
X101652466Y-106033662D01*
X101652468Y-106033666D01*
X101779170Y-106214615D01*
X101779175Y-106214621D01*
X101935378Y-106370824D01*
X101935384Y-106370829D01*
X102116333Y-106497531D01*
X102116335Y-106497532D01*
X102116338Y-106497534D01*
X102235748Y-106553215D01*
X102245189Y-106557618D01*
X102297628Y-106603790D01*
X102316780Y-106670984D01*
X102296564Y-106737865D01*
X102245189Y-106782382D01*
X102116340Y-106842465D01*
X102116338Y-106842466D01*
X101935377Y-106969175D01*
X101779175Y-107125377D01*
X101652466Y-107306338D01*
X101652465Y-107306340D01*
X101559107Y-107506548D01*
X101559104Y-107506554D01*
X101501930Y-107719929D01*
X101501929Y-107719937D01*
X101482677Y-107939997D01*
X101482677Y-107940002D01*
X101501929Y-108160062D01*
X101501930Y-108160070D01*
X101559104Y-108373445D01*
X101559105Y-108373447D01*
X101559106Y-108373450D01*
X101565387Y-108386919D01*
X101652466Y-108573662D01*
X101652468Y-108573666D01*
X101779170Y-108754615D01*
X101779175Y-108754621D01*
X101935378Y-108910824D01*
X101935384Y-108910829D01*
X102116333Y-109037531D01*
X102116335Y-109037532D01*
X102116338Y-109037534D01*
X102235748Y-109093215D01*
X102245189Y-109097618D01*
X102297628Y-109143790D01*
X102316780Y-109210984D01*
X102296564Y-109277865D01*
X102245189Y-109322382D01*
X102116340Y-109382465D01*
X102116338Y-109382466D01*
X101935377Y-109509175D01*
X101779175Y-109665377D01*
X101652466Y-109846338D01*
X101652465Y-109846340D01*
X101559107Y-110046548D01*
X101559104Y-110046554D01*
X101501930Y-110259929D01*
X101501929Y-110259937D01*
X101482677Y-110479997D01*
X101482677Y-110480002D01*
X101501929Y-110700062D01*
X101501930Y-110700070D01*
X101559104Y-110913445D01*
X101559105Y-110913447D01*
X101559106Y-110913450D01*
X101652466Y-111113662D01*
X101652468Y-111113666D01*
X101779170Y-111294615D01*
X101779175Y-111294621D01*
X101935378Y-111450824D01*
X101935384Y-111450829D01*
X102116333Y-111577531D01*
X102116335Y-111577532D01*
X102116338Y-111577534D01*
X102235748Y-111633215D01*
X102245189Y-111637618D01*
X102297628Y-111683790D01*
X102316780Y-111750984D01*
X102296564Y-111817865D01*
X102245189Y-111862382D01*
X102116340Y-111922465D01*
X102116338Y-111922466D01*
X101935377Y-112049175D01*
X101779175Y-112205377D01*
X101652466Y-112386338D01*
X101652465Y-112386340D01*
X101559107Y-112586548D01*
X101559104Y-112586554D01*
X101501930Y-112799929D01*
X101501929Y-112799937D01*
X101482677Y-113019997D01*
X101482677Y-113020002D01*
X101501929Y-113240062D01*
X101501930Y-113240070D01*
X101559104Y-113453445D01*
X101559105Y-113453447D01*
X101559106Y-113453450D01*
X101652466Y-113653662D01*
X101652468Y-113653666D01*
X101779170Y-113834615D01*
X101779175Y-113834621D01*
X101935378Y-113990824D01*
X101935384Y-113990829D01*
X102116333Y-114117531D01*
X102116335Y-114117532D01*
X102116338Y-114117534D01*
X102235748Y-114173215D01*
X102245189Y-114177618D01*
X102297628Y-114223790D01*
X102316780Y-114290984D01*
X102296564Y-114357865D01*
X102245189Y-114402382D01*
X102116340Y-114462465D01*
X102116338Y-114462466D01*
X101935377Y-114589175D01*
X101779175Y-114745377D01*
X101652466Y-114926338D01*
X101652465Y-114926340D01*
X101559107Y-115126548D01*
X101559104Y-115126554D01*
X101501930Y-115339929D01*
X101501929Y-115339937D01*
X101482677Y-115559997D01*
X101482677Y-115560002D01*
X101501929Y-115780062D01*
X101501930Y-115780070D01*
X101559104Y-115993445D01*
X101559105Y-115993447D01*
X101559106Y-115993450D01*
X101652466Y-116193662D01*
X101652468Y-116193666D01*
X101779170Y-116374615D01*
X101779175Y-116374621D01*
X101935378Y-116530824D01*
X101935384Y-116530829D01*
X102116333Y-116657531D01*
X102116335Y-116657532D01*
X102116338Y-116657534D01*
X102235748Y-116713215D01*
X102245189Y-116717618D01*
X102297628Y-116763790D01*
X102316780Y-116830984D01*
X102296564Y-116897865D01*
X102245189Y-116942382D01*
X102116340Y-117002465D01*
X102116338Y-117002466D01*
X101935377Y-117129175D01*
X101779175Y-117285377D01*
X101652466Y-117466338D01*
X101652465Y-117466340D01*
X101559107Y-117666548D01*
X101559104Y-117666554D01*
X101501930Y-117879929D01*
X101501929Y-117879937D01*
X101482677Y-118099997D01*
X101482677Y-118100002D01*
X101501929Y-118320062D01*
X101501930Y-118320070D01*
X101559104Y-118533445D01*
X101559105Y-118533447D01*
X101559106Y-118533450D01*
X101652466Y-118733662D01*
X101652468Y-118733666D01*
X101779170Y-118914615D01*
X101779175Y-118914621D01*
X101935378Y-119070824D01*
X101935384Y-119070829D01*
X102116333Y-119197531D01*
X102116335Y-119197532D01*
X102116338Y-119197534D01*
X102235748Y-119253215D01*
X102245189Y-119257618D01*
X102297628Y-119303790D01*
X102316780Y-119370984D01*
X102296564Y-119437865D01*
X102245189Y-119482382D01*
X102116340Y-119542465D01*
X102116338Y-119542466D01*
X101935377Y-119669175D01*
X101779175Y-119825377D01*
X101652466Y-120006338D01*
X101652465Y-120006340D01*
X101559107Y-120206548D01*
X101559104Y-120206554D01*
X101501930Y-120419929D01*
X101501929Y-120419937D01*
X101482677Y-120639997D01*
X101482677Y-120640002D01*
X101501929Y-120860062D01*
X101501930Y-120860070D01*
X101559104Y-121073445D01*
X101559105Y-121073447D01*
X101559106Y-121073450D01*
X101652466Y-121273662D01*
X101652468Y-121273666D01*
X101779170Y-121454615D01*
X101779175Y-121454621D01*
X101935378Y-121610824D01*
X101935384Y-121610829D01*
X102116333Y-121737531D01*
X102116335Y-121737532D01*
X102116338Y-121737534D01*
X102245781Y-121797894D01*
X102298220Y-121844066D01*
X102317372Y-121911260D01*
X102297156Y-121978141D01*
X102245781Y-122022658D01*
X102116590Y-122082901D01*
X102051811Y-122128258D01*
X102722554Y-122799000D01*
X102699840Y-122799000D01*
X102602939Y-122824964D01*
X102516060Y-122875124D01*
X102445124Y-122946060D01*
X102394964Y-123032939D01*
X102369000Y-123129840D01*
X102369000Y-123152553D01*
X101698258Y-122481811D01*
X101652901Y-122546590D01*
X101559579Y-122746720D01*
X101559575Y-122746729D01*
X101502426Y-122960013D01*
X101502424Y-122960023D01*
X101483179Y-123179999D01*
X101483179Y-123180000D01*
X101502424Y-123399976D01*
X101502426Y-123399986D01*
X101559575Y-123613270D01*
X101559580Y-123613284D01*
X101652898Y-123813405D01*
X101652901Y-123813411D01*
X101698258Y-123878187D01*
X101698258Y-123878188D01*
X102369000Y-123207446D01*
X102369000Y-123230160D01*
X102394964Y-123327061D01*
X102445124Y-123413940D01*
X102516060Y-123484876D01*
X102602939Y-123535036D01*
X102699840Y-123561000D01*
X102722553Y-123561000D01*
X102051810Y-124231740D01*
X102116590Y-124277099D01*
X102116592Y-124277100D01*
X102316715Y-124370419D01*
X102316729Y-124370424D01*
X102530013Y-124427573D01*
X102530023Y-124427575D01*
X102749999Y-124446821D01*
X102750001Y-124446821D01*
X102969976Y-124427575D01*
X102969986Y-124427573D01*
X103183270Y-124370424D01*
X103183284Y-124370419D01*
X103383407Y-124277100D01*
X103383417Y-124277094D01*
X103448188Y-124231741D01*
X102777448Y-123561000D01*
X102800160Y-123561000D01*
X102897061Y-123535036D01*
X102983940Y-123484876D01*
X103054876Y-123413940D01*
X103105036Y-123327061D01*
X103131000Y-123230160D01*
X103131000Y-123207447D01*
X103801741Y-123878188D01*
X103847094Y-123813417D01*
X103847100Y-123813407D01*
X103940419Y-123613284D01*
X103940424Y-123613270D01*
X103997573Y-123399986D01*
X103997575Y-123399976D01*
X104016821Y-123180000D01*
X104016821Y-123179999D01*
X103997575Y-122960023D01*
X103997573Y-122960013D01*
X103940424Y-122746729D01*
X103940420Y-122746720D01*
X103847096Y-122546586D01*
X103801741Y-122481811D01*
X103801740Y-122481810D01*
X103131000Y-123152551D01*
X103131000Y-123129840D01*
X103105036Y-123032939D01*
X103054876Y-122946060D01*
X102983940Y-122875124D01*
X102897061Y-122824964D01*
X102800160Y-122799000D01*
X102777447Y-122799000D01*
X103448188Y-122128258D01*
X103383411Y-122082901D01*
X103383405Y-122082898D01*
X103254219Y-122022658D01*
X103201779Y-121976486D01*
X103182627Y-121909293D01*
X103202843Y-121842411D01*
X103254219Y-121797894D01*
X103383662Y-121737534D01*
X103564620Y-121610826D01*
X103720826Y-121454620D01*
X103847534Y-121273662D01*
X103940894Y-121073450D01*
X103998070Y-120860068D01*
X104017323Y-120640000D01*
X103998070Y-120419932D01*
X103940894Y-120206550D01*
X103847534Y-120006339D01*
X103720826Y-119825380D01*
X103564620Y-119669174D01*
X103564616Y-119669171D01*
X103564615Y-119669170D01*
X103383666Y-119542468D01*
X103383658Y-119542464D01*
X103254811Y-119482382D01*
X103202371Y-119436210D01*
X103183219Y-119369017D01*
X103203435Y-119302135D01*
X103254811Y-119257618D01*
X103260802Y-119254824D01*
X103383662Y-119197534D01*
X103564620Y-119070826D01*
X103720826Y-118914620D01*
X103847534Y-118733662D01*
X103940894Y-118533450D01*
X103998070Y-118320068D01*
X104017323Y-118100000D01*
X103998070Y-117879932D01*
X103940894Y-117666550D01*
X103847534Y-117466339D01*
X103720826Y-117285380D01*
X103564620Y-117129174D01*
X103564616Y-117129171D01*
X103564615Y-117129170D01*
X103383666Y-117002468D01*
X103383658Y-117002464D01*
X103254811Y-116942382D01*
X103202371Y-116896210D01*
X103183219Y-116829017D01*
X103203435Y-116762135D01*
X103254811Y-116717618D01*
X103260802Y-116714824D01*
X103383662Y-116657534D01*
X103564620Y-116530826D01*
X103720826Y-116374620D01*
X103847534Y-116193662D01*
X103940894Y-115993450D01*
X103998070Y-115780068D01*
X104017323Y-115560000D01*
X103998070Y-115339932D01*
X103940894Y-115126550D01*
X103847534Y-114926339D01*
X103720826Y-114745380D01*
X103564620Y-114589174D01*
X103564616Y-114589171D01*
X103564615Y-114589170D01*
X103383666Y-114462468D01*
X103383658Y-114462464D01*
X103254811Y-114402382D01*
X103202371Y-114356210D01*
X103183219Y-114289017D01*
X103203435Y-114222135D01*
X103254811Y-114177618D01*
X103260802Y-114174824D01*
X103383662Y-114117534D01*
X103564620Y-113990826D01*
X103720826Y-113834620D01*
X103847534Y-113653662D01*
X103940894Y-113453450D01*
X103998070Y-113240068D01*
X104017323Y-113020000D01*
X103998070Y-112799932D01*
X103940894Y-112586550D01*
X103847534Y-112386339D01*
X103720826Y-112205380D01*
X103564620Y-112049174D01*
X103564616Y-112049171D01*
X103564615Y-112049170D01*
X103383666Y-111922468D01*
X103383658Y-111922464D01*
X103254811Y-111862382D01*
X103202371Y-111816210D01*
X103183219Y-111749017D01*
X103203435Y-111682135D01*
X103254811Y-111637618D01*
X103260802Y-111634824D01*
X103383662Y-111577534D01*
X103564620Y-111450826D01*
X103720826Y-111294620D01*
X103847534Y-111113662D01*
X103940894Y-110913450D01*
X103998070Y-110700068D01*
X104017323Y-110480000D01*
X103998070Y-110259932D01*
X103940894Y-110046550D01*
X103847534Y-109846339D01*
X103720826Y-109665380D01*
X103564620Y-109509174D01*
X103564616Y-109509171D01*
X103564615Y-109509170D01*
X103383666Y-109382468D01*
X103383658Y-109382464D01*
X103254811Y-109322382D01*
X103202371Y-109276210D01*
X103194898Y-109249992D01*
X116744671Y-109249992D01*
X116744671Y-109250007D01*
X116763964Y-109544363D01*
X116763965Y-109544373D01*
X116763966Y-109544380D01*
X116763968Y-109544390D01*
X116821518Y-109833716D01*
X116821521Y-109833730D01*
X116916349Y-110113080D01*
X117046825Y-110377660D01*
X117046829Y-110377667D01*
X117210725Y-110622955D01*
X117405241Y-110844758D01*
X117627043Y-111039273D01*
X117872335Y-111203172D01*
X118136923Y-111333652D01*
X118416278Y-111428481D01*
X118705620Y-111486034D01*
X118733888Y-111487886D01*
X118999993Y-111505329D01*
X119000000Y-111505329D01*
X119000007Y-111505329D01*
X119235675Y-111489881D01*
X119294380Y-111486034D01*
X119583722Y-111428481D01*
X119863077Y-111333652D01*
X120127665Y-111203172D01*
X120372957Y-111039273D01*
X120594758Y-110844758D01*
X120789273Y-110622957D01*
X120953172Y-110377665D01*
X121083652Y-110113077D01*
X121178481Y-109833722D01*
X121236034Y-109544380D01*
X121241108Y-109466973D01*
X121255329Y-109250007D01*
X121255329Y-109249992D01*
X121236035Y-108955636D01*
X121236034Y-108955620D01*
X121178481Y-108666278D01*
X121083652Y-108386923D01*
X120953172Y-108122336D01*
X120789273Y-107877043D01*
X120746655Y-107828447D01*
X120594758Y-107655241D01*
X120372955Y-107460725D01*
X120127667Y-107296829D01*
X120127660Y-107296825D01*
X119863080Y-107166349D01*
X119583730Y-107071521D01*
X119583724Y-107071519D01*
X119583722Y-107071519D01*
X119294380Y-107013966D01*
X119294373Y-107013965D01*
X119294363Y-107013964D01*
X119000007Y-106994671D01*
X118999993Y-106994671D01*
X118705636Y-107013964D01*
X118705624Y-107013965D01*
X118705620Y-107013966D01*
X118705612Y-107013967D01*
X118705609Y-107013968D01*
X118416283Y-107071518D01*
X118416269Y-107071521D01*
X118136919Y-107166349D01*
X117872334Y-107296828D01*
X117627041Y-107460728D01*
X117405241Y-107655241D01*
X117210728Y-107877041D01*
X117046828Y-108122334D01*
X116916349Y-108386919D01*
X116821521Y-108666269D01*
X116821518Y-108666283D01*
X116763968Y-108955609D01*
X116763964Y-108955636D01*
X116744671Y-109249992D01*
X103194898Y-109249992D01*
X103183219Y-109209017D01*
X103203435Y-109142135D01*
X103254811Y-109097618D01*
X103260802Y-109094824D01*
X103383662Y-109037534D01*
X103564620Y-108910826D01*
X103720826Y-108754620D01*
X103847534Y-108573662D01*
X103940894Y-108373450D01*
X103998070Y-108160068D01*
X104017323Y-107940000D01*
X103998070Y-107719932D01*
X103978821Y-107648095D01*
X103980482Y-107578245D01*
X104010912Y-107528321D01*
X106631255Y-104907981D01*
X106710312Y-104771049D01*
X106751236Y-104618322D01*
X106751236Y-104460207D01*
X106751236Y-104452612D01*
X106751235Y-104452594D01*
X106751235Y-101733147D01*
X106770920Y-101666108D01*
X106778290Y-101655832D01*
X106780545Y-101653002D01*
X106780551Y-101652997D01*
X106876524Y-101500257D01*
X106936103Y-101329990D01*
X106936104Y-101329984D01*
X106956300Y-101150738D01*
X106956300Y-101150731D01*
X106936104Y-100971485D01*
X106936103Y-100971480D01*
X106876523Y-100801211D01*
X106780550Y-100648472D01*
X106652997Y-100520919D01*
X106500258Y-100424946D01*
X106329989Y-100365366D01*
X106329984Y-100365365D01*
X106150739Y-100345170D01*
X106150731Y-100345170D01*
X105971485Y-100365365D01*
X105971480Y-100365366D01*
X105801211Y-100424946D01*
X105648472Y-100520919D01*
X105520919Y-100648472D01*
X105424946Y-100801211D01*
X105365366Y-100971480D01*
X105365365Y-100971485D01*
X105345170Y-101150731D01*
X105345170Y-101150738D01*
X105365365Y-101329984D01*
X105365366Y-101329989D01*
X105424946Y-101500258D01*
X105520920Y-101652998D01*
X105523180Y-101655832D01*
X105524069Y-101658010D01*
X105524624Y-101658893D01*
X105524469Y-101658990D01*
X105549590Y-101720518D01*
X105550235Y-101733147D01*
X105550235Y-104239167D01*
X105530550Y-104306206D01*
X105513916Y-104326848D01*
X104217626Y-105623137D01*
X104156303Y-105656622D01*
X104086611Y-105651638D01*
X104030678Y-105609766D01*
X104006261Y-105544302D01*
X104006416Y-105524660D01*
X104017323Y-105400000D01*
X103998070Y-105179932D01*
X103940894Y-104966550D01*
X103847534Y-104766339D01*
X103720826Y-104585380D01*
X103564620Y-104429174D01*
X103564616Y-104429171D01*
X103564615Y-104429170D01*
X103383666Y-104302468D01*
X103383658Y-104302464D01*
X103254811Y-104242382D01*
X103202371Y-104196210D01*
X103183219Y-104129017D01*
X103203435Y-104062135D01*
X103254811Y-104017618D01*
X103260802Y-104014824D01*
X103383662Y-103957534D01*
X103564620Y-103830826D01*
X103720826Y-103674620D01*
X103847534Y-103493662D01*
X103940894Y-103293450D01*
X103998070Y-103080068D01*
X104017323Y-102860000D01*
X103998070Y-102639932D01*
X103940894Y-102426550D01*
X103847534Y-102226339D01*
X103720826Y-102045380D01*
X103564620Y-101889174D01*
X103564616Y-101889171D01*
X103564615Y-101889170D01*
X103383666Y-101762468D01*
X103383658Y-101762464D01*
X103254811Y-101702382D01*
X103202371Y-101656210D01*
X103183219Y-101589017D01*
X103203435Y-101522135D01*
X103254811Y-101477618D01*
X103260802Y-101474824D01*
X103383662Y-101417534D01*
X103564620Y-101290826D01*
X103720826Y-101134620D01*
X103847534Y-100953662D01*
X103940894Y-100753450D01*
X103998070Y-100540068D01*
X104017323Y-100320000D01*
X103998070Y-100099932D01*
X103940894Y-99886550D01*
X103847534Y-99686339D01*
X103720826Y-99505380D01*
X103564620Y-99349174D01*
X103564616Y-99349171D01*
X103564615Y-99349170D01*
X103383666Y-99222468D01*
X103383658Y-99222464D01*
X103254811Y-99162382D01*
X103202371Y-99116210D01*
X103183219Y-99049017D01*
X103203435Y-98982135D01*
X103254811Y-98937618D01*
X103260802Y-98934824D01*
X103383662Y-98877534D01*
X103564620Y-98750826D01*
X103720826Y-98594620D01*
X103847534Y-98413662D01*
X103940894Y-98213450D01*
X103998070Y-98000068D01*
X104017323Y-97780000D01*
X103998070Y-97559932D01*
X103940894Y-97346550D01*
X103847534Y-97146339D01*
X103720826Y-96965380D01*
X103564620Y-96809174D01*
X103564616Y-96809171D01*
X103564615Y-96809170D01*
X103383666Y-96682468D01*
X103383658Y-96682464D01*
X103254811Y-96622382D01*
X103202371Y-96576210D01*
X103183219Y-96509017D01*
X103203435Y-96442135D01*
X103254811Y-96397618D01*
X103260802Y-96394824D01*
X103383662Y-96337534D01*
X103564620Y-96210826D01*
X103720826Y-96054620D01*
X103847534Y-95873662D01*
X103940894Y-95673450D01*
X103998070Y-95460068D01*
X104012509Y-95295017D01*
X104017323Y-95240002D01*
X104017323Y-95239997D01*
X103998070Y-95019937D01*
X103998070Y-95019932D01*
X103940894Y-94806550D01*
X103847534Y-94606339D01*
X103773074Y-94499998D01*
X114194435Y-94499998D01*
X114194435Y-94500001D01*
X114198720Y-94538029D01*
X114199500Y-94551914D01*
X114199500Y-94578844D01*
X114207288Y-94618003D01*
X114208890Y-94628303D01*
X114214632Y-94679252D01*
X114214633Y-94679260D01*
X114222976Y-94703104D01*
X114227550Y-94719860D01*
X114230262Y-94733496D01*
X114250509Y-94782377D01*
X114252988Y-94788872D01*
X114274212Y-94849524D01*
X114280709Y-94859865D01*
X114290268Y-94878365D01*
X114290603Y-94879173D01*
X114290605Y-94879179D01*
X114327223Y-94933982D01*
X114329114Y-94936900D01*
X114370180Y-95002257D01*
X114370182Y-95002260D01*
X114370184Y-95002262D01*
X114497738Y-95129816D01*
X114563096Y-95170883D01*
X114563131Y-95170905D01*
X114566040Y-95172790D01*
X114620821Y-95209394D01*
X114621606Y-95209719D01*
X114640134Y-95219289D01*
X114650478Y-95225789D01*
X114711175Y-95247028D01*
X114717607Y-95249484D01*
X114746021Y-95261253D01*
X114766497Y-95269735D01*
X114766498Y-95269735D01*
X114766503Y-95269737D01*
X114780139Y-95272449D01*
X114796898Y-95277023D01*
X114820745Y-95285368D01*
X114871714Y-95291110D01*
X114881992Y-95292709D01*
X114909140Y-95298109D01*
X114921157Y-95300500D01*
X114921158Y-95300500D01*
X114948085Y-95300500D01*
X114961969Y-95301280D01*
X114999998Y-95305565D01*
X115000000Y-95305565D01*
X115000002Y-95305565D01*
X115038031Y-95301280D01*
X115051915Y-95300500D01*
X115078841Y-95300500D01*
X115078842Y-95300500D01*
X115118017Y-95292707D01*
X115128283Y-95291110D01*
X115179255Y-95285368D01*
X115203100Y-95277023D01*
X115219862Y-95272448D01*
X115233497Y-95269737D01*
X115282389Y-95249484D01*
X115288837Y-95247023D01*
X115349522Y-95225789D01*
X115359868Y-95219287D01*
X115378390Y-95209720D01*
X115379179Y-95209394D01*
X115433987Y-95172771D01*
X115436825Y-95170931D01*
X115502262Y-95129816D01*
X115629816Y-95002262D01*
X115670931Y-94936825D01*
X115672777Y-94933979D01*
X115709389Y-94879186D01*
X115709394Y-94879179D01*
X115709720Y-94878390D01*
X115719287Y-94859868D01*
X115725789Y-94849522D01*
X115747023Y-94788837D01*
X115749490Y-94782377D01*
X115769737Y-94733497D01*
X115772449Y-94719860D01*
X115777023Y-94703100D01*
X115785368Y-94679255D01*
X115791110Y-94628283D01*
X115792707Y-94618017D01*
X115800500Y-94578842D01*
X115800500Y-94551914D01*
X115801280Y-94538029D01*
X115805565Y-94500001D01*
X115805565Y-94499998D01*
X115801280Y-94461969D01*
X115800500Y-94448085D01*
X115800500Y-91132939D01*
X115820185Y-91065900D01*
X115836814Y-91045263D01*
X124159362Y-82722714D01*
X124220683Y-82689231D01*
X124290375Y-82694215D01*
X124346308Y-82736087D01*
X124366816Y-82778303D01*
X124419104Y-82973444D01*
X124419105Y-82973446D01*
X124419106Y-82973450D01*
X124512466Y-83173662D01*
X124512468Y-83173666D01*
X124639170Y-83354615D01*
X124639175Y-83354621D01*
X124795378Y-83510824D01*
X124795384Y-83510829D01*
X124976333Y-83637531D01*
X124976335Y-83637532D01*
X124976338Y-83637534D01*
X125095748Y-83693215D01*
X125105189Y-83697618D01*
X125157628Y-83743790D01*
X125176780Y-83810984D01*
X125156564Y-83877865D01*
X125105189Y-83922382D01*
X124976340Y-83982465D01*
X124976338Y-83982466D01*
X124795377Y-84109175D01*
X124639175Y-84265377D01*
X124512466Y-84446338D01*
X124512465Y-84446340D01*
X124419107Y-84646548D01*
X124419104Y-84646554D01*
X124361930Y-84859929D01*
X124361929Y-84859937D01*
X124342677Y-85079997D01*
X124342677Y-85080002D01*
X124361929Y-85300062D01*
X124361930Y-85300070D01*
X124419104Y-85513445D01*
X124419105Y-85513447D01*
X124419106Y-85513450D01*
X124512466Y-85713662D01*
X124512468Y-85713666D01*
X124639170Y-85894615D01*
X124639175Y-85894621D01*
X124795378Y-86050824D01*
X124795384Y-86050829D01*
X124976333Y-86177531D01*
X124976335Y-86177532D01*
X124976338Y-86177534D01*
X125095748Y-86233215D01*
X125105189Y-86237618D01*
X125157628Y-86283790D01*
X125176780Y-86350984D01*
X125156564Y-86417865D01*
X125105189Y-86462382D01*
X124976340Y-86522465D01*
X124976338Y-86522466D01*
X124795377Y-86649175D01*
X124639175Y-86805377D01*
X124512466Y-86986338D01*
X124512465Y-86986340D01*
X124419107Y-87186548D01*
X124419104Y-87186554D01*
X124361930Y-87399929D01*
X124361929Y-87399937D01*
X124342677Y-87619997D01*
X124342677Y-87620002D01*
X124361929Y-87840062D01*
X124361930Y-87840070D01*
X124419104Y-88053445D01*
X124419105Y-88053447D01*
X124419106Y-88053450D01*
X124512466Y-88253662D01*
X124512468Y-88253666D01*
X124639170Y-88434615D01*
X124639175Y-88434621D01*
X124795378Y-88590824D01*
X124795384Y-88590829D01*
X124976333Y-88717531D01*
X124976335Y-88717532D01*
X124976338Y-88717534D01*
X125095748Y-88773215D01*
X125105189Y-88777618D01*
X125157628Y-88823790D01*
X125176780Y-88890984D01*
X125156564Y-88957865D01*
X125105189Y-89002382D01*
X124976340Y-89062465D01*
X124976338Y-89062466D01*
X124795377Y-89189175D01*
X124639175Y-89345377D01*
X124512466Y-89526338D01*
X124512465Y-89526340D01*
X124419107Y-89726548D01*
X124419104Y-89726554D01*
X124361930Y-89939929D01*
X124361929Y-89939937D01*
X124342677Y-90159997D01*
X124342677Y-90160002D01*
X124361929Y-90380062D01*
X124361930Y-90380070D01*
X124419104Y-90593445D01*
X124419105Y-90593447D01*
X124419106Y-90593450D01*
X124455342Y-90671158D01*
X124512466Y-90793662D01*
X124512468Y-90793666D01*
X124639170Y-90974615D01*
X124639175Y-90974621D01*
X124795378Y-91130824D01*
X124795384Y-91130829D01*
X124976333Y-91257531D01*
X124976335Y-91257532D01*
X124976338Y-91257534D01*
X125095748Y-91313215D01*
X125105189Y-91317618D01*
X125157628Y-91363790D01*
X125176780Y-91430984D01*
X125156564Y-91497865D01*
X125105189Y-91542382D01*
X124976340Y-91602465D01*
X124976338Y-91602466D01*
X124795377Y-91729175D01*
X124639175Y-91885377D01*
X124512466Y-92066338D01*
X124512465Y-92066340D01*
X124419107Y-92266548D01*
X124419104Y-92266554D01*
X124361930Y-92479929D01*
X124361929Y-92479937D01*
X124342677Y-92699997D01*
X124342677Y-92700002D01*
X124361929Y-92920062D01*
X124361930Y-92920070D01*
X124419104Y-93133445D01*
X124419105Y-93133447D01*
X124419106Y-93133450D01*
X124512466Y-93333662D01*
X124512468Y-93333666D01*
X124639170Y-93514615D01*
X124639175Y-93514621D01*
X124795378Y-93670824D01*
X124795384Y-93670829D01*
X124976333Y-93797531D01*
X124976335Y-93797532D01*
X124976338Y-93797534D01*
X125095748Y-93853215D01*
X125105189Y-93857618D01*
X125157628Y-93903790D01*
X125176780Y-93970984D01*
X125156564Y-94037865D01*
X125105189Y-94082382D01*
X124976340Y-94142465D01*
X124976338Y-94142466D01*
X124795377Y-94269175D01*
X124639175Y-94425377D01*
X124512466Y-94606338D01*
X124512465Y-94606340D01*
X124419107Y-94806548D01*
X124419104Y-94806554D01*
X124361930Y-95019929D01*
X124361929Y-95019937D01*
X124342677Y-95239997D01*
X124342677Y-95240002D01*
X124361929Y-95460062D01*
X124361930Y-95460070D01*
X124419104Y-95673445D01*
X124419105Y-95673447D01*
X124419106Y-95673450D01*
X124512466Y-95873662D01*
X124512468Y-95873666D01*
X124639170Y-96054615D01*
X124639175Y-96054621D01*
X124795378Y-96210824D01*
X124795384Y-96210829D01*
X124976333Y-96337531D01*
X124976335Y-96337532D01*
X124976338Y-96337534D01*
X125095748Y-96393215D01*
X125105189Y-96397618D01*
X125157628Y-96443790D01*
X125176780Y-96510984D01*
X125156564Y-96577865D01*
X125105189Y-96622382D01*
X124976340Y-96682465D01*
X124976338Y-96682466D01*
X124795377Y-96809175D01*
X124639175Y-96965377D01*
X124512466Y-97146338D01*
X124512465Y-97146340D01*
X124419107Y-97346548D01*
X124419104Y-97346554D01*
X124361930Y-97559929D01*
X124361929Y-97559937D01*
X124342677Y-97779997D01*
X124342677Y-97780002D01*
X124361929Y-98000062D01*
X124361930Y-98000070D01*
X124419104Y-98213445D01*
X124419105Y-98213447D01*
X124419106Y-98213450D01*
X124512466Y-98413662D01*
X124512468Y-98413666D01*
X124639170Y-98594615D01*
X124639175Y-98594621D01*
X124795378Y-98750824D01*
X124795384Y-98750829D01*
X124976333Y-98877531D01*
X124976335Y-98877532D01*
X124976338Y-98877534D01*
X125095748Y-98933215D01*
X125105189Y-98937618D01*
X125157628Y-98983790D01*
X125176780Y-99050984D01*
X125156564Y-99117865D01*
X125105189Y-99162382D01*
X124976340Y-99222465D01*
X124976338Y-99222466D01*
X124795377Y-99349175D01*
X124639175Y-99505377D01*
X124512466Y-99686338D01*
X124512465Y-99686340D01*
X124419107Y-99886548D01*
X124419104Y-99886554D01*
X124361930Y-100099929D01*
X124361929Y-100099937D01*
X124342677Y-100319997D01*
X124342677Y-100320002D01*
X124361929Y-100540062D01*
X124361930Y-100540070D01*
X124419104Y-100753445D01*
X124419105Y-100753447D01*
X124419106Y-100753450D01*
X124512466Y-100953662D01*
X124512468Y-100953666D01*
X124639170Y-101134615D01*
X124639175Y-101134621D01*
X124795378Y-101290824D01*
X124795384Y-101290829D01*
X124976333Y-101417531D01*
X124976335Y-101417532D01*
X124976338Y-101417534D01*
X125095748Y-101473215D01*
X125105189Y-101477618D01*
X125157628Y-101523790D01*
X125176780Y-101590984D01*
X125156564Y-101657865D01*
X125105189Y-101702382D01*
X124976340Y-101762465D01*
X124976338Y-101762466D01*
X124795377Y-101889175D01*
X124639175Y-102045377D01*
X124512466Y-102226338D01*
X124512465Y-102226340D01*
X124419107Y-102426548D01*
X124419104Y-102426554D01*
X124361930Y-102639929D01*
X124361929Y-102639937D01*
X124342677Y-102859997D01*
X124342677Y-102860002D01*
X124361929Y-103080062D01*
X124361930Y-103080070D01*
X124419104Y-103293445D01*
X124419105Y-103293447D01*
X124419106Y-103293450D01*
X124512466Y-103493662D01*
X124512468Y-103493666D01*
X124639170Y-103674615D01*
X124639175Y-103674621D01*
X124795378Y-103830824D01*
X124795384Y-103830829D01*
X124976333Y-103957531D01*
X124976335Y-103957532D01*
X124976338Y-103957534D01*
X125095748Y-104013215D01*
X125105189Y-104017618D01*
X125157628Y-104063790D01*
X125176780Y-104130984D01*
X125156564Y-104197865D01*
X125105189Y-104242382D01*
X124976340Y-104302465D01*
X124976338Y-104302466D01*
X124795377Y-104429175D01*
X124639175Y-104585377D01*
X124512466Y-104766338D01*
X124512465Y-104766340D01*
X124419107Y-104966548D01*
X124419104Y-104966554D01*
X124361930Y-105179929D01*
X124361929Y-105179937D01*
X124342677Y-105399997D01*
X124342677Y-105400002D01*
X124361929Y-105620062D01*
X124361930Y-105620070D01*
X124419104Y-105833445D01*
X124419105Y-105833447D01*
X124419106Y-105833450D01*
X124477140Y-105957904D01*
X124512466Y-106033662D01*
X124512468Y-106033666D01*
X124639170Y-106214615D01*
X124639175Y-106214621D01*
X124795378Y-106370824D01*
X124795384Y-106370829D01*
X124976333Y-106497531D01*
X124976335Y-106497532D01*
X124976338Y-106497534D01*
X125095748Y-106553215D01*
X125105189Y-106557618D01*
X125157628Y-106603790D01*
X125176780Y-106670984D01*
X125156564Y-106737865D01*
X125105189Y-106782382D01*
X124976340Y-106842465D01*
X124976338Y-106842466D01*
X124795377Y-106969175D01*
X124639175Y-107125377D01*
X124512466Y-107306338D01*
X124512465Y-107306340D01*
X124419107Y-107506548D01*
X124419104Y-107506554D01*
X124361930Y-107719929D01*
X124361929Y-107719937D01*
X124342677Y-107939997D01*
X124342677Y-107940002D01*
X124361929Y-108160062D01*
X124361930Y-108160070D01*
X124419104Y-108373445D01*
X124419105Y-108373447D01*
X124419106Y-108373450D01*
X124425387Y-108386919D01*
X124512466Y-108573662D01*
X124512468Y-108573666D01*
X124639170Y-108754615D01*
X124639175Y-108754621D01*
X124795378Y-108910824D01*
X124795384Y-108910829D01*
X124976333Y-109037531D01*
X124976335Y-109037532D01*
X124976338Y-109037534D01*
X125095748Y-109093215D01*
X125105189Y-109097618D01*
X125157628Y-109143790D01*
X125176780Y-109210984D01*
X125156564Y-109277865D01*
X125105189Y-109322382D01*
X124976340Y-109382465D01*
X124976338Y-109382466D01*
X124795377Y-109509175D01*
X124639175Y-109665377D01*
X124512466Y-109846338D01*
X124512465Y-109846340D01*
X124419107Y-110046548D01*
X124419104Y-110046554D01*
X124361930Y-110259929D01*
X124361929Y-110259937D01*
X124342677Y-110479997D01*
X124342677Y-110480002D01*
X124361929Y-110700062D01*
X124361930Y-110700070D01*
X124419104Y-110913445D01*
X124419105Y-110913447D01*
X124419106Y-110913450D01*
X124512466Y-111113662D01*
X124512468Y-111113666D01*
X124639170Y-111294615D01*
X124639175Y-111294621D01*
X124795378Y-111450824D01*
X124795384Y-111450829D01*
X124976333Y-111577531D01*
X124976335Y-111577532D01*
X124976338Y-111577534D01*
X125095748Y-111633215D01*
X125105189Y-111637618D01*
X125157628Y-111683790D01*
X125176780Y-111750984D01*
X125156564Y-111817865D01*
X125105189Y-111862382D01*
X124976340Y-111922465D01*
X124976338Y-111922466D01*
X124795377Y-112049175D01*
X124639175Y-112205377D01*
X124512466Y-112386338D01*
X124512465Y-112386340D01*
X124419107Y-112586548D01*
X124419104Y-112586554D01*
X124361930Y-112799929D01*
X124361929Y-112799937D01*
X124342677Y-113019997D01*
X124342677Y-113020002D01*
X124361929Y-113240062D01*
X124361930Y-113240070D01*
X124419104Y-113453445D01*
X124419105Y-113453447D01*
X124419106Y-113453450D01*
X124512466Y-113653662D01*
X124512468Y-113653666D01*
X124639170Y-113834615D01*
X124639175Y-113834621D01*
X124795378Y-113990824D01*
X124795384Y-113990829D01*
X124976333Y-114117531D01*
X124976335Y-114117532D01*
X124976338Y-114117534D01*
X125095748Y-114173215D01*
X125105189Y-114177618D01*
X125157628Y-114223790D01*
X125176780Y-114290984D01*
X125156564Y-114357865D01*
X125105189Y-114402382D01*
X124976340Y-114462465D01*
X124976338Y-114462466D01*
X124795377Y-114589175D01*
X124639175Y-114745377D01*
X124512466Y-114926338D01*
X124512465Y-114926340D01*
X124419107Y-115126548D01*
X124419104Y-115126554D01*
X124361930Y-115339929D01*
X124361929Y-115339937D01*
X124342677Y-115559997D01*
X124342677Y-115560002D01*
X124361929Y-115780062D01*
X124361930Y-115780070D01*
X124419104Y-115993445D01*
X124419105Y-115993447D01*
X124419106Y-115993450D01*
X124512466Y-116193662D01*
X124512468Y-116193666D01*
X124639170Y-116374615D01*
X124639175Y-116374621D01*
X124795378Y-116530824D01*
X124795384Y-116530829D01*
X124976333Y-116657531D01*
X124976335Y-116657532D01*
X124976338Y-116657534D01*
X125095748Y-116713215D01*
X125105189Y-116717618D01*
X125157628Y-116763790D01*
X125176780Y-116830984D01*
X125156564Y-116897865D01*
X125105189Y-116942382D01*
X124976340Y-117002465D01*
X124976338Y-117002466D01*
X124795377Y-117129175D01*
X124639175Y-117285377D01*
X124512466Y-117466338D01*
X124512465Y-117466340D01*
X124419107Y-117666548D01*
X124419104Y-117666554D01*
X124361930Y-117879929D01*
X124361929Y-117879937D01*
X124342677Y-118099997D01*
X124342677Y-118100002D01*
X124361929Y-118320062D01*
X124361930Y-118320070D01*
X124419104Y-118533445D01*
X124419105Y-118533447D01*
X124419106Y-118533450D01*
X124512466Y-118733662D01*
X124512468Y-118733666D01*
X124639170Y-118914615D01*
X124639175Y-118914621D01*
X124795378Y-119070824D01*
X124795384Y-119070829D01*
X124976333Y-119197531D01*
X124976335Y-119197532D01*
X124976338Y-119197534D01*
X125095748Y-119253215D01*
X125105189Y-119257618D01*
X125157628Y-119303790D01*
X125176780Y-119370984D01*
X125156564Y-119437865D01*
X125105189Y-119482382D01*
X124976340Y-119542465D01*
X124976338Y-119542466D01*
X124795377Y-119669175D01*
X124639175Y-119825377D01*
X124512466Y-120006338D01*
X124512465Y-120006340D01*
X124419107Y-120206548D01*
X124419104Y-120206554D01*
X124361930Y-120419929D01*
X124361929Y-120419937D01*
X124342677Y-120639997D01*
X124342677Y-120640002D01*
X124361929Y-120860062D01*
X124361930Y-120860070D01*
X124419104Y-121073445D01*
X124419105Y-121073447D01*
X124419106Y-121073450D01*
X124512466Y-121273662D01*
X124512468Y-121273666D01*
X124639170Y-121454615D01*
X124639175Y-121454621D01*
X124795378Y-121610824D01*
X124795384Y-121610829D01*
X124976333Y-121737531D01*
X124976335Y-121737532D01*
X124976338Y-121737534D01*
X125105781Y-121797894D01*
X125158220Y-121844066D01*
X125177372Y-121911260D01*
X125157156Y-121978141D01*
X125105781Y-122022658D01*
X124976590Y-122082901D01*
X124911811Y-122128258D01*
X125582554Y-122799000D01*
X125559840Y-122799000D01*
X125462939Y-122824964D01*
X125376060Y-122875124D01*
X125305124Y-122946060D01*
X125254964Y-123032939D01*
X125229000Y-123129840D01*
X125229000Y-123152553D01*
X124558258Y-122481811D01*
X124512901Y-122546590D01*
X124419579Y-122746720D01*
X124419575Y-122746729D01*
X124362426Y-122960013D01*
X124362424Y-122960023D01*
X124343179Y-123179999D01*
X124343179Y-123180000D01*
X124362424Y-123399976D01*
X124362426Y-123399986D01*
X124419575Y-123613270D01*
X124419580Y-123613284D01*
X124512898Y-123813405D01*
X124512901Y-123813411D01*
X124558258Y-123878187D01*
X124558258Y-123878188D01*
X125229000Y-123207446D01*
X125229000Y-123230160D01*
X125254964Y-123327061D01*
X125305124Y-123413940D01*
X125376060Y-123484876D01*
X125462939Y-123535036D01*
X125559840Y-123561000D01*
X125582553Y-123561000D01*
X124911810Y-124231740D01*
X124976590Y-124277099D01*
X124976592Y-124277100D01*
X125176715Y-124370419D01*
X125176729Y-124370424D01*
X125390013Y-124427573D01*
X125390023Y-124427575D01*
X125609999Y-124446821D01*
X125610001Y-124446821D01*
X125829976Y-124427575D01*
X125829986Y-124427573D01*
X126043270Y-124370424D01*
X126043284Y-124370419D01*
X126243407Y-124277100D01*
X126243417Y-124277094D01*
X126308188Y-124231741D01*
X125637448Y-123561000D01*
X125660160Y-123561000D01*
X125757061Y-123535036D01*
X125843940Y-123484876D01*
X125914876Y-123413940D01*
X125965036Y-123327061D01*
X125991000Y-123230160D01*
X125991000Y-123207447D01*
X126661741Y-123878188D01*
X126707094Y-123813417D01*
X126707100Y-123813407D01*
X126800419Y-123613284D01*
X126800424Y-123613270D01*
X126857573Y-123399986D01*
X126857575Y-123399976D01*
X126876821Y-123180000D01*
X126876821Y-123179999D01*
X126857575Y-122960023D01*
X126857573Y-122960013D01*
X126800424Y-122746729D01*
X126800420Y-122746720D01*
X126707096Y-122546586D01*
X126661741Y-122481811D01*
X126661740Y-122481810D01*
X125991000Y-123152551D01*
X125991000Y-123129840D01*
X125965036Y-123032939D01*
X125914876Y-122946060D01*
X125843940Y-122875124D01*
X125757061Y-122824964D01*
X125660160Y-122799000D01*
X125637447Y-122799000D01*
X126308188Y-122128258D01*
X126243411Y-122082901D01*
X126243405Y-122082898D01*
X126114219Y-122022658D01*
X126061779Y-121976486D01*
X126042627Y-121909293D01*
X126062843Y-121842411D01*
X126114219Y-121797894D01*
X126243662Y-121737534D01*
X126424620Y-121610826D01*
X126580826Y-121454620D01*
X126707534Y-121273662D01*
X126800894Y-121073450D01*
X126858070Y-120860068D01*
X126877323Y-120640000D01*
X126858070Y-120419932D01*
X126800894Y-120206550D01*
X126707534Y-120006339D01*
X126580826Y-119825380D01*
X126424620Y-119669174D01*
X126424616Y-119669171D01*
X126424615Y-119669170D01*
X126243666Y-119542468D01*
X126243658Y-119542464D01*
X126114811Y-119482382D01*
X126062371Y-119436210D01*
X126043219Y-119369017D01*
X126063435Y-119302135D01*
X126114811Y-119257618D01*
X126120802Y-119254824D01*
X126243662Y-119197534D01*
X126424620Y-119070826D01*
X126580826Y-118914620D01*
X126707534Y-118733662D01*
X126800894Y-118533450D01*
X126858070Y-118320068D01*
X126877323Y-118100000D01*
X126858070Y-117879932D01*
X126800894Y-117666550D01*
X126707534Y-117466339D01*
X126580826Y-117285380D01*
X126424620Y-117129174D01*
X126424616Y-117129171D01*
X126424615Y-117129170D01*
X126243666Y-117002468D01*
X126243658Y-117002464D01*
X126114811Y-116942382D01*
X126062371Y-116896210D01*
X126043219Y-116829017D01*
X126063435Y-116762135D01*
X126114811Y-116717618D01*
X126120802Y-116714824D01*
X126243662Y-116657534D01*
X126424620Y-116530826D01*
X126580826Y-116374620D01*
X126707534Y-116193662D01*
X126800894Y-115993450D01*
X126858070Y-115780068D01*
X126877323Y-115560000D01*
X126858070Y-115339932D01*
X126800894Y-115126550D01*
X126707534Y-114926339D01*
X126580826Y-114745380D01*
X126424620Y-114589174D01*
X126424616Y-114589171D01*
X126424615Y-114589170D01*
X126243666Y-114462468D01*
X126243658Y-114462464D01*
X126114811Y-114402382D01*
X126062371Y-114356210D01*
X126043219Y-114289017D01*
X126063435Y-114222135D01*
X126114811Y-114177618D01*
X126120802Y-114174824D01*
X126243662Y-114117534D01*
X126424620Y-113990826D01*
X126580826Y-113834620D01*
X126707534Y-113653662D01*
X126800894Y-113453450D01*
X126858070Y-113240068D01*
X126877323Y-113020000D01*
X126858070Y-112799932D01*
X126800894Y-112586550D01*
X126707534Y-112386339D01*
X126580826Y-112205380D01*
X126424620Y-112049174D01*
X126424616Y-112049171D01*
X126424615Y-112049170D01*
X126243666Y-111922468D01*
X126243658Y-111922464D01*
X126114811Y-111862382D01*
X126062371Y-111816210D01*
X126043219Y-111749017D01*
X126063435Y-111682135D01*
X126114811Y-111637618D01*
X126120802Y-111634824D01*
X126243662Y-111577534D01*
X126424620Y-111450826D01*
X126580826Y-111294620D01*
X126707534Y-111113662D01*
X126800894Y-110913450D01*
X126858070Y-110700068D01*
X126877323Y-110480000D01*
X126858070Y-110259932D01*
X126800894Y-110046550D01*
X126707534Y-109846339D01*
X126580826Y-109665380D01*
X126424620Y-109509174D01*
X126424616Y-109509171D01*
X126424615Y-109509170D01*
X126243666Y-109382468D01*
X126243658Y-109382464D01*
X126114811Y-109322382D01*
X126062371Y-109276210D01*
X126043219Y-109209017D01*
X126063435Y-109142135D01*
X126114811Y-109097618D01*
X126120802Y-109094824D01*
X126243662Y-109037534D01*
X126424620Y-108910826D01*
X126580826Y-108754620D01*
X126707534Y-108573662D01*
X126800894Y-108373450D01*
X126858070Y-108160068D01*
X126877323Y-107940000D01*
X126858070Y-107719932D01*
X126800894Y-107506550D01*
X126707534Y-107306339D01*
X126580826Y-107125380D01*
X126424620Y-106969174D01*
X126424616Y-106969171D01*
X126424615Y-106969170D01*
X126243666Y-106842468D01*
X126243658Y-106842464D01*
X126114811Y-106782382D01*
X126062371Y-106736210D01*
X126043219Y-106669017D01*
X126063435Y-106602135D01*
X126114811Y-106557618D01*
X126120802Y-106554824D01*
X126243662Y-106497534D01*
X126424620Y-106370826D01*
X126580826Y-106214620D01*
X126707534Y-106033662D01*
X126800894Y-105833450D01*
X126858070Y-105620068D01*
X126877323Y-105400000D01*
X126858070Y-105179932D01*
X126800894Y-104966550D01*
X126707534Y-104766339D01*
X126580826Y-104585380D01*
X126424620Y-104429174D01*
X126424616Y-104429171D01*
X126424615Y-104429170D01*
X126243666Y-104302468D01*
X126243658Y-104302464D01*
X126114811Y-104242382D01*
X126062371Y-104196210D01*
X126043219Y-104129017D01*
X126063435Y-104062135D01*
X126114811Y-104017618D01*
X126120802Y-104014824D01*
X126243662Y-103957534D01*
X126424620Y-103830826D01*
X126580826Y-103674620D01*
X126707534Y-103493662D01*
X126800894Y-103293450D01*
X126858070Y-103080068D01*
X126877323Y-102860000D01*
X126858070Y-102639932D01*
X126800894Y-102426550D01*
X126707534Y-102226339D01*
X126580826Y-102045380D01*
X126424620Y-101889174D01*
X126424616Y-101889171D01*
X126424615Y-101889170D01*
X126243666Y-101762468D01*
X126243658Y-101762464D01*
X126114811Y-101702382D01*
X126062371Y-101656210D01*
X126043219Y-101589017D01*
X126063435Y-101522135D01*
X126114811Y-101477618D01*
X126120802Y-101474824D01*
X126243662Y-101417534D01*
X126424620Y-101290826D01*
X126580826Y-101134620D01*
X126707534Y-100953662D01*
X126800894Y-100753450D01*
X126858070Y-100540068D01*
X126877323Y-100320000D01*
X126858070Y-100099932D01*
X126800894Y-99886550D01*
X126707534Y-99686339D01*
X126580826Y-99505380D01*
X126424620Y-99349174D01*
X126424616Y-99349171D01*
X126424615Y-99349170D01*
X126243666Y-99222468D01*
X126243658Y-99222464D01*
X126114811Y-99162382D01*
X126062371Y-99116210D01*
X126043219Y-99049017D01*
X126063435Y-98982135D01*
X126114811Y-98937618D01*
X126120802Y-98934824D01*
X126243662Y-98877534D01*
X126424620Y-98750826D01*
X126580826Y-98594620D01*
X126707534Y-98413662D01*
X126800894Y-98213450D01*
X126858070Y-98000068D01*
X126877323Y-97780000D01*
X126858070Y-97559932D01*
X126800894Y-97346550D01*
X126707534Y-97146339D01*
X126580826Y-96965380D01*
X126424620Y-96809174D01*
X126424616Y-96809171D01*
X126424615Y-96809170D01*
X126243666Y-96682468D01*
X126243658Y-96682464D01*
X126114811Y-96622382D01*
X126062371Y-96576210D01*
X126043219Y-96509017D01*
X126063435Y-96442135D01*
X126114811Y-96397618D01*
X126120802Y-96394824D01*
X126243662Y-96337534D01*
X126424620Y-96210826D01*
X126580826Y-96054620D01*
X126707534Y-95873662D01*
X126800894Y-95673450D01*
X126858070Y-95460068D01*
X126872509Y-95295017D01*
X126877323Y-95240002D01*
X126877323Y-95239997D01*
X126858070Y-95019937D01*
X126858070Y-95019932D01*
X126800894Y-94806550D01*
X126707534Y-94606339D01*
X126580826Y-94425380D01*
X126424620Y-94269174D01*
X126424616Y-94269171D01*
X126424615Y-94269170D01*
X126243666Y-94142468D01*
X126243658Y-94142464D01*
X126114811Y-94082382D01*
X126062371Y-94036210D01*
X126043219Y-93969017D01*
X126063435Y-93902135D01*
X126114811Y-93857618D01*
X126120802Y-93854824D01*
X126243662Y-93797534D01*
X126424620Y-93670826D01*
X126580826Y-93514620D01*
X126707534Y-93333662D01*
X126800894Y-93133450D01*
X126858070Y-92920068D01*
X126877323Y-92700000D01*
X126858070Y-92479932D01*
X126800894Y-92266550D01*
X126707534Y-92066339D01*
X126580826Y-91885380D01*
X126424620Y-91729174D01*
X126424616Y-91729171D01*
X126424615Y-91729170D01*
X126243666Y-91602468D01*
X126243658Y-91602464D01*
X126114811Y-91542382D01*
X126062371Y-91496210D01*
X126043219Y-91429017D01*
X126063435Y-91362135D01*
X126114811Y-91317618D01*
X126120802Y-91314824D01*
X126243662Y-91257534D01*
X126424620Y-91130826D01*
X126580826Y-90974620D01*
X126707534Y-90793662D01*
X126800894Y-90593450D01*
X126858070Y-90380068D01*
X126877323Y-90160000D01*
X126858070Y-89939932D01*
X126800894Y-89726550D01*
X126707534Y-89526339D01*
X126580826Y-89345380D01*
X126424620Y-89189174D01*
X126424616Y-89189171D01*
X126424615Y-89189170D01*
X126243666Y-89062468D01*
X126243658Y-89062464D01*
X126114811Y-89002382D01*
X126062371Y-88956210D01*
X126043219Y-88889017D01*
X126063435Y-88822135D01*
X126114811Y-88777618D01*
X126120802Y-88774824D01*
X126243662Y-88717534D01*
X126424620Y-88590826D01*
X126580826Y-88434620D01*
X126707534Y-88253662D01*
X126800894Y-88053450D01*
X126858070Y-87840068D01*
X126877323Y-87620000D01*
X126858070Y-87399932D01*
X126800894Y-87186550D01*
X126707534Y-86986339D01*
X126580826Y-86805380D01*
X126424620Y-86649174D01*
X126424616Y-86649171D01*
X126424615Y-86649170D01*
X126243666Y-86522468D01*
X126243658Y-86522464D01*
X126114811Y-86462382D01*
X126062371Y-86416210D01*
X126043219Y-86349017D01*
X126063435Y-86282135D01*
X126114811Y-86237618D01*
X126120802Y-86234824D01*
X126243662Y-86177534D01*
X126424620Y-86050826D01*
X126580826Y-85894620D01*
X126707534Y-85713662D01*
X126800894Y-85513450D01*
X126858070Y-85300068D01*
X126877323Y-85080000D01*
X126858070Y-84859932D01*
X126800894Y-84646550D01*
X126707534Y-84446339D01*
X126580826Y-84265380D01*
X126424620Y-84109174D01*
X126424616Y-84109171D01*
X126424615Y-84109170D01*
X126243666Y-83982468D01*
X126243658Y-83982464D01*
X126114811Y-83922382D01*
X126062371Y-83876210D01*
X126043219Y-83809017D01*
X126063435Y-83742135D01*
X126114811Y-83697618D01*
X126120802Y-83694824D01*
X126243662Y-83637534D01*
X126424620Y-83510826D01*
X126580826Y-83354620D01*
X126707534Y-83173662D01*
X126800894Y-82973450D01*
X126858070Y-82760068D01*
X126877323Y-82540000D01*
X126858070Y-82319932D01*
X126800894Y-82106550D01*
X126707534Y-81906339D01*
X126580826Y-81725380D01*
X126424620Y-81569174D01*
X126424616Y-81569171D01*
X126424615Y-81569170D01*
X126243666Y-81442468D01*
X126243658Y-81442464D01*
X126114811Y-81382382D01*
X126062371Y-81336210D01*
X126043219Y-81269017D01*
X126063435Y-81202135D01*
X126114811Y-81157618D01*
X126120802Y-81154824D01*
X126243662Y-81097534D01*
X126424620Y-80970826D01*
X126580826Y-80814620D01*
X126707534Y-80633662D01*
X126800894Y-80433450D01*
X126858070Y-80220068D01*
X126877323Y-80000000D01*
X126858070Y-79779932D01*
X126800894Y-79566550D01*
X126707534Y-79366339D01*
X126580826Y-79185380D01*
X126424620Y-79029174D01*
X126424616Y-79029171D01*
X126424615Y-79029170D01*
X126243666Y-78902468D01*
X126243662Y-78902466D01*
X126183688Y-78874500D01*
X126043450Y-78809106D01*
X126043447Y-78809105D01*
X126043445Y-78809104D01*
X125830070Y-78751930D01*
X125830062Y-78751929D01*
X125610002Y-78732677D01*
X125609998Y-78732677D01*
X125389937Y-78751929D01*
X125389929Y-78751930D01*
X125176554Y-78809104D01*
X125176548Y-78809107D01*
X124976340Y-78902465D01*
X124915622Y-78944980D01*
X124849416Y-78967307D01*
X124781649Y-78950295D01*
X124733836Y-78899347D01*
X124720500Y-78843404D01*
X124720500Y-74474499D01*
X124740185Y-74407460D01*
X124792989Y-74361705D01*
X124844500Y-74350499D01*
X125357871Y-74350499D01*
X125357872Y-74350499D01*
X125417483Y-74344091D01*
X125552331Y-74293796D01*
X125667546Y-74207546D01*
X125753796Y-74092331D01*
X125803002Y-73960401D01*
X125844872Y-73904468D01*
X125910337Y-73880050D01*
X125978610Y-73894901D01*
X126006865Y-73916053D01*
X126128917Y-74038105D01*
X126322421Y-74173600D01*
X126536507Y-74273429D01*
X126536516Y-74273433D01*
X126750000Y-74330634D01*
X126750000Y-73433012D01*
X126807007Y-73465925D01*
X126934174Y-73500000D01*
X127065826Y-73500000D01*
X127192993Y-73465925D01*
X127250000Y-73433012D01*
X127250000Y-74330634D01*
X127252554Y-74332594D01*
X127313341Y-74334040D01*
X127371204Y-74373202D01*
X127398709Y-74437430D01*
X127398619Y-74452815D01*
X127399499Y-74452815D01*
X127399499Y-74629046D01*
X127399500Y-74629059D01*
X127399500Y-74667587D01*
X127379815Y-74734626D01*
X127372450Y-74744896D01*
X127370186Y-74747734D01*
X127274211Y-74900476D01*
X127214631Y-75070745D01*
X127214630Y-75070750D01*
X127194435Y-75249996D01*
X127194435Y-75250000D01*
X127214630Y-75429249D01*
X127214631Y-75429254D01*
X127274211Y-75599523D01*
X127332943Y-75692993D01*
X127370184Y-75752262D01*
X127497738Y-75879816D01*
X127588080Y-75936582D01*
X127634779Y-75965925D01*
X127650478Y-75975789D01*
X127795913Y-76026679D01*
X127820745Y-76035368D01*
X127820750Y-76035369D01*
X127901587Y-76044477D01*
X127966001Y-76071543D01*
X128005556Y-76129138D01*
X128007694Y-76198975D01*
X127975385Y-76255378D01*
X127483903Y-76746860D01*
X127422580Y-76780345D01*
X127355268Y-76776221D01*
X127179257Y-76714632D01*
X127179249Y-76714630D01*
X127000004Y-76694435D01*
X126999996Y-76694435D01*
X126820750Y-76714630D01*
X126820745Y-76714631D01*
X126650476Y-76774211D01*
X126497737Y-76870184D01*
X126370184Y-76997737D01*
X126274211Y-77150476D01*
X126214631Y-77320745D01*
X126214630Y-77320750D01*
X126194435Y-77499996D01*
X126194435Y-77500003D01*
X126214630Y-77679249D01*
X126214631Y-77679254D01*
X126274211Y-77849523D01*
X126370184Y-78002262D01*
X126497738Y-78129816D01*
X126650478Y-78225789D01*
X126820745Y-78285368D01*
X126820750Y-78285369D01*
X126999996Y-78305565D01*
X127000000Y-78305565D01*
X127000004Y-78305565D01*
X127179249Y-78285369D01*
X127179252Y-78285368D01*
X127179255Y-78285368D01*
X127349522Y-78225789D01*
X127502262Y-78129816D01*
X127502266Y-78129811D01*
X127505097Y-78127555D01*
X127507275Y-78126665D01*
X127508158Y-78126111D01*
X127508255Y-78126265D01*
X127569784Y-78101146D01*
X127582411Y-78100501D01*
X127659054Y-78100501D01*
X127659057Y-78100501D01*
X127811785Y-78059577D01*
X127861904Y-78030639D01*
X127948716Y-77980520D01*
X128060520Y-77868716D01*
X128060520Y-77868714D01*
X128070728Y-77858507D01*
X128070730Y-77858504D01*
X131327098Y-74602135D01*
X142859500Y-74602135D01*
X142859500Y-76397870D01*
X142859501Y-76397876D01*
X142865908Y-76457483D01*
X142916202Y-76592328D01*
X142916206Y-76592335D01*
X143002452Y-76707544D01*
X143002455Y-76707547D01*
X143117664Y-76793793D01*
X143117671Y-76793797D01*
X143252517Y-76844091D01*
X143252516Y-76844091D01*
X143259444Y-76844835D01*
X143312127Y-76850500D01*
X145107872Y-76850499D01*
X145167483Y-76844091D01*
X145302331Y-76793796D01*
X145417546Y-76707546D01*
X145503796Y-76592331D01*
X145553002Y-76460401D01*
X145594872Y-76404468D01*
X145660337Y-76380050D01*
X145728610Y-76394901D01*
X145756865Y-76416053D01*
X145878917Y-76538105D01*
X146072421Y-76673600D01*
X146286507Y-76773429D01*
X146286516Y-76773433D01*
X146500000Y-76830634D01*
X146500000Y-75933012D01*
X146557007Y-75965925D01*
X146684174Y-76000000D01*
X146815826Y-76000000D01*
X146942993Y-75965925D01*
X147000000Y-75933012D01*
X147000000Y-76830633D01*
X147213483Y-76773433D01*
X147213492Y-76773429D01*
X147427578Y-76673600D01*
X147621082Y-76538105D01*
X147788105Y-76371082D01*
X147923600Y-76177578D01*
X148023429Y-75963492D01*
X148023432Y-75963486D01*
X148080636Y-75750000D01*
X147183012Y-75750000D01*
X147215925Y-75692993D01*
X147250000Y-75565826D01*
X147250000Y-75434174D01*
X147215925Y-75307007D01*
X147183012Y-75250000D01*
X148080636Y-75250000D01*
X148080635Y-75249999D01*
X148023432Y-75036513D01*
X148023429Y-75036507D01*
X147923600Y-74822422D01*
X147923599Y-74822420D01*
X147788113Y-74628926D01*
X147788108Y-74628920D01*
X147621082Y-74461894D01*
X147427578Y-74326399D01*
X147213492Y-74226570D01*
X147213486Y-74226567D01*
X147000000Y-74169364D01*
X147000000Y-75066988D01*
X146942993Y-75034075D01*
X146815826Y-75000000D01*
X146684174Y-75000000D01*
X146557007Y-75034075D01*
X146500000Y-75066988D01*
X146500000Y-74169364D01*
X146499999Y-74169364D01*
X146286513Y-74226567D01*
X146286507Y-74226570D01*
X146072422Y-74326399D01*
X146072420Y-74326400D01*
X145878926Y-74461886D01*
X145756865Y-74583947D01*
X145695542Y-74617431D01*
X145625850Y-74612447D01*
X145569917Y-74570575D01*
X145553002Y-74539598D01*
X145503797Y-74407671D01*
X145503793Y-74407664D01*
X145417547Y-74292455D01*
X145417544Y-74292452D01*
X145302335Y-74206206D01*
X145302328Y-74206202D01*
X145167482Y-74155908D01*
X145167483Y-74155908D01*
X145107883Y-74149501D01*
X145107881Y-74149500D01*
X145107873Y-74149500D01*
X145107864Y-74149500D01*
X143312129Y-74149500D01*
X143312123Y-74149501D01*
X143252516Y-74155908D01*
X143117671Y-74206202D01*
X143117664Y-74206206D01*
X143002455Y-74292452D01*
X143002452Y-74292455D01*
X142916206Y-74407664D01*
X142916202Y-74407671D01*
X142865908Y-74542517D01*
X142859501Y-74602116D01*
X142859500Y-74602135D01*
X131327098Y-74602135D01*
X131596470Y-74332763D01*
X131657791Y-74299280D01*
X131716238Y-74300670D01*
X131844592Y-74335063D01*
X132032918Y-74351539D01*
X132079999Y-74355659D01*
X132080000Y-74355659D01*
X132080001Y-74355659D01*
X132119234Y-74352226D01*
X132315408Y-74335063D01*
X132543663Y-74273903D01*
X132757830Y-74174035D01*
X132951401Y-74038495D01*
X133118495Y-73871401D01*
X133248425Y-73685842D01*
X133303002Y-73642217D01*
X133372500Y-73635023D01*
X133434855Y-73666546D01*
X133451575Y-73685842D01*
X133581500Y-73871395D01*
X133581505Y-73871401D01*
X133748599Y-74038495D01*
X133845384Y-74106265D01*
X133942165Y-74174032D01*
X133942167Y-74174033D01*
X133942170Y-74174035D01*
X134156337Y-74273903D01*
X134384592Y-74335063D01*
X134572918Y-74351539D01*
X134619999Y-74355659D01*
X134620000Y-74355659D01*
X134620001Y-74355659D01*
X134659234Y-74352226D01*
X134855408Y-74335063D01*
X135083663Y-74273903D01*
X135297830Y-74174035D01*
X135491401Y-74038495D01*
X135658495Y-73871401D01*
X135788425Y-73685842D01*
X135843002Y-73642217D01*
X135912500Y-73635023D01*
X135974855Y-73666546D01*
X135991575Y-73685842D01*
X136121500Y-73871395D01*
X136121505Y-73871401D01*
X136288599Y-74038495D01*
X136385384Y-74106265D01*
X136482165Y-74174032D01*
X136482167Y-74174033D01*
X136482170Y-74174035D01*
X136696337Y-74273903D01*
X136924592Y-74335063D01*
X137112918Y-74351539D01*
X137159999Y-74355659D01*
X137160000Y-74355659D01*
X137160001Y-74355659D01*
X137199234Y-74352226D01*
X137395408Y-74335063D01*
X137623663Y-74273903D01*
X137837830Y-74174035D01*
X138031401Y-74038495D01*
X138198495Y-73871401D01*
X138334035Y-73677830D01*
X138433903Y-73463663D01*
X138495063Y-73235408D01*
X138515659Y-73000000D01*
X138495063Y-72764592D01*
X138433903Y-72536337D01*
X138334035Y-72322171D01*
X138328731Y-72314595D01*
X138198494Y-72128597D01*
X138031402Y-71961506D01*
X138031395Y-71961501D01*
X137837834Y-71825967D01*
X137837830Y-71825965D01*
X137837828Y-71825964D01*
X137623663Y-71726097D01*
X137623659Y-71726096D01*
X137623655Y-71726094D01*
X137395413Y-71664938D01*
X137395403Y-71664936D01*
X137160001Y-71644341D01*
X137159999Y-71644341D01*
X136924596Y-71664936D01*
X136924586Y-71664938D01*
X136696344Y-71726094D01*
X136696335Y-71726098D01*
X136482171Y-71825964D01*
X136482169Y-71825965D01*
X136288597Y-71961505D01*
X136121505Y-72128597D01*
X135991575Y-72314158D01*
X135936998Y-72357783D01*
X135867500Y-72364977D01*
X135805145Y-72333454D01*
X135788425Y-72314158D01*
X135658494Y-72128597D01*
X135491402Y-71961506D01*
X135491395Y-71961501D01*
X135297834Y-71825967D01*
X135297830Y-71825965D01*
X135297828Y-71825964D01*
X135083663Y-71726097D01*
X135083659Y-71726096D01*
X135083655Y-71726094D01*
X134855413Y-71664938D01*
X134855403Y-71664936D01*
X134620001Y-71644341D01*
X134619999Y-71644341D01*
X134384596Y-71664936D01*
X134384586Y-71664938D01*
X134156344Y-71726094D01*
X134156335Y-71726098D01*
X133942171Y-71825964D01*
X133942169Y-71825965D01*
X133748597Y-71961505D01*
X133581505Y-72128597D01*
X133451575Y-72314158D01*
X133396998Y-72357783D01*
X133327500Y-72364977D01*
X133265145Y-72333454D01*
X133248425Y-72314158D01*
X133118494Y-72128597D01*
X132951402Y-71961506D01*
X132951395Y-71961501D01*
X132757834Y-71825967D01*
X132757830Y-71825965D01*
X132757828Y-71825964D01*
X132543663Y-71726097D01*
X132543659Y-71726096D01*
X132543655Y-71726094D01*
X132315413Y-71664938D01*
X132315403Y-71664936D01*
X132080001Y-71644341D01*
X132079999Y-71644341D01*
X131844596Y-71664936D01*
X131844586Y-71664938D01*
X131616344Y-71726094D01*
X131616335Y-71726098D01*
X131402171Y-71825964D01*
X131402169Y-71825965D01*
X131208597Y-71961505D01*
X131041505Y-72128597D01*
X130911575Y-72314158D01*
X130856998Y-72357783D01*
X130787500Y-72364977D01*
X130725145Y-72333454D01*
X130708425Y-72314158D01*
X130578494Y-72128597D01*
X130411402Y-71961506D01*
X130411395Y-71961501D01*
X130217834Y-71825967D01*
X130217830Y-71825965D01*
X130217828Y-71825964D01*
X130003663Y-71726097D01*
X130003659Y-71726096D01*
X130003655Y-71726094D01*
X129775413Y-71664938D01*
X129775403Y-71664936D01*
X129540001Y-71644341D01*
X129539999Y-71644341D01*
X129304596Y-71664936D01*
X129304586Y-71664938D01*
X129076344Y-71726094D01*
X129076335Y-71726098D01*
X128862171Y-71825964D01*
X128862169Y-71825965D01*
X128668597Y-71961505D01*
X128501508Y-72128594D01*
X128371269Y-72314595D01*
X128316692Y-72358219D01*
X128247193Y-72365412D01*
X128184839Y-72333890D01*
X128168119Y-72314594D01*
X128038113Y-72128926D01*
X128038108Y-72128920D01*
X127871082Y-71961894D01*
X127677578Y-71826399D01*
X127463492Y-71726570D01*
X127463486Y-71726567D01*
X127250000Y-71669364D01*
X127250000Y-72566988D01*
X127192993Y-72534075D01*
X127065826Y-72500000D01*
X126934174Y-72500000D01*
X126807007Y-72534075D01*
X126750000Y-72566988D01*
X126750000Y-71669364D01*
X126749999Y-71669364D01*
X126536513Y-71726567D01*
X126536507Y-71726570D01*
X126322422Y-71826399D01*
X126322420Y-71826400D01*
X126128926Y-71961886D01*
X126006865Y-72083947D01*
X125945542Y-72117431D01*
X125875850Y-72112447D01*
X125819917Y-72070575D01*
X125803002Y-72039598D01*
X125753797Y-71907671D01*
X125753793Y-71907664D01*
X125667547Y-71792455D01*
X125667544Y-71792452D01*
X125552335Y-71706206D01*
X125552328Y-71706202D01*
X125417482Y-71655908D01*
X125417483Y-71655908D01*
X125357883Y-71649501D01*
X125357881Y-71649500D01*
X125357873Y-71649500D01*
X125357864Y-71649500D01*
X123562129Y-71649500D01*
X123562123Y-71649501D01*
X123502516Y-71655908D01*
X123367671Y-71706202D01*
X123367664Y-71706206D01*
X123252455Y-71792452D01*
X123252452Y-71792455D01*
X123166206Y-71907664D01*
X123166202Y-71907671D01*
X123115908Y-72042517D01*
X123109501Y-72102116D01*
X123109500Y-72102135D01*
X123109500Y-73897870D01*
X123109501Y-73897872D01*
X123115909Y-73957483D01*
X123115910Y-73957485D01*
X123116177Y-73958615D01*
X123119500Y-73987130D01*
X123119500Y-81447060D01*
X123099815Y-81514099D01*
X123083181Y-81534741D01*
X114489711Y-90128211D01*
X114457925Y-90159997D01*
X114378209Y-90239712D01*
X114290609Y-90370814D01*
X114290602Y-90370827D01*
X114230264Y-90516498D01*
X114230261Y-90516510D01*
X114199500Y-90671153D01*
X114199500Y-94448085D01*
X114198720Y-94461969D01*
X114194435Y-94499998D01*
X103773074Y-94499998D01*
X103720826Y-94425380D01*
X103564620Y-94269174D01*
X103564616Y-94269171D01*
X103564615Y-94269170D01*
X103383666Y-94142468D01*
X103383658Y-94142464D01*
X103254811Y-94082382D01*
X103202371Y-94036210D01*
X103183219Y-93969017D01*
X103203435Y-93902135D01*
X103254811Y-93857618D01*
X103260802Y-93854824D01*
X103383662Y-93797534D01*
X103564620Y-93670826D01*
X103720826Y-93514620D01*
X103847534Y-93333662D01*
X103940894Y-93133450D01*
X103998070Y-92920068D01*
X104017323Y-92700000D01*
X103998070Y-92479932D01*
X103940894Y-92266550D01*
X103847534Y-92066339D01*
X103720826Y-91885380D01*
X103564620Y-91729174D01*
X103564616Y-91729171D01*
X103564615Y-91729170D01*
X103383666Y-91602468D01*
X103383658Y-91602464D01*
X103254811Y-91542382D01*
X103202371Y-91496210D01*
X103183219Y-91429017D01*
X103203435Y-91362135D01*
X103254811Y-91317618D01*
X103260802Y-91314824D01*
X103383662Y-91257534D01*
X103564620Y-91130826D01*
X103720826Y-90974620D01*
X103847534Y-90793662D01*
X103940894Y-90593450D01*
X103998070Y-90380068D01*
X104017323Y-90160000D01*
X103998070Y-89939932D01*
X103940894Y-89726550D01*
X103847534Y-89526339D01*
X103720826Y-89345380D01*
X103564620Y-89189174D01*
X103564616Y-89189171D01*
X103564615Y-89189170D01*
X103383666Y-89062468D01*
X103383658Y-89062464D01*
X103254811Y-89002382D01*
X103202371Y-88956210D01*
X103183219Y-88889017D01*
X103203435Y-88822135D01*
X103254811Y-88777618D01*
X103260802Y-88774824D01*
X103383662Y-88717534D01*
X103564620Y-88590826D01*
X103720826Y-88434620D01*
X103847534Y-88253662D01*
X103940894Y-88053450D01*
X103998070Y-87840068D01*
X104017323Y-87620000D01*
X103998070Y-87399932D01*
X103940894Y-87186550D01*
X103847534Y-86986339D01*
X103720826Y-86805380D01*
X103564620Y-86649174D01*
X103564616Y-86649171D01*
X103564615Y-86649170D01*
X103383666Y-86522468D01*
X103383658Y-86522464D01*
X103254811Y-86462382D01*
X103202371Y-86416210D01*
X103183219Y-86349017D01*
X103203435Y-86282135D01*
X103254811Y-86237618D01*
X103260802Y-86234824D01*
X103383662Y-86177534D01*
X103564620Y-86050826D01*
X103720826Y-85894620D01*
X103847534Y-85713662D01*
X103940894Y-85513450D01*
X103998070Y-85300068D01*
X104017323Y-85080000D01*
X103998070Y-84859932D01*
X103940894Y-84646550D01*
X103847534Y-84446339D01*
X103720826Y-84265380D01*
X103564620Y-84109174D01*
X103564616Y-84109171D01*
X103564615Y-84109170D01*
X103383666Y-83982468D01*
X103383658Y-83982464D01*
X103254811Y-83922382D01*
X103202371Y-83876210D01*
X103183219Y-83809017D01*
X103203435Y-83742135D01*
X103254811Y-83697618D01*
X103260802Y-83694824D01*
X103383662Y-83637534D01*
X103564620Y-83510826D01*
X103720826Y-83354620D01*
X103847534Y-83173662D01*
X103940894Y-82973450D01*
X103998070Y-82760068D01*
X104017323Y-82540000D01*
X103998070Y-82319932D01*
X103940894Y-82106550D01*
X103847534Y-81906339D01*
X103720826Y-81725380D01*
X103564620Y-81569174D01*
X103564616Y-81569171D01*
X103564615Y-81569170D01*
X103383666Y-81442468D01*
X103383658Y-81442464D01*
X103254811Y-81382382D01*
X103202371Y-81336210D01*
X103183219Y-81269017D01*
X103203435Y-81202135D01*
X103254811Y-81157618D01*
X103260802Y-81154824D01*
X103383662Y-81097534D01*
X103564620Y-80970826D01*
X103720826Y-80814620D01*
X103847534Y-80633662D01*
X103940894Y-80433450D01*
X103998070Y-80220068D01*
X104017323Y-80000000D01*
X103998070Y-79779932D01*
X103940894Y-79566550D01*
X103847534Y-79366339D01*
X103720826Y-79185380D01*
X103564620Y-79029174D01*
X103564616Y-79029171D01*
X103564615Y-79029170D01*
X103488787Y-78976075D01*
X103445162Y-78921498D01*
X103437968Y-78852000D01*
X103469491Y-78789645D01*
X103529721Y-78754231D01*
X103559910Y-78750500D01*
X122065890Y-78750500D01*
X122065892Y-78750500D01*
X122193186Y-78716392D01*
X122307314Y-78650500D01*
X122400500Y-78557314D01*
X122466392Y-78443186D01*
X122500500Y-78315892D01*
X122500500Y-71374500D01*
X122520185Y-71307461D01*
X122572989Y-71261706D01*
X122624500Y-71250500D01*
X151375500Y-71250500D01*
X151442539Y-71270185D01*
G37*
%TD.AperFunction*%
%TD*%
M02*
