%TF.GenerationSoftware,KiCad,Pcbnew,8.0.8*%
%TF.CreationDate,2025-07-12T12:46:27+02:00*%
%TF.ProjectId,lora_sensor_case-sensor_top,6c6f7261-5f73-4656-9e73-6f725f636173,rev?*%
%TF.SameCoordinates,Original*%
%TF.FileFunction,Legend,Top*%
%TF.FilePolarity,Positive*%
%FSLAX46Y46*%
G04 Gerber Fmt 4.6, Leading zero omitted, Abs format (unit mm)*
G04 Created by KiCad (PCBNEW 8.0.8) date 2025-07-12 12:46:27*
%MOMM*%
%LPD*%
G01*
G04 APERTURE LIST*
%ADD10C,0.150000*%
%ADD11C,0.100000*%
%ADD12C,0.125000*%
%ADD13C,0.300000*%
%ADD14C,0.120000*%
G04 APERTURE END LIST*
D10*
X117658207Y-150119819D02*
X117324874Y-149643628D01*
X117086779Y-150119819D02*
X117086779Y-149119819D01*
X117086779Y-149119819D02*
X117467731Y-149119819D01*
X117467731Y-149119819D02*
X117562969Y-149167438D01*
X117562969Y-149167438D02*
X117610588Y-149215057D01*
X117610588Y-149215057D02*
X117658207Y-149310295D01*
X117658207Y-149310295D02*
X117658207Y-149453152D01*
X117658207Y-149453152D02*
X117610588Y-149548390D01*
X117610588Y-149548390D02*
X117562969Y-149596009D01*
X117562969Y-149596009D02*
X117467731Y-149643628D01*
X117467731Y-149643628D02*
X117086779Y-149643628D01*
X117991541Y-149119819D02*
X118658207Y-150119819D01*
X118658207Y-149119819D02*
X117991541Y-150119819D01*
X107110588Y-154667438D02*
X107015350Y-154619819D01*
X107015350Y-154619819D02*
X106872493Y-154619819D01*
X106872493Y-154619819D02*
X106729636Y-154667438D01*
X106729636Y-154667438D02*
X106634398Y-154762676D01*
X106634398Y-154762676D02*
X106586779Y-154857914D01*
X106586779Y-154857914D02*
X106539160Y-155048390D01*
X106539160Y-155048390D02*
X106539160Y-155191247D01*
X106539160Y-155191247D02*
X106586779Y-155381723D01*
X106586779Y-155381723D02*
X106634398Y-155476961D01*
X106634398Y-155476961D02*
X106729636Y-155572200D01*
X106729636Y-155572200D02*
X106872493Y-155619819D01*
X106872493Y-155619819D02*
X106967731Y-155619819D01*
X106967731Y-155619819D02*
X107110588Y-155572200D01*
X107110588Y-155572200D02*
X107158207Y-155524580D01*
X107158207Y-155524580D02*
X107158207Y-155191247D01*
X107158207Y-155191247D02*
X106967731Y-155191247D01*
X107586779Y-155619819D02*
X107586779Y-154619819D01*
X107586779Y-154619819D02*
X108158207Y-155619819D01*
X108158207Y-155619819D02*
X108158207Y-154619819D01*
X108634398Y-155619819D02*
X108634398Y-154619819D01*
X108634398Y-154619819D02*
X108872493Y-154619819D01*
X108872493Y-154619819D02*
X109015350Y-154667438D01*
X109015350Y-154667438D02*
X109110588Y-154762676D01*
X109110588Y-154762676D02*
X109158207Y-154857914D01*
X109158207Y-154857914D02*
X109205826Y-155048390D01*
X109205826Y-155048390D02*
X109205826Y-155191247D01*
X109205826Y-155191247D02*
X109158207Y-155381723D01*
X109158207Y-155381723D02*
X109110588Y-155476961D01*
X109110588Y-155476961D02*
X109015350Y-155572200D01*
X109015350Y-155572200D02*
X108872493Y-155619819D01*
X108872493Y-155619819D02*
X108634398Y-155619819D01*
D11*
X130137217Y-76098609D02*
X130280074Y-76146228D01*
X130280074Y-76146228D02*
X130327693Y-76193847D01*
X130327693Y-76193847D02*
X130375312Y-76289085D01*
X130375312Y-76289085D02*
X130375312Y-76431942D01*
X130375312Y-76431942D02*
X130327693Y-76527180D01*
X130327693Y-76527180D02*
X130280074Y-76574800D01*
X130280074Y-76574800D02*
X130184836Y-76622419D01*
X130184836Y-76622419D02*
X129803884Y-76622419D01*
X129803884Y-76622419D02*
X129803884Y-75622419D01*
X129803884Y-75622419D02*
X130137217Y-75622419D01*
X130137217Y-75622419D02*
X130232455Y-75670038D01*
X130232455Y-75670038D02*
X130280074Y-75717657D01*
X130280074Y-75717657D02*
X130327693Y-75812895D01*
X130327693Y-75812895D02*
X130327693Y-75908133D01*
X130327693Y-75908133D02*
X130280074Y-76003371D01*
X130280074Y-76003371D02*
X130232455Y-76050990D01*
X130232455Y-76050990D02*
X130137217Y-76098609D01*
X130137217Y-76098609D02*
X129803884Y-76098609D01*
X130803884Y-76622419D02*
X130803884Y-75622419D01*
X130803884Y-75622419D02*
X131137217Y-76336704D01*
X131137217Y-76336704D02*
X131470550Y-75622419D01*
X131470550Y-75622419D02*
X131470550Y-76622419D01*
X131946741Y-76098609D02*
X132280074Y-76098609D01*
X132422931Y-76622419D02*
X131946741Y-76622419D01*
X131946741Y-76622419D02*
X131946741Y-75622419D01*
X131946741Y-75622419D02*
X132422931Y-75622419D01*
X132803884Y-75717657D02*
X132851503Y-75670038D01*
X132851503Y-75670038D02*
X132946741Y-75622419D01*
X132946741Y-75622419D02*
X133184836Y-75622419D01*
X133184836Y-75622419D02*
X133280074Y-75670038D01*
X133280074Y-75670038D02*
X133327693Y-75717657D01*
X133327693Y-75717657D02*
X133375312Y-75812895D01*
X133375312Y-75812895D02*
X133375312Y-75908133D01*
X133375312Y-75908133D02*
X133327693Y-76050990D01*
X133327693Y-76050990D02*
X132756265Y-76622419D01*
X132756265Y-76622419D02*
X133375312Y-76622419D01*
X133946741Y-76050990D02*
X133851503Y-76003371D01*
X133851503Y-76003371D02*
X133803884Y-75955752D01*
X133803884Y-75955752D02*
X133756265Y-75860514D01*
X133756265Y-75860514D02*
X133756265Y-75812895D01*
X133756265Y-75812895D02*
X133803884Y-75717657D01*
X133803884Y-75717657D02*
X133851503Y-75670038D01*
X133851503Y-75670038D02*
X133946741Y-75622419D01*
X133946741Y-75622419D02*
X134137217Y-75622419D01*
X134137217Y-75622419D02*
X134232455Y-75670038D01*
X134232455Y-75670038D02*
X134280074Y-75717657D01*
X134280074Y-75717657D02*
X134327693Y-75812895D01*
X134327693Y-75812895D02*
X134327693Y-75860514D01*
X134327693Y-75860514D02*
X134280074Y-75955752D01*
X134280074Y-75955752D02*
X134232455Y-76003371D01*
X134232455Y-76003371D02*
X134137217Y-76050990D01*
X134137217Y-76050990D02*
X133946741Y-76050990D01*
X133946741Y-76050990D02*
X133851503Y-76098609D01*
X133851503Y-76098609D02*
X133803884Y-76146228D01*
X133803884Y-76146228D02*
X133756265Y-76241466D01*
X133756265Y-76241466D02*
X133756265Y-76431942D01*
X133756265Y-76431942D02*
X133803884Y-76527180D01*
X133803884Y-76527180D02*
X133851503Y-76574800D01*
X133851503Y-76574800D02*
X133946741Y-76622419D01*
X133946741Y-76622419D02*
X134137217Y-76622419D01*
X134137217Y-76622419D02*
X134232455Y-76574800D01*
X134232455Y-76574800D02*
X134280074Y-76527180D01*
X134280074Y-76527180D02*
X134327693Y-76431942D01*
X134327693Y-76431942D02*
X134327693Y-76241466D01*
X134327693Y-76241466D02*
X134280074Y-76146228D01*
X134280074Y-76146228D02*
X134232455Y-76098609D01*
X134232455Y-76098609D02*
X134137217Y-76050990D01*
X134946741Y-75622419D02*
X135041979Y-75622419D01*
X135041979Y-75622419D02*
X135137217Y-75670038D01*
X135137217Y-75670038D02*
X135184836Y-75717657D01*
X135184836Y-75717657D02*
X135232455Y-75812895D01*
X135232455Y-75812895D02*
X135280074Y-76003371D01*
X135280074Y-76003371D02*
X135280074Y-76241466D01*
X135280074Y-76241466D02*
X135232455Y-76431942D01*
X135232455Y-76431942D02*
X135184836Y-76527180D01*
X135184836Y-76527180D02*
X135137217Y-76574800D01*
X135137217Y-76574800D02*
X135041979Y-76622419D01*
X135041979Y-76622419D02*
X134946741Y-76622419D01*
X134946741Y-76622419D02*
X134851503Y-76574800D01*
X134851503Y-76574800D02*
X134803884Y-76527180D01*
X134803884Y-76527180D02*
X134756265Y-76431942D01*
X134756265Y-76431942D02*
X134708646Y-76241466D01*
X134708646Y-76241466D02*
X134708646Y-76003371D01*
X134708646Y-76003371D02*
X134756265Y-75812895D01*
X134756265Y-75812895D02*
X134803884Y-75717657D01*
X134803884Y-75717657D02*
X134851503Y-75670038D01*
X134851503Y-75670038D02*
X134946741Y-75622419D01*
D12*
X148832236Y-72454452D02*
X148070331Y-72740166D01*
X148070331Y-72740166D02*
X148832236Y-73025880D01*
X149736997Y-72121119D02*
X149546521Y-72121119D01*
X149546521Y-72121119D02*
X149451283Y-72168738D01*
X149451283Y-72168738D02*
X149403664Y-72216357D01*
X149403664Y-72216357D02*
X149308426Y-72359214D01*
X149308426Y-72359214D02*
X149260807Y-72549690D01*
X149260807Y-72549690D02*
X149260807Y-72930642D01*
X149260807Y-72930642D02*
X149308426Y-73025880D01*
X149308426Y-73025880D02*
X149356045Y-73073500D01*
X149356045Y-73073500D02*
X149451283Y-73121119D01*
X149451283Y-73121119D02*
X149641759Y-73121119D01*
X149641759Y-73121119D02*
X149736997Y-73073500D01*
X149736997Y-73073500D02*
X149784616Y-73025880D01*
X149784616Y-73025880D02*
X149832235Y-72930642D01*
X149832235Y-72930642D02*
X149832235Y-72692547D01*
X149832235Y-72692547D02*
X149784616Y-72597309D01*
X149784616Y-72597309D02*
X149736997Y-72549690D01*
X149736997Y-72549690D02*
X149641759Y-72502071D01*
X149641759Y-72502071D02*
X149451283Y-72502071D01*
X149451283Y-72502071D02*
X149356045Y-72549690D01*
X149356045Y-72549690D02*
X149308426Y-72597309D01*
X149308426Y-72597309D02*
X149260807Y-72692547D01*
X150117950Y-72121119D02*
X150451283Y-73121119D01*
X150451283Y-73121119D02*
X150784616Y-72121119D01*
D11*
X123803884Y-149491466D02*
X124565789Y-149491466D01*
X124184836Y-149872419D02*
X124184836Y-149110514D01*
D10*
X116958922Y-146619819D02*
X117530350Y-146619819D01*
X117244636Y-147619819D02*
X117244636Y-146619819D01*
X117768446Y-146619819D02*
X118435112Y-147619819D01*
X118435112Y-146619819D02*
X117768446Y-147619819D01*
X117562969Y-151869819D02*
X117086779Y-151869819D01*
X117086779Y-151869819D02*
X117039160Y-152346009D01*
X117039160Y-152346009D02*
X117086779Y-152298390D01*
X117086779Y-152298390D02*
X117182017Y-152250771D01*
X117182017Y-152250771D02*
X117420112Y-152250771D01*
X117420112Y-152250771D02*
X117515350Y-152298390D01*
X117515350Y-152298390D02*
X117562969Y-152346009D01*
X117562969Y-152346009D02*
X117610588Y-152441247D01*
X117610588Y-152441247D02*
X117610588Y-152679342D01*
X117610588Y-152679342D02*
X117562969Y-152774580D01*
X117562969Y-152774580D02*
X117515350Y-152822200D01*
X117515350Y-152822200D02*
X117420112Y-152869819D01*
X117420112Y-152869819D02*
X117182017Y-152869819D01*
X117182017Y-152869819D02*
X117086779Y-152822200D01*
X117086779Y-152822200D02*
X117039160Y-152774580D01*
X117896303Y-151869819D02*
X118229636Y-152869819D01*
X118229636Y-152869819D02*
X118562969Y-151869819D01*
D13*
X146554510Y-78229400D02*
X147697368Y-78229400D01*
X143554510Y-78229400D02*
X144697368Y-78229400D01*
X144125939Y-78800828D02*
X144125939Y-77657971D01*
D10*
X106741541Y-151869819D02*
X107360588Y-151869819D01*
X107360588Y-151869819D02*
X107027255Y-152250771D01*
X107027255Y-152250771D02*
X107170112Y-152250771D01*
X107170112Y-152250771D02*
X107265350Y-152298390D01*
X107265350Y-152298390D02*
X107312969Y-152346009D01*
X107312969Y-152346009D02*
X107360588Y-152441247D01*
X107360588Y-152441247D02*
X107360588Y-152679342D01*
X107360588Y-152679342D02*
X107312969Y-152774580D01*
X107312969Y-152774580D02*
X107265350Y-152822200D01*
X107265350Y-152822200D02*
X107170112Y-152869819D01*
X107170112Y-152869819D02*
X106884398Y-152869819D01*
X106884398Y-152869819D02*
X106789160Y-152822200D01*
X106789160Y-152822200D02*
X106741541Y-152774580D01*
X107646303Y-151869819D02*
X107979636Y-152869819D01*
X107979636Y-152869819D02*
X108312969Y-151869819D01*
X108551065Y-151869819D02*
X109170112Y-151869819D01*
X109170112Y-151869819D02*
X108836779Y-152250771D01*
X108836779Y-152250771D02*
X108979636Y-152250771D01*
X108979636Y-152250771D02*
X109074874Y-152298390D01*
X109074874Y-152298390D02*
X109122493Y-152346009D01*
X109122493Y-152346009D02*
X109170112Y-152441247D01*
X109170112Y-152441247D02*
X109170112Y-152679342D01*
X109170112Y-152679342D02*
X109122493Y-152774580D01*
X109122493Y-152774580D02*
X109074874Y-152822200D01*
X109074874Y-152822200D02*
X108979636Y-152869819D01*
X108979636Y-152869819D02*
X108693922Y-152869819D01*
X108693922Y-152869819D02*
X108598684Y-152822200D01*
X108598684Y-152822200D02*
X108551065Y-152774580D01*
X117610588Y-154417438D02*
X117515350Y-154369819D01*
X117515350Y-154369819D02*
X117372493Y-154369819D01*
X117372493Y-154369819D02*
X117229636Y-154417438D01*
X117229636Y-154417438D02*
X117134398Y-154512676D01*
X117134398Y-154512676D02*
X117086779Y-154607914D01*
X117086779Y-154607914D02*
X117039160Y-154798390D01*
X117039160Y-154798390D02*
X117039160Y-154941247D01*
X117039160Y-154941247D02*
X117086779Y-155131723D01*
X117086779Y-155131723D02*
X117134398Y-155226961D01*
X117134398Y-155226961D02*
X117229636Y-155322200D01*
X117229636Y-155322200D02*
X117372493Y-155369819D01*
X117372493Y-155369819D02*
X117467731Y-155369819D01*
X117467731Y-155369819D02*
X117610588Y-155322200D01*
X117610588Y-155322200D02*
X117658207Y-155274580D01*
X117658207Y-155274580D02*
X117658207Y-154941247D01*
X117658207Y-154941247D02*
X117467731Y-154941247D01*
X118086779Y-155369819D02*
X118086779Y-154369819D01*
X118086779Y-154369819D02*
X118658207Y-155369819D01*
X118658207Y-155369819D02*
X118658207Y-154369819D01*
X119134398Y-155369819D02*
X119134398Y-154369819D01*
X119134398Y-154369819D02*
X119372493Y-154369819D01*
X119372493Y-154369819D02*
X119515350Y-154417438D01*
X119515350Y-154417438D02*
X119610588Y-154512676D01*
X119610588Y-154512676D02*
X119658207Y-154607914D01*
X119658207Y-154607914D02*
X119705826Y-154798390D01*
X119705826Y-154798390D02*
X119705826Y-154941247D01*
X119705826Y-154941247D02*
X119658207Y-155131723D01*
X119658207Y-155131723D02*
X119610588Y-155226961D01*
X119610588Y-155226961D02*
X119515350Y-155322200D01*
X119515350Y-155322200D02*
X119372493Y-155369819D01*
X119372493Y-155369819D02*
X119134398Y-155369819D01*
D12*
X139570331Y-72597309D02*
X139903664Y-72597309D01*
X140046521Y-73121119D02*
X139570331Y-73121119D01*
X139570331Y-73121119D02*
X139570331Y-72121119D01*
X139570331Y-72121119D02*
X140046521Y-72121119D01*
X140379855Y-73121119D02*
X140903664Y-72454452D01*
X140379855Y-72454452D02*
X140903664Y-73121119D01*
X141141760Y-72454452D02*
X141522712Y-72454452D01*
X141284617Y-72121119D02*
X141284617Y-72978261D01*
X141284617Y-72978261D02*
X141332236Y-73073500D01*
X141332236Y-73073500D02*
X141427474Y-73121119D01*
X141427474Y-73121119D02*
X141522712Y-73121119D01*
X141856046Y-73025880D02*
X141903665Y-73073500D01*
X141903665Y-73073500D02*
X141856046Y-73121119D01*
X141856046Y-73121119D02*
X141808427Y-73073500D01*
X141808427Y-73073500D02*
X141856046Y-73025880D01*
X141856046Y-73025880D02*
X141856046Y-73121119D01*
X143094141Y-73121119D02*
X143094141Y-72121119D01*
X143094141Y-72121119D02*
X143475093Y-72121119D01*
X143475093Y-72121119D02*
X143570331Y-72168738D01*
X143570331Y-72168738D02*
X143617950Y-72216357D01*
X143617950Y-72216357D02*
X143665569Y-72311595D01*
X143665569Y-72311595D02*
X143665569Y-72454452D01*
X143665569Y-72454452D02*
X143617950Y-72549690D01*
X143617950Y-72549690D02*
X143570331Y-72597309D01*
X143570331Y-72597309D02*
X143475093Y-72644928D01*
X143475093Y-72644928D02*
X143094141Y-72644928D01*
X144236998Y-73121119D02*
X144141760Y-73073500D01*
X144141760Y-73073500D02*
X144094141Y-73025880D01*
X144094141Y-73025880D02*
X144046522Y-72930642D01*
X144046522Y-72930642D02*
X144046522Y-72644928D01*
X144046522Y-72644928D02*
X144094141Y-72549690D01*
X144094141Y-72549690D02*
X144141760Y-72502071D01*
X144141760Y-72502071D02*
X144236998Y-72454452D01*
X144236998Y-72454452D02*
X144379855Y-72454452D01*
X144379855Y-72454452D02*
X144475093Y-72502071D01*
X144475093Y-72502071D02*
X144522712Y-72549690D01*
X144522712Y-72549690D02*
X144570331Y-72644928D01*
X144570331Y-72644928D02*
X144570331Y-72930642D01*
X144570331Y-72930642D02*
X144522712Y-73025880D01*
X144522712Y-73025880D02*
X144475093Y-73073500D01*
X144475093Y-73073500D02*
X144379855Y-73121119D01*
X144379855Y-73121119D02*
X144236998Y-73121119D01*
X144903665Y-72454452D02*
X145094141Y-73121119D01*
X145094141Y-73121119D02*
X145284617Y-72644928D01*
X145284617Y-72644928D02*
X145475093Y-73121119D01*
X145475093Y-73121119D02*
X145665569Y-72454452D01*
X146427474Y-73073500D02*
X146332236Y-73121119D01*
X146332236Y-73121119D02*
X146141760Y-73121119D01*
X146141760Y-73121119D02*
X146046522Y-73073500D01*
X146046522Y-73073500D02*
X145998903Y-72978261D01*
X145998903Y-72978261D02*
X145998903Y-72597309D01*
X145998903Y-72597309D02*
X146046522Y-72502071D01*
X146046522Y-72502071D02*
X146141760Y-72454452D01*
X146141760Y-72454452D02*
X146332236Y-72454452D01*
X146332236Y-72454452D02*
X146427474Y-72502071D01*
X146427474Y-72502071D02*
X146475093Y-72597309D01*
X146475093Y-72597309D02*
X146475093Y-72692547D01*
X146475093Y-72692547D02*
X145998903Y-72787785D01*
X146903665Y-73121119D02*
X146903665Y-72454452D01*
X146903665Y-72644928D02*
X146951284Y-72549690D01*
X146951284Y-72549690D02*
X146998903Y-72502071D01*
X146998903Y-72502071D02*
X147094141Y-72454452D01*
X147094141Y-72454452D02*
X147189379Y-72454452D01*
D11*
X126553884Y-149491466D02*
X127315789Y-149491466D01*
D10*
X104110588Y-149417438D02*
X104015350Y-149369819D01*
X104015350Y-149369819D02*
X103872493Y-149369819D01*
X103872493Y-149369819D02*
X103729636Y-149417438D01*
X103729636Y-149417438D02*
X103634398Y-149512676D01*
X103634398Y-149512676D02*
X103586779Y-149607914D01*
X103586779Y-149607914D02*
X103539160Y-149798390D01*
X103539160Y-149798390D02*
X103539160Y-149941247D01*
X103539160Y-149941247D02*
X103586779Y-150131723D01*
X103586779Y-150131723D02*
X103634398Y-150226961D01*
X103634398Y-150226961D02*
X103729636Y-150322200D01*
X103729636Y-150322200D02*
X103872493Y-150369819D01*
X103872493Y-150369819D02*
X103967731Y-150369819D01*
X103967731Y-150369819D02*
X104110588Y-150322200D01*
X104110588Y-150322200D02*
X104158207Y-150274580D01*
X104158207Y-150274580D02*
X104158207Y-149941247D01*
X104158207Y-149941247D02*
X103967731Y-149941247D01*
X104586779Y-150369819D02*
X104586779Y-149369819D01*
X104586779Y-149369819D02*
X104967731Y-149369819D01*
X104967731Y-149369819D02*
X105062969Y-149417438D01*
X105062969Y-149417438D02*
X105110588Y-149465057D01*
X105110588Y-149465057D02*
X105158207Y-149560295D01*
X105158207Y-149560295D02*
X105158207Y-149703152D01*
X105158207Y-149703152D02*
X105110588Y-149798390D01*
X105110588Y-149798390D02*
X105062969Y-149846009D01*
X105062969Y-149846009D02*
X104967731Y-149893628D01*
X104967731Y-149893628D02*
X104586779Y-149893628D01*
X105586779Y-150369819D02*
X105586779Y-149369819D01*
X106253445Y-149369819D02*
X106443921Y-149369819D01*
X106443921Y-149369819D02*
X106539159Y-149417438D01*
X106539159Y-149417438D02*
X106634397Y-149512676D01*
X106634397Y-149512676D02*
X106682016Y-149703152D01*
X106682016Y-149703152D02*
X106682016Y-150036485D01*
X106682016Y-150036485D02*
X106634397Y-150226961D01*
X106634397Y-150226961D02*
X106539159Y-150322200D01*
X106539159Y-150322200D02*
X106443921Y-150369819D01*
X106443921Y-150369819D02*
X106253445Y-150369819D01*
X106253445Y-150369819D02*
X106158207Y-150322200D01*
X106158207Y-150322200D02*
X106062969Y-150226961D01*
X106062969Y-150226961D02*
X106015350Y-150036485D01*
X106015350Y-150036485D02*
X106015350Y-149703152D01*
X106015350Y-149703152D02*
X106062969Y-149512676D01*
X106062969Y-149512676D02*
X106158207Y-149417438D01*
X106158207Y-149417438D02*
X106253445Y-149369819D01*
X107777255Y-149369819D02*
X108396302Y-149369819D01*
X108396302Y-149369819D02*
X108062969Y-149750771D01*
X108062969Y-149750771D02*
X108205826Y-149750771D01*
X108205826Y-149750771D02*
X108301064Y-149798390D01*
X108301064Y-149798390D02*
X108348683Y-149846009D01*
X108348683Y-149846009D02*
X108396302Y-149941247D01*
X108396302Y-149941247D02*
X108396302Y-150179342D01*
X108396302Y-150179342D02*
X108348683Y-150274580D01*
X108348683Y-150274580D02*
X108301064Y-150322200D01*
X108301064Y-150322200D02*
X108205826Y-150369819D01*
X108205826Y-150369819D02*
X107920112Y-150369819D01*
X107920112Y-150369819D02*
X107824874Y-150322200D01*
X107824874Y-150322200D02*
X107777255Y-150274580D01*
X108729636Y-149369819D02*
X109348683Y-149369819D01*
X109348683Y-149369819D02*
X109015350Y-149750771D01*
X109015350Y-149750771D02*
X109158207Y-149750771D01*
X109158207Y-149750771D02*
X109253445Y-149798390D01*
X109253445Y-149798390D02*
X109301064Y-149846009D01*
X109301064Y-149846009D02*
X109348683Y-149941247D01*
X109348683Y-149941247D02*
X109348683Y-150179342D01*
X109348683Y-150179342D02*
X109301064Y-150274580D01*
X109301064Y-150274580D02*
X109253445Y-150322200D01*
X109253445Y-150322200D02*
X109158207Y-150369819D01*
X109158207Y-150369819D02*
X108872493Y-150369819D01*
X108872493Y-150369819D02*
X108777255Y-150322200D01*
X108777255Y-150322200D02*
X108729636Y-150274580D01*
X104110588Y-146917438D02*
X104015350Y-146869819D01*
X104015350Y-146869819D02*
X103872493Y-146869819D01*
X103872493Y-146869819D02*
X103729636Y-146917438D01*
X103729636Y-146917438D02*
X103634398Y-147012676D01*
X103634398Y-147012676D02*
X103586779Y-147107914D01*
X103586779Y-147107914D02*
X103539160Y-147298390D01*
X103539160Y-147298390D02*
X103539160Y-147441247D01*
X103539160Y-147441247D02*
X103586779Y-147631723D01*
X103586779Y-147631723D02*
X103634398Y-147726961D01*
X103634398Y-147726961D02*
X103729636Y-147822200D01*
X103729636Y-147822200D02*
X103872493Y-147869819D01*
X103872493Y-147869819D02*
X103967731Y-147869819D01*
X103967731Y-147869819D02*
X104110588Y-147822200D01*
X104110588Y-147822200D02*
X104158207Y-147774580D01*
X104158207Y-147774580D02*
X104158207Y-147441247D01*
X104158207Y-147441247D02*
X103967731Y-147441247D01*
X104586779Y-147869819D02*
X104586779Y-146869819D01*
X104586779Y-146869819D02*
X104967731Y-146869819D01*
X104967731Y-146869819D02*
X105062969Y-146917438D01*
X105062969Y-146917438D02*
X105110588Y-146965057D01*
X105110588Y-146965057D02*
X105158207Y-147060295D01*
X105158207Y-147060295D02*
X105158207Y-147203152D01*
X105158207Y-147203152D02*
X105110588Y-147298390D01*
X105110588Y-147298390D02*
X105062969Y-147346009D01*
X105062969Y-147346009D02*
X104967731Y-147393628D01*
X104967731Y-147393628D02*
X104586779Y-147393628D01*
X105586779Y-147869819D02*
X105586779Y-146869819D01*
X106253445Y-146869819D02*
X106443921Y-146869819D01*
X106443921Y-146869819D02*
X106539159Y-146917438D01*
X106539159Y-146917438D02*
X106634397Y-147012676D01*
X106634397Y-147012676D02*
X106682016Y-147203152D01*
X106682016Y-147203152D02*
X106682016Y-147536485D01*
X106682016Y-147536485D02*
X106634397Y-147726961D01*
X106634397Y-147726961D02*
X106539159Y-147822200D01*
X106539159Y-147822200D02*
X106443921Y-147869819D01*
X106443921Y-147869819D02*
X106253445Y-147869819D01*
X106253445Y-147869819D02*
X106158207Y-147822200D01*
X106158207Y-147822200D02*
X106062969Y-147726961D01*
X106062969Y-147726961D02*
X106015350Y-147536485D01*
X106015350Y-147536485D02*
X106015350Y-147203152D01*
X106015350Y-147203152D02*
X106062969Y-147012676D01*
X106062969Y-147012676D02*
X106158207Y-146917438D01*
X106158207Y-146917438D02*
X106253445Y-146869819D01*
X107777255Y-146869819D02*
X108396302Y-146869819D01*
X108396302Y-146869819D02*
X108062969Y-147250771D01*
X108062969Y-147250771D02*
X108205826Y-147250771D01*
X108205826Y-147250771D02*
X108301064Y-147298390D01*
X108301064Y-147298390D02*
X108348683Y-147346009D01*
X108348683Y-147346009D02*
X108396302Y-147441247D01*
X108396302Y-147441247D02*
X108396302Y-147679342D01*
X108396302Y-147679342D02*
X108348683Y-147774580D01*
X108348683Y-147774580D02*
X108301064Y-147822200D01*
X108301064Y-147822200D02*
X108205826Y-147869819D01*
X108205826Y-147869819D02*
X107920112Y-147869819D01*
X107920112Y-147869819D02*
X107824874Y-147822200D01*
X107824874Y-147822200D02*
X107777255Y-147774580D01*
X109253445Y-147203152D02*
X109253445Y-147869819D01*
X109015350Y-146822200D02*
X108777255Y-147536485D01*
X108777255Y-147536485D02*
X109396302Y-147536485D01*
D11*
X129348609Y-149612782D02*
X129396228Y-149469925D01*
X129396228Y-149469925D02*
X129443847Y-149422306D01*
X129443847Y-149422306D02*
X129539085Y-149374687D01*
X129539085Y-149374687D02*
X129681942Y-149374687D01*
X129681942Y-149374687D02*
X129777180Y-149422306D01*
X129777180Y-149422306D02*
X129824800Y-149469925D01*
X129824800Y-149469925D02*
X129872419Y-149565163D01*
X129872419Y-149565163D02*
X129872419Y-149946115D01*
X129872419Y-149946115D02*
X128872419Y-149946115D01*
X128872419Y-149946115D02*
X128872419Y-149612782D01*
X128872419Y-149612782D02*
X128920038Y-149517544D01*
X128920038Y-149517544D02*
X128967657Y-149469925D01*
X128967657Y-149469925D02*
X129062895Y-149422306D01*
X129062895Y-149422306D02*
X129158133Y-149422306D01*
X129158133Y-149422306D02*
X129253371Y-149469925D01*
X129253371Y-149469925D02*
X129300990Y-149517544D01*
X129300990Y-149517544D02*
X129348609Y-149612782D01*
X129348609Y-149612782D02*
X129348609Y-149946115D01*
X129872419Y-148517544D02*
X129348609Y-148517544D01*
X129348609Y-148517544D02*
X129253371Y-148565163D01*
X129253371Y-148565163D02*
X129205752Y-148660401D01*
X129205752Y-148660401D02*
X129205752Y-148850877D01*
X129205752Y-148850877D02*
X129253371Y-148946115D01*
X129824800Y-148517544D02*
X129872419Y-148612782D01*
X129872419Y-148612782D02*
X129872419Y-148850877D01*
X129872419Y-148850877D02*
X129824800Y-148946115D01*
X129824800Y-148946115D02*
X129729561Y-148993734D01*
X129729561Y-148993734D02*
X129634323Y-148993734D01*
X129634323Y-148993734D02*
X129539085Y-148946115D01*
X129539085Y-148946115D02*
X129491466Y-148850877D01*
X129491466Y-148850877D02*
X129491466Y-148612782D01*
X129491466Y-148612782D02*
X129443847Y-148517544D01*
X129205752Y-148184210D02*
X129205752Y-147803258D01*
X128872419Y-148041353D02*
X129729561Y-148041353D01*
X129729561Y-148041353D02*
X129824800Y-147993734D01*
X129824800Y-147993734D02*
X129872419Y-147898496D01*
X129872419Y-147898496D02*
X129872419Y-147803258D01*
X129205752Y-147612781D02*
X129205752Y-147231829D01*
X128872419Y-147469924D02*
X129729561Y-147469924D01*
X129729561Y-147469924D02*
X129824800Y-147422305D01*
X129824800Y-147422305D02*
X129872419Y-147327067D01*
X129872419Y-147327067D02*
X129872419Y-147231829D01*
X129824800Y-146517543D02*
X129872419Y-146612781D01*
X129872419Y-146612781D02*
X129872419Y-146803257D01*
X129872419Y-146803257D02*
X129824800Y-146898495D01*
X129824800Y-146898495D02*
X129729561Y-146946114D01*
X129729561Y-146946114D02*
X129348609Y-146946114D01*
X129348609Y-146946114D02*
X129253371Y-146898495D01*
X129253371Y-146898495D02*
X129205752Y-146803257D01*
X129205752Y-146803257D02*
X129205752Y-146612781D01*
X129205752Y-146612781D02*
X129253371Y-146517543D01*
X129253371Y-146517543D02*
X129348609Y-146469924D01*
X129348609Y-146469924D02*
X129443847Y-146469924D01*
X129443847Y-146469924D02*
X129539085Y-146946114D01*
X129872419Y-146041352D02*
X129205752Y-146041352D01*
X129396228Y-146041352D02*
X129300990Y-145993733D01*
X129300990Y-145993733D02*
X129253371Y-145946114D01*
X129253371Y-145946114D02*
X129205752Y-145850876D01*
X129205752Y-145850876D02*
X129205752Y-145755638D01*
X129205752Y-145517542D02*
X129872419Y-145279447D01*
X129205752Y-145041352D02*
X129872419Y-145279447D01*
X129872419Y-145279447D02*
X130110514Y-145374685D01*
X130110514Y-145374685D02*
X130158133Y-145422304D01*
X130158133Y-145422304D02*
X130205752Y-145517542D01*
D10*
X121334819Y-147333333D02*
X122049104Y-147333333D01*
X122049104Y-147333333D02*
X122191961Y-147380952D01*
X122191961Y-147380952D02*
X122287200Y-147476190D01*
X122287200Y-147476190D02*
X122334819Y-147619047D01*
X122334819Y-147619047D02*
X122334819Y-147714285D01*
X122334819Y-146333333D02*
X122334819Y-146904761D01*
X122334819Y-146619047D02*
X121334819Y-146619047D01*
X121334819Y-146619047D02*
X121477676Y-146714285D01*
X121477676Y-146714285D02*
X121572914Y-146809523D01*
X121572914Y-146809523D02*
X121620533Y-146904761D01*
D11*
X140714285Y-79433609D02*
X140857142Y-79481228D01*
X140857142Y-79481228D02*
X140904761Y-79528847D01*
X140904761Y-79528847D02*
X140952380Y-79624085D01*
X140952380Y-79624085D02*
X140952380Y-79766942D01*
X140952380Y-79766942D02*
X140904761Y-79862180D01*
X140904761Y-79862180D02*
X140857142Y-79909800D01*
X140857142Y-79909800D02*
X140761904Y-79957419D01*
X140761904Y-79957419D02*
X140380952Y-79957419D01*
X140380952Y-79957419D02*
X140380952Y-78957419D01*
X140380952Y-78957419D02*
X140714285Y-78957419D01*
X140714285Y-78957419D02*
X140809523Y-79005038D01*
X140809523Y-79005038D02*
X140857142Y-79052657D01*
X140857142Y-79052657D02*
X140904761Y-79147895D01*
X140904761Y-79147895D02*
X140904761Y-79243133D01*
X140904761Y-79243133D02*
X140857142Y-79338371D01*
X140857142Y-79338371D02*
X140809523Y-79385990D01*
X140809523Y-79385990D02*
X140714285Y-79433609D01*
X140714285Y-79433609D02*
X140380952Y-79433609D01*
X141238095Y-78957419D02*
X141809523Y-78957419D01*
X141523809Y-79957419D02*
X141523809Y-78957419D01*
X142666666Y-79957419D02*
X142095238Y-79957419D01*
X142380952Y-79957419D02*
X142380952Y-78957419D01*
X142380952Y-78957419D02*
X142285714Y-79100276D01*
X142285714Y-79100276D02*
X142190476Y-79195514D01*
X142190476Y-79195514D02*
X142095238Y-79243133D01*
X102488095Y-75957419D02*
X102488095Y-76766942D01*
X102488095Y-76766942D02*
X102535714Y-76862180D01*
X102535714Y-76862180D02*
X102583333Y-76909800D01*
X102583333Y-76909800D02*
X102678571Y-76957419D01*
X102678571Y-76957419D02*
X102869047Y-76957419D01*
X102869047Y-76957419D02*
X102964285Y-76909800D01*
X102964285Y-76909800D02*
X103011904Y-76862180D01*
X103011904Y-76862180D02*
X103059523Y-76766942D01*
X103059523Y-76766942D02*
X103059523Y-75957419D01*
X104059523Y-76957419D02*
X103488095Y-76957419D01*
X103773809Y-76957419D02*
X103773809Y-75957419D01*
X103773809Y-75957419D02*
X103678571Y-76100276D01*
X103678571Y-76100276D02*
X103583333Y-76195514D01*
X103583333Y-76195514D02*
X103488095Y-76243133D01*
X115601515Y-123887780D02*
X115601515Y-123078257D01*
X115601515Y-123078257D02*
X115553896Y-122983019D01*
X115553896Y-122983019D02*
X115506277Y-122935400D01*
X115506277Y-122935400D02*
X115411039Y-122887780D01*
X115411039Y-122887780D02*
X115220563Y-122887780D01*
X115220563Y-122887780D02*
X115125325Y-122935400D01*
X115125325Y-122935400D02*
X115077706Y-122983019D01*
X115077706Y-122983019D02*
X115030087Y-123078257D01*
X115030087Y-123078257D02*
X115030087Y-123887780D01*
X114601515Y-122935400D02*
X114458658Y-122887780D01*
X114458658Y-122887780D02*
X114220563Y-122887780D01*
X114220563Y-122887780D02*
X114125325Y-122935400D01*
X114125325Y-122935400D02*
X114077706Y-122983019D01*
X114077706Y-122983019D02*
X114030087Y-123078257D01*
X114030087Y-123078257D02*
X114030087Y-123173495D01*
X114030087Y-123173495D02*
X114077706Y-123268733D01*
X114077706Y-123268733D02*
X114125325Y-123316352D01*
X114125325Y-123316352D02*
X114220563Y-123363971D01*
X114220563Y-123363971D02*
X114411039Y-123411590D01*
X114411039Y-123411590D02*
X114506277Y-123459209D01*
X114506277Y-123459209D02*
X114553896Y-123506828D01*
X114553896Y-123506828D02*
X114601515Y-123602066D01*
X114601515Y-123602066D02*
X114601515Y-123697304D01*
X114601515Y-123697304D02*
X114553896Y-123792542D01*
X114553896Y-123792542D02*
X114506277Y-123840161D01*
X114506277Y-123840161D02*
X114411039Y-123887780D01*
X114411039Y-123887780D02*
X114172944Y-123887780D01*
X114172944Y-123887780D02*
X114030087Y-123840161D01*
X113268182Y-123411590D02*
X113125325Y-123363971D01*
X113125325Y-123363971D02*
X113077706Y-123316352D01*
X113077706Y-123316352D02*
X113030087Y-123221114D01*
X113030087Y-123221114D02*
X113030087Y-123078257D01*
X113030087Y-123078257D02*
X113077706Y-122983019D01*
X113077706Y-122983019D02*
X113125325Y-122935400D01*
X113125325Y-122935400D02*
X113220563Y-122887780D01*
X113220563Y-122887780D02*
X113601515Y-122887780D01*
X113601515Y-122887780D02*
X113601515Y-123887780D01*
X113601515Y-123887780D02*
X113268182Y-123887780D01*
X113268182Y-123887780D02*
X113172944Y-123840161D01*
X113172944Y-123840161D02*
X113125325Y-123792542D01*
X113125325Y-123792542D02*
X113077706Y-123697304D01*
X113077706Y-123697304D02*
X113077706Y-123602066D01*
X113077706Y-123602066D02*
X113125325Y-123506828D01*
X113125325Y-123506828D02*
X113172944Y-123459209D01*
X113172944Y-123459209D02*
X113268182Y-123411590D01*
X113268182Y-123411590D02*
X113601515Y-123411590D01*
X121991487Y-118760980D02*
X122324820Y-119237171D01*
X122562915Y-118760980D02*
X122562915Y-119760980D01*
X122562915Y-119760980D02*
X122181963Y-119760980D01*
X122181963Y-119760980D02*
X122086725Y-119713361D01*
X122086725Y-119713361D02*
X122039106Y-119665742D01*
X122039106Y-119665742D02*
X121991487Y-119570504D01*
X121991487Y-119570504D02*
X121991487Y-119427647D01*
X121991487Y-119427647D02*
X122039106Y-119332409D01*
X122039106Y-119332409D02*
X122086725Y-119284790D01*
X122086725Y-119284790D02*
X122181963Y-119237171D01*
X122181963Y-119237171D02*
X122562915Y-119237171D01*
X121610534Y-118808600D02*
X121467677Y-118760980D01*
X121467677Y-118760980D02*
X121229582Y-118760980D01*
X121229582Y-118760980D02*
X121134344Y-118808600D01*
X121134344Y-118808600D02*
X121086725Y-118856219D01*
X121086725Y-118856219D02*
X121039106Y-118951457D01*
X121039106Y-118951457D02*
X121039106Y-119046695D01*
X121039106Y-119046695D02*
X121086725Y-119141933D01*
X121086725Y-119141933D02*
X121134344Y-119189552D01*
X121134344Y-119189552D02*
X121229582Y-119237171D01*
X121229582Y-119237171D02*
X121420058Y-119284790D01*
X121420058Y-119284790D02*
X121515296Y-119332409D01*
X121515296Y-119332409D02*
X121562915Y-119380028D01*
X121562915Y-119380028D02*
X121610534Y-119475266D01*
X121610534Y-119475266D02*
X121610534Y-119570504D01*
X121610534Y-119570504D02*
X121562915Y-119665742D01*
X121562915Y-119665742D02*
X121515296Y-119713361D01*
X121515296Y-119713361D02*
X121420058Y-119760980D01*
X121420058Y-119760980D02*
X121181963Y-119760980D01*
X121181963Y-119760980D02*
X121039106Y-119713361D01*
X120753391Y-119760980D02*
X120181963Y-119760980D01*
X120467677Y-118760980D02*
X120467677Y-119760980D01*
X107881715Y-118659380D02*
X107881715Y-119659380D01*
X107881715Y-119659380D02*
X107500763Y-119659380D01*
X107500763Y-119659380D02*
X107405525Y-119611761D01*
X107405525Y-119611761D02*
X107357906Y-119564142D01*
X107357906Y-119564142D02*
X107310287Y-119468904D01*
X107310287Y-119468904D02*
X107310287Y-119326047D01*
X107310287Y-119326047D02*
X107357906Y-119230809D01*
X107357906Y-119230809D02*
X107405525Y-119183190D01*
X107405525Y-119183190D02*
X107500763Y-119135571D01*
X107500763Y-119135571D02*
X107881715Y-119135571D01*
X106310287Y-118659380D02*
X106643620Y-119135571D01*
X106881715Y-118659380D02*
X106881715Y-119659380D01*
X106881715Y-119659380D02*
X106500763Y-119659380D01*
X106500763Y-119659380D02*
X106405525Y-119611761D01*
X106405525Y-119611761D02*
X106357906Y-119564142D01*
X106357906Y-119564142D02*
X106310287Y-119468904D01*
X106310287Y-119468904D02*
X106310287Y-119326047D01*
X106310287Y-119326047D02*
X106357906Y-119230809D01*
X106357906Y-119230809D02*
X106405525Y-119183190D01*
X106405525Y-119183190D02*
X106500763Y-119135571D01*
X106500763Y-119135571D02*
X106881715Y-119135571D01*
X105357906Y-119611761D02*
X105453144Y-119659380D01*
X105453144Y-119659380D02*
X105596001Y-119659380D01*
X105596001Y-119659380D02*
X105738858Y-119611761D01*
X105738858Y-119611761D02*
X105834096Y-119516523D01*
X105834096Y-119516523D02*
X105881715Y-119421285D01*
X105881715Y-119421285D02*
X105929334Y-119230809D01*
X105929334Y-119230809D02*
X105929334Y-119087952D01*
X105929334Y-119087952D02*
X105881715Y-118897476D01*
X105881715Y-118897476D02*
X105834096Y-118802238D01*
X105834096Y-118802238D02*
X105738858Y-118707000D01*
X105738858Y-118707000D02*
X105596001Y-118659380D01*
X105596001Y-118659380D02*
X105500763Y-118659380D01*
X105500763Y-118659380D02*
X105357906Y-118707000D01*
X105357906Y-118707000D02*
X105310287Y-118754619D01*
X105310287Y-118754619D02*
X105310287Y-119087952D01*
X105310287Y-119087952D02*
X105500763Y-119087952D01*
X115411039Y-97187780D02*
X115220563Y-97187780D01*
X115220563Y-97187780D02*
X115125325Y-97140161D01*
X115125325Y-97140161D02*
X115030087Y-97044923D01*
X115030087Y-97044923D02*
X114982468Y-96854447D01*
X114982468Y-96854447D02*
X114982468Y-96521114D01*
X114982468Y-96521114D02*
X115030087Y-96330638D01*
X115030087Y-96330638D02*
X115125325Y-96235400D01*
X115125325Y-96235400D02*
X115220563Y-96187780D01*
X115220563Y-96187780D02*
X115411039Y-96187780D01*
X115411039Y-96187780D02*
X115506277Y-96235400D01*
X115506277Y-96235400D02*
X115601515Y-96330638D01*
X115601515Y-96330638D02*
X115649134Y-96521114D01*
X115649134Y-96521114D02*
X115649134Y-96854447D01*
X115649134Y-96854447D02*
X115601515Y-97044923D01*
X115601515Y-97044923D02*
X115506277Y-97140161D01*
X115506277Y-97140161D02*
X115411039Y-97187780D01*
X114077706Y-96187780D02*
X114553896Y-96187780D01*
X114553896Y-96187780D02*
X114553896Y-97187780D01*
X113744372Y-96711590D02*
X113411039Y-96711590D01*
X113268182Y-96187780D02*
X113744372Y-96187780D01*
X113744372Y-96187780D02*
X113744372Y-97187780D01*
X113744372Y-97187780D02*
X113268182Y-97187780D01*
X112839610Y-96187780D02*
X112839610Y-97187780D01*
X112839610Y-97187780D02*
X112601515Y-97187780D01*
X112601515Y-97187780D02*
X112458658Y-97140161D01*
X112458658Y-97140161D02*
X112363420Y-97044923D01*
X112363420Y-97044923D02*
X112315801Y-96949685D01*
X112315801Y-96949685D02*
X112268182Y-96759209D01*
X112268182Y-96759209D02*
X112268182Y-96616352D01*
X112268182Y-96616352D02*
X112315801Y-96425876D01*
X112315801Y-96425876D02*
X112363420Y-96330638D01*
X112363420Y-96330638D02*
X112458658Y-96235400D01*
X112458658Y-96235400D02*
X112601515Y-96187780D01*
X112601515Y-96187780D02*
X112839610Y-96187780D01*
X112475934Y-76908095D02*
X111999744Y-76908095D01*
X112571172Y-76622380D02*
X112237839Y-77622380D01*
X112237839Y-77622380D02*
X111904506Y-76622380D01*
X111571172Y-76622380D02*
X111571172Y-77622380D01*
X111571172Y-77622380D02*
X110999744Y-76622380D01*
X110999744Y-76622380D02*
X110999744Y-77622380D01*
X110666410Y-77622380D02*
X110094982Y-77622380D01*
X110380696Y-76622380D02*
X110380696Y-77622380D01*
D10*
X140954819Y-75833333D02*
X141669104Y-75833333D01*
X141669104Y-75833333D02*
X141811961Y-75880952D01*
X141811961Y-75880952D02*
X141907200Y-75976190D01*
X141907200Y-75976190D02*
X141954819Y-76119047D01*
X141954819Y-76119047D02*
X141954819Y-76214285D01*
X140954819Y-75452380D02*
X140954819Y-74833333D01*
X140954819Y-74833333D02*
X141335771Y-75166666D01*
X141335771Y-75166666D02*
X141335771Y-75023809D01*
X141335771Y-75023809D02*
X141383390Y-74928571D01*
X141383390Y-74928571D02*
X141431009Y-74880952D01*
X141431009Y-74880952D02*
X141526247Y-74833333D01*
X141526247Y-74833333D02*
X141764342Y-74833333D01*
X141764342Y-74833333D02*
X141859580Y-74880952D01*
X141859580Y-74880952D02*
X141907200Y-74928571D01*
X141907200Y-74928571D02*
X141954819Y-75023809D01*
X141954819Y-75023809D02*
X141954819Y-75309523D01*
X141954819Y-75309523D02*
X141907200Y-75404761D01*
X141907200Y-75404761D02*
X141859580Y-75452380D01*
X112661666Y-144324817D02*
X112661666Y-145039102D01*
X112661666Y-145039102D02*
X112614047Y-145181959D01*
X112614047Y-145181959D02*
X112518809Y-145277198D01*
X112518809Y-145277198D02*
X112375952Y-145324817D01*
X112375952Y-145324817D02*
X112280714Y-145324817D01*
X113090238Y-144420055D02*
X113137857Y-144372436D01*
X113137857Y-144372436D02*
X113233095Y-144324817D01*
X113233095Y-144324817D02*
X113471190Y-144324817D01*
X113471190Y-144324817D02*
X113566428Y-144372436D01*
X113566428Y-144372436D02*
X113614047Y-144420055D01*
X113614047Y-144420055D02*
X113661666Y-144515293D01*
X113661666Y-144515293D02*
X113661666Y-144610531D01*
X113661666Y-144610531D02*
X113614047Y-144753388D01*
X113614047Y-144753388D02*
X113042619Y-145324817D01*
X113042619Y-145324817D02*
X113661666Y-145324817D01*
X109828333Y-157081007D02*
X110161666Y-157081007D01*
X110304523Y-157604817D02*
X109828333Y-157604817D01*
X109828333Y-157604817D02*
X109828333Y-156604817D01*
X109828333Y-156604817D02*
X110304523Y-156604817D01*
X110637857Y-157604817D02*
X111161666Y-156938150D01*
X110637857Y-156938150D02*
X111161666Y-157604817D01*
X111399762Y-156938150D02*
X111780714Y-156938150D01*
X111542619Y-156604817D02*
X111542619Y-157461959D01*
X111542619Y-157461959D02*
X111590238Y-157557198D01*
X111590238Y-157557198D02*
X111685476Y-157604817D01*
X111685476Y-157604817D02*
X111780714Y-157604817D01*
X112114048Y-157509578D02*
X112161667Y-157557198D01*
X112161667Y-157557198D02*
X112114048Y-157604817D01*
X112114048Y-157604817D02*
X112066429Y-157557198D01*
X112066429Y-157557198D02*
X112114048Y-157509578D01*
X112114048Y-157509578D02*
X112114048Y-157604817D01*
X113923571Y-157509578D02*
X113875952Y-157557198D01*
X113875952Y-157557198D02*
X113733095Y-157604817D01*
X113733095Y-157604817D02*
X113637857Y-157604817D01*
X113637857Y-157604817D02*
X113495000Y-157557198D01*
X113495000Y-157557198D02*
X113399762Y-157461959D01*
X113399762Y-157461959D02*
X113352143Y-157366721D01*
X113352143Y-157366721D02*
X113304524Y-157176245D01*
X113304524Y-157176245D02*
X113304524Y-157033388D01*
X113304524Y-157033388D02*
X113352143Y-156842912D01*
X113352143Y-156842912D02*
X113399762Y-156747674D01*
X113399762Y-156747674D02*
X113495000Y-156652436D01*
X113495000Y-156652436D02*
X113637857Y-156604817D01*
X113637857Y-156604817D02*
X113733095Y-156604817D01*
X113733095Y-156604817D02*
X113875952Y-156652436D01*
X113875952Y-156652436D02*
X113923571Y-156700055D01*
X114495000Y-157604817D02*
X114399762Y-157557198D01*
X114399762Y-157557198D02*
X114352143Y-157509578D01*
X114352143Y-157509578D02*
X114304524Y-157414340D01*
X114304524Y-157414340D02*
X114304524Y-157128626D01*
X114304524Y-157128626D02*
X114352143Y-157033388D01*
X114352143Y-157033388D02*
X114399762Y-156985769D01*
X114399762Y-156985769D02*
X114495000Y-156938150D01*
X114495000Y-156938150D02*
X114637857Y-156938150D01*
X114637857Y-156938150D02*
X114733095Y-156985769D01*
X114733095Y-156985769D02*
X114780714Y-157033388D01*
X114780714Y-157033388D02*
X114828333Y-157128626D01*
X114828333Y-157128626D02*
X114828333Y-157414340D01*
X114828333Y-157414340D02*
X114780714Y-157509578D01*
X114780714Y-157509578D02*
X114733095Y-157557198D01*
X114733095Y-157557198D02*
X114637857Y-157604817D01*
X114637857Y-157604817D02*
X114495000Y-157604817D01*
X115256905Y-156938150D02*
X115256905Y-157604817D01*
X115256905Y-157033388D02*
X115304524Y-156985769D01*
X115304524Y-156985769D02*
X115399762Y-156938150D01*
X115399762Y-156938150D02*
X115542619Y-156938150D01*
X115542619Y-156938150D02*
X115637857Y-156985769D01*
X115637857Y-156985769D02*
X115685476Y-157081007D01*
X115685476Y-157081007D02*
X115685476Y-157604817D01*
X116161667Y-157509578D02*
X116209286Y-157557198D01*
X116209286Y-157557198D02*
X116161667Y-157604817D01*
X116161667Y-157604817D02*
X116114048Y-157557198D01*
X116114048Y-157557198D02*
X116161667Y-157509578D01*
X116161667Y-157509578D02*
X116161667Y-157604817D01*
X126778095Y-75704819D02*
X126778095Y-76514342D01*
X126778095Y-76514342D02*
X126825714Y-76609580D01*
X126825714Y-76609580D02*
X126873333Y-76657200D01*
X126873333Y-76657200D02*
X126968571Y-76704819D01*
X126968571Y-76704819D02*
X127159047Y-76704819D01*
X127159047Y-76704819D02*
X127254285Y-76657200D01*
X127254285Y-76657200D02*
X127301904Y-76609580D01*
X127301904Y-76609580D02*
X127349523Y-76514342D01*
X127349523Y-76514342D02*
X127349523Y-75704819D01*
X127778095Y-75800057D02*
X127825714Y-75752438D01*
X127825714Y-75752438D02*
X127920952Y-75704819D01*
X127920952Y-75704819D02*
X128159047Y-75704819D01*
X128159047Y-75704819D02*
X128254285Y-75752438D01*
X128254285Y-75752438D02*
X128301904Y-75800057D01*
X128301904Y-75800057D02*
X128349523Y-75895295D01*
X128349523Y-75895295D02*
X128349523Y-75990533D01*
X128349523Y-75990533D02*
X128301904Y-76133390D01*
X128301904Y-76133390D02*
X127730476Y-76704819D01*
X127730476Y-76704819D02*
X128349523Y-76704819D01*
D11*
X128202719Y-135511904D02*
X129012242Y-135511904D01*
X129012242Y-135511904D02*
X129107480Y-135464285D01*
X129107480Y-135464285D02*
X129155100Y-135416666D01*
X129155100Y-135416666D02*
X129202719Y-135321428D01*
X129202719Y-135321428D02*
X129202719Y-135130952D01*
X129202719Y-135130952D02*
X129155100Y-135035714D01*
X129155100Y-135035714D02*
X129107480Y-134988095D01*
X129107480Y-134988095D02*
X129012242Y-134940476D01*
X129012242Y-134940476D02*
X128202719Y-134940476D01*
X128536052Y-134035714D02*
X129202719Y-134035714D01*
X128155100Y-134273809D02*
X128869385Y-134511904D01*
X128869385Y-134511904D02*
X128869385Y-133892857D01*
X103637719Y-136612115D02*
X104447242Y-136612115D01*
X104447242Y-136612115D02*
X104542480Y-136564496D01*
X104542480Y-136564496D02*
X104590100Y-136516877D01*
X104590100Y-136516877D02*
X104637719Y-136421639D01*
X104637719Y-136421639D02*
X104637719Y-136231163D01*
X104637719Y-136231163D02*
X104590100Y-136135925D01*
X104590100Y-136135925D02*
X104542480Y-136088306D01*
X104542480Y-136088306D02*
X104447242Y-136040687D01*
X104447242Y-136040687D02*
X103637719Y-136040687D01*
X104590100Y-135612115D02*
X104637719Y-135469258D01*
X104637719Y-135469258D02*
X104637719Y-135231163D01*
X104637719Y-135231163D02*
X104590100Y-135135925D01*
X104590100Y-135135925D02*
X104542480Y-135088306D01*
X104542480Y-135088306D02*
X104447242Y-135040687D01*
X104447242Y-135040687D02*
X104352004Y-135040687D01*
X104352004Y-135040687D02*
X104256766Y-135088306D01*
X104256766Y-135088306D02*
X104209147Y-135135925D01*
X104209147Y-135135925D02*
X104161528Y-135231163D01*
X104161528Y-135231163D02*
X104113909Y-135421639D01*
X104113909Y-135421639D02*
X104066290Y-135516877D01*
X104066290Y-135516877D02*
X104018671Y-135564496D01*
X104018671Y-135564496D02*
X103923433Y-135612115D01*
X103923433Y-135612115D02*
X103828195Y-135612115D01*
X103828195Y-135612115D02*
X103732957Y-135564496D01*
X103732957Y-135564496D02*
X103685338Y-135516877D01*
X103685338Y-135516877D02*
X103637719Y-135421639D01*
X103637719Y-135421639D02*
X103637719Y-135183544D01*
X103637719Y-135183544D02*
X103685338Y-135040687D01*
X104113909Y-134278782D02*
X104161528Y-134135925D01*
X104161528Y-134135925D02*
X104209147Y-134088306D01*
X104209147Y-134088306D02*
X104304385Y-134040687D01*
X104304385Y-134040687D02*
X104447242Y-134040687D01*
X104447242Y-134040687D02*
X104542480Y-134088306D01*
X104542480Y-134088306D02*
X104590100Y-134135925D01*
X104590100Y-134135925D02*
X104637719Y-134231163D01*
X104637719Y-134231163D02*
X104637719Y-134612115D01*
X104637719Y-134612115D02*
X103637719Y-134612115D01*
X103637719Y-134612115D02*
X103637719Y-134278782D01*
X103637719Y-134278782D02*
X103685338Y-134183544D01*
X103685338Y-134183544D02*
X103732957Y-134135925D01*
X103732957Y-134135925D02*
X103828195Y-134088306D01*
X103828195Y-134088306D02*
X103923433Y-134088306D01*
X103923433Y-134088306D02*
X104018671Y-134135925D01*
X104018671Y-134135925D02*
X104066290Y-134183544D01*
X104066290Y-134183544D02*
X104113909Y-134278782D01*
X104113909Y-134278782D02*
X104113909Y-134612115D01*
D14*
%TO.C,J1*%
X122880000Y-148330000D02*
X122880000Y-147000000D01*
X124210000Y-148330000D02*
X122880000Y-148330000D01*
X125480000Y-145670000D02*
X128080000Y-145670000D01*
X125480000Y-148330000D02*
X125480000Y-145670000D01*
X125480000Y-148330000D02*
X128080000Y-148330000D01*
X128080000Y-148330000D02*
X128080000Y-145670000D01*
%TO.C,BT1*%
D11*
X131000000Y-81000000D02*
X152000000Y-81000000D01*
X152000000Y-157000000D01*
X131000000Y-157000000D01*
X131000000Y-81000000D01*
X143000000Y-119000000D02*
G75*
G02*
X140000000Y-119000000I-1500000J0D01*
G01*
X140000000Y-119000000D02*
G75*
G02*
X143000000Y-119000000I1500000J0D01*
G01*
%TO.C,U1*%
X101405400Y-79060200D02*
X105405400Y-79060200D01*
X101405400Y-123760200D02*
X101405400Y-79060200D01*
X101405400Y-123760200D02*
X102905400Y-125260200D01*
X105405400Y-79060200D02*
X108405400Y-75060200D01*
X119905400Y-75060200D02*
X108405400Y-75060200D01*
X122905400Y-79060200D02*
X119905400Y-75060200D01*
X125405400Y-125260200D02*
X102905400Y-125260200D01*
X126905400Y-79060200D02*
X122905400Y-79060200D01*
X126905400Y-79060200D02*
X126905400Y-123760200D01*
X126905400Y-123760200D02*
X125405400Y-125260200D01*
X107906200Y-124653200D02*
X105544000Y-124653200D01*
X105544000Y-120309800D01*
X107906200Y-120309800D01*
X107906200Y-124653200D01*
X116905400Y-125260200D02*
X111405400Y-125260200D01*
X111405400Y-121260200D01*
X116905400Y-121260200D01*
X116905400Y-125260200D01*
X122663600Y-124577000D02*
X120301400Y-124577000D01*
X120301400Y-120233600D01*
X122663600Y-120233600D01*
X122663600Y-124577000D01*
X123405400Y-112060200D02*
X104905400Y-112060200D01*
X104905400Y-79060200D01*
X123405400Y-79060200D01*
X123405400Y-112060200D01*
X107380877Y-122570400D02*
G75*
G02*
X106094723Y-122570400I-643077J0D01*
G01*
X106094723Y-122570400D02*
G75*
G02*
X107380877Y-122570400I643077J0D01*
G01*
X114633107Y-77053600D02*
G75*
G02*
X113218893Y-77053600I-707107J0D01*
G01*
X113218893Y-77053600D02*
G75*
G02*
X114633107Y-77053600I707107J0D01*
G01*
X122138277Y-122494200D02*
G75*
G02*
X120852123Y-122494200I-643077J0D01*
G01*
X120852123Y-122494200D02*
G75*
G02*
X122138277Y-122494200I643077J0D01*
G01*
D14*
%TO.C,J3*%
X142880000Y-76830000D02*
X142880000Y-75500000D01*
X144210000Y-76830000D02*
X142880000Y-76830000D01*
X145480000Y-74170000D02*
X148080000Y-74170000D01*
X145480000Y-76830000D02*
X145480000Y-74170000D01*
X145480000Y-76830000D02*
X148080000Y-76830000D01*
X148080000Y-76830000D02*
X148080000Y-74170000D01*
%TO.C,J2*%
X110395000Y-145869998D02*
X111725000Y-145869998D01*
X110395000Y-147199998D02*
X110395000Y-145869998D01*
X110395000Y-148469998D02*
X110395000Y-156149998D01*
X110395000Y-148469998D02*
X112995000Y-148469998D01*
X110395000Y-156149998D02*
X115595000Y-156149998D01*
X112995000Y-145869998D02*
X115595000Y-145869998D01*
X112995000Y-148469998D02*
X112995000Y-145869998D01*
X115595000Y-145869998D02*
X115595000Y-156149998D01*
%TO.C,U2*%
X123130000Y-71670000D02*
X124460000Y-71670000D01*
X123130000Y-73000000D02*
X123130000Y-71670000D01*
X125730000Y-71670000D02*
X138490000Y-71670000D01*
X125730000Y-74330000D02*
X125730000Y-71670000D01*
X125730000Y-74330000D02*
X138490000Y-74330000D01*
X138490000Y-74330000D02*
X138490000Y-71670000D01*
D11*
X122660000Y-74500000D02*
X138660000Y-74500000D01*
X138660000Y-62500000D01*
X122660000Y-62500000D01*
X122660000Y-74500000D01*
%TO.C,U4*%
X101395300Y-126550000D02*
X101395300Y-128550000D01*
X101395300Y-128550000D02*
X102195300Y-128550000D01*
X101395300Y-141950000D02*
X101395300Y-143950000D01*
X101395300Y-143950000D02*
X129395300Y-143950000D01*
X102195300Y-128550000D02*
X102195300Y-141950000D01*
X102195300Y-141950000D02*
X101395300Y-141950000D01*
X103495300Y-128534000D02*
X103495300Y-128534000D01*
X127395300Y-128550000D02*
X129395300Y-128550000D01*
X127395300Y-141950000D02*
X127395300Y-128550000D01*
X129395300Y-126550000D02*
X101395300Y-126550000D01*
X129395300Y-128550000D02*
X129395300Y-126550000D01*
X129395300Y-141950000D02*
X127395300Y-141950000D01*
X129395300Y-143950000D02*
X129395300Y-141950000D01*
X100404700Y-139822000D02*
X106500700Y-139822000D01*
X106500700Y-130678000D01*
X100404700Y-130678000D01*
X100404700Y-139822000D01*
%TD*%
M02*
