M48
; DRILL file {KiCad 8.0.8} date 2025-07-13T10:03:45+0200
; FORMAT={-:-/ absolute / inch / decimal}
; #@! TF.CreationDate,2025-07-13T10:03:45+02:00
; #@! TF.GenerationSoftware,Kicad,Pcbnew,8.0.8
; #@! TF.FileFunction,Plated,1,2,PTH
FMAT,2
INCH
; #@! TA.AperFunction,Plated,PTH,ViaDrill
T1C0.0118
; #@! TA.AperFunction,Plated,PTH,ComponentDrill
T2C0.0300
; #@! TA.AperFunction,Plated,PTH,ComponentDrill
T3C0.0394
%
G90
G05
T1
X4.1792Y-3.9823
X4.252Y-4.6063
X4.3209Y-4.0748
X4.5276Y-3.7205
X4.5768Y-4.4685
X4.685Y-4.8524
X4.7441Y-3.6811
X4.7835Y-5.3051
X5.0Y-3.0512
X5.0394Y-2.9626
T2
X4.0453Y-3.1496
X4.0453Y-3.2496
X4.0453Y-3.3496
X4.0453Y-3.4496
X4.0453Y-3.5496
X4.0453Y-3.6496
X4.0453Y-3.7496
X4.0453Y-3.8496
X4.0453Y-3.9496
X4.0453Y-4.0496
X4.0453Y-4.1496
X4.0453Y-4.2496
X4.0453Y-4.3496
X4.0453Y-4.4496
X4.0453Y-4.5496
X4.0453Y-4.6496
X4.0453Y-4.7496
X4.0453Y-4.8496
X4.0746Y-5.0492
X4.0746Y-5.6004
X4.9453Y-3.1496
X4.9453Y-3.2496
X4.9453Y-3.3496
X4.9453Y-3.4496
X4.9453Y-3.5496
X4.9453Y-3.6496
X4.9453Y-3.7496
X4.9453Y-3.8496
X4.9453Y-3.9496
X4.9453Y-4.0496
X4.9453Y-4.1496
X4.9453Y-4.2496
X4.9453Y-4.3496
X4.9453Y-4.4496
X4.9453Y-4.5496
X4.9453Y-4.6496
X4.9453Y-4.7496
X4.9453Y-4.8496
X4.9604Y-5.0492
X4.9604Y-5.1673
X4.9604Y-5.4823
X4.9604Y-5.6004
T3
X4.3986Y-5.7953
X4.3986Y-5.8953
X4.3986Y-5.9953
X4.3986Y-6.0953
X4.4986Y-5.7953
X4.4986Y-5.8953
X4.4986Y-5.9953
X4.4986Y-6.0953
X4.8902Y-5.7874
X4.9Y-2.874
X4.9902Y-5.7874
X5.0Y-2.874
X5.1Y-2.874
X5.2Y-2.874
X5.3Y-2.874
X5.4Y-2.874
X5.6776Y-2.9724
X5.7776Y-2.9724
M30
